<?xml version="1.0" standalone="no"?>
<!DOCTYPE svg PUBLIC "-//W3C//DTD SVG 1.1//EN" "http://www.w3.org/Graphics/SVG/1.1/DTD/svg11.dtd" >
<svg>
<metadata>
Created by FontForge 20090914 at Wed Mar 27 14:49:25 2013
 By www-data
2009 Mitja Miklavcic published by FSI FontShop International GmbH
</metadata>
<defs>
<font id="Sgwnfgpqvgvqqznzkxzzzvbnzsn" horiz-adv-x="570" >
  <font-face 
    font-family="Sgwnfgpqvgvqqznzkxzzzvbnzsn"
    font-weight="400"
    font-stretch="normal"
    units-per-em="1000"
    panose-1="2 1 5 4 3 1 1 2 1 2"
    ascent="767"
    descent="-233"
    x-height="474.999"
    cap-height="694"
    bbox="-34 -268.999 989.005 914"
    underline-thickness="70"
    underline-position="-130"
    unicode-range="U+0020-U+2122"
  />
<missing-glyph horiz-adv-x="364" 
d="M33 0v666h265v-666h-265zM66 33h199v600h-199v-600z" />
    <glyph glyph-name=".notdef" horiz-adv-x="364" 
d="M33 0v666h265v-666h-265zM66 33h199v600h-199v-600z" />
    <glyph glyph-name="space" unicode=" " horiz-adv-x="205" 
 />
    <glyph glyph-name="exclam" unicode="!" horiz-adv-x="322" 
d="M196 210c-8 -2 -18.666 -2.99902 -31.999 -2.99902c-6 0 -12 0.166992 -18 0.5s-11 1.16602 -15 2.49902l-29 476c9.33301 3.33301 21.333 6 36 8s29.667 3 45 3h16c5.33301 0 10.666 -0.666992 15.999 -2zM162.001 118.001c19.333 0 34.833 -5.49902 46.5 -16.499
s17.5 -26.5 17.5 -46.5c0 -21.333 -5.83301 -37.833 -17.5 -49.5s-27.167 -17.5 -46.5 -17.5c-43.333 0 -65 22.333 -65 67c0 19.333 6.16699 34.666 18.5 45.999s27.833 17 46.5 17z" />
    <glyph glyph-name="quotedbl" unicode="&#x22;" 
d="M150 486c-9.33301 0 -19.6689 0.666016 -31.002 1.99902s-21 3 -29 5c1.33301 16 2.5 33.333 3.5 52s1.83301 37.334 2.5 56.001s1.16699 37 1.5 55s0.5 34.667 0.5 50c11.333 0 26 -0.833008 44 -2.5s32.667 -4.16699 44 -7.5c0 -13.333 -1.16699 -29.333 -3.5 -48
s-5.16602 -37.834 -8.49902 -57.501s-7.16602 -38.667 -11.499 -57s-8.5 -34.166 -12.5 -47.499zM321.997 485.999c-9.33301 0 -19.6689 0.666016 -31.002 1.99902s-21 3 -29 5c1.33301 16 2.5 33.333 3.5 52s1.83301 37.334 2.5 56.001s1.16699 37 1.5 55
s0.5 34.667 0.5 50c11.333 0 26 -0.833008 44 -2.5s32.667 -4.16699 44 -7.5c0 -13.333 -1.16699 -29.333 -3.5 -48s-5.16602 -37.834 -8.49902 -57.501s-7.16602 -38.667 -11.499 -57s-8.5 -34.166 -12.5 -47.499z" />
    <glyph glyph-name="numbersign" unicode="#" 
d="M391 206l-31 -205.006c-3.33301 -0.666992 -9.83301 -1.16699 -19.5 -1.5s-17.834 -0.5 -24.501 -0.5c-4 0 -9.16699 0.166992 -15.5 0.5s-11.166 0.833008 -14.499 1.5l32 205h-114l-31 -205c-3.33301 -0.666992 -9.83301 -1.16699 -19.5 -1.5
s-17.834 -0.5 -24.501 -0.5c-4 0 -9.16699 0.166992 -15.5 0.5s-11.166 0.833008 -14.499 1.5l32 205h-96c0 7.33301 1 16.333 3 27s4.33301 19.334 7 26.001h96l26 166h-100c0 7.33301 1 16.333 3 27s4.33301 19.334 7 26.001h100l31 187c8.66699 2 19.667 3.66699 33 5
s25.333 2 36 2l-30 -194h117l31 187c8.66699 2 19.667 3.66699 33 5s25.333 2 36 2l-30 -194h97c1.33301 -7.33301 1.5 -16.166 0.5 -26.499s-2.16699 -19.166 -3.5 -26.499h-104l-24 -166h99c1.33301 -7.33301 1.5 -16.166 0.5 -26.499s-2.16699 -19.166 -3.5 -26.499h-105
zM213 258.994h115l26 166h-117z" />
    <glyph glyph-name="dollar" unicode="$" 
d="M390 606c-11.333 6.66699 -24.332 12.002 -38.999 16.002s-29 6 -43 6c-35.333 0 -63.166 -9.66699 -83.499 -29s-30.5 -42.666 -30.5 -69.999s7.33301 -49.5 22 -66.5s33 -32.167 55 -45.5s45.667 -26 71 -38s49 -26.333 71 -43s40.333 -37.167 55 -61.5
s22 -55.166 22 -92.499c0 -33.333 -4.83301 -61.833 -14.5 -85.5s-22.834 -43.334 -39.501 -59.001s-36.167 -28 -58.5 -37s-46.166 -14.833 -71.499 -17.5v-112c-2.66699 -0.666992 -7.5 -1.16699 -14.5 -1.5s-13.167 -0.5 -18.5 -0.5
c-4.66699 0 -10.834 0.166992 -18.501 0.5s-13.167 0.833008 -16.5 1.5v110c-30 1.33301 -59 5.16602 -87 11.499s-53 14.5 -75 24.5c0 25.333 1 52.666 3 81.999s4.66699 55.666 8 78.999c9.33301 0 21.5 -0.666992 36.5 -2s27.5 -3.33301 37.5 -6v-97
c15.333 -10 33 -17.5 53 -22.5s39.333 -7.5 58 -7.5c42 0 73.333 11 94 33s31 52 31 90c0 28 -7.33301 50.5 -22 67.5s-33.167 31.833 -55.5 44.5s-46.333 24.667 -72 36s-49.667 25.333 -72 42s-40.833 37.334 -55.5 62.001s-22 57 -22 97
c0 48.667 14.833 88.167 44.5 118.5s71.5 48.166 125.5 53.499v87c8 1.33301 19 2.5 33 3.5s25.667 1.5 35 1.5v-91c21.333 -2 44.166 -5.5 68.499 -10.5s46.833 -11.167 67.5 -18.5c0 -23.333 -1 -47.5 -3 -72.5s-5.33301 -49.5 -10 -73.5c-11.333 0 -23.5 1.33301 -36.5 4
s-23.833 6 -32.5 10v79z" />
    <glyph glyph-name="percent" unicode="%" horiz-adv-x="900" 
d="M229 686c49.333 0 88.5 -14.333 117.5 -43s43.5 -70.667 43.5 -126c0 -58.667 -14.333 -103.167 -43 -133.5s-68 -45.5 -118 -45.5c-52 0 -91.833 14.667 -119.5 44s-41.5 74.333 -41.5 135c0 26 4 49.5 12 70.5s19.167 38.667 33.5 53s31.333 25.5 51 33.5
s41.167 12 64.5 12zM148 517c0 -40.667 7.00098 -72.5 21.001 -95.5s34 -34.5 60 -34.5c27.333 0 47.5 11.333 60.5 34s19.5 54.667 19.5 96c0 35.333 -6.83301 64.166 -20.5 86.499s-33.5 33.5 -59.5 33.5c-26.667 0 -46.834 -10.667 -60.501 -32
s-20.5 -50.666 -20.5 -87.999zM671.001 331c49.333 0 88.5 -14.333 117.5 -43s43.5 -70.667 43.5 -126c0 -58.667 -14.333 -103.167 -43 -133.5s-68 -45.5 -118 -45.5c-52 0 -91.833 14.667 -119.5 44s-41.5 74.333 -41.5 135c0 26 4 49.5 12 70.5s19.167 38.667 33.5 53
s31.333 25.5 51 33.5s41.167 12 64.5 12zM590.001 162c0 -40.667 7.00098 -72.5 21.001 -95.5s34 -34.5 60 -34.5c27.333 0 47.5 11.333 60.5 34s19.5 54.667 19.5 96c0 35.333 -6.83301 64.166 -20.5 86.499s-33.5 33.5 -59.5 33.5c-26.667 0 -46.834 -10.667 -60.501 -32
s-20.5 -50.666 -20.5 -87.999zM252.002 -25c-8 1.33301 -17.833 4.83301 -29.5 10.5s-20.167 11.167 -25.5 16.5l447 692c9.33301 -0.666992 20 -2.5 32 -5.5s22.333 -6.16699 31 -9.5z" />
    <glyph glyph-name="ampersand" unicode="&#x26;" horiz-adv-x="829" 
d="M686 340c-6.66699 -32 -16.334 -64.6689 -29.001 -98.002s-28.667 -65 -48 -95c13.333 -13.333 25.833 -27 37.5 -41l33.5 -41c12.667 -0.666992 25.667 -1.5 39 -2.5s27.333 -3.16699 42 -6.5c2.66699 -7.33301 5 -16.666 7 -27.999s3 -20.666 3 -27.999h-149l-34 42.5
c-11.333 14.333 -23.666 28.5 -36.999 42.5c-28.667 -30.667 -62.334 -55.834 -101.001 -75.501s-85.334 -29.5 -140.001 -29.5c-29.333 0 -58.333 3.16699 -87 9.5s-54.667 16.833 -78 31.5s-42.166 33.834 -56.499 57.501s-21.5 52.834 -21.5 87.501
c0 24.667 4 47.834 12 69.501s18.667 41.167 32 58.5s29 32 47 44s37 20.667 57 26v5c-27.333 15.333 -50 35 -68 59s-27 55.667 -27 95c0 30 5.83301 55.5 17.5 76.5s26.834 38.167 45.501 51.5s39.167 23 61.5 29s44.5 9 66.5 9c20 0 40.333 -2.66699 61 -8
s39.334 -13.666 56.001 -24.999s30.334 -26.166 41.001 -44.499s16 -40.833 16 -67.5c0 -20.667 -3.66699 -40.334 -11 -59.001s-17.166 -35.667 -29.499 -51s-26.5 -28.5 -42.5 -39.5s-32.667 -18.833 -50 -23.5v-5c13.333 -8 29.166 -19 47.499 -33l56.5 -45l56 -48.5
c18 -16.333 33 -30.833 45 -43.5c10.667 22 19.334 45.5 26.001 70.5s12 49.5 16 73.5c-8.66699 0.666992 -19 1.83398 -31 3.50098s-21.667 3.16699 -29 4.5c-2.66699 7.33301 -4.83398 16.166 -6.50098 26.499s-2.83398 20.166 -3.50098 29.499h245
c0 -7.33301 -1.33301 -17.333 -4 -30s-5.33398 -22.334 -8.00098 -29.001c-9.33301 -1.33301 -21.5 -2.33301 -36.5 -3s-28.167 -1.33398 -39.5 -2.00098zM505 132.998c-38 38 -78.5 74.334 -121.5 109.001s-85.5 65.667 -127.5 93c-27.333 -14 -49.666 -33.333 -66.999 -58
s-26 -55.334 -26 -92.001c0 -25.333 4.16699 -47 12.5 -65s19.833 -32.5 34.5 -43.5s31.5 -19 50.5 -24s39.5 -7.5 61.5 -7.5c42 0 77.667 8.33301 107 25s54.666 37.667 75.999 63zM306 401.999c29.333 14 51.834 33.334 67.501 58.001s23.5 50.667 23.5 78
c0 18 -2.83301 33.167 -8.5 45.5s-12.834 22.166 -21.501 29.499s-18.5 12.5 -29.5 15.5s-21.833 4.5 -32.5 4.5c-9.33301 0 -19.5 -1.33301 -30.5 -4s-21.167 -7.16699 -30.5 -13.5s-17.333 -15.333 -24 -27s-10 -26.5 -10 -44.5c0 -30 8.5 -55.833 25.5 -77.5
s40.5 -43.167 70.5 -64.5z" />
    <glyph glyph-name="quotesingle" unicode="'" horiz-adv-x="350" 
d="M152 486c-9.33301 0 -19.6689 0.666016 -31.002 1.99902s-21 3 -29 5c1.33301 16 2.5 33.333 3.5 52s1.83301 37.334 2.5 56.001s1.16699 37 1.5 55s0.5 34.667 0.5 50c11.333 0 26 -0.833008 44 -2.5s32.667 -4.16699 44 -7.5c0 -13.333 -1.16699 -29.333 -3.5 -48
s-5.16602 -37.834 -8.49902 -57.501s-7.16602 -38.667 -11.499 -57s-8.5 -34.166 -12.5 -47.499z" />
    <glyph glyph-name="parenleft" unicode="(" horiz-adv-x="316" 
d="M253 -183c-8.66699 -5.33301 -18.832 -10.168 -30.499 -14.501s-22.834 -7.83301 -33.501 -10.5c-39.333 87.333 -66.833 173.5 -82.5 258.5s-23.5 162.833 -23.5 233.5c0 67.333 6.66699 140.333 20 219s37 158 71 238c4.66699 2.66699 10.5 4.83398 17.5 6.50098
s14.333 3.16699 22 4.5s15 2.33301 22 3s13.167 1 18.5 1c-14 -32.667 -26.167 -67.667 -36.5 -105s-18.833 -76 -25.5 -116s-11.667 -80.833 -15 -122.5s-5 -82.5 -5 -122.5c0 -84 6.5 -166 19.5 -246s33.5 -155.667 61.5 -227z" />
    <glyph glyph-name="parenright" unicode=")" horiz-adv-x="316" 
d="M83 -183c28 70.667 48.5049 145.33 61.5049 223.997s19.5 159.667 19.5 243c0 80.667 -5.66699 159.667 -17 237s-29.333 149.333 -54 216c7.33301 4.66699 17.166 9.33398 29.499 14.001s24.166 7.66699 35.499 9c16.667 -39.333 31.167 -79.666 43.5 -120.999
s22.166 -82.166 29.499 -122.499s12.833 -79.666 16.5 -117.999s5.5 -74.5 5.5 -108.5c0 -71.333 -7.83301 -150 -23.5 -236s-43.167 -173 -82.5 -261c-10.667 2 -21.834 5.16699 -33.501 9.5s-21.834 9.16602 -30.501 14.499z" />
    <glyph glyph-name="asterisk" unicode="*" horiz-adv-x="422" 
d="M251 505c-3.33301 2.66699 -7.49512 6.33301 -12.4951 11s-8.83301 8.66699 -11.5 12l-4 -3c2 -4 4.16699 -9.16699 6.5 -15.5s3.5 -11.833 3.5 -16.5l5 -103c-4 -1.33301 -9.16699 -2.16602 -15.5 -2.49902s-11.166 -0.5 -14.499 -0.5
c-2.66699 0 -7.33398 0.166992 -14.001 0.5s-12.334 1.16602 -17.001 2.49902l5 103c0 4.66699 1 10.167 3 16.5s3.66699 11.166 5 14.499l-4 3c-2.66699 -3.33301 -6.16699 -7.33301 -10.5 -12s-8.16602 -8 -11.499 -10l-89 -59
c-4.66699 5.33301 -9.83398 13.333 -15.501 24s-9.83398 19.667 -12.501 27l92 46c4 2 9.5 4 16.5 6s12.5 3.33301 16.5 4v5c-4 0.666992 -9.5 1.83398 -16.5 3.50098s-12.5 3.5 -16.5 5.5l-90 45c1.33301 6.66699 4.66602 15.834 9.99902 27.501s10 20.834 14 27.501
l90 -56c4 -2.66699 8.33301 -6.33398 13 -11.001s8 -8.33398 10 -11.001l5 3c-2 4 -4 9 -6 15s-3 11 -3 15l-4 100c7.33301 1.33301 17 2.5 29 3.5s22 1.5 30 1.5l-4 -105c0 -4 -1 -9.16699 -3 -15.5s-4.33301 -11.833 -7 -16.5l5 -3c3.33301 4 7.16602 8.16699 11.499 12.5
s8.5 7.83301 12.5 10.5l85 55c5.33301 -5.33301 11.666 -12.666 18.999 -21.999s13 -17.666 17 -24.999l-97 -51c-4 -2 -9 -3.66699 -15 -5s-11.667 -2.33301 -17 -3v-5c4.66699 -0.666992 10.167 -1.83398 16.5 -3.50098s11.5 -3.5 15.5 -5.5l93 -46
c-2 -7.33301 -6.5 -16.833 -13.5 -28.5s-12.833 -19.834 -17.5 -24.501z" />
    <glyph glyph-name="plus" unicode="+" 
d="M523 304c1.33301 -5.33301 2.33301 -12.3301 3 -20.9971s1 -17.334 1 -26.001v-10c0 -2.66699 -0.333008 -5.66699 -1 -9h-200v-213c-10 -2 -22.667 -3 -38 -3c-8 0 -15.833 0.166992 -23.5 0.5s-14.167 1.16602 -19.5 2.49902v213h-201c0 9.33301 1 20.833 3 34.5
s4 24.167 6 31.5h192v204c8.66699 1.33301 21.5 2.66602 38.5 3.99902s31.167 2 42.5 2v-210h197z" />
    <glyph glyph-name="comma" unicode="," horiz-adv-x="350" 
d="M41 27c3.33301 10.667 7.99219 22.667 13.9922 36s12.333 23.666 19 30.999c12.667 2.66699 26.334 4 41.001 4c13.333 0 26.333 -1.16699 39 -3.5s24.334 -5.16602 35.001 -8.49902c-3.33301 -18.667 -8.66602 -39.167 -15.999 -61.5s-15.166 -44.333 -23.499 -66
s-17.166 -42.167 -26.499 -61.5s-17.666 -35 -24.999 -47c-9.33301 2.66699 -19.166 6.66699 -29.499 12s-18.166 10 -23.499 14c4 10 7.66699 21.333 11 34l11 38c4 12.667 7.33301 25 10 37s4.66699 22.667 6 32z" />
    <glyph glyph-name="hyphen" unicode="-" horiz-adv-x="336" 
d="M281 308c1.33301 -6 2.33301 -14 3 -24s1 -19.667 1 -29v-10c0 -3.33301 -0.333008 -7 -1 -11h-239c0 10 1 22.833 3 38.5s4.33301 27.5 7 35.5h226z" />
    <glyph glyph-name="period" unicode="." horiz-adv-x="350" 
d="M129 115c18 0 32.833 -5.33398 44.5 -16.001s17.5 -25.667 17.5 -45c0 -21.333 -5.83301 -37.666 -17.5 -48.999s-26.5 -17 -44.5 -17c-42.667 0 -64 22 -64 66c0 18 6 32.667 18 44s27.333 17 46 17z" />
    <glyph glyph-name="slash" unicode="/" horiz-adv-x="446" 
d="M128 -165c-4 0.666992 -9.16797 1.83398 -15.501 3.50098s-13 3.66699 -20 6s-13.5 4.83301 -19.5 7.5s-10.333 5 -13 7l339 893c8.66699 0 20.834 -0.833008 36.501 -2.5s28.167 -3.83398 37.5 -6.50098z" />
    <glyph glyph-name="zero" unicode="0" 
d="M285 689c73.333 0 130.501 -28.167 171.501 -84.5s61.5 -142.833 61.5 -259.5c0 -122.667 -20.333 -214.167 -61 -274.5s-98 -90.5 -172 -90.5c-78.667 0 -137.334 29.333 -176.001 88s-58 151 -58 277c0 55.333 5.5 104.333 16.5 147s26.667 78.667 47 108
s45 51.5 74 66.5s61.167 22.5 96.5 22.5zM148.001 346c0 -96 11.668 -170.333 35.001 -223s57.333 -79 102 -79c48 0 82.667 26 104 78s32 126.667 32 224c0 42 -3 80.167 -9 114.5s-14.833 63.833 -26.5 88.5s-25.834 43.667 -42.501 57s-36 20 -58 20
c-46.667 0 -81.167 -24.333 -103.5 -73s-33.5 -117.667 -33.5 -207z" />
    <glyph glyph-name="one" unicode="1" 
d="M254 598l-154.003 -19.9971c0.666992 10 2.33398 20.833 5.00098 32.5s6.33398 22.167 11.001 31.5c10.667 3.33301 24.5 7.16602 41.5 11.499s35.667 8.5 56 12.5s41.833 7.5 64.5 10.5s45.334 5.5 68.001 7.5v-612c22 -1.33301 45.333 -3 70 -5s46.667 -4.33301 66 -7
c2 -5.33301 3.5 -12 4.5 -20s1.5 -15 1.5 -21v-10c0 -2.66699 -0.333008 -5.66699 -1 -9h-372c0.666992 8 3 18.167 7 30.5s8.33301 22.166 13 29.499c6.66699 1.33301 15 2.66602 25 3.99902s20.5 2.83301 31.5 4.5s22 3 33 4s20.833 1.83301 29.5 2.5v523z" />
    <glyph glyph-name="two" unicode="2" 
d="M68 75c14 18.667 31.499 39 52.499 61l65.5 69.5l68.5 75c23 25.667 43.5 51.5 61.5 77.5s32.667 51.833 44 77.5s17 50.5 17 74.5c0 74.667 -37.667 112 -113 112c-19.333 0 -38.166 -2.33301 -56.499 -7s-35.166 -10.334 -50.499 -17.001v-88
c-8 -4 -18.833 -7.33301 -32.5 -10s-25.5 -4 -35.5 -4c-5.33301 23.333 -8.83301 48.833 -10.5 76.5s-2.5 53.167 -2.5 76.5c23.333 10.667 52 20 86 28s69.333 12 106 12c28.667 0 55.667 -3.16699 81 -9.5s47.5 -16 66.5 -29s33.833 -29.5 44.5 -49.5s16 -44 16 -72
c0 -29.333 -6 -58.833 -18 -88.5s-27.333 -58.667 -46 -87s-39.834 -55.5 -63.501 -81.5l-69.5 -73.5l-64 -63c-20 -19 -36 -35.167 -48 -48.5v-7h244c0 4.66699 0.5 10.667 1.5 18l3 23c1 8 2.33301 16 4 24l4.5 22c8.66699 2.66699 19.5 4.83398 32.5 6.50098
s24.167 2.5 33.5 2.5v-176h-422v75z" />
    <glyph glyph-name="three" unicode="3" 
d="M148 314c-2 6.66699 -3.00098 14.333 -3.00098 23c0 5.33301 0.666992 12.333 2 21s3.33301 15.334 6 20.001c32.667 0 62.667 2.33301 90 7s51 12.334 71 23.001s35.5 24.667 46.5 42s16.5 39 16.5 65c0 20 -3.33301 37 -10 51s-15.5 25.333 -26.5 34
s-23.167 14.834 -36.5 18.501s-26.666 5.5 -39.999 5.5c-15.333 0 -32.333 -1.83301 -51 -5.5s-34.334 -7.5 -47.001 -11.5v-80c-8 -4 -18.833 -7.33301 -32.5 -10s-25.5 -4 -35.5 -4c-5.33301 23.333 -8.83301 48.333 -10.5 75s-2.5 51.667 -2.5 75
c12.667 4 27 7.66699 43 11s32.5 6.16602 49.5 8.49902s34 4 51 5s32.5 1.5 46.5 1.5c25.333 0 50 -3.16699 74 -9.5s45.167 -16.166 63.5 -29.499s33.166 -30.5 44.499 -51.5s17 -46.167 17 -75.5c0 -44.667 -13.167 -81.834 -39.5 -111.501
s-63.166 -49.167 -110.499 -58.5v-5c23.333 -3.33301 45.166 -9.33301 65.499 -18s38 -20.167 53 -34.5s26.833 -31.5 35.5 -51.5s13 -42.667 13 -68c0 -34 -6.83301 -63.333 -20.5 -88s-32.167 -45 -55.5 -61s-50.333 -27.833 -81 -35.5s-63 -11.5 -97 -11.5
c-28 0 -56 1.83301 -84 5.5s-51.667 8.16699 -71 13.5c-5.33301 9.33301 -9.66602 21.166 -12.999 35.499s-5 27.166 -5 38.499v9c0 3.33301 0.333008 6.33301 1 9c10 -4 22 -8.33301 36 -13s29.167 -9 45.5 -13s32.833 -7.16699 49.5 -9.5s32.667 -3.5 48 -3.5
c18.667 0 36.834 2.16699 54.501 6.5s33.5 11.166 47.5 20.499s25.167 21.5 33.5 36.5s12.5 33.167 12.5 54.5c0 54.667 -20.5 92.334 -61.5 113.001s-101.833 31 -182.5 31z" />
    <glyph glyph-name="four" unicode="4" 
d="M53 260l275.999 415h87v-419h91c1.33301 -4.66699 2.33301 -11.667 3 -21s1 -17.666 1 -24.999v-10c0 -2.66699 -0.333008 -6 -1 -10h-94v-127l44.5 -4c15 -1.33301 28.5 -3.33301 40.5 -6c2 -6 3.33301 -14.833 4 -26.5s0.333984 -20.5 -0.999023 -26.5h-261
c0.666992 7.33301 2.16699 16 4.5 26s4.83301 18.667 7.5 26c9.33301 2.66699 21.5 5.16699 36.5 7.5s28.167 4.16602 39.5 5.49902v125h-278v70zM331.999 493c0 24.667 1 49 3 73h-7l-199 -305v-7c7.33301 0.666992 16.833 1.16699 28.5 1.5s22.167 0.5 31.5 0.5h143v237z
" />
    <glyph glyph-name="five" unicode="5" 
d="M181 393c16.667 3.33301 32.166 5.83398 46.499 7.50098s29.5 2.5 45.5 2.5c28 0 54.667 -4.16699 80 -12.5s47.666 -21 66.999 -38s34.666 -38.333 45.999 -64s17 -56.167 17 -91.5c0 -37.333 -6.83301 -69.5 -20.5 -96.5s-31.834 -49.5 -54.501 -67.5
s-48.667 -31.333 -78 -40s-59.333 -13 -90 -13c-30 0 -57.833 2.16699 -83.5 6.5s-48.167 9.16602 -67.5 14.499c-5.33301 9.33301 -9.66602 21 -12.999 35s-5 26.667 -5 38v9c0 3.33301 0.333008 6.33301 1 9c22.667 -11.333 48.167 -21.5 76.5 -30.5
s58.5 -13.5 90.5 -13.5c19.333 0 37.833 3 55.5 9s33.334 15 47.001 27s24.5 26.667 32.5 44s12 37.333 12 60c0 29.333 -4.16699 53.666 -12.5 72.999s-19.666 34.833 -33.999 46.5s-31.166 20 -50.499 25s-40 7.5 -62 7.5c-18.667 0 -39 -1.16699 -61 -3.5
s-42.667 -5.16602 -62 -8.49902l25 341h356c0 -28 -2.66699 -56.333 -8 -85h-280z" />
    <glyph glyph-name="six" unicode="6" 
d="M167 344c10 20.667 27.3369 38.3301 52.0039 52.9971s56.667 22 96 22c33.333 0 62.666 -5 87.999 -15s46.5 -24.167 63.5 -42.5s29.833 -40.166 38.5 -65.499s13 -53 13 -83c0 -36.667 -5.16699 -69.5 -15.5 -98.5s-24.833 -53.5 -43.5 -73.5s-41.5 -35.167 -68.5 -45.5
s-56.833 -15.5 -89.5 -15.5c-80.667 0 -140.167 25.5 -178.5 76.5s-57.5 127.5 -57.5 229.5c0 65.333 7.33301 123 22 173s35 92 61 126s56.667 59.833 92 77.5s73.666 26.5 114.999 26.5c23.333 0 46.833 -2.66699 70.5 -8s43.167 -12 58.5 -20c2 -4.66699 4 -10.667 6 -18
s3.66699 -15.166 5 -23.499s2.16602 -16.666 2.49902 -24.999s0.166016 -15.833 -0.500977 -22.5c-17.333 12.667 -39.5 23.667 -66.5 33s-52.833 14 -77.5 14c-51.333 0 -94.5 -23.167 -129.5 -69.5s-56.167 -114.833 -63.5 -205.5h7zM161.004 272.996
c0 -76.667 11.167 -134.5 33.5 -173.5s58.833 -58.5 109.5 -58.5c38.667 0 68.5 15.333 89.5 46s31.5 71 31.5 121c0 47.333 -11 83.666 -33 108.999s-54.667 38 -98 38c-29.333 0 -54.333 -6.16699 -75 -18.5s-40 -28.166 -58 -47.499v-16z" />
    <glyph glyph-name="seven" unicode="7" 
d="M517 592c-52 -103.333 -98.833 -203.168 -140.5 -299.501s-77.5 -193.166 -107.5 -290.499c-13.333 -3.33301 -29 -5 -47 -5c-9.33301 0 -19.5 0.5 -30.5 1.5s-19.833 2.16699 -26.5 3.5c16 46.667 34.333 94.5 55 143.5s42.667 98.167 66 147.5l72.5 146l75.5 140v7
h-267c0 -5.33301 -0.5 -11.833 -1.5 -19.5s-2.16699 -15.5 -3.5 -23.5s-2.83301 -16 -4.5 -24s-3.16699 -14.333 -4.5 -19c-9.33301 -2 -20.333 -3.66699 -33 -5s-24 -2 -34 -2v176h431v-77z" />
    <glyph glyph-name="eight" unicode="8" 
d="M60 156c0 24 3.83398 46.665 11.501 67.998s18 40.5 31 57.5s28.167 31.667 45.5 44s35.666 21.5 54.999 27.5v5c-14 6 -28 13.667 -42 23s-26.5 20.333 -37.5 33s-19.833 27.167 -26.5 43.5s-10 34.833 -10 55.5c0 32 6.33301 59.167 19 81.5s29 40.5 49 54.5
s42.5 24.167 67.5 30.5s49.833 9.5 74.5 9.5s49 -2.83301 73 -8.5s45.333 -14.667 64 -27s33.667 -28.5 45 -48.5s17 -44 17 -72c0 -20.667 -3.16699 -40.167 -9.5 -58.5s-14.666 -35.166 -24.999 -50.499s-22.5 -28.5 -36.5 -39.5s-28.667 -19.5 -44 -25.5v-5
c16 -6.66699 31.667 -15 47 -25s29.166 -22 41.499 -36s22.166 -30.167 29.499 -48.5s11 -38.833 11 -61.5c0 -33.333 -6.33301 -62.5 -19 -87.5s-29.5 -46.167 -50.5 -63.5s-45.167 -30.333 -72.5 -39s-55.666 -13 -84.999 -13c-26 0 -52.167 2.83301 -78.5 8.5
s-50.333 15.334 -72 29.001s-39.167 31.667 -52.5 54s-20 50.5 -20 84.5zM417.001 168.998c0 22 -4.83301 41 -14.5 57s-22.167 30.167 -37.5 42.5s-33 23.333 -53 33l-61 28.5c-28 -13.333 -51.667 -33.166 -71 -59.499s-29 -59.5 -29 -99.5
c0 -23.333 3.5 -43.333 10.5 -60s16.5 -30.334 28.5 -41.001s26.167 -18.5 42.5 -23.5s33.5 -7.5 51.5 -7.5c16.667 0 33 2.33301 49 7s30.333 12.167 43 22.5s22.667 23.833 30 40.5s11 36.667 11 60zM174.001 527.998c0 -18 4.33105 -33.8291 12.998 -47.4961
s20 -26 34 -37s30.167 -21.167 48.5 -30.5l57.5 -28c27.333 15.333 47.833 35.666 61.5 60.999s20.5 51.666 20.5 78.999c0 21.333 -3.33301 39.166 -10 53.499s-15.334 25.666 -26.001 33.999s-22.667 14.333 -36 18s-26.666 5.5 -39.999 5.5
c-12 0 -25.167 -1.33301 -39.5 -4s-27.666 -8 -39.999 -16s-22.666 -19 -30.999 -33s-12.5 -32.333 -12.5 -55z" />
    <glyph glyph-name="nine" unicode="9" 
d="M415 332c-10 -20 -27.3311 -37.3281 -51.998 -51.9951s-55 -22 -91 -22c-34 0 -64 5.16699 -90 15.5s-47.833 24.666 -65.5 42.999s-31 40.166 -40 65.499s-13.5 52.666 -13.5 81.999c0 35.333 5.16699 66.833 15.5 94.5s25 51.167 44 70.5s41.833 34.166 68.5 44.499
s56 15.5 88 15.5c158 0 237 -105.667 237 -317c0 -64.667 -6.33301 -121.5 -19 -170.5s-30.667 -89.833 -54 -122.5s-51.5 -57.334 -84.5 -74.001s-69.833 -25 -110.5 -25c-30 0 -59.167 2.33301 -87.5 7s-52.833 11.334 -73.5 20.001c-4 6 -7.33301 13.167 -10 21.5
s-4.83398 17 -6.50098 26s-2.83398 17.667 -3.50098 26s-0.333984 15.5 0.999023 21.5c10.667 -5.33301 23.167 -10.833 37.5 -16.5s29.166 -10.834 44.499 -15.501s31 -8.33398 47 -11.001s31 -4 45 -4c24.667 0 47.5 5.16699 68.5 15.5s39.333 26.833 55 49.5
s28.334 51.334 38.001 86.001s15.834 76.667 18.501 126h-7zM420.002 389.005c0 80.667 -10.8301 141 -32.4971 181s-57.834 60 -108.501 60c-40 0 -70.5 -14.667 -91.5 -44s-31.5 -68 -31.5 -116c0 -45.333 11.667 -81.333 35 -108s58 -40 104 -40
c27.333 0 51.166 6.33301 71.499 19s38.166 28.667 53.499 48z" />
    <glyph glyph-name="colon" unicode=":" horiz-adv-x="350" 
d="M129 468c17.333 0 31.834 -5.33105 43.501 -15.998s17.5 -25.334 17.5 -44.001c0 -20.667 -5.83301 -36.667 -17.5 -48s-26.167 -17 -43.5 -17c-20 0 -35.5 5.5 -46.5 16.5s-16.5 27.167 -16.5 48.5c0 17.333 6.16699 31.666 18.5 42.999s27.166 17 44.499 17z
M129.001 115.002c18 0 32.833 -5.33398 44.5 -16.001s17.5 -25.667 17.5 -45c0 -21.333 -5.83301 -37.666 -17.5 -48.999s-26.5 -17 -44.5 -17c-42.667 0 -64 22 -64 66c0 18 6 32.667 18 44s27.333 17 46 17z" />
    <glyph glyph-name="semicolon" unicode=";" horiz-adv-x="350" 
d="M41 27c3.33301 10.667 7.99219 22.667 13.9922 36s12.333 23.666 19 30.999c12.667 2.66699 26.334 4 41.001 4c13.333 0 26.333 -1.16699 39 -3.5s24.334 -5.16602 35.001 -8.49902c-3.33301 -18.667 -8.66602 -39.167 -15.999 -61.5s-15.166 -44.333 -23.499 -66
s-17.166 -42.167 -26.499 -61.5s-17.666 -35 -24.999 -47c-9.33301 2.66699 -19.166 6.66699 -29.499 12s-18.166 10 -23.499 14c4 10 7.66699 21.333 11 34l11 38c4 12.667 7.33301 25 10 37s4.66699 22.667 6 32zM128.992 467c17.333 0 31.834 -5.33105 43.501 -15.998
s17.5 -25.334 17.5 -44.001c0 -20.667 -5.83301 -36.667 -17.5 -48s-26.167 -17 -43.5 -17c-20 0 -35.5 5.5 -46.5 16.5s-16.5 27.167 -16.5 48.5c0 17.333 6.16699 31.666 18.5 42.999s27.166 17 44.499 17z" />
    <glyph glyph-name="less" unicode="&#x3c;" 
d="M188 272v-6.99805l270 -196c-1.33301 -4 -4 -8.66699 -8 -14s-8.5 -10.833 -13.5 -16.5s-10 -10.834 -15 -15.501s-9.16699 -8 -12.5 -10l-310 227l3 60l299 222c4.66699 -2.66699 10 -6.33398 16 -11.001l18 -13c6 -4 11.5 -8.33301 16.5 -13l12.5 -12z" />
    <glyph glyph-name="equal" unicode="=" 
d="M71 144c0 4.66699 0.333008 10.165 1 16.498l2 19.5c0.666992 6.66699 1.5 12.834 2.5 18.501s2.16699 10.167 3.5 13.5h415c1.33301 -5.33301 2.33301 -12.333 3 -21s1 -17.667 1 -27v-10c0 -3.33301 -0.333008 -6.66602 -1 -9.99902h-427zM72 322.998
c0 4.66699 0.333008 10.165 1 16.498l2 19.5c0.666992 6.66699 1.5 12.834 2.5 18.501s2.16699 10.167 3.5 13.5h414c1.33301 -5.33301 2.33301 -12.333 3 -21s1 -17.667 1 -27v-10c0 -3.33301 -0.333008 -6.66602 -1 -9.99902h-426z" />
    <glyph glyph-name="greater" unicode="&#x3e;" 
d="M161 8c-3.33301 2 -7.50195 5.33105 -12.502 9.99805s-10 9.83398 -15 15.501s-9.5 11.334 -13.5 17.001s-6.66699 10.5 -8 14.5l271 200v7l-278 196c6.66699 7.33301 16.334 16 29.001 26s24.334 17.667 35.001 23l300 -217l3 -60z" />
    <glyph glyph-name="question" unicode="?" horiz-adv-x="431" 
d="M96 529c-9.33301 -5.33301 -20.8311 -9.32617 -34.498 -11.9932s-25.834 -4 -36.501 -4c-4 23.333 -7 49.166 -9 77.499s-3 56.833 -3 85.5c10.667 4.66699 23.834 9 39.501 13s32.5 7.66699 50.5 11s36 6 54 8s34.667 3 50 3c57.333 0 102.166 -12.5 134.499 -37.5
s48.5 -58.5 48.5 -100.5c0 -22.667 -4.66699 -43 -14 -61s-20.833 -34.833 -34.5 -50.5s-28.667 -30.167 -45 -43.5s-31.333 -26.333 -45 -39s-25.167 -25.667 -34.5 -39s-14 -27.333 -14 -42c0 -14 2.33301 -27.833 7 -41.5s11 -25.834 19 -36.501
c-8.66699 -6.66699 -20.834 -12.834 -36.501 -18.501s-30.167 -9.16699 -43.5 -10.5c-10.667 13.333 -19.667 29.166 -27 47.499s-11 35.833 -11 52.5c0 17.333 4.33301 33.666 13 48.999s19.5 30.166 32.5 44.499s27.167 28.333 42.5 42s29.5 27.667 42.5 42
s23.833 29 32.5 44s13 31.167 13 48.5c0 10 -2 20.333 -6 31s-10.333 20.167 -19 28.5s-19.5 15.166 -32.5 20.499s-28.833 8 -47.5 8c-13.333 0 -28.5 -2 -45.5 -6s-30.5 -8.66699 -40.5 -14v-100zM192.002 118.007c19.333 0 34.833 -5.49902 46.5 -16.499
s17.5 -26.5 17.5 -46.5c0 -21.333 -5.83301 -37.833 -17.5 -49.5s-27.167 -17.5 -46.5 -17.5c-43.333 0 -65 22.333 -65 67c0 19.333 6.16699 34.666 18.5 45.999s27.833 17 46.5 17z" />
    <glyph glyph-name="at" unicode="@" horiz-adv-x="1038" 
d="M677 101c0 -2.66699 0.335938 -6.66602 1.00293 -11.999s1.33398 -9.66602 2.00098 -12.999c38 3.33301 71.333 14.166 100 32.499s52.5 40.833 71.5 67.5s33.333 56 43 88s14.5 63 14.5 93c0 48.667 -10.167 91.167 -30.5 127.5s-47 66.833 -80 91.5
s-70.167 43.167 -111.5 55.5s-83.333 18.5 -126 18.5c-61.333 0 -117.333 -11 -168 -33s-94 -52.333 -130 -91s-64 -84.334 -84 -137.001s-30 -109.334 -30 -170.001c0 -56 8.83301 -107.333 26.5 -154s43 -87 76 -121s73 -60.333 120 -79s99.833 -28 158.5 -28
c22 0 44.667 1.33301 68 4s46 6.33398 68 11.001s43 10.5 63 17.5s38 15.167 54 24.5c5.33301 -4 11.666 -10.5 18.999 -19.5s12.666 -16.833 15.999 -23.5c-20.667 -12.667 -43.167 -23.834 -67.5 -33.501s-49.833 -17.667 -76.5 -24s-54 -11.166 -82 -14.499
s-55.333 -5 -82 -5c-66.667 0 -127 10.667 -181 32s-100 51.166 -138 89.499s-67.333 84.5 -88 138.5s-31 113.667 -31 179c0 70.667 12.333 136.5 37 197.5s59 114 103 159s96 80.333 156 106s125.333 38.5 196 38.5c56 0 109.333 -8 160 -24s95.167 -39 133.5 -69
s68.666 -66.5 90.999 -109.5s33.5 -91.5 33.5 -145.5c0 -41.333 -7.16699 -82.5 -21.5 -123.5s-36.333 -78.5 -66 -112.5s-66.834 -62.333 -111.501 -85s-97 -36 -157 -40c-5.33301 9.33301 -10.5 20.333 -15.5 33s-8.16699 24.667 -9.5 36h-5
c-18 -25.333 -40.667 -43.166 -68 -53.499s-53.666 -15.5 -78.999 -15.5c-38 0 -69.667 13.833 -95 41.5s-38 72.5 -38 134.5c0 37.333 5.66699 73.333 17 108s27.666 65.667 48.999 93c22 27.333 48.667 49 80 65s67 24 107 24c33.333 0 62.833 -4 88.5 -12
s46.5 -18 62.5 -30zM638.003 405.001c-8 5.33301 -18.166 9.33301 -30.499 12s-24.166 4 -35.499 4c-30 0 -55.5 -6 -76.5 -18s-37.5 -27.667 -49.5 -47c-16 -25.333 -27.333 -52.333 -34 -81s-10 -56 -10 -82c0 -44 7.66699 -75.167 23 -93.5s35.666 -27.5 60.999 -27.5
c22.667 0 44.167 5.83301 64.5 17.5s37.166 28.167 50.499 49.5z" />
    <glyph glyph-name="A" unicode="A" horiz-adv-x="738" 
d="M472 0c1.33301 8 2.99902 17.002 4.99902 27.002s4.66699 18.667 8 26c8.66699 2.66699 20.5 5 35.5 7l38.5 5c-8 11.333 -15.167 23.666 -21.5 36.999s-12.166 26.666 -17.499 39.999l-32 85h-265l-33 -90c-4.66699 -13.333 -10.167 -26.333 -16.5 -39
s-12.833 -24.667 -19.5 -36c12 -0.666992 25.667 -1.66699 41 -3s29.666 -3.33301 42.999 -6c2 -6.66699 3.83301 -15.667 5.5 -27s2.5 -20 2.5 -26h-238c1.33301 8.66699 3.5 17.834 6.5 27.501s6.16699 18.167 9.5 25.5c7.33301 2.66699 16 4.66699 26 6l27 5l258 644h64
l248 -642c8 -0.666992 18.333 -1.83398 31 -3.50098s23.334 -3.5 32.001 -5.5c2.66699 -7.33301 5 -16.5 7 -27.5s3.33301 -20.833 4 -29.5h-249zM351.999 596.002c-1.33301 -6 -2.99902 -12.999 -4.99902 -20.999s-4.33301 -16.5 -7 -25.5l-8 -26.5
c-2.66699 -8.66699 -5.33398 -16.334 -8.00098 -23.001l-80 -216h222l-82 218l-7 21.5c-2.66699 8.33301 -5.16699 16.833 -7.5 25.5s-4.5 17.167 -6.5 25.5s-3.33301 15.5 -4 21.5h-7z" />
    <glyph glyph-name="B" unicode="B" horiz-adv-x="627" 
d="M435 367c46.667 -9.33301 84.002 -27.832 112.002 -55.499s42 -63.5 42 -107.5c0 -37.333 -7.66699 -69.166 -23 -95.499s-35.5 -47.666 -60.5 -63.999s-54 -28.333 -87 -36s-66.833 -11.5 -101.5 -11.5c-48 0 -97.5 0.5 -148.5 1.5s-97.5 2.16699 -139.5 3.5
c0.666992 7.33301 2.16699 16.333 4.5 27s4.83301 19.667 7.5 27c8.66699 2.66699 21 5.16699 37 7.5s29.667 4.16602 41 5.49902v565c-11.333 0 -23.5 0.166992 -36.5 0.5s-25.5 1.16602 -37.5 2.49902c-1.33301 6.66699 -2.33301 16.667 -3 30
s-0.333984 23.333 0.999023 30c42 2.66699 83.667 4.66699 125 6s81.333 2 120 2c36.667 0 71 -3.83301 103 -11.5s60 -19 84 -34s42.833 -33.833 56.5 -56.5s20.5 -49.334 20.5 -80.001c0 -38 -10.833 -70.333 -32.5 -97s-49.834 -44.667 -84.501 -54v-5zM211.002 63.001
c15.333 -1.33301 30.833 -2.33008 46.5 -2.99707s31.167 -1 46.5 -1c59.333 0 105.833 10.833 139.5 32.5s50.5 56.5 50.5 104.5c0 23.333 -4.66699 43.666 -14 60.999s-22.333 31.666 -39 42.999s-36.167 19.666 -58.5 24.999s-46.833 8 -73.5 8h-98v-270zM211.002 394.004
l93.999 0.000976562c49.333 0 87.5 9.5 114.5 28.5s40.5 51.5 40.5 97.5c0 20 -4.66699 37.833 -14 53.5s-22.166 28.667 -38.499 39s-35.666 18.166 -57.999 23.499s-46.5 8 -72.5 8h-31c-12.667 0 -24.334 -0.666992 -35.001 -2v-248z" />
    <glyph glyph-name="C" unicode="C" horiz-adv-x="620" 
d="M495 628c-18 8 -35.8311 13.668 -53.498 17.001s-35.834 5 -54.501 5c-33.333 0 -64.666 -6.16699 -93.999 -18.5s-54.833 -30.666 -76.5 -54.999s-38.834 -54.833 -51.501 -91.5s-19 -79 -19 -127c0 -51.333 5.83301 -95.833 17.5 -133.5s28 -68.834 49 -93.501
s46.167 -43 75.5 -55s61.666 -18 96.999 -18c14 0 29.333 1 46 3s33.334 4.66699 50.001 8s32.834 7 48.501 11s29.834 8.33301 42.501 13c1.33301 -8.66699 0.666016 -19.5 -2.00098 -32.5s-5.66699 -23.167 -9 -30.5c-13.333 -6.66699 -28.166 -13 -44.499 -19
s-33.833 -11.333 -52.5 -16s-37.834 -8.33398 -57.501 -11.001s-39.167 -4 -58.5 -4c-44.667 0 -85.5 8.83301 -122.5 26.5s-68.667 42.167 -95 73.5s-46.666 68.5 -60.999 111.5s-21.5 89.833 -21.5 140.5c0 60 9.16699 113.667 27.5 161s43.166 87.333 74.499 120
s67.833 57.667 109.5 75s86.167 26 133.5 26c37.333 0 71.166 -3.33301 101.499 -10s58.166 -16 83.499 -28c0 -27.333 -1 -56.5 -3 -87.5s-5 -57.167 -9 -78.5c-10 0 -22 1.5 -36 4.5s-25.667 6.83301 -35 11.5v102z" />
    <glyph glyph-name="D" unicode="D" horiz-adv-x="694" 
d="M119 624c-11.333 0 -23.665 0.170898 -36.998 0.503906s-25.666 1.16602 -36.999 2.49902c-0.666992 3.33301 -1.33398 7.66602 -2.00098 12.999s-1 10.666 -1 15.999v17c0 5.33301 0.333008 10 1 14c20 2 41.333 3.83301 64 5.5s45.667 3.16699 69 4.5
s46.166 2.33301 68.499 3s43.166 1 62.499 1c48.667 0 94.334 -7.33301 137.001 -22s79.834 -36.5 111.501 -65.5s56.667 -64.667 75 -107s27.5 -91.166 27.5 -146.499c0 -64 -8.83301 -119 -26.5 -165s-41.334 -83.667 -71.001 -113s-63.834 -51 -102.501 -65
s-79 -21 -121 -21h-73c-26 0 -52.5 0.333008 -79.5 1s-53.833 1.16699 -80.5 1.5s-51.667 1.16602 -75 2.49902c1.33301 8 3 17 5 27s4.33301 18.667 7 26c9.33301 2.66699 21.833 5.16699 37.5 7.5s29.167 4.16602 40.5 5.49902v557zM211.001 62.0039
c15.333 -1.33301 31.5 -2.16699 48.5 -2.5s33.167 -0.5 48.5 -0.5c40 0 75.667 5.66699 107 17s57.833 28.833 79.5 52.5s38.167 54.167 49.5 91.5s17 82.333 17 135c0 46 -7.16699 86.667 -21.5 122s-33.666 65 -57.999 89s-53 42.167 -86 54.5s-68.167 18.5 -105.5 18.5
h-18c-6.66699 0 -13.834 -0.166992 -21.501 -0.5l-22 -1c-7 -0.333008 -12.833 -0.833008 -17.5 -1.5v-574z" />
    <glyph glyph-name="E" unicode="E" horiz-adv-x="566" 
d="M29 0c0.666992 7.33301 2.17188 16.1719 4.50488 26.5049s4.83301 19.166 7.5 26.499c9.33301 2.66699 21.833 5.16699 37.5 7.5s29.167 4.16602 40.5 5.49902v564c-11.333 0.666992 -24.333 1.66699 -39 3s-26.334 2.66602 -35.001 3.99902
c-1.33301 6.66699 -2.33301 16.167 -3 28.5s-0.333984 21.833 0.999023 28.5h474v-147c-8.66699 0 -18.167 0.666992 -28.5 2s-19.5 3 -27.5 5c-2.66699 10 -5.16699 23.167 -7.5 39.5s-3.83301 29.5 -4.5 39.5h-238v-254h189c0.666992 7.33301 2 16.5 4 27.5
s4 19.833 6 26.5c6.66699 2 15.667 3.83301 27 5.5s21.333 2.5 30 2.5v-184c-8.66699 -1.33301 -18.5 -1.5 -29.5 -0.5s-20.5 2.5 -28.5 4.5c-2 9.33301 -3.83301 19.333 -5.5 30s-2.83398 20 -3.50098 28h-189v-256h242c1.33301 13.333 3 28.166 5 44.499
s4.33301 30.166 7 41.499c7.33301 2 17.166 3.66699 29.499 5s23.166 2 32.499 2v-156h-498z" />
    <glyph glyph-name="F" unicode="F" horiz-adv-x="513" 
d="M119 630c-11.333 0.666992 -24.332 1.6709 -38.999 3.00391s-26.334 2.66602 -35.001 3.99902c-1.33301 6.66699 -2.33301 16.167 -3 28.5s-0.333984 21.833 0.999023 28.5h457v-150c-9.33301 0 -19 0.5 -29 1.5s-19.667 2.83301 -29 5.5
c-2.66699 10.667 -5.16699 24.167 -7.5 40.5s-4.16602 30.166 -5.49902 41.499h-218v-262h174c0.666992 6.66699 2 15.834 4 27.501s4 20.834 6 27.501c6.66699 2 15.5 3.83301 26.5 5.5s21.167 2.5 30.5 2.5v-186c-8.66699 -1.33301 -18.5 -1.5 -29.5 -0.5
s-20.5 2.5 -28.5 4.5c-2 9.33301 -3.83301 19.666 -5.5 30.999s-2.83398 20.666 -3.50098 27.999h-174v-246c16 -1.33301 33 -2.66602 51 -3.99902s34 -3.33301 48 -6c2 -6 3.33301 -15.167 4 -27.5s0.333984 -21.5 -0.999023 -27.5h-284
c0.666992 7.33301 2.16699 16.166 4.5 26.499s4.83301 19.166 7.5 26.499c9.33301 2.66699 21.833 5.16699 37.5 7.5s29.167 4.16602 40.5 5.49902v564z" />
    <glyph glyph-name="G" unicode="G" horiz-adv-x="704" 
d="M601 24c-11.333 -4 -26.4951 -8.49414 -45.4951 -13.4941s-39.667 -9.83301 -62 -14.5s-45.333 -8.5 -69 -11.5s-45.834 -4.5 -66.501 -4.5c-49.333 0 -93.5 8.33301 -132.5 25s-71.833 40.167 -98.5 70.5s-47 66.666 -61 108.999s-21 89.5 -21 141.5
c0 58.667 8.66699 111.834 26 159.501s41.833 88.5 73.5 122.5s70.167 60.167 115.5 78.5s96 27.5 152 27.5c39.333 0 74.666 -4.33301 105.999 -13s60.666 -21.667 87.999 -39c0 -11.333 -0.333008 -24.333 -1 -39s-1.5 -29.167 -2.5 -43.5s-2.33301 -28 -4 -41
s-3.5 -23.833 -5.5 -32.5c-4.66699 0 -10.334 0.5 -17.001 1.5s-13.334 2.33301 -20.001 4s-12.834 3.33398 -18.501 5.00098s-10.167 3.5 -13.5 5.5v96c-20 12 -39.833 20.667 -59.5 26s-40.5 8 -62.5 8c-34.667 0 -67.667 -6.33301 -99 -19s-59 -31.834 -83 -57.501
s-43 -58 -57 -97s-21 -84.833 -21 -137.5c0 -50 6 -93.333 18 -130s28.667 -67 50 -91s47 -41.833 77 -53.5s62.667 -17.5 98 -17.5c18.667 0 39.334 1.16699 62.001 3.5s44.334 5.16602 65.001 8.49902v211c-22 0.666992 -44.833 1.66699 -68.5 3
s-46.167 3.66602 -67.5 6.99902c-2.66699 7.33301 -4.5 16.666 -5.5 27.999s-1.5 21.666 -1.5 30.999h318c-0.666992 -8.66699 -1.83398 -18.834 -3.50098 -30.501s-3.5 -21.834 -5.5 -30.501c-9.33301 -2 -22 -3.66699 -38 -5s-29 -2.33301 -39 -3v-248z" />
    <glyph glyph-name="H" unicode="H" horiz-adv-x="771" 
d="M479 0c0.666992 7.33301 2.17285 16.1738 4.50586 26.5068s4.5 19.166 6.5 26.499c9.33301 2.66699 20.666 5.16699 33.999 7.5s25.333 4.16602 36 5.49902v263h-349v-264c10 -0.666992 23.5 -1.66699 40.5 -3s31.167 -3.33301 42.5 -6
c0.666992 -3.33301 1.33398 -7.5 2.00098 -12.5s1.16699 -10.333 1.5 -16s0.5 -11 0.5 -16s-0.333008 -8.83301 -1 -11.5h-268c0.666992 7.33301 2.16699 16.166 4.5 26.499s4.83301 19.166 7.5 26.499c9.33301 2.66699 21.833 5.16699 37.5 7.5
s29.167 4.16602 40.5 5.49902v564c-11.333 0.666992 -24.333 1.66699 -39 3s-26.334 2.66602 -35.001 3.99902c-1.33301 6.66699 -2.33301 16.167 -3 28.5s-0.333984 21.833 0.999023 28.5h249c1.33301 -6 1.83301 -15.167 1.5 -27.5s-1.5 -21.833 -3.5 -28.5
c-10.667 -2 -23.334 -3.66699 -38.001 -5s-28.334 -2.33301 -41.001 -3v-236h349v236c-11.333 0.666992 -24.333 1.66699 -39 3s-26.334 2.66602 -35.001 3.99902c-1.33301 6.66699 -2.33301 16.167 -3 28.5s-0.333984 21.833 0.999023 28.5h252
c1.33301 -6 1.83301 -15.167 1.5 -27.5s-1.5 -21.833 -3.5 -28.5c-11.333 -2 -24.5 -3.66699 -39.5 -5s-29.167 -2.33301 -42.5 -3v-565l46 -4c16 -1.33301 30.333 -3.33301 43 -6c1.33301 -5.33301 2.33301 -11.333 3 -18s1 -13.667 1 -21v-8
c0 -2 -0.333008 -4.66699 -1 -8h-265z" />
    <glyph glyph-name="I" unicode="I" horiz-adv-x="330" 
d="M29 0c0.666992 7.33301 2.16895 16.1699 4.50195 26.5029s4.83301 19.166 7.5 26.499c9.33301 2.66699 21.833 5.16699 37.5 7.5s29.167 4.16602 40.5 5.49902v564c-11.333 0.666992 -24.333 1.66699 -39 3s-26.334 2.66602 -35.001 3.99902
c-1.33301 6.66699 -2.33301 16.167 -3 28.5s-0.333984 21.833 0.999023 28.5h252c1.33301 -6 1.83301 -15.167 1.5 -27.5s-1.5 -21.833 -3.5 -28.5c-11.333 -2 -24.5 -3.66699 -39.5 -5s-29.167 -2.33301 -42.5 -3v-565l46 -4c16 -1.33301 30.333 -3.33301 43 -6
c1.33301 -5.33301 2.33301 -11.333 3 -18s1 -13.667 1 -21v-8c0 -2 -0.333008 -4.66699 -1 -8h-274z" />
    <glyph glyph-name="J" unicode="J" horiz-adv-x="341" 
d="M317 694c1.33301 -5.33301 2.00293 -12.332 2.00293 -20.999c0 -6 -0.333008 -12.333 -1 -19s-1.66699 -12 -3 -16c-11.333 -2 -24.5 -3.66699 -39.5 -5s-29.167 -2.33301 -42.5 -3v-404c0 -94.667 -19.833 -176.5 -59.5 -245.5s-98.834 -122.167 -177.501 -159.5
c-5.33301 4.66699 -10.833 12 -16.5 22s-9.16699 18.667 -10.5 26c62 36.667 106.167 83.167 132.5 139.5s39.5 122.5 39.5 198.5v423c-14 0.666992 -29.833 1.66699 -47.5 3s-31.834 2.66602 -42.501 3.99902c-1.33301 6.66699 -2.33301 16.167 -3 28.5
s-0.333984 21.833 0.999023 28.5h268z" />
    <glyph glyph-name="K" unicode="K" horiz-adv-x="647" 
d="M268 382l136.999 188.006c2.66699 4 6.33398 8.83301 11.001 14.5l14.5 17c5 5.66699 10 11 15 16s9.5 8.83301 13.5 11.5c-9.33301 0.666992 -21.333 1.66699 -36 3s-26.334 2.66602 -35.001 3.99902c-2.66699 8 -4.66699 18 -6 30s-2 21.333 -2 28h229
c-0.666992 -8.66699 -2.16699 -18.5 -4.5 -29.5s-5.5 -20.833 -9.5 -29.5c-7.33301 -1.33301 -16.666 -2.5 -27.999 -3.5s-21.666 -1.83301 -30.999 -2.5l-206 -263l241 -305l65 4c0 -10.667 -1 -22.167 -3 -34.5s-4.66699 -22.5 -8 -30.5l-25 -4.5
c-9.33301 -1.66699 -19.166 -3.33398 -29.499 -5.00098s-20.5 -3.16699 -30.5 -4.5s-19 -2.33301 -27 -3l-260 344h-42v-262l41.5 -4c14.333 -1.33301 27.166 -3.33301 38.499 -6c2 -6 3.33301 -15.167 4 -27.5s0.333984 -21.5 -0.999023 -27.5h-265
c0.666992 7.33301 2.16699 16.166 4.5 26.499s4.83301 19.166 7.5 26.499c9.33301 2.66699 21.833 5.16699 37.5 7.5s29.167 4.16602 40.5 5.49902v564c-11.333 0.666992 -24.333 1.66699 -39 3s-26.334 2.66602 -35.001 3.99902c-1.33301 6.66699 -2.33301 16.167 -3 28.5
s-0.333984 21.833 0.999023 28.5h245c1.33301 -6 1.83301 -15.167 1.5 -27.5s-1.5 -21.833 -3.5 -28.5c-10 -2 -22 -3.66699 -36 -5s-27 -2.33301 -39 -3v-248h57z" />
    <glyph glyph-name="L" unicode="L" horiz-adv-x="552" 
d="M119 630c-11.333 0.666992 -24.3301 1.6709 -38.9971 3.00391s-26.334 2.66602 -35.001 3.99902c-1.33301 6.66699 -2.33301 16.167 -3 28.5s-0.333984 21.833 0.999023 28.5h262c1.33301 -6 1.83301 -15.167 1.5 -27.5s-1.5 -21.833 -3.5 -28.5
c-12.667 -2 -27.5 -3.66699 -44.5 -5s-32.833 -2.33301 -47.5 -3v-566h248l4.5 52.5c1.66699 19.667 3.83398 35.5 6.50098 47.5c7.33301 2.66699 17.666 4.5 30.999 5.5s24.666 1.5 33.999 1.5v-171h-506c0.666992 7.33301 2.16699 16.166 4.5 26.499
s4.83301 19.166 7.5 26.499c9.33301 2.66699 21.833 5.16699 37.5 7.5s29.167 4.16602 40.5 5.49902v564z" />
    <glyph glyph-name="M" unicode="M" horiz-adv-x="895" 
d="M249 424c-13.333 36 -25.002 71.1709 -35.002 105.504s-17 67.166 -21 98.499h-7v-565c11.333 -1.33301 23.333 -2.66602 36 -3.99902s24 -3.33301 34 -6c1.33301 -5.33301 2.33301 -14 3 -26s0.333984 -21 -0.999023 -27h-224c0.666992 7.33301 2 15.833 4 25.5
s4.33301 18.167 7 25.5c8.66699 2.66699 20.167 5.16699 34.5 7.5s26.5 4.16602 36.5 5.49902v566c-11.333 0.666992 -24.166 1.66699 -38.499 3s-25.833 2.66602 -34.5 3.99902c-1.33301 6.66699 -2.33301 16.334 -3 29.001s-0.333984 22 0.999023 28h207l148 -423
c9.33301 -27.333 18.333 -55.666 27 -84.999s15.334 -58 20.001 -86h7c5.33301 28 12.5 56.667 21.5 86s18.5 57.666 28.5 84.999l153 423h204c1.33301 -6 1.83301 -15.167 1.5 -27.5s-1.5 -21.833 -3.5 -28.5c-11.333 -2 -24.333 -3.66699 -39 -5s-28.667 -2.33301 -42 -3
v-565l46 -4c16 -1.33301 30.333 -3.33301 43 -6c1.33301 -5.33301 2.33301 -11.333 3 -18s1 -13.667 1 -21v-8c0 -2 -0.333008 -4.66699 -1 -8h-263c0.666992 7.33301 2.16699 16.166 4.5 26.499s4.5 19.166 6.5 26.499c8.66699 2.66699 20.5 5.16699 35.5 7.5
s27.5 4.16602 37.5 5.49902v562h-7c-4 -30 -11.333 -63 -22 -99s-22.667 -71.667 -36 -107l-159 -435h-57z" />
    <glyph glyph-name="N" unicode="N" horiz-adv-x="735" 
d="M502 231l14.9971 -30.998l18 -40c6 -14 11.333 -27.667 16 -41s8 -24.333 10 -33h7v544c-11.333 0.666992 -24.5 1.66699 -39.5 3s-26.833 2.66602 -35.5 3.99902c-1.33301 6.66699 -2.33301 16.334 -3 29.001s-0.333984 22 0.999023 28h221
c1.33301 -5.33301 2 -12.333 2 -21c0 -7.33301 -0.333008 -14 -1 -20s-1.66699 -11 -3 -15c-9.33301 -2 -20.666 -3.66699 -33.999 -5s-25.666 -2.33301 -36.999 -3v-636h-113l-292 545c-5.33301 9.33301 -11.166 20.833 -17.499 34.5l-17.5 38.5h-7v-547
c14 -1.33301 29 -2.66602 45 -3.99902s30 -3.33301 42 -6c2 -6 3.33301 -15.167 4 -27.5s0.333984 -21.5 -0.999023 -27.5h-254c0.666992 7.33301 2.16699 16.166 4.5 26.499s4.83301 19.166 7.5 26.499c8.66699 2.66699 20.834 5.16699 36.501 7.5
s28.834 4.16602 39.501 5.49902v564c-11.333 0.666992 -24.333 1.66699 -39 3s-26.334 2.66602 -35.001 3.99902c-1.33301 6.66699 -2.33301 16.334 -3 29.001s-0.333984 22 0.999023 28h211z" />
    <glyph glyph-name="O" unicode="O" horiz-adv-x="721" 
d="M362 714c46.667 0 89.332 -7.83496 127.999 -23.502s71.834 -38.667 99.501 -69s49 -67.666 64 -111.999s22.5 -95.166 22.5 -152.499c0 -60 -7.5 -113.333 -22.5 -160s-36.167 -86.167 -63.5 -118.5s-60.333 -56.833 -99 -73.5s-81.667 -25 -129 -25
c-102.667 0 -181.167 31.833 -235.5 95.5s-81.5 157.5 -81.5 281.5c0 55.333 8 105 24 149s38.167 81.5 66.5 112.5s61.833 54.667 100.5 71s80.667 24.5 126 24.5zM143.998 356.998c0 -47.333 4.83105 -90 14.498 -128s23.834 -70.5 42.501 -97.5s41.5 -47.833 68.5 -62.5
s57.833 -22 92.5 -22c72 0 125.833 27.667 161.5 83s53.5 131 53.5 227c0 42 -5.16699 80.833 -15.5 116.5s-24.833 66.334 -43.5 92.001s-41.167 45.834 -67.5 60.501s-55.833 22 -88.5 22c-36 0 -67.5 -6.83301 -94.5 -20.5s-49.667 -33.334 -68 -59.001
s-32.166 -56.334 -41.499 -92.001s-14 -75.5 -14 -119.5z" />
    <glyph glyph-name="P" unicode="P" horiz-adv-x="571" 
d="M119 629c-11.333 0 -23.834 0.170898 -37.501 0.503906s-25.834 1.16602 -36.501 2.49902c-0.666992 3.33301 -1.33398 7.66602 -2.00098 12.999s-1 11 -1 17v17c0 5.33301 0.333008 10 1 14c44 4 87.5 6.83301 130.5 8.5s84.5 2.5 124.5 2.5
c36.667 0 70.834 -4.33301 102.501 -13s59 -21.667 82 -39s41.167 -39 54.5 -65s20 -56.333 20 -91c0 -38 -6.66699 -70.833 -20 -98.5s-31 -50.5 -53 -68.5s-47.167 -31.333 -75.5 -40s-57.166 -13 -86.499 -13c-17.333 0 -35.5 0.666992 -54.5 2s-37.833 3.33301 -56.5 6
v-219c17.333 -1.33301 35.833 -2.66602 55.5 -3.99902s37.167 -3.33301 52.5 -6c0.666992 -3.33301 1.33398 -7.5 2.00098 -12.5s1.16699 -10.167 1.5 -15.5s0.5 -10.5 0.5 -15.5s-0.333008 -8.83301 -1 -11.5h-293c0.666992 7.33301 2.16699 16.166 4.5 26.499
s4.83301 19.166 7.5 26.499c9.33301 2.66699 21.833 5.16699 37.5 7.5s29.167 4.16602 40.5 5.49902v563zM210.999 343.004c16 -1.33301 33.501 -2.5 52.501 -3.5s37.167 -1.5 54.5 -1.5c46 0 81.5 11.833 106.5 35.5s37.5 62.834 37.5 117.501
c0 49.333 -16.5 86.666 -49.5 111.999s-75.833 38 -128.5 38c-4.66699 0 -10.334 -0.333008 -17.001 -1l-20 -1c-6.66699 0 -13.167 -0.166992 -19.5 -0.5s-11.833 -0.833008 -16.5 -1.5v-294z" />
    <glyph glyph-name="Q" unicode="Q" horiz-adv-x="742" 
d="M548 36c14.667 -10.667 31.5029 -21.3359 50.5029 -32.0029s37.667 -20.334 56 -29.001s35.166 -15.834 50.499 -21.501s26.666 -8.5 33.999 -8.5l67 9c0.666992 -2.66699 1 -5 1 -7v-7c0 -12 -1.16699 -24.167 -3.5 -36.5s-4.83301 -22.166 -7.5 -29.499
c-8.66699 -3.33301 -19.5 -6.5 -32.5 -9.5s-23.833 -4.5 -32.5 -4.5c-12 0 -28.833 4.5 -50.5 13.5s-44.834 20.333 -69.501 34s-49.334 28.667 -74.001 45s-46.334 31.5 -65.001 45.5c-16.667 -5.33301 -34.167 -9.66602 -52.5 -12.999s-37.5 -5 -57.5 -5
c-102.667 0 -181.167 31.833 -235.5 95.5s-81.5 157.5 -81.5 281.5c0 55.333 8 105 24 149s38.167 81.5 66.5 112.5s61.833 54.667 100.5 71s80.667 24.5 126 24.5c46.667 0 89.334 -7.83301 128.001 -23.5s71.834 -38.667 99.501 -69s49 -67.666 64 -111.999
s22.5 -95.166 22.5 -152.499c0 -37.333 -3 -72.166 -9 -104.499s-14.5 -62 -25.5 -89s-24.5 -50.667 -40.5 -71s-33.667 -36.833 -53 -49.5v-7zM144.003 356.998c0 -47.333 4.83105 -90 14.498 -128s23.834 -70.5 42.501 -97.5s41.5 -47.833 68.5 -62.5s57.833 -22 92.5 -22
c72 0 125.833 27.667 161.5 83s53.5 131 53.5 227c0 42 -5.16699 80.833 -15.5 116.5s-24.833 66.334 -43.5 92.001s-41.167 45.834 -67.5 60.501s-55.833 22 -88.5 22c-36 0 -67.5 -6.83301 -94.5 -20.5s-49.667 -33.334 -68 -59.001s-32.166 -56.334 -41.499 -92.001
s-14 -75.5 -14 -119.5z" />
    <glyph glyph-name="R" unicode="R" horiz-adv-x="628" 
d="M119 631c-11.333 0 -23.8262 0.171875 -37.4932 0.504883s-25.834 1.16602 -36.501 2.49902c-0.666992 3.33301 -1.33398 7.66602 -2.00098 12.999s-1 11 -1 17v17c0 5.33301 0.333008 10 1 14c40 3.33301 81 5.83301 123 7.5s83 2.5 123 2.5
c35.333 0 69 -3.83301 101 -11.5s60 -19.5 84 -35.5s43 -36.167 57 -60.5s21 -53.166 21 -86.499c0 -25.333 -4 -48.5 -12 -69.5s-19 -39.5 -33 -55.5s-30.167 -29.333 -48.5 -40s-37.833 -19 -58.5 -25l48 -91.5l46.5 -82c14.333 -24.333 26.666 -44.166 36.999 -59.499
s17.166 -23.333 20.499 -24l63 4c0 -10.667 -1.16699 -22.334 -3.5 -35.001s-5.16602 -22.667 -8.49902 -30c-16.667 -4.66699 -34.834 -8.5 -54.501 -11.5s-37.834 -5.16699 -54.501 -6.5c-6.66699 4 -15.834 14.667 -27.501 32s-25.167 40.166 -40.5 68.499l-52 99
l-62 124.5c-16.667 0 -33.5 0.333008 -50.5 1s-33.833 2 -50.5 4v-249c13.333 -1.33301 27.666 -2.5 42.999 -3.5s28.666 -2.83301 39.999 -5.5c0.666992 -3.33301 1.33398 -7.5 2.00098 -12.5s1.16699 -10.333 1.5 -16s0.5 -11 0.5 -16s-0.333008 -8.83301 -1 -11.5h-268
c0.666992 7.33301 2.16699 16.166 4.5 26.499s4.83301 19.166 7.5 26.499c9.33301 2.66699 21.833 5.16699 37.5 7.5s29.167 4.16602 40.5 5.49902v565zM211.007 368.005c17.333 -1.33301 34.833 -2.16699 52.5 -2.5s34.5 -0.5 50.5 -0.5c42.667 0 77.5 11 104.5 33
s40.5 57.333 40.5 106c0 24 -4.66699 44.833 -14 62.5s-22.333 32.167 -39 43.5s-36.334 19.666 -59.001 24.999s-47.334 8 -74.001 8c-9.33301 0 -19.666 -0.166992 -30.999 -0.5s-21.666 -1.16602 -30.999 -2.49902v-272z" />
    <glyph glyph-name="S" unicode="S" horiz-adv-x="540" 
d="M395 630c-12 7.33301 -26.3281 12.8301 -42.9951 16.4971s-33.667 5.5 -51 5.5c-42 0 -74.833 -9.83301 -98.5 -29.5s-35.5 -43.834 -35.5 -72.501c0 -29.333 8.16699 -53 24.5 -71s36.666 -33.667 60.999 -47s50.833 -26 79.5 -38s55.167 -26.667 79.5 -44
s44.666 -38.666 60.999 -63.999s24.5 -58 24.5 -98c0 -39.333 -7 -72.166 -21 -98.499s-32.5 -47.666 -55.5 -63.999s-49.5 -28 -79.5 -35s-61.333 -10.5 -94 -10.5c-35.333 0 -70.5 3.5 -105.5 10.5s-66.167 16.167 -93.5 27.5c0 12.667 0.166992 26.334 0.5 41.001
s1 29.5 2 44.5s2.16699 29.667 3.5 44s3 27.166 5 38.499c4.66699 0 10.167 -0.166992 16.5 -0.5s13 -1 20 -2s13.833 -2.16699 20.5 -3.5s12.334 -2.66602 17.001 -3.99902v-102c18 -10 38.5 -17.5 61.5 -22.5s45.5 -7.5 67.5 -7.5c48 0 83.667 11.167 107 33.5
s35 53.5 35 93.5c0 30.667 -8.16699 55.167 -24.5 73.5s-36.833 34.166 -61.5 47.499s-51.334 25.666 -80.001 36.999s-55.334 25.333 -80.001 42s-45.167 37.834 -61.5 63.501s-24.5 59.167 -24.5 100.5c0 26.667 5 51 15 73s24.5 40.833 43.5 56.5s42 27.834 69 36.501
s57.5 13 91.5 13c29.333 0 60.666 -3 93.999 -9s63.666 -14.333 90.999 -25c0 -10.667 -0.333008 -22.5 -1 -35.5s-1.5 -26.167 -2.5 -39.5s-2.5 -26.333 -4.5 -39s-4 -24 -6 -34c-10 0 -21.667 1.33301 -35 4s-24 6 -32 10v84z" />
    <glyph glyph-name="T" unicode="T" horiz-adv-x="586" 
d="M339 65c15.333 -1.33301 31.8291 -2.66309 49.4961 -3.99609s33.167 -3.33301 46.5 -6c2 -6 3.33301 -15.167 4 -27.5s0.333984 -21.5 -0.999023 -27.5h-288c0.666992 7.33301 2.33398 16.166 5.00098 26.499s5.33398 19.166 8.00098 26.499
c10 2.66699 23.5 5.16699 40.5 7.5s31.5 4.16602 43.5 5.49902v567h-162c-0.666992 -6 -1.5 -12.833 -2.5 -20.5s-2.16699 -15.5 -3.5 -23.5l-4 -23c-1.33301 -7.33301 -2.33301 -13.333 -3 -18c-7.33301 -2 -16.833 -3.5 -28.5 -4.5s-22.167 -1.5 -31.5 -1.5v152h562v-156
c-10 0 -20.667 0.666992 -32 2s-21 3 -29 5c-2.66699 11.333 -5.16699 25.666 -7.5 42.999s-4.16602 32.333 -5.49902 45h-161v-568z" />
    <glyph glyph-name="U" unicode="U" horiz-adv-x="704" 
d="M188 257c0 -68.667 14.3301 -121.167 42.9971 -157.5s73 -54.5 133 -54.5c31.333 0 58.333 5.5 81 16.5s41.334 26.167 56.001 45.5s25.5 42 32.5 68s10.5 54 10.5 84v371c-10.667 0.666992 -22.667 1.66699 -36 3s-24 2.66602 -32 3.99902
c-2 6.66699 -3.16699 16.334 -3.5 29.001s0.166992 22 1.5 28h219c1.33301 -5.33301 2 -12.333 2 -21c0 -6 -0.333008 -12.333 -1 -19s-1.66699 -12 -3 -16c-9.33301 -2 -20.666 -3.66699 -33.999 -5s-25.666 -2.33301 -36.999 -3v-365c0 -42 -5.33301 -80.5 -16 -115.5
s-27.167 -65 -49.5 -90s-51 -44.5 -86 -58.5s-76.5 -21 -124.5 -21c-84.667 0 -147.167 23 -187.5 69s-60.5 112.667 -60.5 200v379c-10 1.33301 -22.833 2.83301 -38.5 4.5s-27.834 3.16699 -36.501 4.5c-1.33301 2.66699 -2.5 6.66699 -3.5 12s-1.83301 10.833 -2.5 16.5
s-1.16699 11.167 -1.5 16.5s-0.5 9.33301 -0.5 12h264c1.33301 -6 1.83301 -15.167 1.5 -27.5s-1.5 -21.833 -3.5 -28.5c-11.333 -2 -25.166 -3.66699 -41.499 -5s-31.5 -2.33301 -45.5 -3v-373z" />
    <glyph glyph-name="V" unicode="V" horiz-adv-x="711" 
d="M371 68c2.66699 17.333 7.50098 38.1641 14.501 62.4971s13.833 46.166 20.5 65.499l100 293c7.33301 21.333 16 44.666 26 69.999s19.667 48.666 29 69.999c-12.667 0.666992 -26 1.83398 -40 3.50098s-26.667 3.83398 -38 6.50098
c-2.66699 6.66699 -5 15.834 -7 27.501s-3 20.834 -3 27.501h233c0 -7.33301 -1.16699 -17 -3.5 -29s-4.83301 -21.667 -7.5 -29c-8.66699 -1.33301 -18.334 -2.5 -29.001 -3.5s-20.667 -1.83301 -30 -2.5l-237 -643h-90l-230 642c-8 0.666992 -18 2 -30 4s-22 4 -30 6
c-2.66699 6.66699 -5 15.834 -7 27.501s-3 20.834 -3 27.501h266c0 -8 -1.33301 -17.833 -4 -29.5s-5.66699 -21.167 -9 -28.5c-12.667 -1.33301 -27.167 -2.5 -43.5 -3.5s-32.166 -1.83301 -47.499 -2.5c10.667 -20.667 21 -42.167 31 -64.5s19.333 -46.166 28 -71.499
l104 -305c2.66699 -8 5.5 -17.167 8.5 -27.5s5.83301 -21 8.5 -32s5.16699 -21.833 7.5 -32.5s4.16602 -20.334 5.49902 -29.001h7z" />
    <glyph glyph-name="W" unicode="W" horiz-adv-x="1002" 
d="M317 70l12.0049 62.498c4.66699 23.667 9.33398 44.834 14.001 63.501l122 507h106l115 -511c5.33301 -21.333 9.5 -42 12.5 -62s6.16699 -40 9.5 -60h7c2.66699 16.667 6.16699 36.334 10.5 59.001s9.16602 45 14.499 67l75 299c5.33301 22 11.833 45.5 19.5 70.5
s15.167 46.5 22.5 64.5c-12 0.666992 -25 1.66699 -39 3s-26 3 -36 5c-2 6.66699 -3.83301 16 -5.5 28s-2.5 21.333 -2.5 28h215c0 -6.66699 -1.16699 -16.334 -3.5 -29.001s-4.5 -22.334 -6.5 -29.001c-6.66699 -1.33301 -14.834 -2.5 -24.501 -3.5
s-18.834 -1.83301 -27.501 -2.5l-184 -643h-94l-111 482c-2.66699 10.667 -5.33398 22.834 -8.00098 36.501s-5.16699 27.667 -7.5 42s-4.5 28.5 -6.5 42.5s-3.66699 26.667 -5 38h-7c-1.33301 -11.333 -3.16602 -24.166 -5.49902 -38.499l-7.5 -44
c-2.66699 -15 -5.5 -29.667 -8.5 -44s-5.83301 -26.833 -8.5 -37.5l-117 -477h-103l-169 641l-29 4.5c-10.667 1.66699 -19.334 3.5 -26.001 5.5c-3.33301 8 -5.83301 17.5 -7.5 28.5s-2.83398 20.167 -3.50098 27.5h255c0 -8 -1.16699 -17.833 -3.5 -29.5
s-5.16602 -21.167 -8.49902 -28.5c-12.667 -1.33301 -26.834 -2.5 -42.501 -3.5s-30.834 -1.83301 -45.501 -2.5c7.33301 -17.333 15 -38.833 23 -64.5s14.667 -49.167 20 -70.5l71 -301c4 -17.333 8 -37.5 12 -60.5s7.33301 -44.167 10 -63.5h7z" />
    <glyph glyph-name="X" unicode="X" horiz-adv-x="705" 
d="M460 570c5.33301 9.33301 11.9971 19.502 19.9971 30.502s16.333 20.833 25 29.5c-10 0.666992 -20.833 1.66699 -32.5 3s-22.167 3 -31.5 5c-3.33301 8.66699 -5.66602 18.334 -6.99902 29.001s-2 19.667 -2 27h207c0 -7.33301 -0.833008 -17 -2.5 -29
s-3.5 -21.667 -5.5 -29c-5.33301 -1.33301 -12.833 -2.33301 -22.5 -3s-18.167 -1.33398 -25.5 -2.00098l-179 -271l199 -296c8.66699 -0.666992 18.834 -1.66699 30.501 -3s22.167 -3 31.5 -5c2.66699 -7.33301 5 -16.5 7 -27.5s3.33301 -20.5 4 -28.5h-255
c1.33301 8 3.5 17.167 6.5 27.5s6.16699 19.166 9.5 26.499c8.66699 2 19.334 3.66699 32.001 5l39 4c-11.333 9.33301 -23 21 -35 35s-22 26.667 -30 38l-113 169l-105 -182c-5.33301 -9.33301 -12.333 -19.666 -21 -30.999s-17 -21 -25 -29
c12.667 -0.666992 26 -1.66699 40 -3s26.667 -3.33301 38 -6c2.66699 -6.66699 5 -15.834 7 -27.501s3 -20.5 3 -26.5h-246c1.33301 7.33301 3.33301 15.833 6 25.5s5.66699 18.5 9 26.5c7.33301 2 16 3.83301 26 5.5s19.667 3.16699 29 4.5l202 299l-175 266
c-8 0.666992 -18 2 -30 4s-21.333 4 -28 6c-2.66699 6.66699 -4.66699 16 -6 28s-2 21.667 -2 29h248c0 -8 -1 -17.833 -3 -29.5s-4 -20.834 -6 -27.501c-11.333 -1.33301 -23.833 -2.66602 -37.5 -3.99902s-27.167 -2.33301 -40.5 -3c10 -10 20.333 -21.833 31 -35.5
s19.667 -25.834 27 -36.501l99 -147z" />
    <glyph glyph-name="Y" unicode="Y" horiz-adv-x="602" 
d="M315 338c2.66699 8.66699 6.16992 18.499 10.5029 29.499s9.16602 21.167 14.499 30.5l85 163c5.33301 10.667 11.833 22.334 19.5 35.001s15.5 24 23.5 34c-10.667 0.666992 -22.167 1.66699 -34.5 3s-23.166 3 -32.499 5
c-3.33301 8.66699 -5.66602 18.334 -6.99902 29.001s-2 19.667 -2 27h206c0 -7.33301 -0.666992 -16.833 -2 -28.5s-3 -21.167 -5 -28.5c-7.33301 -1.33301 -15.333 -2.5 -24 -3.5s-16.667 -1.83301 -24 -2.5l-202 -357v-209
c15.333 -1.33301 31.666 -2.66602 48.999 -3.99902s32.666 -3.33301 45.999 -6c0.666992 -3.33301 1.33398 -7.5 2.00098 -12.5s1.16699 -10.167 1.5 -15.5s0.5 -10.5 0.5 -15.5s-0.333008 -8.83301 -1 -11.5h-288c1.33301 8 3.16602 17.167 5.49902 27.5
s4.83301 18.833 7.5 25.5c10 2.66699 23.667 5.16699 41 7.5s32 4.16602 44 5.49902v206l-181 356c-7.33301 0.666992 -16.333 1.83398 -27 3.50098s-19.667 3.5 -27 5.5c-2.66699 7.33301 -4.83398 16.833 -6.50098 28.5s-2.5 21.167 -2.5 28.5h251
c0 -8.66699 -0.833008 -18.334 -2.5 -29.001s-3.83398 -19.667 -6.50098 -27c-11.333 -2 -24.5 -3.66699 -39.5 -5s-29.167 -2.33301 -42.5 -3c16.667 -21.333 30.667 -44 42 -68l80 -164c4 -8.66699 8 -18.834 12 -30.501s7 -21.5 9 -29.5h7z" />
    <glyph glyph-name="Z" unicode="Z" horiz-adv-x="561" 
d="M41 70l371.002 550.998v7h-275c0 -5.33301 -0.666992 -12.166 -2 -20.499l-4 -26c-1.33301 -9 -2.83301 -17.667 -4.5 -26s-3.16699 -14.833 -4.5 -19.5c-9.33301 -2 -20.333 -3.66699 -33 -5s-24 -2 -34 -2v165h460v-71l-365 -548v-7h297c0 5.33301 0.5 12.333 1.5 21
s2.16699 17.667 3.5 27l4 27.5c1.33301 9 2.66602 16.5 3.99902 22.5c8 2.66699 18.667 4.83398 32 6.50098s24.666 2.5 33.999 2.5v-175h-485v70z" />
    <glyph glyph-name="bracketleft" unicode="[" horiz-adv-x="330" 
d="M102 749l157.001 0.00195312v-28c0 -5.33301 -0.333008 -10.5 -1 -15.5s-1.33398 -9.16699 -2.00098 -12.5c-10.667 -2 -22.167 -3.5 -34.5 -4.5s-23.833 -1.83301 -34.5 -2.5v-816c12.667 -0.666992 27.5 -1.83398 44.5 -3.50098s29.833 -3.83398 38.5 -6.50098
c1.33301 -3.33301 2.33301 -8.16602 3 -14.499s1 -12.5 1 -18.5c0 -6.66699 -0.666992 -13.334 -2 -20.001h-170v942z" />
    <glyph glyph-name="backslash" unicode="\" horiz-adv-x="422" 
d="M415 -142c-3.33301 -2 -7.83398 -4.16699 -13.501 -6.5s-12 -4.66602 -19 -6.99902l-20 -6.5c-6.33301 -2 -11.5 -3.33301 -15.5 -4l-340 897c6 5.33301 15.833 11.666 29.5 18.999s24.834 12.333 33.501 15z" />
    <glyph glyph-name="bracketright" unicode="]" horiz-adv-x="330" 
d="M229 -193l-171.998 0.000976562c0.666992 7.33301 2 16.333 4 27s4.33301 19.667 7 27c9.33301 2.66699 21.666 5 36.999 7l39 5v813c-11.333 0.666992 -23 1.66699 -35 3s-22.667 2.66602 -32 3.99902c-0.666992 3.33301 -1.33398 7.5 -2.00098 12.5s-1 10.333 -1 16
s0.166992 11 0.5 16s0.833008 8.83301 1.5 11.5h153v-942z" />
    <glyph glyph-name="asciicircum" unicode="^" 
d="M246 667l62.001 6l190 -308c-6.66699 -4.66699 -16 -10 -28 -16s-22.333 -10.667 -31 -14l-114 189c-6.66699 10.667 -14.334 24.5 -23.001 41.5l-21 42.5h-7l-20 -41c-8 -16 -15.667 -30 -23 -42l-116 -197c-6.66699 4 -14.5 10.5 -23.5 19.5s-15.833 16.5 -20.5 22.5z
" />
    <glyph glyph-name="underscore" unicode="_" horiz-adv-x="500" 
d="M501 -172c1.33301 -6 2.16699 -12.666 2.5 -19.999s0.5 -14.666 0.5 -21.999v-7c0 -2.66699 -0.333008 -6 -1 -10h-512c0 7.33301 0.666992 17.166 2 29.499s3.33301 22.166 6 29.499h502z" />
    <glyph glyph-name="grave" unicode="`" horiz-adv-x="419" 
d="M73 706c4.66699 3.33301 10.999 6.33203 18.999 8.99902s16.667 4.83398 26 6.50098s18.833 3 28.5 4s18.5 1.5 26.5 1.5l116 -159c-3.33301 -1.33301 -8.16602 -3 -14.499 -5s-13 -3.83301 -20 -5.5s-13.833 -3 -20.5 -4s-12 -1.5 -16 -1.5z" />
    <glyph glyph-name="a" unicode="a" horiz-adv-x="507" 
d="M328 59c-13.333 -24.667 -32.5049 -43.498 -57.5049 -56.498s-52.5 -19.5 -82.5 -19.5c-18 0 -35.667 2.66699 -53 8s-32.5 13.5 -45.5 24.5s-23.5 24.833 -31.5 41.5s-12 36.667 -12 60c0 26 5 48.667 15 68s23.5 35.5 40.5 48.5s36.833 22.833 59.5 29.5
s46.334 10 71.001 10c16 0 32.333 -1.5 49 -4.5s31.334 -7.16699 44.001 -12.5v54c0 74.667 -31.667 112 -95 112c-10.667 0 -22.667 -1.5 -36 -4.5s-26.666 -6.66699 -39.999 -11s-26.166 -9.5 -38.499 -15.5s-22.833 -12 -31.5 -18c-2 4.66699 -3.33301 9.83398 -4 15.501
s-1 11.834 -1 18.501c0 9.33301 1 18.666 3 27.999s4.66699 16.666 8 21.999c8 4.66699 18.5 9.16699 31.5 13.5s27 8 42 11s30.333 5.5 46 7.5s30.167 3 43.5 3c54.667 0 94.5 -14.5 119.5 -43.5s37.5 -77.833 37.5 -146.5v-194c0 -10 1.16699 -20.167 3.5 -30.5
s5.5 -17.5 9.5 -21.5c7.33301 0 18.333 1.16699 33 3.5s26.667 5.16602 36 8.49902c0.666992 -2.66699 1 -6.33398 1 -11.001c0 -16.667 -3.33301 -31.667 -10 -45c-11.333 -7.33301 -27.833 -14 -49.5 -20s-41.167 -9 -58.5 -9c-10 6 -19.167 16.167 -27.5 30.5
s-13.166 29.5 -14.499 45.5h-5zM325.995 212.002c-9.33301 2.66699 -20.833 4.66699 -34.5 6s-25.5 2 -35.5 2c-39.333 0 -69.5 -8 -90.5 -24s-31.5 -37.333 -31.5 -64c0 -28 9.16699 -48.333 27.5 -61s39.5 -19 63.5 -19c19.333 0 38.5 4.33301 57.5 13
s33.5 20.667 43.5 36v111z" />
    <glyph glyph-name="b" unicode="b" horiz-adv-x="551" 
d="M168 55c12 -4 25 -7.16797 39 -9.50098s28.667 -3.5 44 -3.5c54.667 0 95 18 121 54s39 83 39 141c0 60.667 -12 107 -36 139s-55 48 -93 48c-29.333 0 -53 -6.16699 -71 -18.5s-32.333 -26.166 -43 -41.499v-309zM82 663.999h-72.001
c0.666992 8.66699 2.5 17.834 5.5 27.501s7.16699 18.167 12.5 25.5c12 4 25.833 7.33301 41.5 10s31.834 4 48.501 4c18.667 0 35.667 -2 51 -6v-193c0 -19.333 -0.5 -38.833 -1.5 -58.5s-2.16699 -39.167 -3.5 -58.5h10c8 21.333 23.667 39.5 47 54.5s55 22.5 95 22.5
c22 0 44 -4 66 -12s41.833 -21.5 59.5 -40.5s32.167 -43.833 43.5 -74.5s17 -68.667 17 -114c0 -40 -5.83301 -76.5 -17.5 -109.5s-28.167 -61.333 -49.5 -85s-46.833 -41.834 -76.5 -54.501s-62.5 -19 -98.5 -19c-30 0 -60.333 3.33301 -91 10s-59.667 16.667 -87 30v641z
" />
    <glyph glyph-name="c" unicode="c" horiz-adv-x="466" 
d="M350 419c-20 10 -39.3359 14.9961 -58.0029 14.9961c-43.333 0 -78.833 -15 -106.5 -45s-41.5 -77.667 -41.5 -143c0 -33.333 3.83301 -62.166 11.5 -86.499s18.5 -44.5 32.5 -60.5s30.5 -27.833 49.5 -35.5s39.833 -11.5 62.5 -11.5c8.66699 0 18.5 0.666992 29.5 2
s22 3.16602 33 5.49902s21.833 4.83301 32.5 7.5s20 5.66699 28 9c0.666992 -7.33301 -0.333008 -16.833 -3 -28.5s-6.33398 -21.167 -11.001 -28.5c-17.333 -9.33301 -39.666 -17.666 -66.999 -24.999s-54.333 -11 -81 -11c-32 0 -61.167 6.16699 -87.5 18.5
s-48.666 29.333 -66.999 51s-32.5 47.334 -42.5 77.001s-15 62.167 -15 97.5c0 38.667 5.83301 74.167 17.5 106.5s28.334 60.333 50.001 84s47.5 42 77.5 55s63.333 19.5 100 19.5c26 0 50 -3.16699 72 -9.5s41.667 -15.166 59 -26.499
c0.666992 -5.33301 1.16699 -11.333 1.5 -18s0.5 -12.667 0.5 -18c0 -14.667 -1 -29.167 -3 -43.5s-5.66699 -28.166 -11 -41.499c-9.33301 0 -20.166 1.16699 -32.499 3.5s-22.5 5.5 -30.5 9.5v71z" />
    <glyph glyph-name="d" unicode="d" horiz-adv-x="572" 
d="M382 664l-72 -0.00488281c0.666992 8.66699 2.5 17.834 5.5 27.501s7.16699 18.167 12.5 25.5c11.333 4 25 7.33301 41 10s32.333 4 49 4c18.667 0 35.667 -2 51 -6v-593c0 -11.333 0.5 -23.5 1.5 -36.5s3.16699 -24.5 6.5 -34.5h75c0.666992 -2 1 -4.33301 1 -7v-6
c0 -6.66699 -0.833008 -13.667 -2.5 -21s-3.5 -13.666 -5.5 -18.999c-8.66699 -3.33301 -19.167 -6.16602 -31.5 -8.49902s-25 -4.33301 -38 -6s-25.333 -3 -37 -4s-21.167 -1.5 -28.5 -1.5c-11.333 20.667 -18 44.667 -20 72h-5c-6.66699 -10 -14.167 -19.667 -22.5 -29
s-18.5 -17.5 -30.5 -24.5s-26 -12.667 -42 -17s-34.333 -6.5 -55 -6.5c-22 0 -44 4 -66 12s-41.833 21.5 -59.5 40.5s-32.167 43.833 -43.5 74.5s-17 68.667 -17 114c0 40 5.83301 76.5 17.5 109.5s28.167 61.333 49.5 85s46.833 41.834 76.5 54.501s62.5 19 98.5 19
c16 0 32.5 -2.16699 49.5 -6.5s30.833 -10.166 41.5 -17.499v196zM383 417.995c-12 4 -25.001 7.33398 -39.001 10.001s-28.667 4 -44 4c-27.333 0 -51.166 -4.66699 -71.499 -14s-37 -22.5 -50 -39.5s-22.667 -37.5 -29 -61.5s-9.5 -50.333 -9.5 -79
c0 -60.667 12 -107 36 -139s55 -48 93 -48c29.333 0 53 6.16699 71 18.5s32.333 26.166 43 41.499v307z" />
    <glyph glyph-name="e" unicode="e" horiz-adv-x="497" 
d="M142 226c1.33301 -54 17 -96.335 47 -127.002s68.667 -46 116 -46c10.667 0 22.167 0.833008 34.5 2.5s24.833 3.83398 37.5 6.50098s24.834 5.66699 36.501 9s22.167 6.66602 31.5 9.99902c1.33301 -7.33301 0.666016 -16.833 -2.00098 -28.5
s-6.33398 -21.167 -11.001 -28.5c-18 -10 -41 -19.333 -69 -28s-57.667 -13 -89 -13c-36 0 -67.833 6.33301 -95.5 19s-51.167 30 -70.5 52s-34 47.833 -44 77.5s-15 61.834 -15 96.501c0 36.667 5.5 71 16.5 103s26.5 60 46.5 84s44.167 42.833 72.5 56.5
s60.166 20.5 95.499 20.5c30 0 55.833 -5.16699 77.5 -15.5s39.334 -24.833 53.001 -43.5s23.834 -41.167 30.501 -67.5s10 -55.166 10 -86.499c0 -17.333 -1 -35 -3 -53h-306zM362 283.998c2 17.333 2 35 0 53s-6.66699 34.5 -14 49.5s-17.833 27.167 -31.5 36.5
s-30.834 14 -51.501 14c-36 0 -64.667 -14 -86 -42s-33.666 -65 -36.999 -111h220z" />
    <glyph glyph-name="f" unicode="f" horiz-adv-x="339" 
d="M333 475c1.33301 -9.33301 2.50293 -19.499 3.50293 -30.499s1.5 -20.167 1.5 -27.5h-136v-353c6.66699 -0.666992 14.667 -1.66699 24 -3s18.5 -2.83301 27.5 -4.5l26 -5c8.33301 -1.66699 15.5 -3.5 21.5 -5.5c1.33301 -6 2.33301 -13.333 3 -22
s0.333984 -16.667 -0.999023 -24h-266c2 16.667 6.66699 31.667 14 45c8 3.33301 18.167 6.83301 30.5 10.5s23.5 6.5 33.5 8.5v353h-79c0 7.33301 1.16699 16 3.5 26s5.16602 18.667 8.49902 26c9.33301 3.33301 20.166 6.66602 32.499 9.99902s23.833 6 34.5 8v54
c0 34 4.83301 62.833 14.5 86.5s22.5 43.167 38.5 58.5s34.667 26.5 56 33.5s43.666 10.5 66.999 10.5c16 0 33.333 -1.33301 52 -4s37.667 -7 57 -13c2 -11.333 3 -22.666 3 -33.999c0 -16 -1.33301 -31.833 -4 -47.5s-6 -29.167 -10 -40.5c-8 0 -18.167 1.5 -30.5 4.5
s-21.833 6.83301 -28.5 11.5v67c-4.66699 2.66699 -10 4.5 -16 5.5s-11.333 1.5 -16 1.5c-13.333 0 -25.833 -2 -37.5 -6s-21.834 -10.833 -30.501 -20.5s-15.5 -22.834 -20.5 -39.501s-7.5 -38 -7.5 -64v-76h131z" />
    <glyph glyph-name="g" unicode="g" horiz-adv-x="541" 
d="M124 10c-13.333 4 -24.6631 12.333 -33.9961 25s-14 28 -14 46c0 17.333 5.33301 33.666 16 48.999s23.667 27.333 39 36v5c-20.667 12.667 -36.5 31 -47.5 55s-16.5 53 -16.5 87c0 28 4.83301 53 14.5 75s23.167 40.667 40.5 56s37.666 27.166 60.999 35.499
s48.666 12.5 75.999 12.5c22.667 0 43.5 -2.5 62.5 -7.5s35.833 -11.833 50.5 -20.5c9.33301 5.33301 23.166 9.83301 41.499 13.5s36.833 5.5 55.5 5.5c16.667 0 31 -2 43 -6c2 -7.33301 3.83301 -17 5.5 -29s2.5 -22.333 2.5 -31h-99
c9.33301 -13.333 16.5 -28.666 21.5 -45.999s7.5 -36.666 7.5 -57.999c0 -56 -16.833 -99.667 -50.5 -131s-80.5 -47 -140.5 -47c-14 0 -28.167 0.833008 -42.5 2.5s-27.166 4.5 -38.499 8.5c-4.66699 -4.66699 -8.33398 -10.834 -11.001 -18.501s-4 -15.167 -4 -22.5
c0 -19.333 12.667 -31.833 38 -37.5s61 -8.5 107 -8.5c28.667 0 55.5 -1.83301 80.5 -5.5s46.833 -10.5 65.5 -20.5s33.167 -23.5 43.5 -40.5s15.5 -38.833 15.5 -65.5c0 -30 -6.66699 -56.167 -20 -78.5s-31.5 -41 -54.5 -56s-49.667 -26.167 -80 -33.5
s-62.5 -11 -96.5 -11c-29.333 0 -57.666 3 -84.999 9s-51.333 15.333 -72 28s-37.167 28.334 -49.5 47.001s-18.5 40.667 -18.5 66c0 14 2.66699 27 8 39s12.166 22.667 20.499 32s17.666 17 27.999 23s20.5 10.333 30.5 13v5zM174.003 -7
c-18.667 -8.66699 -32.167 -20.334 -40.5 -35.001s-12.5 -30.667 -12.5 -48s4.66699 -32.666 14 -45.999s21.333 -24.333 36 -33s31.167 -15.167 49.5 -19.5s36.833 -6.5 55.5 -6.5c20 0 39.167 2.16699 57.5 6.5s34.5 10.833 48.5 19.5s25.333 19.334 34 32.001
s13 27.667 13 45c0 25.333 -10.5 44.166 -31.5 56.499s-57.5 18.5 -109.5 18.5c-18 0 -37 0.666992 -57 2s-39 4 -57 8zM155.003 313c0 -38 9.16602 -68.333 27.499 -91s43.833 -34 76.5 -34c34.667 0 60.334 11.333 77.001 34s25 53 25 91c0 36.667 -9 66.667 -27 90
s-43 35 -75 35c-36 0 -62.333 -10.833 -79 -32.5s-25 -52.5 -25 -92.5z" />
    <glyph glyph-name="h" unicode="h" horiz-adv-x="603" 
d="M195 61c12 -1.33301 24.833 -3 38.5 -5s25.167 -4.66699 34.5 -8c1.33301 -6 2.33301 -13.667 3 -23s0.333984 -17.666 -0.999023 -24.999h-240c2 16.667 6.66699 31.667 14 45c8 3.33301 18.167 6.83301 30.5 10.5s23.5 6.5 33.5 8.5v600h-72
c0.666992 8.66699 2.5 17.834 5.5 27.501s7.16699 18.167 12.5 25.5c12 4.66699 26 8.16699 42 10.5s32 3.5 48 3.5c18.667 0 35.667 -2 51 -6v-193c0 -20.667 -0.5 -41.5 -1.5 -62.5s-2.16699 -41.833 -3.5 -62.5h10c4 10 10.333 20 19 30s19.5 19 32.5 27
s28.333 14.667 46 20s37.5 8 59.5 8c20 0 39.167 -2.16699 57.5 -6.5s34.333 -12.833 48 -25.5s24.667 -30.834 33 -54.501s12.5 -54.834 12.5 -93.501c0 -83.333 -2 -167 -6 -251c13.333 -1.33301 27.666 -3 42.999 -5s28 -4.66699 38 -8c2 -8 3 -18.333 3 -31v-9
c0 -2 -0.333008 -4.66699 -1 -8h-237c2 16.667 6.66699 31.667 14 45c7.33301 3.33301 16.5 6.83301 27.5 10.5s20.833 6.5 29.5 8.5v234c0 38.667 -7.16699 69.334 -21.5 92.001s-39.166 34 -74.499 34c-13.333 0 -26.333 -2 -39 -6s-24.834 -9.16699 -36.501 -15.5
s-22 -13.333 -31 -21s-16.167 -14.834 -21.5 -21.501v-299z" />
    <glyph glyph-name="i" unicode="i" horiz-adv-x="305" 
d="M42 419c0.666992 8.66699 2.49902 17.8311 5.49902 27.498s7.16699 18.167 12.5 25.5c11.333 4 25 7.33301 41 10s32.333 4 49 4c19.333 0 36.666 -2 51.999 -6v-418c12.667 -1.33301 26.334 -3.16602 41.001 -5.49902s27.334 -5.16602 38.001 -8.49902
c2 -8 3 -18.333 3 -31v-9c0 -2 -0.333008 -4.66699 -1 -8h-246c2 16.667 6.66699 31.667 14 45c8 3.33301 18.167 6.83301 30.5 10.5s23.5 6.5 33.5 8.5v355h-73zM160.999 706.997c16.667 0 30.166 -4.83301 40.499 -14.5s15.5 -23.167 15.5 -40.5
c0 -19.333 -5.16699 -34 -15.5 -44s-23.833 -15 -40.5 -15c-38 0 -57 19.667 -57 59c0 16.667 5.33301 30 16 40s24.334 15 41.001 15z" />
    <glyph glyph-name="j" unicode="j" horiz-adv-x="269" 
d="M29 419c0.666992 8.66699 2.50195 17.833 5.50195 27.5s6.83301 18.167 11.5 25.5c11.333 4 25.166 7.33301 41.499 10s32.833 4 49.5 4c19.333 0 36.666 -2 51.999 -6v-410c0 -36 -4.33301 -68.833 -13 -98.5s-20.167 -57 -34.5 -82s-30.666 -48.167 -48.999 -69.5
s-36.833 -41 -55.5 -59c-9.33301 3.33301 -18.333 8.5 -27 15.5s-15.667 14.833 -21 23.5c13.333 14 26.666 29.333 39.999 46s25.5 35.167 36.5 55.5s19.833 42.333 26.5 66s10 49.5 10 77.5v374h-73zM148.002 706.999c16.667 0 30.166 -4.83301 40.499 -14.5
s15.5 -23.167 15.5 -40.5c0 -19.333 -5.16699 -34 -15.5 -44s-23.833 -15 -40.5 -15c-38 0 -57 19.667 -57 59c0 16.667 5.33301 30 16 40s24.334 15 41.001 15z" />
    <glyph glyph-name="k" unicode="k" horiz-adv-x="563" 
d="M195 61c12.667 -1.33301 25.3311 -2.99805 37.998 -4.99805s23.667 -4.66699 33 -8c1.33301 -6 2.33301 -13.667 3 -23s0.333984 -17.666 -0.999023 -24.999h-238c2 16.667 6.66699 31.667 14 45c8 3.33301 18.167 6.83301 30.5 10.5s23.5 6.5 33.5 8.5v600h-72
c0.666992 8.66699 2.5 17.834 5.5 27.501s7.16699 18.167 12.5 25.5c11.333 4 25 7.33301 41 10s32.333 4 49 4c18.667 0 35.667 -2 51 -6v-435h56l88 91c4.66699 4.66699 11 10.334 19 17.001s14.333 11.667 19 15c-8.66699 1.33301 -19.5 3.16602 -32.5 5.49902
s-23.167 5.16602 -30.5 8.49902c-2 5.33301 -3.66699 12.833 -5 22.5s-2 18.167 -2 25.5h211c0 -7.33301 -1 -16.333 -3 -27s-4.33301 -19.334 -7 -26.001c-5.33301 -2 -13 -3.66699 -23 -5s-18.333 -2.33301 -25 -3l-153 -146l64 -77l59 -68c18 -20 33.333 -36.333 46 -49
s21 -19.334 25 -20.001l59 9c0.666992 -3.33301 1 -6 1 -8v-4c0 -7.33301 -1.16699 -15.833 -3.5 -25.5s-5.16602 -17.834 -8.49902 -24.501c-9.33301 -4 -20.833 -8.16699 -34.5 -12.5s-27.5 -7.5 -41.5 -9.5c-10 1.33301 -22.833 9 -38.5 23s-33.667 32.667 -54 56
l-68.5 81.5l-81 100.5h-36v-179z" />
    <glyph glyph-name="l" unicode="l" horiz-adv-x="296" 
d="M33 664c0.666992 8.66699 2.5 17.8311 5.5 27.498s7.16699 18.167 12.5 25.5c11.333 4 25 7.33301 41 10s32.333 4 49 4c18.667 0 35.667 -2 51 -6v-663c12.667 -1.33301 26.667 -3.16602 42 -5.49902s28.333 -5.16602 39 -8.49902c2 -8 3 -18.333 3 -31v-9
c0 -2 -0.333008 -4.66699 -1 -8h-248c2 16.667 6.66699 31.667 14 45c8 3.33301 18.167 6.83301 30.5 10.5s23.5 6.5 33.5 8.5v600h-72z" />
    <glyph glyph-name="m" unicode="m" horiz-adv-x="899" 
d="M202 61c12.667 -1.33301 25.665 -3.00293 38.998 -5.00293s24.666 -4.66699 33.999 -8c1.33301 -6 2.33301 -13.667 3 -23s0.333984 -17.666 -0.999023 -24.999h-240c2 16.667 6.66699 31.667 14 45c8 3.33301 18.167 6.83301 30.5 10.5s23.5 6.5 33.5 8.5v355h-73
c0.666992 8.66699 2.5 17.834 5.5 27.501s7.16699 18.167 12.5 25.5c10.667 4 23.334 7.33301 38.001 10s29.667 4 45 4c17.333 0 33 -2 47 -6v-73h10c4.66699 8.66699 11.334 17.834 20.001 27.501s19.5 18.834 32.5 27.501s28.333 15.834 46 21.501s37.5 8.5 59.5 8.5
c15.333 0 30 -1.33301 44 -4s26.833 -7.33398 38.5 -14.001s21.834 -15.834 30.501 -27.501s15.334 -26.834 20.001 -45.501h5c4 9.33301 10.5 19.333 19.5 30s20.167 20.5 33.5 29.5s29 16.5 47 22.5s38.333 9 61 9c19.333 0 37.833 -2.16699 55.5 -6.5
s33.334 -12.833 47.001 -25.5s24.5 -30.834 32.5 -54.501s12 -54.834 12 -93.501c0 -85.333 -2 -169 -6 -251c13.333 -1.33301 27.666 -3 42.999 -5s28 -4.66699 38 -8c2 -8 3 -18.333 3 -31v-9c0 -2 -0.333008 -4.66699 -1 -8h-237c2 16.667 6.66699 31.667 14 45
c7.33301 3.33301 16.5 6.83301 27.5 10.5s20.833 6.5 29.5 8.5v234c0 38.667 -6.66699 69.334 -20 92.001s-37.333 34 -72 34c-12.667 0 -25.167 -2 -37.5 -6s-23.833 -9.16699 -34.5 -15.5s-20.334 -13.333 -29.001 -21s-15.667 -14.834 -21 -21.501v-298
c12.667 -1.33301 25.667 -3.16602 39 -5.49902s24.666 -5.16602 33.999 -8.49902c1.33301 -6 2.33301 -13.667 3 -23s0.333984 -17.666 -0.999023 -24.999h-231c2 16.667 6.66699 31.667 14 45c7.33301 3.33301 16.5 6.83301 27.5 10.5s20.833 6.5 29.5 8.5v234
c0 38.667 -6.66699 69.334 -20 92.001s-37.333 34 -72 34c-12.667 0 -25.167 -2 -37.5 -6s-23.833 -9.16699 -34.5 -15.5s-20.334 -13.333 -29.001 -21s-15.667 -14.834 -21 -21.501v-299z" />
    <glyph glyph-name="n" unicode="n" horiz-adv-x="605" 
d="M202 61c12.667 -1.33301 25.6641 -3.00195 38.9971 -5.00195s24.666 -4.66699 33.999 -8c1.33301 -6 2.33301 -13.667 3 -23s0.333984 -17.666 -0.999023 -24.999h-240c2 16.667 6.66699 31.667 14 45c8 3.33301 18.167 6.83301 30.5 10.5s23.5 6.5 33.5 8.5v355h-73
c0.666992 8.66699 2.5 17.834 5.5 27.501s7.16699 18.167 12.5 25.5c10.667 4 23.334 7.33301 38.001 10s29.667 4 45 4c17.333 0 33 -2 47 -6v-73h10c4.66699 8.66699 11.334 17.834 20.001 27.501s19.834 18.834 33.501 27.501s29.334 15.834 47.001 21.501
s37.834 8.5 60.501 8.5c20 0 39 -2.16699 57 -6.5s33.833 -12.833 47.5 -25.5s24.5 -30.834 32.5 -54.501s12 -54.834 12 -93.501c0 -82.667 -2 -166.334 -6 -251.001c13.333 -1.33301 27.666 -3 42.999 -5s28 -4.66699 38 -8c2 -8 3 -18.333 3 -31v-9
c0 -2 -0.333008 -4.66699 -1 -8h-237c2 16.667 6.66699 31.667 14 45c7.33301 3.33301 16.5 6.83301 27.5 10.5s20.833 6.5 29.5 8.5v234c0 38.667 -6.83301 69.334 -20.5 92.001s-38.167 34 -73.5 34c-12.667 0 -25.334 -2 -38.001 -6s-24.5 -9.16699 -35.5 -15.5
s-21 -13.333 -30 -21s-16.167 -14.834 -21.5 -21.501v-299z" />
    <glyph glyph-name="o" unicode="o" horiz-adv-x="553" 
d="M277 492c34 0 64.998 -5.33203 92.998 -15.999s51.833 -26.5 71.5 -47.5s35 -46.833 46 -77.5s16.5 -66 16.5 -106c0 -84 -20.5 -148.667 -61.5 -194s-96.167 -68 -165.5 -68c-73.333 0 -129.666 22 -168.999 66s-59 109.333 -59 196c0 38 5.83301 72.333 17.5 103
s27.667 56.667 48 78s44.333 37.666 72 48.999s57.834 17 90.501 17zM139.998 245.001c0 -61.333 12.168 -110.334 36.501 -147.001s57.833 -55 100.5 -55c46 0 80.167 18 102.5 54s33.5 85.333 33.5 148c0 26.667 -3.16699 51.5 -9.5 74.5s-15.5 42.833 -27.5 59.5
s-26.333 29.834 -43 39.501s-35.334 14.5 -56.001 14.5c-44.667 0 -78.667 -17.167 -102 -51.5s-35 -79.833 -35 -136.5z" />
    <glyph glyph-name="p" unicode="p" horiz-adv-x="565" 
d="M182 57c12 -4 25 -7.33301 39 -10s28.667 -4 44 -4c54.667 0 95 18 121 54s39 83 39 141c0 60.667 -12 107.167 -36 139.5s-55 48.5 -93 48.5c-29.333 0 -53 -6.33301 -71 -19s-32.333 -26.667 -43 -42v-308zM183 -167
c6.66699 -0.666992 14.3359 -1.66504 23.0029 -2.99805s17.5 -2.83301 26.5 -4.5s17.5 -3.33398 25.5 -5.00098s14.667 -3.5 20 -5.5c1.33301 -6 2.33301 -13.333 3 -22s0.333984 -16.667 -0.999023 -24h-262c2 16.667 6.66699 31.667 14 45
c8 3.33301 18.167 6.83301 30.5 10.5s23.5 6.5 33.5 8.5v586h-74c0.666992 8.66699 2.5 17.834 5.5 27.501s7.16699 18.167 12.5 25.5c11.333 4 24.333 7.33301 39 10s29.334 4 44.001 4c17.333 0 33 -2 47 -6v-65h10c6 10 13.167 19.667 21.5 29s18.333 17.5 30 24.5
s25.167 12.667 40.5 17s33.666 6.5 54.999 6.5c22 0 44.167 -4 66.5 -12s42.666 -21.5 60.999 -40.5s33.166 -43.833 44.499 -74.5s17 -68.667 17 -114c0 -40 -6 -76.5 -18 -109.5s-28.833 -61.333 -50.5 -85s-47.5 -41.834 -77.5 -54.501s-63 -19 -99 -19
c-14.667 0 -30.334 2.16699 -47.001 6.5s-30.334 10.166 -41.001 17.499v-174z" />
    <glyph glyph-name="q" unicode="q" horiz-adv-x="548" 
d="M469 -169c12.667 -1.33301 26.832 -3.16895 42.499 -5.50195s28.834 -5.16602 39.501 -8.49902c2 -8 3 -18.333 3 -31v-8c0 -2.66699 -0.333008 -5.66699 -1 -9h-253c2 16.667 6.66699 31.667 14 45c8.66699 3.33301 19.5 6.83301 32.5 10.5s24.833 6.5 35.5 8.5v102
c0 21.333 0.5 42.5 1.5 63.5s2.16699 41.5 3.5 61.5h-10c-8 -21.333 -23.667 -39.5 -47 -54.5s-55 -22.5 -95 -22.5c-22 0 -44 4 -66 12s-41.833 21.5 -59.5 40.5s-32.167 43.833 -43.5 74.5s-17 68.667 -17 114c0 40 5.83301 76.5 17.5 109.5s28.167 61.333 49.5 85
s46.666 41.834 75.999 54.501s62 19 98 19c30.667 0 61.334 -3.5 92.001 -10.5s59.667 -17.833 87 -32.5v-618zM382.998 418.997c-12.667 5.33301 -25.833 9.33301 -39.5 12s-28.5 4 -44.5 4c-27.333 0 -51 -4.83301 -71 -14.5s-36.5 -23.167 -49.5 -40.5
s-22.667 -38.166 -29 -62.499s-9.5 -50.833 -9.5 -79.5c0 -60.667 12 -107 36 -139s55 -48 93 -48c29.333 0 53 6.16699 71 18.5s32.333 26.166 43 41.499v308z" />
    <glyph glyph-name="r" unicode="r" horiz-adv-x="401" 
d="M200 385c7.33301 30.667 22.6641 56.167 45.9971 76.5s51.333 30.5 84 30.5c6 0 13.5 -0.666992 22.5 -2s16.5 -3.33301 22.5 -6c3.33301 -6 6.33301 -14.333 9 -25s4 -22.334 4 -35.001c0 -10 -1 -19 -3 -27c-9.33301 5.33301 -20 9.5 -32 12.5s-24 4.5 -36 4.5
c-23.333 0 -45.166 -6.5 -65.499 -19.5s-36.833 -33.833 -49.5 -62.5v-268l24 -2.5c9.33301 -1 18.5 -2.33301 27.5 -4s17.667 -3.5 26 -5.5s15.5 -4 21.5 -6c1.33301 -6 2.33301 -13.333 3 -22s0.333984 -16.667 -0.999023 -24h-266c2 16.667 6.66699 31.667 14 45
c8 3.33301 18.167 6.83301 30.5 10.5s23.5 6.5 33.5 8.5v355h-73c0.666992 8.66699 2.5 17.834 5.5 27.501s7.16699 18.167 12.5 25.5c11.333 4 24.333 7.33301 39 10s29.334 4 44.001 4c17.333 0 33 -2 47 -6v-95h10z" />
    <glyph glyph-name="s" unicode="s" horiz-adv-x="430" 
d="M296 428c-7.33301 3.33301 -16.1689 6.16504 -26.502 8.49805s-21.166 3.5 -32.499 3.5c-26 0 -46.167 -5.5 -60.5 -16.5s-21.5 -25.833 -21.5 -44.5s5.83301 -33.834 17.5 -45.501s26 -22 43 -31s35.667 -17.833 56 -26.5s39 -19.167 56 -31.5s31.333 -27.833 43 -46.5
s17.5 -42.334 17.5 -71.001c0 -26 -5 -48.167 -15 -66.5s-23.333 -33.166 -40 -44.499s-35.834 -19.666 -57.501 -24.999s-44.167 -8 -67.5 -8c-58.667 0 -109.667 12.667 -153 38c-1.33301 5.33301 -2.5 12.666 -3.5 21.999s-1.5 18 -1.5 26c0 12.667 1 25.334 3 38.001
s4.33301 23.667 7 33c11.333 0 23.5 -0.666992 36.5 -2s24.833 -3.66602 35.5 -6.99902v-69c11.333 -7.33301 24.333 -13 39 -17s29.667 -6 45 -6c25.333 0 45.666 6.83301 60.999 20.5s23 31.834 23 54.501c0 20 -5.83301 36 -17.5 48s-26.167 22.5 -43.5 31.5
s-36.166 17.5 -56.499 25.5s-39.166 18 -56.499 30s-31.833 27.333 -43.5 46s-17.5 42.667 -17.5 72c0 18 4 34.667 12 50s19.333 28.5 34 39.5s32.167 19.667 52.5 26s42.833 9.5 67.5 9.5c23.333 0 47 -2 71 -6s47.333 -10.667 70 -20c1.33301 -4.66699 2 -9.66699 2 -15
v-16c0 -14 -1 -28.167 -3 -42.5s-4.66699 -27.166 -8 -38.499c-11.333 0 -23.166 1.16699 -35.499 3.5s-22.833 6.16602 -31.5 11.499v59z" />
    <glyph glyph-name="t" unicode="t" horiz-adv-x="350" 
d="M110 597c7.33301 4 17.8359 7.6709 31.5029 11.0039s25.5 5 35.5 5v-138h145c0.666992 -5.33301 1.5 -14.333 2.5 -27s1.16699 -23 0.5 -31h-148v-275c0 -32.667 3.83301 -56.334 11.5 -71.001s25.5 -22 53.5 -22c14 0 29.167 1.16699 45.5 3.5s32.166 5.5 47.499 9.5
c0.666992 -2 1 -4.33301 1 -7v-6c0 -7.33301 -1 -14.5 -3 -21.5s-4.33301 -12.833 -7 -17.5c-20 -8.66699 -40.5 -15.334 -61.5 -20.001s-41.5 -7 -61.5 -7c-38.667 0 -67.667 11.167 -87 33.5s-29 59.5 -29 111.5v56c0 22.667 0.333008 47 1 73s1.16699 52.833 1.5 80.5
s1.16602 54.167 2.49902 79.5h-69c0 7.33301 1.16699 16.166 3.5 26.499s5.16602 18.833 8.49902 25.5c8 3.33301 17.333 6.66602 28 9.99902s20.667 6 30 8z" />
    <glyph glyph-name="u" unicode="u" horiz-adv-x="598" 
d="M398 419l-72.001 -0.00683594c0.666992 8.66699 2.5 17.834 5.5 27.501s7.16699 18.167 12.5 25.5c11.333 4.66699 25 8.16699 41 10.5s32.333 3.5 49 3.5c18.667 0 35.667 -2 51 -6v-348c0 -11.333 0.5 -23.166 1.5 -35.499s3.16699 -24.166 6.5 -35.499h76
c0.666992 -2 1 -4.33301 1 -7v-6c0 -6.66699 -0.833008 -13.667 -2.5 -21s-3.5 -13.666 -5.5 -18.999c-9.33301 -3.33301 -20.166 -6.16602 -32.499 -8.49902s-25 -4.33301 -38 -6s-25.5 -3 -37.5 -4s-21.667 -1.5 -29 -1.5c-5.33301 10 -9.66602 22.167 -12.999 36.5
s-5.66602 28.5 -6.99902 42.5h-5c-4.66699 -8.66699 -11.334 -17.834 -20.001 -27.501s-19.667 -18.667 -33 -27s-28.833 -15.333 -46.5 -21s-37.5 -8.5 -59.5 -8.5c-19.333 0 -38 2.16699 -56 6.5s-33.667 12.833 -47 25.5s-24 30.834 -32 54.501s-12 54.834 -12 93.501
c0 42 0.333008 84.667 1 128s2 86 4 128h-76c1.33301 8 3.33301 16.833 6 26.5s6.66699 18.167 12 25.5c11.333 4.66699 25.166 8.33398 41.499 11.001s32.833 4 49.5 4c18.667 0 35.667 -2 51 -6v-303c0 -38 6.83301 -68.333 20.5 -91s37.5 -34 71.5 -34
c12.667 0 25.167 1.83301 37.5 5.5s24 8.5 35 14.5s20.833 12.5 29.5 19.5s15.667 14.167 21 21.5v306z" />
    <glyph glyph-name="v" unicode="v" horiz-adv-x="518" 
d="M273 59c1.33301 6 3 12.8359 5 20.5029l6 23.5l6 23c2 7.33301 4 13.666 6 18.999l59 177c4.66699 14 10.167 28.833 16.5 44.5s13.166 30.5 20.499 44.5c-9.33301 1.33301 -19.666 3 -30.999 5s-20.666 4.66699 -27.999 8c-5.33301 16 -8 33 -8 51h189
c0 -8 -1 -17.333 -3 -28s-4.33301 -19.667 -7 -27c-6 -2 -13.833 -3.83301 -23.5 -5.5s-17.5 -2.83398 -23.5 -3.50098l-154 -414l-91 -10l-148 419c-9.33301 2 -18.333 4.5 -27 7.5s-16.667 6.16699 -24 9.5c-2.66699 7.33301 -4.83398 15.833 -6.50098 25.5
s-2.83398 18.5 -3.50098 26.5h224c0 -8.66699 -0.833008 -17.834 -2.5 -27.501s-3.5 -18.167 -5.5 -25.5c-8 -2 -19 -4 -33 -6s-26.667 -3.66699 -38 -5c6 -11.333 12.333 -25 19 -41s12.334 -30.667 17.001 -44l62 -185c3.33301 -9.33301 7 -22.5 11 -39.5
s7 -31.167 9 -42.5h7z" />
    <glyph glyph-name="w" unicode="w" horiz-adv-x="771" 
d="M246 58c2 13.333 4.83301 28.332 8.5 44.999s6.83398 30.334 9.50098 41.001l82 327l106 11l78 -341c3.33301 -15.333 6 -29.333 8 -42s4.33301 -26.334 7 -41.001h7c5.33301 29.333 11.333 58 18 86l47 178c3.33301 14 7.83301 29 13.5 45s11.167 30.667 16.5 44
c-9.33301 1.33301 -19.5 3 -30.5 5s-20.167 4.66699 -27.5 8c-5.33301 16 -8 33 -8 51h181c0 -7.33301 -1 -16.333 -3 -27s-4.33301 -19.667 -7 -27c-6 -2 -13.5 -4 -22.5 -6s-16.5 -3.33301 -22.5 -4l-121 -413l-97 -11l-77 320l-5 22l-6 29l-5 30
c-1.33301 10 -2.33301 19 -3 27h-7c-1.33301 -8 -2.66602 -17 -3.99902 -27s-3 -20.167 -5 -30.5s-4 -20.166 -6 -29.499s-4 -17.333 -6 -24l-79 -306l-102 -11l-114 419c-9.33301 2 -18.5 4.5 -27.5 7.5s-17.167 6.16699 -24.5 9.5
c-2.66699 7.33301 -4.83398 15.833 -6.50098 25.5s-2.83398 18.5 -3.50098 26.5h216c0 -7.33301 -0.833008 -16 -2.5 -26s-3.5 -18.333 -5.5 -25c-7.33301 -2 -17.833 -4.16699 -31.5 -6.5s-26.167 -4.16602 -37.5 -5.49902c6 -12 12 -26 18 -42s10.667 -31.333 14 -46
l45 -183c2.66699 -10.667 5.5 -23.834 8.5 -39.501s5.16699 -30.167 6.5 -43.5h7z" />
    <glyph glyph-name="x" unicode="x" horiz-adv-x="554" 
d="M201 100l-14.499 -18.9971c-5.66699 -7.33301 -11.5 -13.666 -17.5 -18.999c7.33301 -0.666992 17.5 -2.16699 30.5 -4.5s23.167 -4.83301 30.5 -7.5c3.33301 -6 5.66602 -14 6.99902 -24s2 -18.667 2 -26h-222c2 16.667 6.66699 32.334 14 47.001
c6.66699 3.33301 16.5 7.16602 29.5 11.499s23.833 7.5 32.5 9.5l140 179l-125 160c-10 2 -19.667 4.5 -29 7.5s-17.666 6.16699 -24.999 9.5c-3.33301 7.33301 -5.83301 15.666 -7.5 24.999s-2.83398 18 -3.50098 26h208c0 -7.33301 -0.666992 -15.833 -2 -25.5
s-2.66602 -17.834 -3.99902 -24.501c-5.33301 -2 -12.666 -4.16699 -21.999 -6.5s-18 -4.16602 -26 -5.49902c6.66699 -5.33301 13.334 -11.5 20.001 -18.5s13 -14.167 19 -21.5l61 -79l61 83c3.33301 5.33301 7.83301 11.166 13.5 17.499s11.834 12.166 18.501 17.499
c-18 2 -35.333 6.33301 -52 13c-5.33301 16 -8 32.667 -8 50h182c0 -7.33301 -1 -16.333 -3 -27s-4.33301 -19.334 -7 -26.001c-6.66699 -2.66699 -14.167 -4.83398 -22.5 -6.50098s-15.833 -2.83398 -22.5 -3.50098l-125 -165l144 -185
c7.33301 -0.666992 16.833 -2 28.5 -4s21.167 -4.33301 28.5 -7c2.66699 -6 5 -14.167 7 -24.5s3 -19.166 3 -26.499h-226c1.33301 9.33301 3.16602 18.333 5.49902 27s5.16602 16.334 8.49902 23.001c7.33301 2.66699 16.666 5.16699 27.999 7.5s20.666 3.83301 27.999 4.5
l-23.5 22c-8.33301 8 -15.5 16 -21.5 24l-71 91z" />
    <glyph glyph-name="y" unicode="y" horiz-adv-x="519" 
d="M276 55c1.33301 6 3.1709 13.499 5.50391 22.499l7 27.5c2.33301 9.33301 4.83301 18.5 7.5 27.5s5 16.5 7 22.5l50 159c2 7.33301 4.5 15.333 7.5 24l9.5 26.5c3.33301 9 6.66602 17.5 9.99902 25.5s6.66602 15 9.99902 21c-9.33301 1.33301 -19.833 3 -31.5 5
s-21.167 4.66699 -28.5 8c-5.33301 16 -8 33 -8 51h191c0 -7.33301 -1 -16.5 -3 -27.5s-4.33301 -20.167 -7 -27.5c-6 -2 -13.667 -3.83301 -23 -5.5s-17.333 -2.83398 -24 -3.50098l-57 -166l-24.5 -70.5l-28.5 -80l-30.5 -78.5
c-10.333 -25.333 -20.166 -47.333 -29.499 -66c-23.333 -48 -51.5 -87.667 -84.5 -119s-72.167 -55 -117.5 -71c-7.33301 7.33301 -15 17.833 -23 31.5s-12.667 27.834 -14 42.501c45.333 12.667 83.166 32 113.499 58s52.833 55.667 67.5 89l-163 425
c-9.33301 2 -18.5 4.5 -27.5 7.5s-17.167 6.16699 -24.5 9.5c-2.66699 7.33301 -4.83398 15.833 -6.50098 25.5s-2.83398 18.5 -3.50098 26.5h226c0 -8 -0.833008 -16.833 -2.5 -26.5s-3.5 -18.167 -5.5 -25.5c-9.33301 -2.66699 -21 -5 -35 -7s-26.667 -3.66699 -38 -5
c6 -11.333 12.167 -24.666 18.5 -39.999l17.5 -44l63 -175c2 -5.33301 4 -12.333 6 -21l6 -26.5c2 -9 3.83301 -18 5.5 -27s3.16699 -16.5 4.5 -22.5h7z" />
    <glyph glyph-name="z" unicode="z" horiz-adv-x="459" 
d="M44 43l258.999 369v7h-165c-1.33301 -10.667 -3.66602 -22.667 -6.99902 -36s-7 -25 -11 -35c-8.66699 0 -19.834 1 -33.501 3s-23.5 4.33301 -29.5 7v117h347l11 -43l-259 -369v-7c30.667 0 62.834 0.666992 96.501 2s64.5 3.66602 92.5 6.99902
c2.66699 11.333 6 23.333 10 36s8 24.334 12 35.001c13.333 3.33301 26.333 5 39 5c10 0 18.333 -0.666992 25 -2l-17 -139h-359z" />
    <glyph glyph-name="braceleft" unicode="{" horiz-adv-x="342" 
d="M281 -145c0.666992 -3.33301 1.16602 -7.66895 1.49902 -13.002s0.333008 -10.833 0 -16.5s-1 -11 -2 -16s-1.83301 -8.83301 -2.5 -11.5c-29.333 1.33301 -53.666 5.83301 -72.999 13.5s-34.666 18.167 -45.999 31.5s-19.5 29 -24.5 47s-7.5 38 -7.5 60v182
c0 20 -0.833008 37.833 -2.5 53.5s-5.33398 28.834 -11.001 39.501s-13.667 19 -24 25s-24.166 9.66699 -41.499 11c0 10 1.16699 20.5 3.5 31.5s4.5 19.167 6.5 24.5c15.333 1.33301 27.666 5 36.999 11s16.333 13.833 21 23.5s7.66699 21.334 9 35.001s2 29.167 2 46.5
v158c0 23.333 2.33301 45 7 65s13 37.167 25 51.5s28.167 25.833 48.5 34.5s46.166 13.667 77.499 15c0 -7.33301 -1.16699 -17.333 -3.5 -30s-5.16602 -22.667 -8.49902 -30c-22.667 -3.33301 -38.5 -12.5 -47.5 -27.5s-13.5 -39.167 -13.5 -72.5v-158
c0 -38.667 -5.5 -70.667 -16.5 -96s-31.5 -42.333 -61.5 -51v-5c30 -8 50.5 -23 61.5 -45s16.5 -53 16.5 -93v-184c0 -34 5.5 -60.333 16.5 -79s28.5 -29 52.5 -31z" />
    <glyph glyph-name="bar" unicode="|" horiz-adv-x="300" 
d="M185 -184c-1.33301 -0.666992 -5.83105 -1.16699 -13.498 -1.5s-13.834 -0.5 -18.501 -0.5c-4 0 -10.167 0.166992 -18.5 0.5s-13.5 0.833008 -15.5 1.5v935c8 1.33301 18.667 2.5 32 3.5s24.666 1.5 33.999 1.5v-940z" />
    <glyph glyph-name="braceright" unicode="}" horiz-adv-x="342" 
d="M62 -145c21.333 1.33301 38.167 10.498 50.5 27.498s18.5 40.5 18.5 70.5v186c0 42 5.16699 75.167 15.5 99.5s31.166 40.5 62.499 48.5v5c-28.667 8.66699 -48.834 24.834 -60.501 48.501s-17.5 54.5 -17.5 92.5v156c0 38.667 -5.5 66.334 -16.5 83.001
s-29.833 26.334 -56.5 29.001c0 7.33301 1.5 17.166 4.5 29.499s6.16699 21.166 9.5 26.499c28.667 -2 52.167 -7.83301 70.5 -17.5s33 -21.667 44 -36s18.667 -30.5 23 -48.5s6.5 -36.667 6.5 -56v-160c0 -17.333 0.666992 -33.166 2 -47.499s4.5 -26.833 9.5 -37.5
s12.333 -19.334 22 -26.001s23.167 -10.334 40.5 -11.001c2 -6.66699 3.66699 -15.667 5 -27s2 -21 2 -29c-31.333 -2.66699 -52.666 -12.667 -63.999 -30s-17 -46 -17 -86v-185c0 -23.333 -2.16699 -44.666 -6.5 -63.999s-12.333 -36 -24 -50s-27.167 -25.167 -46.5 -33.5
s-44 -13.166 -74 -14.499c-1.33301 2.66699 -2.16602 6.66699 -2.49902 12l-1 16.5c-0.333008 5.66699 -0.5 11.167 -0.5 16.5s0.333008 9.33301 1 12z" />
    <glyph glyph-name="asciitilde" unicode="~" 
d="M96 213c-6 4 -12.333 10.166 -19 18.499s-11.667 15.5 -15 21.5c13.333 19.333 32 35.833 56 49.5s50.333 20.5 79 20.5c19.333 0 36.833 -2.5 52.5 -7.5s30.5 -10.667 44.5 -17s28 -12 42 -17s29.333 -7.5 46 -7.5c18 0 33.667 4.33301 47 13
s23.666 18.334 30.999 29.001c7.33301 -1.33301 16.166 -4.33301 26.499 -9s18.166 -8.66699 23.499 -12c-13.333 -24 -32.666 -44 -57.999 -60s-53.666 -24 -84.999 -24c-22.667 0 -41.667 2.5 -57 7.5s-29.5 10.667 -42.5 17s-26 12 -39 17s-28.167 7.5 -45.5 7.5
c-19.333 0 -36.666 -5 -51.999 -15s-27 -20.667 -35 -32z" />
    <glyph glyph-name="uni00A0" unicode="&#xa0;" horiz-adv-x="205" 
 />
    <glyph glyph-name="exclamdown" unicode="&#xa1;" horiz-adv-x="322" 
d="M126 261c6 2.66699 16.001 4.83203 30.001 6.49902s25.667 1.83398 35 0.500977l29 -476c-15.333 -4 -33.333 -6 -54 -6c-22.667 0 -42.334 2 -59.001 6zM161.001 486.998c19.333 0 34.833 -5.49902 46.5 -16.499s17.5 -26.5 17.5 -46.5
c0 -21.333 -5.83301 -37.833 -17.5 -49.5s-27.167 -17.5 -46.5 -17.5c-43.333 0 -65 22.333 -65 67c0 19.333 6.16699 34.666 18.5 45.999s27.833 17 46.5 17z" />
    <glyph glyph-name="cent" unicode="&#xa2;" 
d="M407 535c-21.333 10 -42.001 14.998 -62.001 14.998c-46.667 0 -84.667 -15 -114 -45s-44 -77.667 -44 -143s15.333 -114 46 -146s70 -48 118 -48c18.667 0 40.334 2.66699 65.001 8s46.667 11.333 66 18c1.33301 -8 0.166016 -18.333 -3.50098 -31
s-7.16699 -22 -10.5 -28c-14.667 -8 -31.667 -14.667 -51 -20s-40.333 -9.66602 -63 -12.999v-101c-2.66699 -0.666992 -7.5 -1.16699 -14.5 -1.5s-13.167 -0.5 -18.5 -0.5c-4.66699 0 -10.667 0.166992 -18 0.5s-12.666 0.833008 -15.999 1.5v99
c-30 2.66699 -57 10.834 -81 24.501s-44.5 31.167 -61.5 52.5s-30 46.166 -39 74.499s-13.5 58.833 -13.5 91.5c0 34.667 5 67 15 97s24.333 56.5 43 79.5s41.167 41.833 67.5 56.5s55.5 24.334 87.5 29.001v78c8 1.33301 18.833 2.5 32.5 3.5s25.167 1.5 34.5 1.5v-81
c21.333 -2 41.166 -6 59.499 -12s35.166 -13.667 50.499 -23c2 -13.333 3 -26.333 3 -39c0 -14 -1.16699 -28.167 -3.5 -42.5s-6.16602 -27.5 -11.499 -39.5c-9.33301 0 -20.166 1.16699 -32.499 3.5s-22.5 5.5 -30.5 9.5v71z" />
    <glyph glyph-name="sterling" unicode="&#xa3;" 
d="M125 66c10.667 22.667 19.668 48.6709 27.001 78.0039s11 57 11 83c0 13.333 -0.333008 26.5 -1 39.5s-1.66699 25.167 -3 36.5h-91c0 8 1 18.333 3 31s3.66699 22 5 28h76l-11 69c-3.33301 21.333 -5 42.666 -5 63.999c0 129.333 72.333 194 217 194
c19.333 0 41.333 -2.16699 66 -6.5s45.667 -9.5 63 -15.5c0 -50 -4.33301 -97.667 -13 -143c-10 0 -21.5 1.33301 -34.5 4s-23.167 5.66699 -30.5 9v82c-10.667 3.33301 -22 6 -34 8s-22.667 3 -32 3c-34 0 -60.5 -11.333 -79.5 -34s-28.5 -52.334 -28.5 -89.001
c0 -14 0.5 -27 1.5 -39s2.16699 -23.667 3.5 -35l5 -34c2 -11.333 4 -23.666 6 -36.999h195c1.33301 -6.66699 2.33301 -15.834 3 -27.501s0.333984 -22.167 -0.999023 -31.5h-192c0.666992 -8 1.16699 -16.5 1.5 -25.5s0.5 -18.5 0.5 -28.5
c0 -17.333 -1.66699 -34.833 -5 -52.5s-7.83301 -34.667 -13.5 -51s-12.334 -31.166 -20.001 -44.499s-15.834 -24.333 -24.501 -33v-5h260c1.33301 14.667 3.16602 31 5.49902 49s4.83301 32.667 7.5 44c7.33301 2 17.5 3.83301 30.5 5.5s23.833 2.5 32.5 2.5v-164h-487
c0.666992 7.33301 2.16699 16.166 4.5 26.499s4.83301 19.166 7.5 26.499c8.66699 2.66699 20.334 5.16699 35.001 7.5s27.667 4.16602 39 5.49902z" />
    <glyph glyph-name="currency" unicode="&#xa4;" 
d="M170 514c34 22.667 73.332 33.998 117.999 33.998c22 0 42.667 -2.66699 62 -8s37 -12.666 53 -21.999l59 72c8.66699 -2 17.667 -6.5 27 -13.5s15.666 -13.5 18.999 -19.5l-61 -75c30 -35.333 45 -81 45 -137c0 -31.333 -4.16699 -59.5 -12.5 -84.5
s-20.166 -46.5 -35.499 -64.5l66 -80c-3.33301 -6 -9.66602 -12.5 -18.999 -19.5s-18.333 -11.5 -27 -13.5l-63 76c-31.333 -20 -69 -30 -113 -30c-47.333 0 -87 10 -119 30l-62 -76c-8.66699 2 -17.667 6.5 -27 13.5s-15.666 13.5 -18.999 19.5l66 81
c-28.667 36.667 -43 86 -43 148c0 26.667 3.83301 50.834 11.5 72.501s18.5 41.167 32.5 58.5l-65 81c3.33301 6 9.66602 12.5 18.999 19.5s18.333 11.5 27 13.5zM158.999 343.998c0 -23.333 3.16699 -44.834 9.5 -64.501s15.166 -36.5 26.499 -50.5s24.833 -25 40.5 -33
s33.167 -12 52.5 -12c41.333 0 73 14.667 95 44s33 68 33 116c0 20.667 -3.16699 40 -9.5 58s-15 33.833 -26 47.5s-24.5 24.334 -40.5 32.001s-33.333 11.5 -52 11.5c-41.333 0 -73.166 -13.833 -95.499 -41.5s-33.5 -63.5 -33.5 -107.5z" />
    <glyph glyph-name="yen" unicode="&#xa5;" 
d="M327 172l-0.000976562 -110.998l47.5 -4c16.333 -1.33301 31.166 -3 44.499 -5c2 -6 3.33301 -14.833 4 -26.5s0.333984 -20.167 -0.999023 -25.5h-282c1.33301 7.33301 3.16602 16 5.49902 26s4.83301 18 7.5 24c9.33301 2 22.5 4.16699 39.5 6.5
s31.167 4.16602 42.5 5.49902v110h-149c0 7.33301 0.666992 16.166 2 26.499s3 19.166 5 26.499h142v40l-19 39h-130c0 7.33301 0.666992 16.166 2 26.499s3 19.166 5 26.499h97l-122 248c-7.33301 0.666992 -16.166 1.66699 -26.499 3s-19.166 3 -26.499 5
c-2.66699 7.33301 -4.83398 16.666 -6.50098 27.999s-2.5 20.666 -2.5 27.999h251c0 -8 -0.833008 -17.167 -2.5 -27.5s-3.5 -19.166 -5.5 -26.499c-13.333 -2 -27.333 -3.83301 -42 -5.5s-29.334 -2.83398 -44.001 -3.50098c8 -10 15.333 -20.833 22 -32.5l18 -32.5
l71 -153c4 -9.33301 7.83301 -19.333 11.5 -30s6.16699 -20 7.5 -28h7c2.66699 8.66699 5.83398 18 9.50098 28s8.16699 20 13.5 30l77 153l18 33c6.66699 12.667 13.667 23.667 21 33c-10.667 0.666992 -22.167 1.66699 -34.5 3s-23.5 3 -33.5 5
c-3.33301 8 -5.66602 17.167 -6.99902 27.5s-2 19.166 -2 26.499h207c0 -7.33301 -0.666992 -16.5 -2 -27.5s-3 -20.167 -5 -27.5c-7.33301 -1.33301 -15.166 -2.5 -23.499 -3.5s-16.166 -1.83301 -23.499 -2.5l-139 -251h102c0.666992 -2 1.16699 -5.16699 1.5 -9.5
s0.666016 -9.16602 0.999023 -14.499s0.5 -10.666 0.5 -15.999s-0.333008 -9.66602 -1 -12.999h-133l-20 -37v-42h151c0.666992 -2 1.16699 -5.16699 1.5 -9.5s0.666016 -9.16602 0.999023 -14.499s0.5 -10.666 0.5 -15.999s-0.333008 -9.66602 -1 -12.999h-153z" />
    <glyph glyph-name="brokenbar" unicode="&#xa6;" horiz-adv-x="300" 
d="M185 414c-1.33301 -0.666992 -6 -1.16699 -14 -1.5s-14.333 -0.5 -19 -0.5c-4 0 -10.333 0.166992 -19 0.5s-14 0.833008 -16 1.5v337c8 1.33301 19 2.5 33 3.5s25.667 1.5 35 1.5v-342zM185 -184c-1.33301 -0.666992 -6 -1.16699 -14 -1.5s-14.333 -0.5 -19 -0.5
c-4 0 -10.333 0.166992 -19 0.5s-14 0.833008 -16 1.5v365c8 1.33301 19 2.5 33 3.5s25.667 1.5 35 1.5v-370z" />
    <glyph glyph-name="section" unicode="&#xa7;" 
d="M78 327c0 33.333 7.16992 63.1689 21.5029 89.502s32.166 48.833 53.499 67.5c-4.66699 11.333 -8.33398 23.666 -11.001 36.999s-4 28 -4 44c0 48 15.5 84.833 46.5 110.5s74.5 38.5 130.5 38.5c29.333 0 58 -3.33301 86 -10s53.333 -15.334 76 -26.001
c0 -21.333 -1.16699 -43 -3.5 -65s-5.5 -41.667 -9.5 -59c-10.667 0 -22.5 1.33301 -35.5 4s-23.5 6 -31.5 10v72c-9.33301 5.33301 -21 10 -35 14s-29.667 6 -47 6c-31.333 0 -55.166 -7.33301 -71.499 -22s-24.5 -34 -24.5 -58c0 -26 6.83301 -47.333 20.5 -64
s30.667 -31.834 51 -45.501s42.333 -27.167 66 -40.5s45.667 -29.333 66 -48s37.333 -41.5 51 -68.5s20.5 -61.167 20.5 -102.5c0 -32 -6.5 -60.333 -19.5 -85s-28.167 -45 -45.5 -61c7.33301 -13.333 12.833 -27.666 16.5 -42.999s5.5 -32.666 5.5 -51.999
c0 -29.333 -5.5 -54.5 -16.5 -75.5s-26.167 -38.167 -45.5 -51.5s-41.833 -23.166 -67.5 -29.499s-53.167 -9.5 -82.5 -9.5c-31.333 0 -61.833 3.5 -91.5 10.5s-56.834 17.167 -81.501 30.5c0 8 0.166992 17.667 0.5 29s1 23.166 2 35.499s2.33301 24.833 4 37.5
s3.5 25 5.5 37c9.33301 0 21.5 -0.833008 36.5 -2.5s27.5 -4.16699 37.5 -7.5v-86c15.333 -9.33301 31.666 -16.166 48.999 -20.499s35 -6.5 53 -6.5c37.333 0 66 9.16699 86 27.5s30 42.5 30 72.5c0 28.667 -7.16699 52.5 -21.5 71.5s-32.333 35.667 -54 50
s-45.167 28.166 -70.5 41.499s-48.833 28.666 -70.5 45.999s-39.667 38.333 -54 63s-21.5 56 -21.5 94zM155.003 346.003c0 -20 3.83398 -37.332 11.501 -51.999s17.834 -28.167 30.501 -40.5s27.334 -23.666 44.001 -33.999l51 -31
c17.333 -10.333 34.666 -21.333 51.999 -33s33.333 -24.834 48 -39.501c7.33301 11.333 13.666 24.166 18.999 38.499s8 28.5 8 42.5c0 23.333 -4 43.333 -12 60s-18.5 31.5 -31.5 44.5s-27.833 24.667 -44.5 35l-51.5 30.5c-17.667 10 -34.834 20.5 -51.501 31.5
s-31.667 24.167 -45 39.5c-10 -12.667 -17.167 -27.167 -21.5 -43.5s-6.5 -32.5 -6.5 -48.5z" />
    <glyph glyph-name="dieresis" unicode="&#xa8;" horiz-adv-x="419" 
d="M107 672c15.333 0 27.833 -4.33398 37.5 -13.001s14.5 -21 14.5 -37c0 -17.333 -4.83301 -30.666 -14.5 -39.999s-22.167 -14 -37.5 -14c-35.333 0 -53 18 -53 54c0 15.333 5 27.5 15 36.5s22.667 13.5 38 13.5zM314 671.999c15.333 0 27.833 -4.33398 37.5 -13.001
s14.5 -21 14.5 -37c0 -17.333 -4.83301 -30.666 -14.5 -39.999s-22.167 -14 -37.5 -14c-35.333 0 -53 18 -53 54c0 15.333 5 27.5 15 36.5s22.667 13.5 38 13.5z" />
    <glyph glyph-name="copyright" unicode="&#xa9;" horiz-adv-x="817" 
d="M764 336c0 -49.333 -9.50195 -95.665 -28.502 -138.998s-44.833 -81 -77.5 -113s-71 -57.333 -115 -76s-91 -28 -141 -28s-96.5 9 -139.5 27s-80.167 42.833 -111.5 74.5s-56 69 -74 112s-27 89.167 -27 138.5s9.33301 95.666 28 138.999s44.334 81.166 77.001 113.499
s70.834 57.833 114.501 76.5s90.5 28 140.5 28s96.5 -9.16699 139.5 -27.5s80.333 -43.5 112 -75.5s56.667 -69.5 75 -112.5s27.5 -88.833 27.5 -137.5zM702.998 333.001c0 41.333 -7.66504 80.332 -22.998 116.999s-36.333 68.834 -63 96.501s-58 49.667 -94 66
s-74.667 24.5 -116 24.5s-80 -7.83301 -116 -23.5s-67.333 -37.167 -94 -64.5s-47.667 -59.333 -63 -96s-23 -76 -23 -118s7.66699 -81.5 23 -118.5s36.5 -69.167 63.5 -96.5s58.667 -49 95 -65s75.166 -24 116.499 -24c40.667 0 79 7.83301 115 23.5
s67.167 37.167 93.5 64.5s47.166 59.333 62.499 96s23 76 23 118zM471 469c-7.33301 3.33301 -15.1719 5.83301 -23.5049 7.5s-16.5 2.5 -24.5 2.5c-29.333 0 -54.333 -11.167 -75 -33.5s-31 -57.166 -31 -104.499c0 -50 10.833 -86.333 32.5 -109s50.834 -34 87.501 -34
c6.66699 0 14.5 0.5 23.5 1.5s18 2.5 27 4.5s17.833 4.16699 26.5 6.5s16.334 4.83301 23.001 7.5c0.666992 -6.66699 -0.166016 -15 -2.49902 -25s-5.16602 -18.667 -8.49902 -26c-14.667 -8 -33.334 -14.833 -56.001 -20.5s-45.334 -8.5 -68.001 -8.5
c-26 0 -49.667 4.66699 -71 14s-39.666 22.5 -54.999 39.5s-27.166 36.833 -35.499 59.5s-12.5 47.667 -12.5 75c0 32.667 5.16699 61.667 15.5 87s24.5 46.833 42.5 64.5s38.833 31 62.5 40s48.834 13.5 75.501 13.5c22 0 43.167 -1.83301 63.5 -5.5
s37.166 -8.5 50.499 -14.5c0 -7.33301 -0.333008 -16 -1 -26l-2 -30.5c-0.666992 -10.333 -1.66699 -20.333 -3 -30s-2.33301 -17.5 -3 -23.5c-9.33301 0 -19.666 1.16699 -30.999 3.5s-20.333 5.16602 -27 8.49902v56z" />
    <glyph glyph-name="ordfeminine" unicode="&#xaa;" horiz-adv-x="411" 
d="M245 364c-8 -16.667 -20.332 -29.5049 -36.999 -38.5049s-35.667 -13.5 -57 -13.5c-12.667 0 -24.834 1.83301 -36.501 5.5s-22 9 -31 16s-16.333 16 -22 27s-8.5 24.167 -8.5 39.5c0 17.333 3.33301 32.666 10 45.999s15.667 24.5 27 33.5s24.5 15.833 39.5 20.5
s30.833 7 47.5 7c10.667 0 22.334 -1 35.001 -3s23 -4.66699 31 -8v28c0 38 -21.333 57 -64 57c-8 0 -16.667 -0.833008 -26 -2.5s-18.666 -4 -27.999 -7s-18.166 -6.5 -26.499 -10.5s-15.5 -8 -21.5 -12c-2.66699 9.33301 -3.33398 21 -2.00098 35
s3.66602 24.667 6.99902 32c6 2.66699 13.667 5.33398 23 8.00098s19.5 5 30.5 7s22.167 3.5 33.5 4.5s21.666 1.5 30.999 1.5c40 0 69.167 -9 87.5 -27s27.5 -47.667 27.5 -89v-118c0 -7.33301 1 -14.166 3 -20.499s4 -10.5 6 -12.5c5.33301 0 12.666 1 21.999 3s17 4 23 6
c0 -6.66699 -0.666992 -14.667 -2 -24s-3.66602 -16.666 -6.99902 -21.999c-8 -5.33301 -20.333 -10.166 -37 -14.499s-31 -6.5 -43 -6.5c-7.33301 4.66699 -13.833 11.834 -19.5 21.501s-9.16699 19.834 -10.5 30.501h-5zM243.001 454.995
c-6 1.33301 -13.501 2.33301 -22.501 3s-16.167 1 -21.5 1c-25.333 0 -43.666 -4.33301 -54.999 -13s-17 -20.334 -17 -35.001c0 -15.333 5.33301 -26.166 16 -32.499s23.667 -9.5 39 -9.5c11.333 0 22.833 2.5 34.5 7.5s20.5 11.5 26.5 19.5v59zM338 267.995
c0.666992 -2 1.16797 -5.49805 1.50098 -10.498s0.666016 -10.5 0.999023 -16.5s0.5 -11.833 0.5 -17.5s-0.333008 -10.5 -1 -14.5h-274c0 7.33301 0.666992 17.166 2 29.499s3.33301 22.166 6 29.499h264z" />
    <glyph glyph-name="guillemotleft" unicode="&#xab;" horiz-adv-x="538" 
d="M171 250c13.333 -32.667 27.168 -64.6699 41.501 -96.0029s29.833 -63.333 46.5 -96c-4 -2 -9.16699 -3.66699 -15.5 -5s-13 -2.66602 -20 -3.99902s-14 -2.33301 -21 -3s-12.833 -1 -17.5 -1l-60 102.5c-20 35.667 -37.667 69.834 -53 102.501
c14.667 32.667 30.334 63.834 47.001 93.501l55 94.5c11.333 3.33301 25.666 6.33301 42.999 9s32.666 4 45.999 4l-49 -100.5c-16 -34.333 -30.333 -67.833 -43 -100.5zM362.002 252.997c13.333 -32.667 27.166 -64.6689 41.499 -96.002s29.833 -63.333 46.5 -96
c-4 -2 -9.33301 -3.66699 -16 -5l-20.5 -4c-7 -1.33301 -14 -2.33301 -21 -3s-12.833 -1 -17.5 -1l-60 102.5c-20 35.667 -37.667 69.834 -53 102.501c14.667 32.667 30.334 63.834 47.001 93.501l55 94.5c11.333 3.33301 25.833 6.33301 43.5 9s33.167 4 46.5 4l-49 -100.5
c-16 -34.333 -30.333 -67.833 -43 -100.5z" />
    <glyph glyph-name="logicalnot" unicode="&#xac;" 
d="M502 305v-175.998c-9.33301 -2 -21.666 -3 -36.999 -3c-16.667 0 -30.334 1 -41.001 3v108h-363c0 9.33301 1 21.166 3 35.499s4 25.166 6 32.499h432z" />
    <glyph glyph-name="uni00AD" unicode="&#xad;" horiz-adv-x="336" 
d="M281 308c1.33301 -6 2.33301 -14 3 -24s1 -19.667 1 -29v-10c0 -3.33301 -0.333008 -7 -1 -11h-239c0 10 1 22.833 3 38.5s4.33301 27.5 7 35.5h226z" />
    <glyph glyph-name="registered" unicode="&#xae;" horiz-adv-x="548" 
d="M493 551c0 -32 -5.49902 -61.501 -16.499 -88.501s-26.333 -50.333 -46 -70s-43 -35 -70 -46s-56.833 -16.5 -89.5 -16.5c-32 0 -61.333 5.33301 -88 16s-49.5 25.667 -68.5 45s-33.667 42.333 -44 69s-15.5 56 -15.5 88s5.5 61.333 16.5 88s26.167 49.667 45.5 69
s42.666 34.333 69.999 45s57.333 16 90 16s62.167 -5.33301 88.5 -16s49 -25.5 68 -44.5s33.667 -41.667 44 -68s15.5 -55.166 15.5 -86.499zM443.001 545.999c0 25.333 -4.00195 48.8311 -12.002 70.498s-19.5 40.334 -34.5 56.001s-33 28 -54 37s-44.5 13.5 -70.5 13.5
c-25.333 0 -48.166 -4.5 -68.499 -13.5s-38 -21.167 -53 -36.5s-26.5 -33.5 -34.5 -54.5s-12 -43.833 -12 -68.5c0 -25.333 4 -48.833 12 -70.5s19.5 -40.5 34.5 -56.5s33 -28.5 54 -37.5s44.5 -13.5 70.5 -13.5c24.667 0 47.334 4.33301 68.001 13s38.5 20.834 53.5 36.501
s26.5 34 34.5 55s12 44.167 12 69.5zM199.999 632.997c-3.33301 0 -8 0.167969 -14 0.500977s-10.667 0.833008 -14 1.5c-1.33301 3.33301 -2.16602 8 -2.49902 14s0.166992 10.667 1.5 14c15.333 1.33301 32.833 2.33301 52.5 3s36.167 1 49.5 1
c26.667 0 49.667 -5.33301 69 -16s29 -27.667 29 -51c0 -16.667 -4.83301 -30.334 -14.5 -41.001s-20.834 -17.334 -33.501 -20.001c6 -12 12.5 -24.167 19.5 -36.5s14.167 -24.166 21.5 -35.499l27 3c0 -4.66699 -0.666992 -10 -2 -16s-3 -10.667 -5 -14
c-7.33301 -2 -15.5 -3.5 -24.5 -4.5s-17.833 -1.83301 -26.5 -2.5l-29 50.5c-9.33301 17 -17.666 33.167 -24.999 48.5c-5.33301 0 -11 0.166992 -17 0.5s-11 0.833008 -15 1.5v-65c5.33301 -0.666992 11 -1.66699 17 -3s10.667 -2.66602 14 -3.99902
c0.666992 -2.66699 1.16699 -6.33398 1.5 -11.001s0.166016 -8.66699 -0.500977 -12h-113c0.666992 4 1.5 8.16699 2.5 12.5s2.16699 7.5 3.5 9.5c4 2 9.16699 3.66699 15.5 5s10.5 2 12.5 2v165zM246.999 562.998c4 -0.666992 9 -1.16699 15 -1.5s11.667 -0.5 17 -0.5
c12.667 0 23.5 3.33301 32.5 10s13.5 15.667 13.5 27c0 14 -5.5 23.833 -16.5 29.5s-25.5 8.5 -43.5 8.5h-9c-2.66699 0 -5.66699 -0.333008 -9 -1v-72z" />
    <glyph glyph-name="macron" unicode="&#xaf;" horiz-adv-x="419" 
d="M78 584c0 9.33301 1.00098 20.667 3.00098 34s4 23.666 6 30.999h249c1.33301 -6.66699 2.16602 -14.167 2.49902 -22.5s0.5 -16.166 0.5 -23.499v-9c0 -2 -0.333008 -5.33301 -1 -10h-260z" />
    <glyph glyph-name="degree" unicode="&#xb0;" horiz-adv-x="350" 
d="M163 689c40 0 72.499 -11.002 97.499 -33.002s37.5 -53.333 37.5 -94c0 -43.333 -12.167 -76.666 -36.5 -99.999s-57.166 -35 -98.499 -35c-44 0 -77.667 11.333 -101 34s-35 56.334 -35 101.001c0 19.333 3.5 36.833 10.5 52.5s16.5 29 28.5 40s26.333 19.5 43 25.5
s34.667 9 54 9zM95.999 561.998c0 -25.333 5.99902 -45.498 17.999 -60.498s28.333 -22.5 49 -22.5c22.667 0 39.334 7.33301 50.001 22s16 35 16 61c0 21.333 -6 39.166 -18 53.499s-28 21.5 -48 21.5c-21.333 0 -37.833 -6.83301 -49.5 -20.5s-17.5 -31.834 -17.5 -54.501
z" />
    <glyph glyph-name="plusminus" unicode="&#xb1;" 
d="M485 401c1.33301 -4.66699 2.33203 -10.833 2.99902 -18.5s1 -15.834 1 -24.501v-9c0 -2 -0.333008 -5 -1 -9h-164v-179c-1.33301 -0.666992 -6.33301 -1.16699 -15 -1.5s-15.667 -0.5 -21 -0.5s-12.666 0.166992 -21.999 0.5s-15.333 0.833008 -18 1.5v179h-166
c0 8.66699 1 19.334 3 32.001s3.66699 22.334 5 29.001h158v172c9.33301 1.33301 21.5 2.66602 36.5 3.99902s28.167 2 39.5 2v-178h161zM480.999 64.001c1.33301 -4.66699 2.33301 -11 3 -19s1 -16.667 1 -26v-9c0 -2.66699 -0.333008 -6 -1 -10h-406
c0 9.33301 1 20.5 3 33.5s3.66699 23.167 5 30.5h395z" />
    <glyph glyph-name="twosuperior" unicode="&#xb2;" horiz-adv-x="385" 
d="M53 440c14 14 31.998 29.832 53.998 47.499s43.5 36.334 64.5 56.001s39.167 39.834 54.5 60.501s23 41 23 61c0 34.667 -20 52 -60 52c-11.333 0 -23 -1.5 -35 -4.5s-22.667 -7.16699 -32 -12.5v-51c-7.33301 -2.66699 -17 -4.66699 -29 -6s-22 -2 -30 -2
c-2.66699 13.333 -4.5 29 -5.5 47s-1.5 35.667 -1.5 53c17.333 8 37.333 15.167 60 21.5s49 9.5 79 9.5c40 0 72.833 -7.16699 98.5 -21.5s38.5 -40.166 38.5 -77.499c0 -16 -3.66699 -32 -11 -48s-16.666 -31.5 -27.999 -46.5s-24.166 -29.333 -38.499 -43
s-28.5 -26.334 -42.5 -38.001l-39 -32l-29 -23.5v-5c12.667 0 27.334 0.333008 44.001 1s34 1.16699 52 1.5s36.167 1 54.5 2s36.166 2.16699 53.499 3.5c0 -7.33301 -0.5 -17.833 -1.5 -31.5s-2.16699 -24.834 -3.5 -33.501h-290v60z" />
    <glyph glyph-name="threesuperior" unicode="&#xb3;" horiz-adv-x="385" 
d="M103 549c-1.33301 8 -1.67188 17.5059 -1.00488 28.5059s2.33398 20.167 5.00098 27.5c46 0 80.167 4.83301 102.5 14.5s33.5 25.5 33.5 47.5c0 18 -5.83301 30.167 -17.5 36.5s-25.834 9.5 -42.501 9.5c-15.333 0 -34.166 -1.83301 -56.499 -5.5
s-42.833 -9.5 -61.5 -17.5c-2 21.333 0.666992 43 8 65c16 6 34.167 10.333 54.5 13s39.166 4 56.499 4c18.667 0 36.334 -1.83301 53.001 -5.5s31.5 -9.33398 44.5 -17.001s23.333 -17.334 31 -29.001s11.5 -25.834 11.5 -42.501c0 -25.333 -7.66699 -46.333 -23 -63
s-36 -26.667 -62 -30v-5c24.667 -2 46.5 -10.833 65.5 -26.5s28.5 -38.834 28.5 -69.501c0 -20 -4.33301 -37 -13 -51s-20.667 -25.5 -36 -34.5s-33.333 -15.5 -54 -19.5s-43 -6 -67 -6c-17.333 0 -35.166 1 -53.499 3s-33.166 5 -44.499 9
c-3.33301 7.33301 -5.83301 15.666 -7.5 24.999s-2.5 18.666 -2.5 27.999v6c0 2.66699 0.333008 5.33398 1 8.00098c6.66699 -2.66699 14.667 -5.16699 24 -7.5s19.333 -4.5 30 -6.5s21.334 -3.66699 32.001 -5s20.667 -2 30 -2c22.667 0 41.334 4.33301 56.001 13
s22 23.667 22 45c0 23.333 -11 39.166 -33 47.499s-60 12.5 -114 12.5z" />
    <glyph glyph-name="acute" unicode="&#xb4;" horiz-adv-x="419" 
d="M152 539c-4 1.33301 -8.33496 3.66602 -13.002 6.99902s-9.5 7 -14.5 11s-9.66699 8.33301 -14 13s-7.5 8.66699 -9.5 12l112 156c5.33301 0 12 -1.16699 20 -3.5s16.333 -5.16602 25 -8.49902s16.834 -7 24.501 -11s13.834 -8 18.501 -12z" />
    <glyph glyph-name="mu" unicode="&#xb5;" horiz-adv-x="612" 
d="M141 81c13.333 -66 22.8311 -128.166 28.498 -186.499s8.5 -112.833 8.5 -163.5c-8 0 -16.5 0.833008 -25.5 2.5s-18 3.5 -27 5.5s-17.333 4.33301 -25 7s-13.834 5 -18.501 7c4.66699 126 8.5 248.333 11.5 367s4.5 235 4.5 349c4 1.33301 10 2.66602 18 3.99902
s16.333 2.5 25 3.5s17.167 1.66699 25.5 2s14.5 0.5 18.5 0.5c-1.33301 -40 -2.5 -79.833 -3.5 -119.5s-1.5 -80.167 -1.5 -121.5c0 -60 8.5 -105.167 25.5 -135.5s45.833 -45.5 86.5 -45.5c14 0 27.333 2.5 40 7.5s24.334 11.667 35.001 20s20.167 17.666 28.5 27.999
s14.833 20.833 19.5 31.5c-2 28.667 -3 60 -3 94c0 42.667 0.333008 83.667 1 123s2 75.333 4 108c4 1.33301 9.66699 2.66602 17 3.99902s15 2.5 23 3.5s15.833 1.66699 23.5 2s13.5 0.5 17.5 0.5c-2 -40 -3.16699 -80.833 -3.5 -122.5s-0.5 -82.5 -0.5 -122.5
c0 -65.333 4 -111.666 12 -138.999s21.333 -41 40 -41c6.66699 0 14.667 1.5 24 4.5s16.666 6.16699 21.999 9.5c0.666992 -3.33301 1 -7.33301 1 -12c0 -9.33301 -1.16699 -19 -3.5 -29s-5.16602 -17.667 -8.49902 -23c-7.33301 -5.33301 -17.166 -10.166 -29.499 -14.499
s-24.166 -6.5 -35.499 -6.5c-27.333 0 -48 9 -62 27s-24 42 -30 72h-5c-4 -11.333 -9.33301 -23 -16 -35s-15.834 -22.667 -27.501 -32s-25.667 -17 -42 -23s-35.833 -9 -58.5 -9c-30.667 0 -57.167 7.66699 -79.5 23s-38.166 40.333 -47.499 75h-7z" />
    <glyph glyph-name="paragraph" unicode="&#xb6;" horiz-adv-x="604" 
d="M432 653c-11.333 1.33301 -23.9971 2.16797 -37.9971 2.50098s-28 0.5 -42 0.5v-764c15.333 0 32.666 -0.5 51.999 -1.5l59 -3c20 -1 39.5 -2.16699 58.5 -3.5s35.5 -2.66602 49.5 -3.99902c1.33301 -4.66699 2.33301 -10 3 -16s1 -12 1 -18
c0 -7.33301 -0.333008 -12.333 -1 -15h-365c0.666992 7.33301 1.83398 15.166 3.50098 23.499s3.83398 16.166 6.50098 23.499c7.33301 2.66699 18 5.16699 32 7.5s25.667 4.16602 35 5.49902v465c-6 -0.666992 -11.667 -1 -17 -1h-15c-24.667 0 -49.167 2.83301 -73.5 8.5
s-46 15.334 -65 29.001s-34.333 31.834 -46 54.501s-17.5 50.667 -17.5 84c0 58 23.5 102.5 70.5 133.5s115.5 46.5 205.5 46.5c20 0 41.5 -0.166992 64.5 -0.5s45.667 -1 68 -2s43.166 -2 62.499 -3s35.666 -2.16699 48.999 -3.5
c0.666992 -3.33301 1.16699 -7.83301 1.5 -13.5s0.5 -11.334 0.5 -17.001s-0.333008 -11 -1 -16s-1.33398 -8.83301 -2.00098 -11.5c-10.667 -0.666992 -23 -1 -37 -1h-36v-685c-1.33301 -0.666992 -5.83301 -1.16699 -13.5 -1.5s-13.834 -0.5 -18.501 -0.5
c-4 0 -10.167 0.166992 -18.5 0.5s-13.5 0.833008 -15.5 1.5v695z" />
    <glyph glyph-name="periodcentered" unicode="&#xb7;" horiz-adv-x="336" 
d="M169 315c20.667 0 37.334 -6 50.001 -18s19 -28.667 19 -50c0 -23.333 -6.33301 -41.333 -19 -54s-29.334 -19 -50.001 -19c-47.333 0 -71 24.333 -71 73c0 20.667 6.5 37.167 19.5 49.5s30.167 18.5 51.5 18.5z" />
    <glyph glyph-name="cedilla" unicode="&#xb8;" horiz-adv-x="419" 
d="M194 7c7.33301 2 16 3.49902 26 4.49902s19.667 1.5 29 1.5l-14 -72c15.333 -3.33301 29.666 -11 42.999 -23s20 -27.667 20 -47c0 -14 -3.5 -26.667 -10.5 -38s-16.167 -21.5 -27.5 -30.5s-24.333 -16.167 -39 -21.5s-29.667 -9 -45 -11
c-13.333 10.667 -24.333 23 -33 37c20 3.33301 36.667 10.333 50 21s20 23.667 20 39c0 14.667 -5.16699 26.834 -15.5 36.501s-23.166 16.167 -38.499 19.5z" />
    <glyph glyph-name="onesuperior" unicode="&#xb9;" horiz-adv-x="385" 
d="M87 380c0.666992 7.33301 2.33203 15.5029 4.99902 24.5029s5.33398 16.5 8.00098 22.5c9.33301 2 20 3.66699 32 5s23.333 2.66602 34 3.99902v271l-90 -9c0.666992 8 1.83398 16.833 3.50098 26.5s4.5 18.5 8.5 26.5c13.333 3.33301 34.166 7.16602 62.499 11.499
s59.833 7.5 94.5 9.5v-337c10.667 -0.666992 23.5 -1.83398 38.5 -3.50098s27.167 -3.16699 36.5 -4.5c1.33301 -6.66699 2.5 -14.5 3.5 -23.5s1.16699 -16.833 0.5 -23.5h-237z" />
    <glyph glyph-name="ordmasculine" unicode="&#xba;" horiz-adv-x="420" 
d="M210 637c48 0 86.502 -13.5 115.502 -40.5s43.5 -65.5 43.5 -115.5c0 -53.333 -14.333 -94.833 -43 -124.5s-67.334 -44.5 -116.001 -44.5c-51.333 0 -91 14.5 -119 43.5s-42 70.833 -42 125.5c0 24 4 45.667 12 65s19.333 35.833 34 49.5s31.667 24 51 31
s40.666 10.5 63.999 10.5zM124.002 481c0 -36 7.66699 -64.5 23 -85.5s36.333 -31.5 63 -31.5c27.333 0 48 10.5 62 31.5s21 49.5 21 85.5c0 30 -7.5 55.167 -22.5 75.5s-35.167 30.5 -60.5 30.5c-28 0 -49.333 -9.66699 -64 -29s-22 -45 -22 -77zM351.002 268
c0.666992 -2 1.16797 -5.49805 1.50098 -10.498s0.666016 -10.5 0.999023 -16.5s0.5 -11.833 0.5 -17.5s-0.333008 -10.5 -1 -14.5h-286c0 7.33301 0.666992 17.166 2 29.499s3.33301 22.166 6 29.499h276z" />
    <glyph glyph-name="guillemotright" unicode="&#xbb;" horiz-adv-x="538" 
d="M165 250c-12.667 32.667 -25.835 63.835 -39.502 93.502s-28.834 60.834 -45.501 93.501c8.66699 3.33301 19.834 6.66602 33.501 9.99902s26.5 5 38.5 5l59.5 -101c19.667 -34.667 36.834 -68.334 51.501 -101.001c-15.333 -32.667 -33.333 -67.334 -54 -104.001
l-61 -104c-10 1.33301 -22.167 4.16602 -36.5 8.49902s-25.166 8.83301 -32.499 13.5l45 92.5c14 29.667 27.667 60.834 41 93.501zM358.999 253.001c-12.667 32.667 -25.833 63.835 -39.5 93.502s-28.834 60.834 -45.501 93.501c8.66699 3.33301 20 6.66602 34 9.99902
s27 5 39 5l59.5 -101c19.667 -34.667 36.834 -68.334 51.501 -101.001c-15.333 -32.667 -33.333 -67.334 -54 -104.001l-61 -104c-10 1.33301 -22.333 4.16602 -37 8.49902s-25.667 8.83301 -33 13.5l45 92.5c14 29.667 27.667 60.834 41 93.501z" />
    <glyph glyph-name="onequarter" unicode="&#xbc;" horiz-adv-x="926" 
d="M92 284c0.666992 7.33301 2.33203 15.5029 4.99902 24.5029s5.33398 16.5 8.00098 22.5c9.33301 2 20 3.66699 32 5s23.333 2.66602 34 3.99902v271l-90 -9c0.666992 8 1.83398 16.833 3.50098 26.5s4.5 18.5 8.5 26.5c13.333 3.33301 34.166 7.16602 62.499 11.499
s59.833 7.5 94.5 9.5v-337c10.667 -0.666992 23.5 -1.83398 38.5 -3.50098s27.167 -3.16699 36.5 -4.5c1.33301 -6.66699 2.5 -14.5 3.5 -23.5s1.16699 -16.833 0.5 -23.5h-237zM777.998 1.00293c-1.33301 -0.666992 -6.16797 -1.16602 -14.501 -1.49902
s-15.166 -0.5 -20.499 -0.5c-4.66699 0 -11.667 0.166992 -21 0.5s-15 0.833008 -17 1.5v99h-187v48l164 237h96v-229h55c1.33301 -5.33301 2.33301 -13.833 3 -25.5s1 -21.834 1 -30.501h-59v-99zM704.996 262.004c0 9.33301 0.333008 18.833 1 28.5s1.66699 20.167 3 31.5
h-4l-112 -163v-4c7.33301 0.666992 15 1 23 1h89v106zM270.996 -24.9961c-8 1.33301 -17.834 4.83301 -29.501 10.5s-20.167 11.167 -25.5 16.5l484 697c9.33301 -0.666992 19.833 -2.5 31.5 -5.5s21.834 -6.16699 30.501 -9.5z" />
    <glyph glyph-name="onehalf" unicode="&#xbd;" horiz-adv-x="926" 
d="M73 284c0.666992 7.33301 2.33203 15.5029 4.99902 24.5029s5.33398 16.5 8.00098 22.5c9.33301 2 20 3.66699 32 5s23.333 2.66602 34 3.99902v271l-90 -9c0.666992 8 1.83398 16.833 3.50098 26.5s4.5 18.5 8.5 26.5c13.333 3.33301 34.166 7.16602 62.499 11.499
s59.833 7.5 94.5 9.5v-337c10.667 -0.666992 23.5 -1.83398 38.5 -3.50098s27.167 -3.16699 36.5 -4.5c1.33301 -6.66699 2.5 -14.5 3.5 -23.5s1.16699 -16.833 0.5 -23.5h-237zM228.998 -24.9971c-8 1.33301 -17.834 4.83301 -29.501 10.5s-20.167 11.167 -25.5 16.5
l484 697c9.33301 -0.666992 19.833 -2.5 31.5 -5.5s21.834 -6.16699 30.501 -9.5zM547.997 60.0029c14 14 31.998 29.832 53.998 47.499s43.5 36.334 64.5 56.001s39.167 39.834 54.5 60.501s23 41 23 61c0 34.667 -20 52 -60 52c-11.333 0 -23 -1.5 -35 -4.5
s-22.667 -7.16699 -32 -12.5v-51c-7.33301 -2.66699 -17 -4.66699 -29 -6s-22 -2 -30 -2c-2.66699 13.333 -4.5 29 -5.5 47s-1.5 35.667 -1.5 53c17.333 8 37.333 15.167 60 21.5s49 9.5 79 9.5c40 0 72.833 -7.16699 98.5 -21.5s38.5 -40.166 38.5 -77.499
c0 -16 -3.66699 -32 -11 -48s-16.666 -31.5 -27.999 -46.5s-24.166 -29.333 -38.499 -43s-28.5 -26.334 -42.5 -38.001l-39 -32l-29 -23.5v-5c12.667 0 27.334 0.333008 44.001 1s34 1.16699 52 1.5s36.167 1 54.5 2s36.166 2.16699 53.499 3.5
c0 -7.33301 -0.5 -17.833 -1.5 -31.5s-2.16699 -24.834 -3.5 -33.501h-290v60z" />
    <glyph glyph-name="threequarters" unicode="&#xbe;" horiz-adv-x="926" 
d="M125 453c-1.33301 8 -1.67188 17.5059 -1.00488 28.5059s2.33398 20.167 5.00098 27.5c46 0 80.167 4.83301 102.5 14.5s33.5 25.5 33.5 47.5c0 18 -5.83301 30.167 -17.5 36.5s-25.834 9.5 -42.501 9.5c-15.333 0 -34.166 -1.83301 -56.499 -5.5
s-42.833 -9.5 -61.5 -17.5c-2 21.333 0.666992 43 8 65c16 6 34.167 10.333 54.5 13s39.166 4 56.499 4c18.667 0 36.334 -1.83301 53.001 -5.5s31.5 -9.33398 44.5 -17.001s23.333 -17.334 31 -29.001s11.5 -25.834 11.5 -42.501c0 -25.333 -7.66699 -46.333 -23 -63
s-36 -26.667 -62 -30v-5c24.667 -2 46.5 -10.833 65.5 -26.5s28.5 -38.834 28.5 -69.501c0 -20 -4.33301 -37 -13 -51s-20.667 -25.5 -36 -34.5s-33.333 -15.5 -54 -19.5s-43 -6 -67 -6c-17.333 0 -35.166 1 -53.499 3s-33.166 5 -44.499 9
c-3.33301 7.33301 -5.83301 15.666 -7.5 24.999s-2.5 18.666 -2.5 27.999v6c0 2.66699 0.333008 5.33398 1 8.00098c6.66699 -2.66699 14.667 -5.16699 24 -7.5s19.333 -4.5 30 -6.5s21.334 -3.66699 32.001 -5s20.667 -2 30 -2c22.667 0 41.334 4.33301 56.001 13
s22 23.667 22 45c0 23.333 -11 39.166 -33 47.499s-60 12.5 -114 12.5zM269.994 -24.9941c-8 1.33301 -17.834 4.83301 -29.501 10.5s-20.167 11.167 -25.5 16.5l484 697c9.33301 -0.666992 19.833 -2.5 31.5 -5.5s21.834 -6.16699 30.501 -9.5zM782.993 1.00586
c-1.33301 -0.666992 -6.16797 -1.16602 -14.501 -1.49902s-15.166 -0.5 -20.499 -0.5c-4.66699 0 -11.667 0.166992 -21 0.5s-15 0.833008 -17 1.5v99h-187v48l164 237h96v-229h55c1.33301 -5.33301 2.33301 -13.833 3 -25.5s1 -21.834 1 -30.501h-59v-99zM709.991 262.007
c0 9.33301 0.333008 18.833 1 28.5s1.66699 20.167 3 31.5h-4l-112 -163v-4c7.33301 0.666992 15 1 23 1h89v106z" />
    <glyph glyph-name="questiondown" unicode="&#xbf;" horiz-adv-x="485" 
d="M281 487c19.333 0 34.833 -5.49902 46.5 -16.499s17.5 -26.5 17.5 -46.5c0 -21.333 -5.83301 -37.833 -17.5 -49.5s-27.167 -17.5 -46.5 -17.5c-43.333 0 -65 22.333 -65 67c0 19.333 6.16699 34.666 18.5 45.999s27.833 17 46.5 17zM374 -45.999
c9.33301 5.33301 20.835 9.3291 34.502 11.9961s25.834 4 36.501 4c4 -23.333 7 -49.166 9 -77.499s3 -56.833 3 -85.5c-10.667 -4.66699 -23.834 -9 -39.501 -13s-32.5 -7.66699 -50.5 -11s-36 -6 -54 -8s-34.667 -3 -50 -3c-57.333 0 -102.166 12.333 -134.499 37
s-48.5 57.667 -48.5 99c0 22 4.66699 42 14 60s20.833 34.667 34.5 50s28.667 29.666 45 42.999s31.333 26.5 45 39.5s25.167 25.833 34.5 38.5s14 26.334 14 41.001c0 14 -2.33301 27.667 -7 41s-11 25.333 -19 36c8 6.66699 19.5 12.834 34.5 18.501
s29.5 9.16699 43.5 10.5c10.667 -13.333 19.667 -29 27 -47s11 -35.333 11 -52s-4.33301 -32.667 -13 -48s-19.334 -30 -32.001 -44s-26.667 -27.833 -42 -41.5s-29.333 -27.5 -42 -41.5s-23.334 -28.5 -32.001 -43.5s-13 -30.833 -13 -47.5c0 -10 2 -20.167 6 -30.5
s10.167 -19.666 18.5 -27.999s19.166 -15.166 32.499 -20.499s29.333 -8 48 -8c13.333 0 28.5 2 45.5 6s30.5 8.66699 40.5 14v100z" />
    <glyph glyph-name="Agrave" unicode="&#xc0;" horiz-adv-x="738" 
d="M160 843c3.33301 6 8.00098 12.333 14.001 19s12.5 13 19.5 19s14 11.5 21 16.5s13.167 8.5 18.5 10.5l192 -98c0 -4 -0.833008 -8.83301 -2.5 -14.5s-3.66699 -11.5 -6 -17.5s-4.83301 -11.833 -7.5 -17.5s-5.33398 -10.167 -8.00098 -13.5zM472.001 0
c1.33301 8 2.99902 17.002 4.99902 27.002s4.66699 18.667 8 26c8.66699 2.66699 20.5 5 35.5 7l38.5 5c-8 11.333 -15.167 23.666 -21.5 36.999s-12.166 26.666 -17.499 39.999l-32 85h-265l-33 -90c-4.66699 -13.333 -10.167 -26.333 -16.5 -39s-12.833 -24.667 -19.5 -36
c12 -0.666992 25.667 -1.66699 41 -3s29.666 -3.33301 42.999 -6c2 -6.66699 3.83301 -15.667 5.5 -27s2.5 -20 2.5 -26h-238c1.33301 8.66699 3.5 17.834 6.5 27.501s6.16699 18.167 9.5 25.5c7.33301 2.66699 16 4.66699 26 6l27 5l258 644h64l248 -642
c8 -0.666992 18.333 -1.83398 31 -3.50098s23.334 -3.5 32.001 -5.5c2.66699 -7.33301 5 -16.5 7 -27.5s3.33301 -20.833 4 -29.5h-249zM352 596.002c-1.33301 -6 -2.99902 -12.999 -4.99902 -20.999s-4.33301 -16.5 -7 -25.5l-8 -26.5
c-2.66699 -8.66699 -5.33398 -16.334 -8.00098 -23.001l-80 -216h222l-82 218l-7 21.5c-2.66699 8.33301 -5.16699 16.833 -7.5 25.5s-4.5 17.167 -6.5 25.5s-3.33301 15.5 -4 21.5h-7z" />
    <glyph glyph-name="Aacute" unicode="&#xc1;" horiz-adv-x="738" 
d="M300 745c-1.33301 4 -2.66699 9.00098 -4 15.001s-2.5 12.167 -3.5 18.5s-1.83301 12.666 -2.5 18.999s-1 11.833 -1 16.5l209 98c9.33301 -8 18 -19 26 -33s14.333 -27.667 19 -41zM471.999 0.000976562c1.33301 8 2.99902 17.002 4.99902 27.002s4.66699 18.667 8 26
c8.66699 2.66699 20.5 5 35.5 7l38.5 5c-8 11.333 -15.167 23.666 -21.5 36.999s-12.166 26.666 -17.499 39.999l-32 85h-265l-33 -90c-4.66699 -13.333 -10.167 -26.333 -16.5 -39s-12.833 -24.667 -19.5 -36c12 -0.666992 25.667 -1.66699 41 -3
s29.666 -3.33301 42.999 -6c2 -6.66699 3.83301 -15.667 5.5 -27s2.5 -20 2.5 -26h-238c1.33301 8.66699 3.5 17.834 6.5 27.501s6.16699 18.167 9.5 25.5c7.33301 2.66699 16 4.66699 26 6l27 5l258 644h64l248 -642c8 -0.666992 18.333 -1.83398 31 -3.50098
s23.334 -3.5 32.001 -5.5c2.66699 -7.33301 5 -16.5 7 -27.5s3.33301 -20.833 4 -29.5h-249zM351.998 596.003c-1.33301 -6 -2.99902 -12.999 -4.99902 -20.999s-4.33301 -16.5 -7 -25.5l-8 -26.5c-2.66699 -8.66699 -5.33398 -16.334 -8.00098 -23.001l-80 -216h222
l-82 218l-7 21.5c-2.66699 8.33301 -5.16699 16.833 -7.5 25.5s-4.5 17.167 -6.5 25.5s-3.33301 15.5 -4 21.5h-7z" />
    <glyph glyph-name="Acircumflex" unicode="&#xc2;" horiz-adv-x="738" 
d="M418 891l126.001 -101.999c-3.33301 -8 -8.83301 -16.333 -16.5 -25s-15.834 -15.334 -24.501 -20.001l-142 75l-150 -80c-5.33301 5.33301 -9.83301 14.333 -13.5 27s-6.16699 22.667 -7.5 30l120 95h108zM472.001 0.000976562c1.33301 8 2.99902 17.002 4.99902 27.002
s4.66699 18.667 8 26c8.66699 2.66699 20.5 5 35.5 7l38.5 5c-8 11.333 -15.167 23.666 -21.5 36.999s-12.166 26.666 -17.499 39.999l-32 85h-265l-33 -90c-4.66699 -13.333 -10.167 -26.333 -16.5 -39s-12.833 -24.667 -19.5 -36c12 -0.666992 25.667 -1.66699 41 -3
s29.666 -3.33301 42.999 -6c2 -6.66699 3.83301 -15.667 5.5 -27s2.5 -20 2.5 -26h-238c1.33301 8.66699 3.5 17.834 6.5 27.501s6.16699 18.167 9.5 25.5c7.33301 2.66699 16 4.66699 26 6l27 5l258 644h64l248 -642c8 -0.666992 18.333 -1.83398 31 -3.50098
s23.334 -3.5 32.001 -5.5c2.66699 -7.33301 5 -16.5 7 -27.5s3.33301 -20.833 4 -29.5h-249zM352 596.003c-1.33301 -6 -2.99902 -12.999 -4.99902 -20.999s-4.33301 -16.5 -7 -25.5l-8 -26.5c-2.66699 -8.66699 -5.33398 -16.334 -8.00098 -23.001l-80 -216h222l-82 218
l-7 21.5c-2.66699 8.33301 -5.16699 16.833 -7.5 25.5s-4.5 17.167 -6.5 25.5s-3.33301 15.5 -4 21.5h-7z" />
    <glyph glyph-name="Atilde" unicode="&#xc3;" horiz-adv-x="738" 
d="M498 876c20 0 36.665 -2.66992 49.998 -8.00293c-0.666992 -13.333 -3.66699 -26.666 -9 -39.999s-13 -25.5 -23 -36.5s-22.167 -19.833 -36.5 -26.5s-31.166 -10 -50.499 -10c-13.333 0 -26.166 2.33301 -38.499 7s-24.333 9.66699 -36 15s-23.334 10.333 -35.001 15
s-23.5 7 -35.5 7c-15.333 0 -28.5 -4.16699 -39.5 -12.5s-18.167 -18.5 -21.5 -30.5c-7.33301 0.666992 -15.666 3.83398 -24.999 9.50098s-16 11.834 -20 18.501c6 24.667 18.667 46.167 38 64.5s46.666 27.5 81.999 27.5c16.667 0 31.167 -2.16699 43.5 -6.5
s23.833 -9.33301 34.5 -15s21.167 -10.667 31.5 -15s22.166 -6.5 35.499 -6.5c14.667 0 26.834 4.33301 36.501 13s15.834 18.667 18.501 30zM471.998 -0.00292969c1.33301 8 2.99902 17.002 4.99902 27.002s4.66699 18.667 8 26c8.66699 2.66699 20.5 5 35.5 7l38.5 5
c-8 11.333 -15.167 23.666 -21.5 36.999s-12.166 26.666 -17.499 39.999l-32 85h-265l-33 -90c-4.66699 -13.333 -10.167 -26.333 -16.5 -39s-12.833 -24.667 -19.5 -36c12 -0.666992 25.667 -1.66699 41 -3s29.666 -3.33301 42.999 -6c2 -6.66699 3.83301 -15.667 5.5 -27
s2.5 -20 2.5 -26h-238c1.33301 8.66699 3.5 17.834 6.5 27.501s6.16699 18.167 9.5 25.5c7.33301 2.66699 16 4.66699 26 6l27 5l258 644h64l248 -642c8 -0.666992 18.333 -1.83398 31 -3.50098s23.334 -3.5 32.001 -5.5c2.66699 -7.33301 5 -16.5 7 -27.5
s3.33301 -20.833 4 -29.5h-249zM351.997 595.999c-1.33301 -6 -2.99902 -12.999 -4.99902 -20.999s-4.33301 -16.5 -7 -25.5l-8 -26.5c-2.66699 -8.66699 -5.33398 -16.334 -8.00098 -23.001l-80 -216h222l-82 218l-7 21.5c-2.66699 8.33301 -5.16699 16.833 -7.5 25.5
s-4.5 17.167 -6.5 25.5s-3.33301 15.5 -4 21.5h-7z" />
    <glyph glyph-name="Adieresis" unicode="&#xc4;" horiz-adv-x="738" 
d="M243 874c18.667 0 33.5 -4.66895 44.5 -14.002s16.5 -22.666 16.5 -39.999c0 -18.667 -5.5 -33 -16.5 -43s-25.833 -15 -44.5 -15c-41.333 0 -62 19.333 -62 58c0 16.667 5.66699 29.834 17 39.501s26.333 14.5 45 14.5zM484 873.998
c18.667 0 33.5 -4.66895 44.5 -14.002s16.5 -22.666 16.5 -39.999c0 -18.667 -5.5 -33 -16.5 -43s-25.833 -15 -44.5 -15c-41.333 0 -62 19.333 -62 58c0 16.667 5.66699 29.834 17 39.501s26.333 14.5 45 14.5zM472 -0.00390625c1.33301 8 2.99902 17.002 4.99902 27.002
s4.66699 18.667 8 26c8.66699 2.66699 20.5 5 35.5 7l38.5 5c-8 11.333 -15.167 23.666 -21.5 36.999s-12.166 26.666 -17.499 39.999l-32 85h-265l-33 -90c-4.66699 -13.333 -10.167 -26.333 -16.5 -39s-12.833 -24.667 -19.5 -36c12 -0.666992 25.667 -1.66699 41 -3
s29.666 -3.33301 42.999 -6c2 -6.66699 3.83301 -15.667 5.5 -27s2.5 -20 2.5 -26h-238c1.33301 8.66699 3.5 17.834 6.5 27.501s6.16699 18.167 9.5 25.5c7.33301 2.66699 16 4.66699 26 6l27 5l258 644h64l248 -642c8 -0.666992 18.333 -1.83398 31 -3.50098
s23.334 -3.5 32.001 -5.5c2.66699 -7.33301 5 -16.5 7 -27.5s3.33301 -20.833 4 -29.5h-249zM351.999 595.998c-1.33301 -6 -2.99902 -12.999 -4.99902 -20.999s-4.33301 -16.5 -7 -25.5l-8 -26.5c-2.66699 -8.66699 -5.33398 -16.334 -8.00098 -23.001l-80 -216h222
l-82 218l-7 21.5c-2.66699 8.33301 -5.16699 16.833 -7.5 25.5s-4.5 17.167 -6.5 25.5s-3.33301 15.5 -4 21.5h-7z" />
    <glyph glyph-name="Aring" unicode="&#xc5;" horiz-adv-x="738" 
d="M370 914c38 0 68.666 -8.82812 91.999 -26.4951s35 -43.167 35 -76.5c0 -30.667 -8.66699 -54.834 -26 -72.501s-41 -28.834 -71 -33.501l247 -639c8 -0.666992 18.333 -1.83398 31 -3.50098s23.334 -3.5 32.001 -5.5c2.66699 -7.33301 5 -16.5 7 -27.5
s3.33301 -20.833 4 -29.5h-249c1.33301 8 3 17 5 27s4.66699 18.667 8 26c8.66699 2.66699 20.5 5 35.5 7l38.5 5c-8 11.333 -15.167 23.666 -21.5 36.999s-12.166 26.666 -17.499 39.999l-32 85h-265l-33 -90c-4.66699 -13.333 -10.167 -26.333 -16.5 -39
s-12.833 -24.667 -19.5 -36c12 -0.666992 25.667 -1.66699 41 -3s29.666 -3.33301 42.999 -6c2 -6.66699 3.83301 -15.667 5.5 -27s2.5 -20 2.5 -26h-238c1.33301 8.66699 3.5 17.834 6.5 27.501s6.16699 18.167 9.5 25.5c7.33301 2.66699 16 4.66699 26 6l27 5l257 641
c-63.333 9.33301 -95 44.666 -95 105.999c0 32 11.833 57.167 35.5 75.5s55.5 27.5 95.5 27.5zM351.999 596.005c-1.33301 -6 -2.99902 -12.999 -4.99902 -20.999s-4.33301 -16.5 -7 -25.5l-8 -26.5c-2.66699 -8.66699 -5.33398 -16.334 -8.00098 -23.001l-80 -216h222
l-82 218l-7 21.5c-2.66699 8.33301 -5.16699 16.833 -7.5 25.5s-4.5 17.167 -6.5 25.5s-3.33301 15.5 -4 21.5h-7zM369 864.006c-17.333 0 -31.833 -4.66895 -43.5 -14.002s-17.5 -22.666 -17.5 -39.999c0 -38 20.333 -57 61 -57c17.333 0 31.333 4.83301 42 14.5
s16 23.834 16 42.501c0 18 -5.33301 31.5 -16 40.5s-24.667 13.5 -42 13.5z" />
    <glyph glyph-name="AE" unicode="&#xc6;" horiz-adv-x="897" 
d="M372 0c0.666992 7.33301 2.00195 16.1758 4.00195 26.5088s4.33301 19.166 7 26.499c8.66699 2.66699 20.334 5.16699 35.001 7.5s27 4.16602 37 5.49902v165h-211l-48 -91l-22 -39.5c-7.33301 -13 -15 -25.167 -23 -36.5c12 -0.666992 25 -1.83398 39 -3.50098
s27.667 -3.83398 41 -6.50098c2 -6.66699 3.83301 -15.834 5.5 -27.501s2.5 -20.5 2.5 -26.5h-236c1.33301 8.66699 3.5 17.667 6.5 27s6.16699 17.666 9.5 24.999c7.33301 2.66699 15.5 5 24.5 7s17.5 3.66699 25.5 5l310 568c-13.333 0.666992 -28.5 1.66699 -45.5 3
s-30.5 2.66602 -40.5 3.99902c-2 6.66699 -3.16699 16 -3.5 28s0.166992 21 1.5 27h557v-147c-8.66699 0 -18.167 0.666992 -28.5 2s-19.5 3 -27.5 5c-2.66699 10 -5.16699 23.167 -7.5 39.5s-3.83301 29.5 -4.5 39.5h-233v-264h184c0.666992 7.33301 2 16.5 4 27.5
s4 19.833 6 26.5c6.66699 2 15.667 3.83301 27 5.5s21.333 2.5 30 2.5v-184c-8.66699 -1.33301 -18.5 -1.5 -29.5 -0.5s-20.5 2.5 -28.5 4.5c-2 9.33301 -3.83301 19.333 -5.5 30s-2.83398 20 -3.50098 28h-184v-246h237c1.33301 13.333 3 28.166 5 44.499
s4.33301 30.166 7 41.499c7.33301 2 17.166 3.66699 29.499 5s23.166 2 32.499 2v-156h-486zM275.002 288.01h180v345h-7c-4 -12 -9.33301 -26.5 -16 -43.5s-13.667 -32.167 -21 -45.5z" />
    <glyph glyph-name="Ccedilla" unicode="&#xc7;" horiz-adv-x="620" 
d="M339 -19c-43.333 1.33301 -82.9971 11 -118.997 29s-66.667 42.5 -92 73.5s-45 67.667 -59 110s-21 88.5 -21 138.5c0 60 9.16699 113.667 27.5 161s43.166 87.333 74.499 120s67.833 57.667 109.5 75s86.167 26 133.5 26c37.333 0 71.166 -3.33301 101.499 -10
s58.166 -16 83.499 -28c0 -27.333 -1 -56.5 -3 -87.5s-5 -57.167 -9 -78.5c-10 0 -22 1.5 -36 4.5s-25.667 6.83301 -35 11.5v102c-18 8 -35.833 13.667 -53.5 17s-35.834 5 -54.501 5c-33.333 0 -64.666 -6.16699 -93.999 -18.5s-54.833 -30.666 -76.5 -54.999
s-38.834 -54.833 -51.501 -91.5s-19 -79 -19 -127c0 -51.333 5.83301 -95.833 17.5 -133.5s28 -68.834 49 -93.501s46.167 -43 75.5 -55s61.666 -18 96.999 -18c14 0 29.333 1 46 3s33.334 4.66699 50.001 8s32.834 7 48.501 11s29.834 8.33301 42.501 13
c1.33301 -8.66699 0.666016 -19.5 -2.00098 -32.5s-5.66699 -23.167 -9 -30.5c-19.333 -10.667 -42.666 -20 -69.999 -28s-55.666 -14 -84.999 -18l-8 -49c21.333 -3.33301 39.166 -11.333 53.499 -24s21.5 -29.667 21.5 -51c0 -15.333 -3.83301 -29.666 -11.5 -42.999
s-17.834 -25 -30.501 -35s-27 -18.167 -43 -24.5s-32 -10.5 -48 -12.5c-13.333 12.667 -25.333 27.334 -36 44.001c22 6 40 14 54 24s21 24.333 21 43c0 17.333 -6.5 30.666 -19.5 39.999s-28.167 15.666 -45.5 18.999z" />
    <glyph glyph-name="Egrave" unicode="&#xc8;" horiz-adv-x="566" 
d="M101 843c3.33301 6 8.00098 12.333 14.001 19s12.5 13 19.5 19s14 11.5 21 16.5s13.167 8.5 18.5 10.5l192 -98c0 -4 -0.833008 -8.83301 -2.5 -14.5s-3.66699 -11.5 -6 -17.5s-4.83301 -11.833 -7.5 -17.5s-5.33398 -10.167 -8.00098 -13.5zM29.001 0
c0.666992 7.33301 2.17188 16.1719 4.50488 26.5049s4.83301 19.166 7.5 26.499c9.33301 2.66699 21.833 5.16699 37.5 7.5s29.167 4.16602 40.5 5.49902v564c-11.333 0.666992 -24.333 1.66699 -39 3s-26.334 2.66602 -35.001 3.99902
c-1.33301 6.66699 -2.33301 16.167 -3 28.5s-0.333984 21.833 0.999023 28.5h474v-147c-8.66699 0 -18.167 0.666992 -28.5 2s-19.5 3 -27.5 5c-2.66699 10 -5.16699 23.167 -7.5 39.5s-3.83301 29.5 -4.5 39.5h-238v-254h189c0.666992 7.33301 2 16.5 4 27.5
s4 19.833 6 26.5c6.66699 2 15.667 3.83301 27 5.5s21.333 2.5 30 2.5v-184c-8.66699 -1.33301 -18.5 -1.5 -29.5 -0.5s-20.5 2.5 -28.5 4.5c-2 9.33301 -3.83301 19.333 -5.5 30s-2.83398 20 -3.50098 28h-189v-256h242c1.33301 13.333 3 28.166 5 44.499
s4.33301 30.166 7 41.499c7.33301 2 17.166 3.66699 29.499 5s23.166 2 32.499 2v-156h-498z" />
    <glyph glyph-name="Eacute" unicode="&#xc9;" horiz-adv-x="566" 
d="M262 745c-1.33301 4 -2.66699 9.00098 -4 15.001s-2.5 12.167 -3.5 18.5s-1.83301 12.666 -2.5 18.999s-1 11.833 -1 16.5l209 98c9.33301 -8 18 -19 26 -33s14.333 -27.667 19 -41zM28.999 0.000976562c0.666992 7.33301 2.17188 16.1719 4.50488 26.5049
s4.83301 19.166 7.5 26.499c9.33301 2.66699 21.833 5.16699 37.5 7.5s29.167 4.16602 40.5 5.49902v564c-11.333 0.666992 -24.333 1.66699 -39 3s-26.334 2.66602 -35.001 3.99902c-1.33301 6.66699 -2.33301 16.167 -3 28.5s-0.333984 21.833 0.999023 28.5h474v-147
c-8.66699 0 -18.167 0.666992 -28.5 2s-19.5 3 -27.5 5c-2.66699 10 -5.16699 23.167 -7.5 39.5s-3.83301 29.5 -4.5 39.5h-238v-254h189c0.666992 7.33301 2 16.5 4 27.5s4 19.833 6 26.5c6.66699 2 15.667 3.83301 27 5.5s21.333 2.5 30 2.5v-184
c-8.66699 -1.33301 -18.5 -1.5 -29.5 -0.5s-20.5 2.5 -28.5 4.5c-2 9.33301 -3.83301 19.333 -5.5 30s-2.83398 20 -3.50098 28h-189v-256h242c1.33301 13.333 3 28.166 5 44.499s4.33301 30.166 7 41.499c7.33301 2 17.166 3.66699 29.499 5s23.166 2 32.499 2v-156h-498z
" />
    <glyph glyph-name="Ecircumflex" unicode="&#xca;" horiz-adv-x="566" 
d="M357 891l126.001 -101.999c-3.33301 -8 -8.83301 -16.333 -16.5 -25s-15.834 -15.334 -24.501 -20.001l-142 75l-150 -80c-5.33301 5.33301 -9.83301 14.333 -13.5 27s-6.16699 22.667 -7.5 30l120 95h108zM29.001 0.000976562
c0.666992 7.33301 2.17188 16.1719 4.50488 26.5049s4.83301 19.166 7.5 26.499c9.33301 2.66699 21.833 5.16699 37.5 7.5s29.167 4.16602 40.5 5.49902v564c-11.333 0.666992 -24.333 1.66699 -39 3s-26.334 2.66602 -35.001 3.99902
c-1.33301 6.66699 -2.33301 16.167 -3 28.5s-0.333984 21.833 0.999023 28.5h474v-147c-8.66699 0 -18.167 0.666992 -28.5 2s-19.5 3 -27.5 5c-2.66699 10 -5.16699 23.167 -7.5 39.5s-3.83301 29.5 -4.5 39.5h-238v-254h189c0.666992 7.33301 2 16.5 4 27.5
s4 19.833 6 26.5c6.66699 2 15.667 3.83301 27 5.5s21.333 2.5 30 2.5v-184c-8.66699 -1.33301 -18.5 -1.5 -29.5 -0.5s-20.5 2.5 -28.5 4.5c-2 9.33301 -3.83301 19.333 -5.5 30s-2.83398 20 -3.50098 28h-189v-256h242c1.33301 13.333 3 28.166 5 44.499
s4.33301 30.166 7 41.499c7.33301 2 17.166 3.66699 29.499 5s23.166 2 32.499 2v-156h-498z" />
    <glyph glyph-name="Edieresis" unicode="&#xcb;" horiz-adv-x="566" 
d="M187 874c18.667 0 33.5 -4.66895 44.5 -14.002s16.5 -22.666 16.5 -39.999c0 -18.667 -5.5 -33 -16.5 -43s-25.833 -15 -44.5 -15c-41.333 0 -62 19.333 -62 58c0 16.667 5.66699 29.834 17 39.501s26.333 14.5 45 14.5zM428 873.998
c18.667 0 33.5 -4.66895 44.5 -14.002s16.5 -22.666 16.5 -39.999c0 -18.667 -5.5 -33 -16.5 -43s-25.833 -15 -44.5 -15c-41.333 0 -62 19.333 -62 58c0 16.667 5.66699 29.834 17 39.501s26.333 14.5 45 14.5zM29 -0.00390625
c0.666992 7.33301 2.17188 16.1719 4.50488 26.5049s4.83301 19.166 7.5 26.499c9.33301 2.66699 21.833 5.16699 37.5 7.5s29.167 4.16602 40.5 5.49902v564c-11.333 0.666992 -24.333 1.66699 -39 3s-26.334 2.66602 -35.001 3.99902
c-1.33301 6.66699 -2.33301 16.167 -3 28.5s-0.333984 21.833 0.999023 28.5h474v-147c-8.66699 0 -18.167 0.666992 -28.5 2s-19.5 3 -27.5 5c-2.66699 10 -5.16699 23.167 -7.5 39.5s-3.83301 29.5 -4.5 39.5h-238v-254h189c0.666992 7.33301 2 16.5 4 27.5
s4 19.833 6 26.5c6.66699 2 15.667 3.83301 27 5.5s21.333 2.5 30 2.5v-184c-8.66699 -1.33301 -18.5 -1.5 -29.5 -0.5s-20.5 2.5 -28.5 4.5c-2 9.33301 -3.83301 19.333 -5.5 30s-2.83398 20 -3.50098 28h-189v-256h242c1.33301 13.333 3 28.166 5 44.499
s4.33301 30.166 7 41.499c7.33301 2 17.166 3.66699 29.499 5s23.166 2 32.499 2v-156h-498z" />
    <glyph glyph-name="Igrave" unicode="&#xcc;" horiz-adv-x="330" 
d="M-34 843c3.33301 6 8.00098 12.333 14.001 19s12.5 13 19.5 19s14 11.5 21 16.5s13.167 8.5 18.5 10.5l192 -98c0 -4 -0.833008 -8.83301 -2.5 -14.5s-3.66699 -11.5 -6 -17.5s-4.83301 -11.833 -7.5 -17.5s-5.33398 -10.167 -8.00098 -13.5zM29.001 0
c0.666992 7.33301 2.16895 16.1699 4.50195 26.5029s4.83301 19.166 7.5 26.499c9.33301 2.66699 21.833 5.16699 37.5 7.5s29.167 4.16602 40.5 5.49902v564c-11.333 0.666992 -24.333 1.66699 -39 3s-26.334 2.66602 -35.001 3.99902
c-1.33301 6.66699 -2.33301 16.167 -3 28.5s-0.333984 21.833 0.999023 28.5h252c1.33301 -6 1.83301 -15.167 1.5 -27.5s-1.5 -21.833 -3.5 -28.5c-11.333 -2 -24.5 -3.66699 -39.5 -5s-29.167 -2.33301 -42.5 -3v-565l46 -4c16 -1.33301 30.333 -3.33301 43 -6
c1.33301 -5.33301 2.33301 -11.333 3 -18s1 -13.667 1 -21v-8c0 -2 -0.333008 -4.66699 -1 -8h-274z" />
    <glyph glyph-name="Iacute" unicode="&#xcd;" horiz-adv-x="330" 
d="M120 745c-1.33301 4 -2.66699 9.00098 -4 15.001s-2.5 12.167 -3.5 18.5s-1.83301 12.666 -2.5 18.999s-1 11.833 -1 16.5l209 98c9.33301 -8 18 -19 26 -33s14.333 -27.667 19 -41zM28.999 0.000976562c0.666992 7.33301 2.16895 16.1699 4.50195 26.5029
s4.83301 19.166 7.5 26.499c9.33301 2.66699 21.833 5.16699 37.5 7.5s29.167 4.16602 40.5 5.49902v564c-11.333 0.666992 -24.333 1.66699 -39 3s-26.334 2.66602 -35.001 3.99902c-1.33301 6.66699 -2.33301 16.167 -3 28.5s-0.333984 21.833 0.999023 28.5h252
c1.33301 -6 1.83301 -15.167 1.5 -27.5s-1.5 -21.833 -3.5 -28.5c-11.333 -2 -24.5 -3.66699 -39.5 -5s-29.167 -2.33301 -42.5 -3v-565l46 -4c16 -1.33301 30.333 -3.33301 43 -6c1.33301 -5.33301 2.33301 -11.333 3 -18s1 -13.667 1 -21v-8
c0 -2 -0.333008 -4.66699 -1 -8h-274z" />
    <glyph glyph-name="Icircumflex" unicode="&#xce;" horiz-adv-x="330" 
d="M219 891l126.001 -101.999c-3.33301 -8 -8.83301 -16.333 -16.5 -25s-15.834 -15.334 -24.501 -20.001l-142 75l-150 -80c-5.33301 5.33301 -9.83301 14.333 -13.5 27s-6.16699 22.667 -7.5 30l120 95h108zM29.001 0.000976562
c0.666992 7.33301 2.16895 16.1699 4.50195 26.5029s4.83301 19.166 7.5 26.499c9.33301 2.66699 21.833 5.16699 37.5 7.5s29.167 4.16602 40.5 5.49902v564c-11.333 0.666992 -24.333 1.66699 -39 3s-26.334 2.66602 -35.001 3.99902
c-1.33301 6.66699 -2.33301 16.167 -3 28.5s-0.333984 21.833 0.999023 28.5h252c1.33301 -6 1.83301 -15.167 1.5 -27.5s-1.5 -21.833 -3.5 -28.5c-11.333 -2 -24.5 -3.66699 -39.5 -5s-29.167 -2.33301 -42.5 -3v-565l46 -4c16 -1.33301 30.333 -3.33301 43 -6
c1.33301 -5.33301 2.33301 -11.333 3 -18s1 -13.667 1 -21v-8c0 -2 -0.333008 -4.66699 -1 -8h-274z" />
    <glyph glyph-name="Idieresis" unicode="&#xcf;" horiz-adv-x="330" 
d="M29 0c0.666992 7.33301 2.16895 16.1699 4.50195 26.5029s4.83301 19.166 7.5 26.499c9.33301 2.66699 21.833 5.16699 37.5 7.5s29.167 4.16602 40.5 5.49902v564c-11.333 0.666992 -24.333 1.66699 -39 3s-26.334 2.66602 -35.001 3.99902
c-1.33301 6.66699 -2.33301 16.167 -3 28.5s-0.333984 21.833 0.999023 28.5h252c1.33301 -6 1.83301 -15.167 1.5 -27.5s-1.5 -21.833 -3.5 -28.5c-11.333 -2 -24.5 -3.66699 -39.5 -5s-29.167 -2.33301 -42.5 -3v-565l46 -4c16 -1.33301 30.333 -3.33301 43 -6
c1.33301 -5.33301 2.33301 -11.333 3 -18s1 -13.667 1 -21v-8c0 -2 -0.333008 -4.66699 -1 -8h-274zM62.002 874.004c18.667 0 33.5 -4.66895 44.5 -14.002s16.5 -22.666 16.5 -39.999c0 -18.667 -5.5 -33 -16.5 -43s-25.833 -15 -44.5 -15c-41.333 0 -62 19.333 -62 58
c0 16.667 5.66699 29.834 17 39.501s26.333 14.5 45 14.5zM273.002 874.002c18.667 0 33.5 -4.66895 44.5 -14.002s16.5 -22.666 16.5 -39.999c0 -18.667 -5.5 -33 -16.5 -43s-25.833 -15 -44.5 -15c-41.333 0 -62 19.333 -62 58c0 16.667 5.66699 29.834 17 39.501
s26.333 14.5 45 14.5z" />
    <glyph glyph-name="Eth" unicode="&#xd0;" horiz-adv-x="705" 
d="M130 318l-85.999 0.00488281c0 8.66699 0.5 18.667 1.5 30s2.83301 21.666 5.5 30.999h79v245c-11.333 0 -23.666 0.166992 -36.999 0.5s-25.666 1.16602 -36.999 2.49902c-0.666992 3.33301 -1.33398 7.66602 -2.00098 12.999s-1 10.666 -1 15.999v17
c0 5.33301 0.333008 10 1 14c20 2 41.333 3.83301 64 5.5s45.667 3.16699 69 4.5s46.166 2.33301 68.499 3s43.166 1 62.499 1c48.667 0 94.334 -7.33301 137.001 -22s79.834 -36.5 111.501 -65.5s56.667 -64.667 75 -107s27.5 -91.166 27.5 -146.499
c0 -64 -8.83301 -119 -26.5 -165s-41.334 -83.667 -71.001 -113s-63.834 -51 -102.501 -65s-79 -21 -121 -21h-73c-26 0 -52.5 0.333008 -79.5 1s-53.833 1.16699 -80.5 1.5s-51.667 1.16602 -75 2.49902c1.33301 8 3 17 5 27s4.33301 18.667 7 26
c9.33301 2.66699 21.833 5.16699 37.5 7.5s29.167 4.16602 40.5 5.49902v251zM222.001 318.005v-256.002c15.333 -1.33301 31.5 -2.16602 48.5 -2.49902s33.167 -0.5 48.5 -0.5c40 0 75.667 5.66699 107 17s57.833 28.833 79.5 52.5s38.167 54.167 49.5 91.5
s17 82.333 17 135c0 46 -7.16699 86.667 -21.5 122s-33.666 65 -57.999 89s-53 42.167 -86 54.5s-68.167 18.5 -105.5 18.5h-18c-6.66699 0 -13.834 -0.166992 -21.501 -0.5l-22 -1c-7 -0.333008 -12.833 -0.833008 -17.5 -1.5v-257h186
c1.33301 -5.33301 2.5 -14.666 3.5 -27.999s0.833008 -24.333 -0.5 -33h-189z" />
    <glyph glyph-name="Ntilde" unicode="&#xd1;" horiz-adv-x="735" 
d="M521 876c20 0 36.665 -2.66992 49.998 -8.00293c-0.666992 -13.333 -3.66699 -26.666 -9 -39.999s-13 -25.5 -23 -36.5s-22.167 -19.833 -36.5 -26.5s-31.166 -10 -50.499 -10c-13.333 0 -26.166 2.33301 -38.499 7s-24.333 9.66699 -36 15s-23.334 10.333 -35.001 15
s-23.5 7 -35.5 7c-15.333 0 -28.5 -4.16699 -39.5 -12.5s-18.167 -18.5 -21.5 -30.5c-7.33301 0.666992 -15.666 3.83398 -24.999 9.50098s-16 11.834 -20 18.501c6 24.667 18.667 46.167 38 64.5s46.666 27.5 81.999 27.5c16.667 0 31.167 -2.16699 43.5 -6.5
s23.833 -9.33301 34.5 -15s21.167 -10.667 31.5 -15s22.166 -6.5 35.499 -6.5c14.667 0 26.834 4.33301 36.501 13s15.834 18.667 18.501 30zM501.998 230.997l14.9971 -30.998l18 -40c6 -14 11.333 -27.667 16 -41s8 -24.333 10 -33h7v544
c-11.333 0.666992 -24.5 1.66699 -39.5 3s-26.833 2.66602 -35.5 3.99902c-1.33301 6.66699 -2.33301 16.334 -3 29.001s-0.333984 22 0.999023 28h221c1.33301 -5.33301 2 -12.333 2 -21c0 -7.33301 -0.333008 -14 -1 -20s-1.66699 -11 -3 -15
c-9.33301 -2 -20.666 -3.66699 -33.999 -5s-25.666 -2.33301 -36.999 -3v-636h-113l-292 545c-5.33301 9.33301 -11.166 20.833 -17.499 34.5l-17.5 38.5h-7v-547c14 -1.33301 29 -2.66602 45 -3.99902s30 -3.33301 42 -6c2 -6 3.33301 -15.167 4 -27.5
s0.333984 -21.5 -0.999023 -27.5h-254c0.666992 7.33301 2.16699 16.166 4.5 26.499s4.83301 19.166 7.5 26.499c8.66699 2.66699 20.834 5.16699 36.501 7.5s28.834 4.16602 39.501 5.49902v564c-11.333 0.666992 -24.333 1.66699 -39 3s-26.334 2.66602 -35.001 3.99902
c-1.33301 6.66699 -2.33301 16.334 -3 29.001s-0.333984 22 0.999023 28h211z" />
    <glyph glyph-name="Ograve" unicode="&#xd2;" horiz-adv-x="721" 
d="M170 843c3.33301 6 8.00098 12.333 14.001 19s12.5 13 19.5 19s14 11.5 21 16.5s13.167 8.5 18.5 10.5l192 -98c0 -4 -0.833008 -8.83301 -2.5 -14.5s-3.66699 -11.5 -6 -17.5s-4.83301 -11.833 -7.5 -17.5s-5.33398 -10.167 -8.00098 -13.5zM362.001 714
c46.667 0 89.332 -7.83496 127.999 -23.502s71.834 -38.667 99.501 -69s49 -67.666 64 -111.999s22.5 -95.166 22.5 -152.499c0 -60 -7.5 -113.333 -22.5 -160s-36.167 -86.167 -63.5 -118.5s-60.333 -56.833 -99 -73.5s-81.667 -25 -129 -25
c-102.667 0 -181.167 31.833 -235.5 95.5s-81.5 157.5 -81.5 281.5c0 55.333 8 105 24 149s38.167 81.5 66.5 112.5s61.833 54.667 100.5 71s80.667 24.5 126 24.5zM143.999 356.998c0 -47.333 4.83105 -90 14.498 -128s23.834 -70.5 42.501 -97.5s41.5 -47.833 68.5 -62.5
s57.833 -22 92.5 -22c72 0 125.833 27.667 161.5 83s53.5 131 53.5 227c0 42 -5.16699 80.833 -15.5 116.5s-24.833 66.334 -43.5 92.001s-41.167 45.834 -67.5 60.501s-55.833 22 -88.5 22c-36 0 -67.5 -6.83301 -94.5 -20.5s-49.667 -33.334 -68 -59.001
s-32.166 -56.334 -41.499 -92.001s-14 -75.5 -14 -119.5z" />
    <glyph glyph-name="Oacute" unicode="&#xd3;" horiz-adv-x="721" 
d="M303 745c-1.33301 4 -2.66699 9.00098 -4 15.001s-2.5 12.167 -3.5 18.5s-1.83301 12.666 -2.5 18.999s-1 11.833 -1 16.5l209 98c9.33301 -8 18 -19 26 -33s14.333 -27.667 19 -41zM361.999 714.001c46.667 0 89.332 -7.83496 127.999 -23.502
s71.834 -38.667 99.501 -69s49 -67.666 64 -111.999s22.5 -95.166 22.5 -152.499c0 -60 -7.5 -113.333 -22.5 -160s-36.167 -86.167 -63.5 -118.5s-60.333 -56.833 -99 -73.5s-81.667 -25 -129 -25c-102.667 0 -181.167 31.833 -235.5 95.5s-81.5 157.5 -81.5 281.5
c0 55.333 8 105 24 149s38.167 81.5 66.5 112.5s61.833 54.667 100.5 71s80.667 24.5 126 24.5zM143.997 356.999c0 -47.333 4.83105 -90 14.498 -128s23.834 -70.5 42.501 -97.5s41.5 -47.833 68.5 -62.5s57.833 -22 92.5 -22c72 0 125.833 27.667 161.5 83
s53.5 131 53.5 227c0 42 -5.16699 80.833 -15.5 116.5s-24.833 66.334 -43.5 92.001s-41.167 45.834 -67.5 60.501s-55.833 22 -88.5 22c-36 0 -67.5 -6.83301 -94.5 -20.5s-49.667 -33.334 -68 -59.001s-32.166 -56.334 -41.499 -92.001s-14 -75.5 -14 -119.5z" />
    <glyph glyph-name="Ocircumflex" unicode="&#xd4;" horiz-adv-x="721" 
d="M421 891l126.001 -101.999c-3.33301 -8 -8.83301 -16.333 -16.5 -25s-15.834 -15.334 -24.501 -20.001l-142 75l-150 -80c-5.33301 5.33301 -9.83301 14.333 -13.5 27s-6.16699 22.667 -7.5 30l120 95h108zM362.001 714.001c46.667 0 89.332 -7.83496 127.999 -23.502
s71.834 -38.667 99.501 -69s49 -67.666 64 -111.999s22.5 -95.166 22.5 -152.499c0 -60 -7.5 -113.333 -22.5 -160s-36.167 -86.167 -63.5 -118.5s-60.333 -56.833 -99 -73.5s-81.667 -25 -129 -25c-102.667 0 -181.167 31.833 -235.5 95.5s-81.5 157.5 -81.5 281.5
c0 55.333 8 105 24 149s38.167 81.5 66.5 112.5s61.833 54.667 100.5 71s80.667 24.5 126 24.5zM143.999 356.999c0 -47.333 4.83105 -90 14.498 -128s23.834 -70.5 42.501 -97.5s41.5 -47.833 68.5 -62.5s57.833 -22 92.5 -22c72 0 125.833 27.667 161.5 83
s53.5 131 53.5 227c0 42 -5.16699 80.833 -15.5 116.5s-24.833 66.334 -43.5 92.001s-41.167 45.834 -67.5 60.501s-55.833 22 -88.5 22c-36 0 -67.5 -6.83301 -94.5 -20.5s-49.667 -33.334 -68 -59.001s-32.166 -56.334 -41.499 -92.001s-14 -75.5 -14 -119.5z" />
    <glyph glyph-name="Otilde" unicode="&#xd5;" horiz-adv-x="721" 
d="M498 876c20 0 36.665 -2.66992 49.998 -8.00293c-0.666992 -13.333 -3.66699 -26.666 -9 -39.999s-13 -25.5 -23 -36.5s-22.167 -19.833 -36.5 -26.5s-31.166 -10 -50.499 -10c-13.333 0 -26.166 2.33301 -38.499 7s-24.333 9.66699 -36 15s-23.334 10.333 -35.001 15
s-23.5 7 -35.5 7c-15.333 0 -28.5 -4.16699 -39.5 -12.5s-18.167 -18.5 -21.5 -30.5c-7.33301 0.666992 -15.666 3.83398 -24.999 9.50098s-16 11.834 -20 18.501c6 24.667 18.667 46.167 38 64.5s46.666 27.5 81.999 27.5c16.667 0 31.167 -2.16699 43.5 -6.5
s23.833 -9.33301 34.5 -15s21.167 -10.667 31.5 -15s22.166 -6.5 35.499 -6.5c14.667 0 26.834 4.33301 36.501 13s15.834 18.667 18.501 30zM361.998 713.997c46.667 0 89.332 -7.83496 127.999 -23.502s71.834 -38.667 99.501 -69s49 -67.666 64 -111.999
s22.5 -95.166 22.5 -152.499c0 -60 -7.5 -113.333 -22.5 -160s-36.167 -86.167 -63.5 -118.5s-60.333 -56.833 -99 -73.5s-81.667 -25 -129 -25c-102.667 0 -181.167 31.833 -235.5 95.5s-81.5 157.5 -81.5 281.5c0 55.333 8 105 24 149s38.167 81.5 66.5 112.5
s61.833 54.667 100.5 71s80.667 24.5 126 24.5zM143.996 356.995c0 -47.333 4.83105 -90 14.498 -128s23.834 -70.5 42.501 -97.5s41.5 -47.833 68.5 -62.5s57.833 -22 92.5 -22c72 0 125.833 27.667 161.5 83s53.5 131 53.5 227c0 42 -5.16699 80.833 -15.5 116.5
s-24.833 66.334 -43.5 92.001s-41.167 45.834 -67.5 60.501s-55.833 22 -88.5 22c-36 0 -67.5 -6.83301 -94.5 -20.5s-49.667 -33.334 -68 -59.001s-32.166 -56.334 -41.499 -92.001s-14 -75.5 -14 -119.5z" />
    <glyph glyph-name="Odieresis" unicode="&#xd6;" horiz-adv-x="721" 
d="M229 874c18.667 0 33.5 -4.66895 44.5 -14.002s16.5 -22.666 16.5 -39.999c0 -18.667 -5.5 -33 -16.5 -43s-25.833 -15 -44.5 -15c-41.333 0 -62 19.333 -62 58c0 16.667 5.66699 29.834 17 39.501s26.333 14.5 45 14.5zM510 873.998
c18.667 0 33.5 -4.66895 44.5 -14.002s16.5 -22.666 16.5 -39.999c0 -18.667 -5.5 -33 -16.5 -43s-25.833 -15 -44.5 -15c-41.333 0 -62 19.333 -62 58c0 16.667 5.66699 29.834 17 39.501s26.333 14.5 45 14.5zM362 713.996c46.667 0 89.332 -7.83496 127.999 -23.502
s71.834 -38.667 99.501 -69s49 -67.666 64 -111.999s22.5 -95.166 22.5 -152.499c0 -60 -7.5 -113.333 -22.5 -160s-36.167 -86.167 -63.5 -118.5s-60.333 -56.833 -99 -73.5s-81.667 -25 -129 -25c-102.667 0 -181.167 31.833 -235.5 95.5s-81.5 157.5 -81.5 281.5
c0 55.333 8 105 24 149s38.167 81.5 66.5 112.5s61.833 54.667 100.5 71s80.667 24.5 126 24.5zM143.998 356.994c0 -47.333 4.83105 -90 14.498 -128s23.834 -70.5 42.501 -97.5s41.5 -47.833 68.5 -62.5s57.833 -22 92.5 -22c72 0 125.833 27.667 161.5 83
s53.5 131 53.5 227c0 42 -5.16699 80.833 -15.5 116.5s-24.833 66.334 -43.5 92.001s-41.167 45.834 -67.5 60.501s-55.833 22 -88.5 22c-36 0 -67.5 -6.83301 -94.5 -20.5s-49.667 -33.334 -68 -59.001s-32.166 -56.334 -41.499 -92.001s-14 -75.5 -14 -119.5z" />
    <glyph glyph-name="multiply" unicode="&#xd7;" 
d="M501 100c-4 -6.66699 -11.333 -15.167 -22 -25.5s-19.334 -17.833 -26.001 -22.5l-168 169l-168 -169c-7.33301 5.33301 -16.166 13.166 -26.499 23.499s-17.5 18.833 -21.5 25.5l169 167l-173 171c5.33301 6 14 13.167 26 21.5s22.333 14.5 31 18.5l163 -164l162 164
c8 -3.33301 18.167 -9.16602 30.5 -17.499s21.5 -15.833 27.5 -22.5l-174 -171z" />
    <glyph glyph-name="Oslash" unicode="&#xd8;" horiz-adv-x="748" 
d="M375 714c84.667 0 154.668 -24.001 210.001 -72.001l87 98c8.66699 -3.33301 18.667 -9.83301 30 -19.5s19.666 -18.5 24.999 -26.5l-95 -106c20 -29.333 35.333 -63.166 46 -101.499s16 -81.5 16 -129.5c0 -60 -7.5 -113.333 -22.5 -160s-36.5 -86.167 -64.5 -118.5
s-61.667 -56.833 -101 -73.5s-83 -25 -131 -25c-92 0 -164.667 24.667 -218 74l-98 -109c-6 6 -13 15.5 -21 28.5s-13.333 24.167 -16 33.5l90 102c-39.333 61.333 -59 144 -59 248c0 55.333 8.16699 105 24.5 149s38.833 81.5 67.5 112.5s62.667 54.667 102 71
s82 24.5 128 24.5zM595.001 356.999c0 59.333 -10.333 111.667 -31 157l-349 -390c19.333 -24.667 42.333 -43.667 69 -57s57 -20 91 -20c73.333 0 128.333 27.667 165 83s55 131 55 227zM152.001 357c0 -68 10.0029 -125.998 30.0029 -173.998l346 391
c-19.333 23.333 -41.833 41.5 -67.5 54.5s-54.167 19.5 -85.5 19.5c-36.667 0 -68.834 -6.83301 -96.501 -20.5s-50.834 -33.334 -69.501 -59.001s-32.834 -56.334 -42.501 -92.001s-14.5 -75.5 -14.5 -119.5z" />
    <glyph glyph-name="Ugrave" unicode="&#xd9;" horiz-adv-x="704" 
d="M160 843c3.33301 6 8.00098 12.333 14.001 19s12.5 13 19.5 19s14 11.5 21 16.5s13.167 8.5 18.5 10.5l192 -98c0 -4 -0.833008 -8.83301 -2.5 -14.5s-3.66699 -11.5 -6 -17.5s-4.83301 -11.833 -7.5 -17.5s-5.33398 -10.167 -8.00098 -13.5zM188.001 257
c0 -68.667 14.3301 -121.167 42.9971 -157.5s73 -54.5 133 -54.5c31.333 0 58.333 5.5 81 16.5s41.334 26.167 56.001 45.5s25.5 42 32.5 68s10.5 54 10.5 84v371c-10.667 0.666992 -22.667 1.66699 -36 3s-24 2.66602 -32 3.99902c-2 6.66699 -3.16699 16.334 -3.5 29.001
s0.166992 22 1.5 28h219c1.33301 -5.33301 2 -12.333 2 -21c0 -6 -0.333008 -12.333 -1 -19s-1.66699 -12 -3 -16c-9.33301 -2 -20.666 -3.66699 -33.999 -5s-25.666 -2.33301 -36.999 -3v-365c0 -42 -5.33301 -80.5 -16 -115.5s-27.167 -65 -49.5 -90s-51 -44.5 -86 -58.5
s-76.5 -21 -124.5 -21c-84.667 0 -147.167 23 -187.5 69s-60.5 112.667 -60.5 200v379c-10 1.33301 -22.833 2.83301 -38.5 4.5s-27.834 3.16699 -36.501 4.5c-1.33301 2.66699 -2.5 6.66699 -3.5 12s-1.83301 10.833 -2.5 16.5s-1.16699 11.167 -1.5 16.5
s-0.5 9.33301 -0.5 12h264c1.33301 -6 1.83301 -15.167 1.5 -27.5s-1.5 -21.833 -3.5 -28.5c-11.333 -2 -25.166 -3.66699 -41.499 -5s-31.5 -2.33301 -45.5 -3v-373z" />
    <glyph glyph-name="Uacute" unicode="&#xda;" horiz-adv-x="704" 
d="M321 745c-1.33301 4 -2.66699 9.00098 -4 15.001s-2.5 12.167 -3.5 18.5s-1.83301 12.666 -2.5 18.999s-1 11.833 -1 16.5l209 98c9.33301 -8 18 -19 26 -33s14.333 -27.667 19 -41zM187.999 257.001c0 -68.667 14.3301 -121.167 42.9971 -157.5s73 -54.5 133 -54.5
c31.333 0 58.333 5.5 81 16.5s41.334 26.167 56.001 45.5s25.5 42 32.5 68s10.5 54 10.5 84v371c-10.667 0.666992 -22.667 1.66699 -36 3s-24 2.66602 -32 3.99902c-2 6.66699 -3.16699 16.334 -3.5 29.001s0.166992 22 1.5 28h219c1.33301 -5.33301 2 -12.333 2 -21
c0 -6 -0.333008 -12.333 -1 -19s-1.66699 -12 -3 -16c-9.33301 -2 -20.666 -3.66699 -33.999 -5s-25.666 -2.33301 -36.999 -3v-365c0 -42 -5.33301 -80.5 -16 -115.5s-27.167 -65 -49.5 -90s-51 -44.5 -86 -58.5s-76.5 -21 -124.5 -21c-84.667 0 -147.167 23 -187.5 69
s-60.5 112.667 -60.5 200v379c-10 1.33301 -22.833 2.83301 -38.5 4.5s-27.834 3.16699 -36.501 4.5c-1.33301 2.66699 -2.5 6.66699 -3.5 12s-1.83301 10.833 -2.5 16.5s-1.16699 11.167 -1.5 16.5s-0.5 9.33301 -0.5 12h264c1.33301 -6 1.83301 -15.167 1.5 -27.5
s-1.5 -21.833 -3.5 -28.5c-11.333 -2 -25.166 -3.66699 -41.499 -5s-31.5 -2.33301 -45.5 -3v-373z" />
    <glyph glyph-name="Ucircumflex" unicode="&#xdb;" horiz-adv-x="704" 
d="M429 891l126.001 -101.999c-3.33301 -8 -8.83301 -16.333 -16.5 -25s-15.834 -15.334 -24.501 -20.001l-142 75l-150 -80c-5.33301 5.33301 -9.83301 14.333 -13.5 27s-6.16699 22.667 -7.5 30l120 95h108zM188.001 257.001c0 -68.667 14.3301 -121.167 42.9971 -157.5
s73 -54.5 133 -54.5c31.333 0 58.333 5.5 81 16.5s41.334 26.167 56.001 45.5s25.5 42 32.5 68s10.5 54 10.5 84v371c-10.667 0.666992 -22.667 1.66699 -36 3s-24 2.66602 -32 3.99902c-2 6.66699 -3.16699 16.334 -3.5 29.001s0.166992 22 1.5 28h219
c1.33301 -5.33301 2 -12.333 2 -21c0 -6 -0.333008 -12.333 -1 -19s-1.66699 -12 -3 -16c-9.33301 -2 -20.666 -3.66699 -33.999 -5s-25.666 -2.33301 -36.999 -3v-365c0 -42 -5.33301 -80.5 -16 -115.5s-27.167 -65 -49.5 -90s-51 -44.5 -86 -58.5s-76.5 -21 -124.5 -21
c-84.667 0 -147.167 23 -187.5 69s-60.5 112.667 -60.5 200v379c-10 1.33301 -22.833 2.83301 -38.5 4.5s-27.834 3.16699 -36.501 4.5c-1.33301 2.66699 -2.5 6.66699 -3.5 12s-1.83301 10.833 -2.5 16.5s-1.16699 11.167 -1.5 16.5s-0.5 9.33301 -0.5 12h264
c1.33301 -6 1.83301 -15.167 1.5 -27.5s-1.5 -21.833 -3.5 -28.5c-11.333 -2 -25.166 -3.66699 -41.499 -5s-31.5 -2.33301 -45.5 -3v-373z" />
    <glyph glyph-name="Udieresis" unicode="&#xdc;" horiz-adv-x="704" 
d="M249 874c18.667 0 33.5 -4.66895 44.5 -14.002s16.5 -22.666 16.5 -39.999c0 -18.667 -5.5 -33 -16.5 -43s-25.833 -15 -44.5 -15c-41.333 0 -62 19.333 -62 58c0 16.667 5.66699 29.834 17 39.501s26.333 14.5 45 14.5zM490 873.998
c18.667 0 33.5 -4.66895 44.5 -14.002s16.5 -22.666 16.5 -39.999c0 -18.667 -5.5 -33 -16.5 -43s-25.833 -15 -44.5 -15c-41.333 0 -62 19.333 -62 58c0 16.667 5.66699 29.834 17 39.501s26.333 14.5 45 14.5zM188 256.996c0 -68.667 14.3301 -121.167 42.9971 -157.5
s73 -54.5 133 -54.5c31.333 0 58.333 5.5 81 16.5s41.334 26.167 56.001 45.5s25.5 42 32.5 68s10.5 54 10.5 84v371c-10.667 0.666992 -22.667 1.66699 -36 3s-24 2.66602 -32 3.99902c-2 6.66699 -3.16699 16.334 -3.5 29.001s0.166992 22 1.5 28h219
c1.33301 -5.33301 2 -12.333 2 -21c0 -6 -0.333008 -12.333 -1 -19s-1.66699 -12 -3 -16c-9.33301 -2 -20.666 -3.66699 -33.999 -5s-25.666 -2.33301 -36.999 -3v-365c0 -42 -5.33301 -80.5 -16 -115.5s-27.167 -65 -49.5 -90s-51 -44.5 -86 -58.5s-76.5 -21 -124.5 -21
c-84.667 0 -147.167 23 -187.5 69s-60.5 112.667 -60.5 200v379c-10 1.33301 -22.833 2.83301 -38.5 4.5s-27.834 3.16699 -36.501 4.5c-1.33301 2.66699 -2.5 6.66699 -3.5 12s-1.83301 10.833 -2.5 16.5s-1.16699 11.167 -1.5 16.5s-0.5 9.33301 -0.5 12h264
c1.33301 -6 1.83301 -15.167 1.5 -27.5s-1.5 -21.833 -3.5 -28.5c-11.333 -2 -25.166 -3.66699 -41.499 -5s-31.5 -2.33301 -45.5 -3v-373z" />
    <glyph glyph-name="Yacute" unicode="&#xdd;" horiz-adv-x="602" 
d="M260 745c-1.33301 4 -2.66699 9.00098 -4 15.001s-2.5 12.167 -3.5 18.5s-1.83301 12.666 -2.5 18.999s-1 11.833 -1 16.5l209 98c9.33301 -8 18 -19 26 -33s14.333 -27.667 19 -41zM314.999 338.001c2.66699 8.66699 6.16992 18.499 10.5029 29.499
s9.16602 21.167 14.499 30.5l85 163c5.33301 10.667 11.833 22.334 19.5 35.001s15.5 24 23.5 34c-10.667 0.666992 -22.167 1.66699 -34.5 3s-23.166 3 -32.499 5c-3.33301 8.66699 -5.66602 18.334 -6.99902 29.001s-2 19.667 -2 27h206
c0 -7.33301 -0.666992 -16.833 -2 -28.5s-3 -21.167 -5 -28.5c-7.33301 -1.33301 -15.333 -2.5 -24 -3.5s-16.667 -1.83301 -24 -2.5l-202 -357v-209c15.333 -1.33301 31.666 -2.66602 48.999 -3.99902s32.666 -3.33301 45.999 -6
c0.666992 -3.33301 1.33398 -7.5 2.00098 -12.5s1.16699 -10.167 1.5 -15.5s0.5 -10.5 0.5 -15.5s-0.333008 -8.83301 -1 -11.5h-288c1.33301 8 3.16602 17.167 5.49902 27.5s4.83301 18.833 7.5 25.5c10 2.66699 23.667 5.16699 41 7.5s32 4.16602 44 5.49902v206l-181 356
c-7.33301 0.666992 -16.333 1.83398 -27 3.50098s-19.667 3.5 -27 5.5c-2.66699 7.33301 -4.83398 16.833 -6.50098 28.5s-2.5 21.167 -2.5 28.5h251c0 -8.66699 -0.833008 -18.334 -2.5 -29.001s-3.83398 -19.667 -6.50098 -27c-11.333 -2 -24.5 -3.66699 -39.5 -5
s-29.167 -2.33301 -42.5 -3c16.667 -21.333 30.667 -44 42 -68l80 -164c4 -8.66699 8 -18.834 12 -30.501s7 -21.5 9 -29.5h7z" />
    <glyph glyph-name="Thorn" unicode="&#xde;" horiz-adv-x="576" 
d="M298 557c37.333 0 71.833 -3.99512 103.5 -11.9951s59 -20 82 -36s41 -36.167 54 -60.5s19.5 -52.5 19.5 -84.5c0 -38.667 -6.83301 -71.834 -20.5 -99.501s-31.5 -50.5 -53.5 -68.5s-47 -31.333 -75 -40s-56.667 -13 -86 -13c-17.333 0 -35.5 0.666992 -54.5 2
s-37.833 3.33301 -56.5 6v-87c15.333 -1.33301 31.5 -2.66602 48.5 -3.99902s32.167 -3.33301 45.5 -6c0.666992 -3.33301 1.33398 -7.33301 2.00098 -12s1.16699 -9.66699 1.5 -15s0.5 -10.5 0.5 -15.5s-0.333008 -8.83301 -1 -11.5h-279
c0.666992 7.33301 2.16699 16.166 4.5 26.499s4.83301 19.166 7.5 26.499c9.33301 2.66699 21.833 5.16699 37.5 7.5s29.167 4.16602 40.5 5.49902v564c-12 0.666992 -24.667 1.66699 -38 3s-25.333 2.66602 -36 3.99902c-1.33301 6.66699 -2.33301 16.167 -3 28.5
s-0.333984 21.833 0.999023 28.5h257c1.33301 -6 1.66602 -15 0.999023 -27s-1.66699 -21.333 -3 -28c-14.667 -2 -29.167 -3.66699 -43.5 -5s-28.833 -2.33301 -43.5 -3v-77c12.667 1.33301 26.834 2.16602 42.501 2.49902s30.5 0.5 44.5 0.5zM211 210.005
c16 -1.33301 33.502 -2.49902 52.502 -3.49902s37.167 -1.5 54.5 -1.5c45.333 0 80.666 11.667 105.999 35s38 62 38 116c0 45.333 -16.333 79.666 -49 102.999s-75.667 35 -129 35c-4.66699 0 -10.334 -0.333008 -17.001 -1l-20 -1
c-6.66699 0 -13.167 -0.166992 -19.5 -0.5s-11.833 -0.833008 -16.5 -1.5v-280z" />
    <glyph glyph-name="germandbls" unicode="&#xdf;" horiz-adv-x="644" 
d="M117 409c-24.667 1.33301 -47.6699 4 -69.0029 8c-1.33301 7.33301 -2.16602 17.333 -2.49902 30s0.166992 22 1.5 28h72c0 93.333 20.5 160.833 61.5 202.5s99.833 62.5 176.5 62.5c20 0 41 -2 63 -6s42.167 -10.833 60.5 -20.5s33.5 -22.667 45.5 -39
s18 -36.833 18 -61.5c0 -28 -7.5 -51.167 -22.5 -69.5s-30.5 -34.5 -46.5 -48.5c-13.333 -12 -24.333 -23.833 -33 -35.5s-13 -25.834 -13 -42.501c0 -14 2.33301 -26.5 7 -37.5s11 -20.667 19 -29s17 -16.166 27 -23.499s20.667 -14.666 32 -21.999
c12.667 -8.66699 25.334 -18 38.001 -28s24 -21.5 34 -34.5s18 -28 24 -45s9 -36.833 9 -59.5c0 -26.667 -5.33301 -49.667 -16 -69s-24.5 -35.333 -41.5 -48s-36.667 -22.167 -59 -28.5s-44.833 -9.5 -67.5 -9.5c-26.667 0 -52 3.33301 -76 10s-46.667 16 -68 28
c-3.33301 12 -5 26.333 -5 43c0 13.333 0.833008 26.333 2.5 39s4.16699 22.667 7.5 30c10 0 21 -0.666992 33 -2s23 -3.66602 33 -6.99902v-60c24.667 -16.667 51.667 -25 81 -25c26.667 0 48.5 8.5 65.5 25.5s25.5 38.167 25.5 63.5c0 15.333 -2.5 28.666 -7.5 39.999
s-11.5 21.5 -19.5 30.5s-17.167 17.167 -27.5 24.5l-32.5 22c-12.667 8 -25.334 16.667 -38.001 26s-24 20 -34 32s-18 26.167 -24 42.5s-9 35.833 -9 58.5c0 15.333 2.16699 29.333 6.5 42s10 24.167 17 34.5s14.667 19.666 23 27.999s16.5 15.833 24.5 22.5
c14.667 12.667 26.167 24.334 34.5 35.001s12.5 23.667 12.5 39c0 14 -3.16699 25.833 -9.5 35.5s-14.666 17.5 -24.999 23.5s-21.833 10.333 -34.5 13s-25 4 -37 4c-55.333 0 -94.166 -17.833 -116.499 -53.5s-33.5 -87.834 -33.5 -156.501v-471h-165
c2 16.667 6.66699 31.667 14 45c8 3.33301 18.167 6.83301 30.5 10.5s23.5 6.5 33.5 8.5v345z" />
    <glyph glyph-name="agrave" unicode="&#xe0;" horiz-adv-x="507" 
d="M111 706c4.66699 3.33301 10.999 6.33203 18.999 8.99902s16.667 4.83398 26 6.50098s18.833 3 28.5 4s18.5 1.5 26.5 1.5l116 -159c-3.33301 -1.33301 -8.16602 -3 -14.499 -5s-13 -3.83301 -20 -5.5s-13.833 -3 -20.5 -4s-12 -1.5 -16 -1.5zM327.999 58.999
c-13.333 -24.667 -32.5049 -43.498 -57.5049 -56.498s-52.5 -19.5 -82.5 -19.5c-18 0 -35.667 2.66699 -53 8s-32.5 13.5 -45.5 24.5s-23.5 24.833 -31.5 41.5s-12 36.667 -12 60c0 26 5 48.667 15 68s23.5 35.5 40.5 48.5s36.833 22.833 59.5 29.5s46.334 10 71.001 10
c16 0 32.333 -1.5 49 -4.5s31.334 -7.16699 44.001 -12.5v54c0 74.667 -31.667 112 -95 112c-10.667 0 -22.667 -1.5 -36 -4.5s-26.666 -6.66699 -39.999 -11s-26.166 -9.5 -38.499 -15.5s-22.833 -12 -31.5 -18c-2 4.66699 -3.33301 9.83398 -4 15.501s-1 11.834 -1 18.501
c0 9.33301 1 18.666 3 27.999s4.66699 16.666 8 21.999c8 4.66699 18.5 9.16699 31.5 13.5s27 8 42 11s30.333 5.5 46 7.5s30.167 3 43.5 3c54.667 0 94.5 -14.5 119.5 -43.5s37.5 -77.833 37.5 -146.5v-194c0 -10 1.16699 -20.167 3.5 -30.5s5.5 -17.5 9.5 -21.5
c7.33301 0 18.333 1.16699 33 3.5s26.667 5.16602 36 8.49902c0.666992 -2.66699 1 -6.33398 1 -11.001c0 -16.667 -3.33301 -31.667 -10 -45c-11.333 -7.33301 -27.833 -14 -49.5 -20s-41.167 -9 -58.5 -9c-10 6 -19.167 16.167 -27.5 30.5s-13.166 29.5 -14.499 45.5h-5z
M325.994 212.001c-9.33301 2.66699 -20.833 4.66699 -34.5 6s-25.5 2 -35.5 2c-39.333 0 -69.5 -8 -90.5 -24s-31.5 -37.333 -31.5 -64c0 -28 9.16699 -48.333 27.5 -61s39.5 -19 63.5 -19c19.333 0 38.5 4.33301 57.5 13s33.5 20.667 43.5 36v111z" />
    <glyph glyph-name="aacute" unicode="&#xe1;" horiz-adv-x="507" 
d="M231 539c-4 1.33301 -8.33496 3.66602 -13.002 6.99902s-9.5 7 -14.5 11s-9.66699 8.33301 -14 13s-7.5 8.66699 -9.5 12l112 156c5.33301 0 12 -1.16699 20 -3.5s16.333 -5.16602 25 -8.49902s16.834 -7 24.501 -11s13.834 -8 18.501 -12zM327.998 59
c-13.333 -24.667 -32.5049 -43.498 -57.5049 -56.498s-52.5 -19.5 -82.5 -19.5c-18 0 -35.667 2.66699 -53 8s-32.5 13.5 -45.5 24.5s-23.5 24.833 -31.5 41.5s-12 36.667 -12 60c0 26 5 48.667 15 68s23.5 35.5 40.5 48.5s36.833 22.833 59.5 29.5s46.334 10 71.001 10
c16 0 32.333 -1.5 49 -4.5s31.334 -7.16699 44.001 -12.5v54c0 74.667 -31.667 112 -95 112c-10.667 0 -22.667 -1.5 -36 -4.5s-26.666 -6.66699 -39.999 -11s-26.166 -9.5 -38.499 -15.5s-22.833 -12 -31.5 -18c-2 4.66699 -3.33301 9.83398 -4 15.501s-1 11.834 -1 18.501
c0 9.33301 1 18.666 3 27.999s4.66699 16.666 8 21.999c8 4.66699 18.5 9.16699 31.5 13.5s27 8 42 11s30.333 5.5 46 7.5s30.167 3 43.5 3c54.667 0 94.5 -14.5 119.5 -43.5s37.5 -77.833 37.5 -146.5v-194c0 -10 1.16699 -20.167 3.5 -30.5s5.5 -17.5 9.5 -21.5
c7.33301 0 18.333 1.16699 33 3.5s26.667 5.16602 36 8.49902c0.666992 -2.66699 1 -6.33398 1 -11.001c0 -16.667 -3.33301 -31.667 -10 -45c-11.333 -7.33301 -27.833 -14 -49.5 -20s-41.167 -9 -58.5 -9c-10 6 -19.167 16.167 -27.5 30.5s-13.166 29.5 -14.499 45.5h-5z
M325.993 212.002c-9.33301 2.66699 -20.833 4.66699 -34.5 6s-25.5 2 -35.5 2c-39.333 0 -69.5 -8 -90.5 -24s-31.5 -37.333 -31.5 -64c0 -28 9.16699 -48.333 27.5 -61s39.5 -19 63.5 -19c19.333 0 38.5 4.33301 57.5 13s33.5 20.667 43.5 36v111z" />
    <glyph glyph-name="acircumflex" unicode="&#xe2;" horiz-adv-x="507" 
d="M284 719l114 -136c-5.33301 -7.33301 -13.5 -15.333 -24.5 -24s-21.833 -14 -32.5 -16l-100 100l-107 -104c-4 2 -8 5 -12 9s-7.83301 8.5 -11.5 13.5s-7 10 -10 15s-5.16699 9.5 -6.5 13.5l106 125zM328 59c-13.333 -24.667 -32.5049 -43.498 -57.5049 -56.498
s-52.5 -19.5 -82.5 -19.5c-18 0 -35.667 2.66699 -53 8s-32.5 13.5 -45.5 24.5s-23.5 24.833 -31.5 41.5s-12 36.667 -12 60c0 26 5 48.667 15 68s23.5 35.5 40.5 48.5s36.833 22.833 59.5 29.5s46.334 10 71.001 10c16 0 32.333 -1.5 49 -4.5s31.334 -7.16699 44.001 -12.5
v54c0 74.667 -31.667 112 -95 112c-10.667 0 -22.667 -1.5 -36 -4.5s-26.666 -6.66699 -39.999 -11s-26.166 -9.5 -38.499 -15.5s-22.833 -12 -31.5 -18c-2 4.66699 -3.33301 9.83398 -4 15.501s-1 11.834 -1 18.501c0 9.33301 1 18.666 3 27.999s4.66699 16.666 8 21.999
c8 4.66699 18.5 9.16699 31.5 13.5s27 8 42 11s30.333 5.5 46 7.5s30.167 3 43.5 3c54.667 0 94.5 -14.5 119.5 -43.5s37.5 -77.833 37.5 -146.5v-194c0 -10 1.16699 -20.167 3.5 -30.5s5.5 -17.5 9.5 -21.5c7.33301 0 18.333 1.16699 33 3.5s26.667 5.16602 36 8.49902
c0.666992 -2.66699 1 -6.33398 1 -11.001c0 -16.667 -3.33301 -31.667 -10 -45c-11.333 -7.33301 -27.833 -14 -49.5 -20s-41.167 -9 -58.5 -9c-10 6 -19.167 16.167 -27.5 30.5s-13.166 29.5 -14.499 45.5h-5zM325.995 212.002c-9.33301 2.66699 -20.833 4.66699 -34.5 6
s-25.5 2 -35.5 2c-39.333 0 -69.5 -8 -90.5 -24s-31.5 -37.333 -31.5 -64c0 -28 9.16699 -48.333 27.5 -61s39.5 -19 63.5 -19c19.333 0 38.5 4.33301 57.5 13s33.5 20.667 43.5 36v111z" />
    <glyph glyph-name="atilde" unicode="&#xe3;" horiz-adv-x="507" 
d="M363 677c6.66699 0 13.333 -0.501953 20 -1.50195s13 -3.16699 19 -6.5c-0.666992 -12.667 -3.16699 -25.334 -7.5 -38.001s-10.5 -24.167 -18.5 -34.5s-18 -18.666 -30 -24.999s-26.333 -9.5 -43 -9.5c-11.333 0 -22.333 2.16699 -33 6.5s-21 9.33301 -31 15
s-19.833 10.667 -29.5 15s-19.5 6.5 -29.5 6.5c-13.333 0 -24.666 -4.16699 -33.999 -12.5s-15.333 -18.166 -18 -29.499c-16.667 2 -29 9.33301 -37 22c5.33301 26.667 15.833 48.834 31.5 66.501s39.167 26.5 70.5 26.5c14 0 26.167 -2.16699 36.5 -6.5
s20.166 -9 29.499 -14l27 -14c8.66699 -4.33301 18.667 -6.5 30 -6.5c12 0 22.333 3.83301 31 11.5s14 17.167 16 28.5zM327.999 58.998c-13.333 -24.667 -32.5049 -43.498 -57.5049 -56.498s-52.5 -19.5 -82.5 -19.5c-18 0 -35.667 2.66699 -53 8s-32.5 13.5 -45.5 24.5
s-23.5 24.833 -31.5 41.5s-12 36.667 -12 60c0 26 5 48.667 15 68s23.5 35.5 40.5 48.5s36.833 22.833 59.5 29.5s46.334 10 71.001 10c16 0 32.333 -1.5 49 -4.5s31.334 -7.16699 44.001 -12.5v54c0 74.667 -31.667 112 -95 112c-10.667 0 -22.667 -1.5 -36 -4.5
s-26.666 -6.66699 -39.999 -11s-26.166 -9.5 -38.499 -15.5s-22.833 -12 -31.5 -18c-2 4.66699 -3.33301 9.83398 -4 15.501s-1 11.834 -1 18.501c0 9.33301 1 18.666 3 27.999s4.66699 16.666 8 21.999c8 4.66699 18.5 9.16699 31.5 13.5s27 8 42 11s30.333 5.5 46 7.5
s30.167 3 43.5 3c54.667 0 94.5 -14.5 119.5 -43.5s37.5 -77.833 37.5 -146.5v-194c0 -10 1.16699 -20.167 3.5 -30.5s5.5 -17.5 9.5 -21.5c7.33301 0 18.333 1.16699 33 3.5s26.667 5.16602 36 8.49902c0.666992 -2.66699 1 -6.33398 1 -11.001
c0 -16.667 -3.33301 -31.667 -10 -45c-11.333 -7.33301 -27.833 -14 -49.5 -20s-41.167 -9 -58.5 -9c-10 6 -19.167 16.167 -27.5 30.5s-13.166 29.5 -14.499 45.5h-5zM325.994 212c-9.33301 2.66699 -20.833 4.66699 -34.5 6s-25.5 2 -35.5 2c-39.333 0 -69.5 -8 -90.5 -24
s-31.5 -37.333 -31.5 -64c0 -28 9.16699 -48.333 27.5 -61s39.5 -19 63.5 -19c19.333 0 38.5 4.33301 57.5 13s33.5 20.667 43.5 36v111z" />
    <glyph glyph-name="adieresis" unicode="&#xe4;" horiz-adv-x="507" 
d="M141 672c15.333 0 27.833 -4.33398 37.5 -13.001s14.5 -21 14.5 -37c0 -17.333 -4.83301 -30.666 -14.5 -39.999s-22.167 -14 -37.5 -14c-35.333 0 -53 18 -53 54c0 15.333 5 27.5 15 36.5s22.667 13.5 38 13.5zM348 671.999c15.333 0 27.833 -4.33398 37.5 -13.001
s14.5 -21 14.5 -37c0 -17.333 -4.83301 -30.666 -14.5 -39.999s-22.167 -14 -37.5 -14c-35.333 0 -53 18 -53 54c0 15.333 5 27.5 15 36.5s22.667 13.5 38 13.5zM328 58.998c-13.333 -24.667 -32.5049 -43.498 -57.5049 -56.498s-52.5 -19.5 -82.5 -19.5
c-18 0 -35.667 2.66699 -53 8s-32.5 13.5 -45.5 24.5s-23.5 24.833 -31.5 41.5s-12 36.667 -12 60c0 26 5 48.667 15 68s23.5 35.5 40.5 48.5s36.833 22.833 59.5 29.5s46.334 10 71.001 10c16 0 32.333 -1.5 49 -4.5s31.334 -7.16699 44.001 -12.5v54
c0 74.667 -31.667 112 -95 112c-10.667 0 -22.667 -1.5 -36 -4.5s-26.666 -6.66699 -39.999 -11s-26.166 -9.5 -38.499 -15.5s-22.833 -12 -31.5 -18c-2 4.66699 -3.33301 9.83398 -4 15.501s-1 11.834 -1 18.501c0 9.33301 1 18.666 3 27.999s4.66699 16.666 8 21.999
c8 4.66699 18.5 9.16699 31.5 13.5s27 8 42 11s30.333 5.5 46 7.5s30.167 3 43.5 3c54.667 0 94.5 -14.5 119.5 -43.5s37.5 -77.833 37.5 -146.5v-194c0 -10 1.16699 -20.167 3.5 -30.5s5.5 -17.5 9.5 -21.5c7.33301 0 18.333 1.16699 33 3.5s26.667 5.16602 36 8.49902
c0.666992 -2.66699 1 -6.33398 1 -11.001c0 -16.667 -3.33301 -31.667 -10 -45c-11.333 -7.33301 -27.833 -14 -49.5 -20s-41.167 -9 -58.5 -9c-10 6 -19.167 16.167 -27.5 30.5s-13.166 29.5 -14.499 45.5h-5zM325.995 212c-9.33301 2.66699 -20.833 4.66699 -34.5 6
s-25.5 2 -35.5 2c-39.333 0 -69.5 -8 -90.5 -24s-31.5 -37.333 -31.5 -64c0 -28 9.16699 -48.333 27.5 -61s39.5 -19 63.5 -19c19.333 0 38.5 4.33301 57.5 13s33.5 20.667 43.5 36v111z" />
    <glyph glyph-name="aring" unicode="&#xe5;" horiz-adv-x="507" 
d="M247 746c32 0 57.834 -8.5 77.501 -25.5s29.5 -40.833 29.5 -71.5c0 -34 -9.83301 -59.833 -29.5 -77.5s-45.5 -26.5 -77.5 -26.5c-74 0 -111 34.667 -111 104c0 29.333 10.167 52.833 30.5 70.5s47.166 26.5 80.499 26.5zM248.001 703c-16.667 0 -30 -4.66699 -40 -14
s-15 -22.666 -15 -39.999c0 -40 18.333 -60 55 -60c15.333 0 27.5 5 36.5 15s13.5 25 13.5 45c0 17.333 -4.5 30.666 -13.5 39.999s-21.167 14 -36.5 14zM328.001 59c-13.333 -24.667 -32.5049 -43.498 -57.5049 -56.498s-52.5 -19.5 -82.5 -19.5
c-18 0 -35.667 2.66699 -53 8s-32.5 13.5 -45.5 24.5s-23.5 24.833 -31.5 41.5s-12 36.667 -12 60c0 26 5 48.667 15 68s23.5 35.5 40.5 48.5s36.833 22.833 59.5 29.5s46.334 10 71.001 10c16 0 32.333 -1.5 49 -4.5s31.334 -7.16699 44.001 -12.5v54
c0 74.667 -31.667 112 -95 112c-10.667 0 -22.667 -1.5 -36 -4.5s-26.666 -6.66699 -39.999 -11s-26.166 -9.5 -38.499 -15.5s-22.833 -12 -31.5 -18c-2 4.66699 -3.33301 9.83398 -4 15.501s-1 11.834 -1 18.501c0 9.33301 1 18.666 3 27.999s4.66699 16.666 8 21.999
c8 4.66699 18.5 9.16699 31.5 13.5s27 8 42 11s30.333 5.5 46 7.5s30.167 3 43.5 3c54.667 0 94.5 -14.5 119.5 -43.5s37.5 -77.833 37.5 -146.5v-194c0 -10 1.16699 -20.167 3.5 -30.5s5.5 -17.5 9.5 -21.5c7.33301 0 18.333 1.16699 33 3.5s26.667 5.16602 36 8.49902
c0.666992 -2.66699 1 -6.33398 1 -11.001c0 -16.667 -3.33301 -31.667 -10 -45c-11.333 -7.33301 -27.833 -14 -49.5 -20s-41.167 -9 -58.5 -9c-10 6 -19.167 16.167 -27.5 30.5s-13.166 29.5 -14.499 45.5h-5zM325.996 212.002c-9.33301 2.66699 -20.833 4.66699 -34.5 6
s-25.5 2 -35.5 2c-39.333 0 -69.5 -8 -90.5 -24s-31.5 -37.333 -31.5 -64c0 -28 9.16699 -48.333 27.5 -61s39.5 -19 63.5 -19c19.333 0 38.5 4.33301 57.5 13s33.5 20.667 43.5 36v111z" />
    <glyph glyph-name="ae" unicode="&#xe6;" horiz-adv-x="765" 
d="M410 226c1.33301 -54 16.8291 -96.334 46.4961 -127.001s68.5 -46 116.5 -46c10.667 0 22.167 0.833008 34.5 2.5s24.833 3.83398 37.5 6.50098s24.834 5.66699 36.501 9s22.167 6.66602 31.5 9.99902c1.33301 -7.33301 0.666016 -16.833 -2.00098 -28.5
s-6.33398 -21.167 -11.001 -28.5c-18 -10 -41 -19.333 -69 -28s-57.667 -13 -89 -13c-44 0 -81.167 9.33301 -111.5 28s-51.833 42.334 -64.5 71.001h-5c-4 -10.667 -10.667 -21.834 -20 -33.501s-20.833 -22.334 -34.5 -32.001s-29.5 -17.667 -47.5 -24s-38 -9.5 -60 -9.5
c-45.333 0 -82.166 11 -110.499 33s-42.5 55.667 -42.5 101c0 24.667 5.16699 46.834 15.5 66.501s24 36 41 49s36.833 23 59.5 30s46 10.5 70 10.5c16 0 32.333 -1.5 49 -4.5s31.334 -7.16699 44.001 -12.5v54c0 74.667 -31.667 112 -95 112
c-10.667 0 -22.667 -1.5 -36 -4.5s-26.666 -6.66699 -39.999 -11s-26.166 -9.5 -38.499 -15.5s-22.833 -12 -31.5 -18c-2 4.66699 -3.33301 9.83398 -4 15.501s-1 11.834 -1 18.501c0 9.33301 1 18.666 3 27.999s4.66699 16.666 8 21.999c8 4.66699 18.5 9.16699 31.5 13.5
s27 8 42 11s30.333 5.5 46 7.5s30.167 3 43.5 3c41.333 0 72.166 -7.16699 92.499 -21.5s33.5 -32.833 39.5 -55.5h5c10 21.333 29.667 39.5 59 54.5s62.333 22.5 99 22.5c30 0 55.833 -5.16699 77.5 -15.5s39.334 -24.833 53.001 -43.5s23.834 -41.167 30.501 -67.5
s10 -55.166 10 -86.499c0 -17.333 -1 -35 -3 -53h-306zM233.996 51.999c26.667 0 49.499 6.50098 68.499 19.501s33.167 26.833 42.5 41.5c-6 15.333 -10.833 31.166 -14.5 47.499s-5.83398 33.833 -6.50098 52.5c-9.33301 2 -20.666 3.66699 -33.999 5s-24.666 2 -33.999 2
c-38.667 0 -68.667 -8.33301 -90 -25s-32 -37.667 -32 -63c0 -28 9.16699 -48.333 27.5 -61s42.5 -19 72.5 -19zM629.995 284c2 17.333 2 35 0 53s-6.66699 34.5 -14 49.5s-17.833 27.167 -31.5 36.5s-30.834 14 -51.501 14c-36 0 -64.667 -14 -86 -42
s-33.666 -65 -36.999 -111h220z" />
    <glyph glyph-name="ccedilla" unicode="&#xe7;" horiz-adv-x="466" 
d="M247 -16c-30 2 -57.333 9.3291 -82 21.9961s-45.5 29.834 -62.5 51.501s-30.167 46.834 -39.5 75.501s-14 60 -14 94c0 38.667 5.83301 74.167 17.5 106.5s28.334 60.333 50.001 84s47.5 42 77.5 55s63.333 19.5 100 19.5c26 0 50 -3.16699 72 -9.5
s41.667 -15.166 59 -26.499c2 -13.333 3 -26.333 3 -39c0 -14 -1.16699 -28.167 -3.5 -42.5s-6.16602 -27.5 -11.499 -39.5c-9.33301 0 -20.166 1.16699 -32.499 3.5s-22.5 5.5 -30.5 9.5v71c-20 10 -39.333 15 -58 15c-43.333 0 -78.833 -15 -106.5 -45
s-41.5 -77.667 -41.5 -143c0 -33.333 3.83301 -62.166 11.5 -86.499s18.5 -44.5 32.5 -60.5s30.5 -27.833 49.5 -35.5s39.833 -11.5 62.5 -11.5c8.66699 0 18.5 0.666992 29.5 2s22 3.16602 33 5.49902s21.833 4.83301 32.5 7.5s20 5.66699 28 9
c0.666992 -7.33301 -0.333008 -16.833 -3 -28.5s-6.33398 -21.167 -11.001 -28.5c-12.667 -7.33301 -28 -13.833 -46 -19.5s-36.667 -9.83398 -56 -12.501l-9 -46c15.333 -4.66699 29.666 -13 42.999 -25s20 -27 20 -45c0 -13.333 -3.5 -25.666 -10.5 -36.999
s-16.333 -21.5 -28 -30.5s-24.834 -16.333 -39.501 -22s-29.334 -9.5 -44.001 -11.5c-13.333 10.667 -24.333 23 -33 37c19.333 4 35.833 11.333 49.5 22s20.5 23.334 20.5 38.001c0 13.333 -5.16699 25 -15.5 35s-23.166 17 -38.499 21z" />
    <glyph glyph-name="egrave" unicode="&#xe8;" horiz-adv-x="497" 
d="M140 706c4.66699 3.33301 10.999 6.33203 18.999 8.99902s16.667 4.83398 26 6.50098s18.833 3 28.5 4s18.5 1.5 26.5 1.5l116 -159c-3.33301 -1.33301 -8.16602 -3 -14.499 -5s-13 -3.83301 -20 -5.5s-13.833 -3 -20.5 -4s-12 -1.5 -16 -1.5zM141.999 225.999
c1.33301 -54 17 -96.335 47 -127.002s68.667 -46 116 -46c10.667 0 22.167 0.833008 34.5 2.5s24.833 3.83398 37.5 6.50098s24.834 5.66699 36.501 9s22.167 6.66602 31.5 9.99902c1.33301 -7.33301 0.666016 -16.833 -2.00098 -28.5s-6.33398 -21.167 -11.001 -28.5
c-18 -10 -41 -19.333 -69 -28s-57.667 -13 -89 -13c-36 0 -67.833 6.33301 -95.5 19s-51.167 30 -70.5 52s-34 47.833 -44 77.5s-15 61.834 -15 96.501c0 36.667 5.5 71 16.5 103s26.5 60 46.5 84s44.167 42.833 72.5 56.5s60.166 20.5 95.499 20.5
c30 0 55.833 -5.16699 77.5 -15.5s39.334 -24.833 53.001 -43.5s23.834 -41.167 30.501 -67.5s10 -55.166 10 -86.499c0 -17.333 -1 -35 -3 -53h-306zM361.999 283.997c2 17.333 2 35 0 53s-6.66699 34.5 -14 49.5s-17.833 27.167 -31.5 36.5s-30.834 14 -51.501 14
c-36 0 -64.667 -14 -86 -42s-33.666 -65 -36.999 -111h220z" />
    <glyph glyph-name="eacute" unicode="&#xe9;" horiz-adv-x="497" 
d="M256 539c-4 1.33301 -8.33496 3.66602 -13.002 6.99902s-9.5 7 -14.5 11s-9.66699 8.33301 -14 13s-7.5 8.66699 -9.5 12l112 156c5.33301 0 12 -1.16699 20 -3.5s16.333 -5.16602 25 -8.49902s16.834 -7 24.501 -11s13.834 -8 18.501 -12zM141.998 226
c1.33301 -54 17 -96.335 47 -127.002s68.667 -46 116 -46c10.667 0 22.167 0.833008 34.5 2.5s24.833 3.83398 37.5 6.50098s24.834 5.66699 36.501 9s22.167 6.66602 31.5 9.99902c1.33301 -7.33301 0.666016 -16.833 -2.00098 -28.5s-6.33398 -21.167 -11.001 -28.5
c-18 -10 -41 -19.333 -69 -28s-57.667 -13 -89 -13c-36 0 -67.833 6.33301 -95.5 19s-51.167 30 -70.5 52s-34 47.833 -44 77.5s-15 61.834 -15 96.501c0 36.667 5.5 71 16.5 103s26.5 60 46.5 84s44.167 42.833 72.5 56.5s60.166 20.5 95.499 20.5
c30 0 55.833 -5.16699 77.5 -15.5s39.334 -24.833 53.001 -43.5s23.834 -41.167 30.501 -67.5s10 -55.166 10 -86.499c0 -17.333 -1 -35 -3 -53h-306zM361.998 283.998c2 17.333 2 35 0 53s-6.66699 34.5 -14 49.5s-17.833 27.167 -31.5 36.5s-30.834 14 -51.501 14
c-36 0 -64.667 -14 -86 -42s-33.666 -65 -36.999 -111h220z" />
    <glyph glyph-name="ecircumflex" unicode="&#xea;" horiz-adv-x="497" 
d="M312 719l114 -136c-5.33301 -7.33301 -13.5 -15.333 -24.5 -24s-21.833 -14 -32.5 -16l-100 100l-107 -104c-4 2 -8 5 -12 9s-7.83301 8.5 -11.5 13.5s-7 10 -10 15s-5.16699 9.5 -6.5 13.5l106 125zM142 226c1.33301 -54 17 -96.335 47 -127.002s68.667 -46 116 -46
c10.667 0 22.167 0.833008 34.5 2.5s24.833 3.83398 37.5 6.50098s24.834 5.66699 36.501 9s22.167 6.66602 31.5 9.99902c1.33301 -7.33301 0.666016 -16.833 -2.00098 -28.5s-6.33398 -21.167 -11.001 -28.5c-18 -10 -41 -19.333 -69 -28s-57.667 -13 -89 -13
c-36 0 -67.833 6.33301 -95.5 19s-51.167 30 -70.5 52s-34 47.833 -44 77.5s-15 61.834 -15 96.501c0 36.667 5.5 71 16.5 103s26.5 60 46.5 84s44.167 42.833 72.5 56.5s60.166 20.5 95.499 20.5c30 0 55.833 -5.16699 77.5 -15.5s39.334 -24.833 53.001 -43.5
s23.834 -41.167 30.501 -67.5s10 -55.166 10 -86.499c0 -17.333 -1 -35 -3 -53h-306zM362 283.998c2 17.333 2 35 0 53s-6.66699 34.5 -14 49.5s-17.833 27.167 -31.5 36.5s-30.834 14 -51.501 14c-36 0 -64.667 -14 -86 -42s-33.666 -65 -36.999 -111h220z" />
    <glyph glyph-name="edieresis" unicode="&#xeb;" horiz-adv-x="497" 
d="M166 672c15.333 0 27.833 -4.33398 37.5 -13.001s14.5 -21 14.5 -37c0 -17.333 -4.83301 -30.666 -14.5 -39.999s-22.167 -14 -37.5 -14c-35.333 0 -53 18 -53 54c0 15.333 5 27.5 15 36.5s22.667 13.5 38 13.5zM373 671.999c15.333 0 27.833 -4.33398 37.5 -13.001
s14.5 -21 14.5 -37c0 -17.333 -4.83301 -30.666 -14.5 -39.999s-22.167 -14 -37.5 -14c-35.333 0 -53 18 -53 54c0 15.333 5 27.5 15 36.5s22.667 13.5 38 13.5zM142 225.998c1.33301 -54 17 -96.335 47 -127.002s68.667 -46 116 -46c10.667 0 22.167 0.833008 34.5 2.5
s24.833 3.83398 37.5 6.50098s24.834 5.66699 36.501 9s22.167 6.66602 31.5 9.99902c1.33301 -7.33301 0.666016 -16.833 -2.00098 -28.5s-6.33398 -21.167 -11.001 -28.5c-18 -10 -41 -19.333 -69 -28s-57.667 -13 -89 -13c-36 0 -67.833 6.33301 -95.5 19
s-51.167 30 -70.5 52s-34 47.833 -44 77.5s-15 61.834 -15 96.501c0 36.667 5.5 71 16.5 103s26.5 60 46.5 84s44.167 42.833 72.5 56.5s60.166 20.5 95.499 20.5c30 0 55.833 -5.16699 77.5 -15.5s39.334 -24.833 53.001 -43.5s23.834 -41.167 30.501 -67.5
s10 -55.166 10 -86.499c0 -17.333 -1 -35 -3 -53h-306zM362 283.996c2 17.333 2 35 0 53s-6.66699 34.5 -14 49.5s-17.833 27.167 -31.5 36.5s-30.834 14 -51.501 14c-36 0 -64.667 -14 -86 -42s-33.666 -65 -36.999 -111h220z" />
    <glyph glyph-name="igrave" unicode="&#xec;" horiz-adv-x="305" 
d="M19 706c4.66699 3.33301 10.999 6.33203 18.999 8.99902s16.667 4.83398 26 6.50098s18.833 3 28.5 4s18.5 1.5 26.5 1.5l116 -159c-3.33301 -1.33301 -8.16602 -3 -14.499 -5s-13 -3.83301 -20 -5.5s-13.833 -3 -20.5 -4s-12 -1.5 -16 -1.5zM41.999 418.999
c0.666992 8.66699 2.49902 17.8311 5.49902 27.498s7.16699 18.167 12.5 25.5c11.333 4 25 7.33301 41 10s32.333 4 49 4c19.333 0 36.666 -2 51.999 -6v-418c12.667 -1.33301 26.334 -3.16602 41.001 -5.49902s27.334 -5.16602 38.001 -8.49902c2 -8 3 -18.333 3 -31v-7
c0 -2.66699 -0.333008 -6 -1 -10h-246c2 16.667 6.66699 31.667 14 45c8 3.33301 18.167 6.83301 30.5 10.5s23.5 6.5 33.5 8.5v355h-73z" />
    <glyph glyph-name="iacute" unicode="&#xed;" horiz-adv-x="305" 
d="M146 539c-4 1.33301 -8.33496 3.66602 -13.002 6.99902s-9.5 7 -14.5 11s-9.66699 8.33301 -14 13s-7.5 8.66699 -9.5 12l112 156c5.33301 0 12 -1.16699 20 -3.5s16.333 -5.16602 25 -8.49902s16.834 -7 24.501 -11s13.834 -8 18.501 -12zM41.998 419
c0.666992 8.66699 2.49902 17.8311 5.49902 27.498s7.16699 18.167 12.5 25.5c11.333 4 25 7.33301 41 10s32.333 4 49 4c19.333 0 36.666 -2 51.999 -6v-418c12.667 -1.33301 26.334 -3.16602 41.001 -5.49902s27.334 -5.16602 38.001 -8.49902c2 -8 3 -18.333 3 -31v-7
c0 -2.66699 -0.333008 -6 -1 -10h-246c2 16.667 6.66699 31.667 14 45c8 3.33301 18.167 6.83301 30.5 10.5s23.5 6.5 33.5 8.5v355h-73z" />
    <glyph glyph-name="icircumflex" unicode="&#xee;" horiz-adv-x="305" 
d="M198 719l114 -136c-5.33301 -7.33301 -13.5 -15.333 -24.5 -24s-21.833 -14 -32.5 -16l-100 100l-107 -104c-4 2 -8 5 -12 9s-7.83301 8.5 -11.5 13.5s-7 10 -10 15s-5.16699 9.5 -6.5 13.5l106 125zM42 419c0.666992 8.66699 2.49902 17.8311 5.49902 27.498
s7.16699 18.167 12.5 25.5c11.333 4 25 7.33301 41 10s32.333 4 49 4c19.333 0 36.666 -2 51.999 -6v-418c12.667 -1.33301 26.334 -3.16602 41.001 -5.49902s27.334 -5.16602 38.001 -8.49902c2 -8 3 -18.333 3 -31v-7c0 -2.66699 -0.333008 -6 -1 -10h-246
c2 16.667 6.66699 31.667 14 45c8 3.33301 18.167 6.83301 30.5 10.5s23.5 6.5 33.5 8.5v355h-73z" />
    <glyph glyph-name="idieresis" unicode="&#xef;" horiz-adv-x="305" 
d="M42 419c0.666992 8.66699 2.49902 17.8311 5.49902 27.498s7.16699 18.167 12.5 25.5c11.333 4 25 7.33301 41 10s32.333 4 49 4c19.333 0 36.666 -2 51.999 -6v-418c12.667 -1.33301 26.334 -3.16602 41.001 -5.49902s27.334 -5.16602 38.001 -8.49902
c2 -8 3 -18.333 3 -31v-7c0 -2.66699 -0.333008 -6 -1 -10h-246c2 16.667 6.66699 31.667 14 45c8 3.33301 18.167 6.83301 30.5 10.5s23.5 6.5 33.5 8.5v355h-73zM66.999 671.997c15.333 0 27.833 -4.33398 37.5 -13.001s14.5 -21 14.5 -37
c0 -17.333 -4.83301 -30.666 -14.5 -39.999s-22.167 -14 -37.5 -14c-35.333 0 -53 18 -53 54c0 15.333 5 27.5 15 36.5s22.667 13.5 38 13.5zM243.999 671.996c15.333 0 27.833 -4.33398 37.5 -13.001s14.5 -21 14.5 -37c0 -17.333 -4.83301 -30.666 -14.5 -39.999
s-22.167 -14 -37.5 -14c-35.333 0 -53 18 -53 54c0 15.333 5 27.5 15 36.5s22.667 13.5 38 13.5z" />
    <glyph glyph-name="eth" unicode="&#xf0;" horiz-adv-x="559" 
d="M193 513c-4 8 -6.99805 18 -8.99805 30s-3.33301 21.667 -4 29l78 46c-24.667 15.333 -49.667 26.666 -75 33.999s-49.666 13.666 -72.999 18.999c3.33301 10 8.66602 20.333 15.999 31s14.333 19.334 21 26.001c31.333 -6 62.666 -14.5 93.999 -25.5
s61.666 -26.167 90.999 -45.5l103 60c5.33301 -5.33301 11.333 -13 18 -23s11.667 -18.333 15 -25l-87 -50c34.667 -32.667 63 -74.667 85 -126s33 -115.666 33 -192.999c0 -100 -19.167 -177.833 -57.5 -233.5s-95.5 -83.5 -171.5 -83.5c-65.333 0 -117.333 20.333 -156 61
s-58 99.334 -58 176.001c0 36 4.66699 69.333 14 100s23.166 57.167 41.499 79.5s40.833 40 67.5 53s57 19.5 91 19.5c32 0 58.667 -5.33301 80 -16s37 -22.334 47 -35.001h5c-10 34.667 -23.167 65.5 -39.5 92.5s-34.166 49.167 -53.499 66.5zM291.002 408
c-48 0 -84.667 -16 -110 -48s-38 -74.333 -38 -127c0 -60.667 11.167 -107.334 33.5 -140.001s53.833 -49 94.5 -49c24.667 0 46 5.83301 64 17.5s33 28.334 45 50.001s20.833 47.5 26.5 77.5s8.5 63.333 8.5 100c0 13.333 -0.5 26.333 -1.5 39s-2.16699 24.667 -3.5 36
c-16.667 14 -34.5 24.833 -53.5 32.5s-40.833 11.5 -65.5 11.5z" />
    <glyph glyph-name="ntilde" unicode="&#xf1;" horiz-adv-x="605" 
d="M443 677c6.66699 0 13.333 -0.501953 20 -1.50195s13 -3.16699 19 -6.5c-0.666992 -12.667 -3.16699 -25.334 -7.5 -38.001s-10.5 -24.167 -18.5 -34.5s-18 -18.666 -30 -24.999s-26.333 -9.5 -43 -9.5c-11.333 0 -22.333 2.16699 -33 6.5s-21 9.33301 -31 15
s-19.833 10.667 -29.5 15s-19.5 6.5 -29.5 6.5c-13.333 0 -24.666 -4.16699 -33.999 -12.5s-15.333 -18.166 -18 -29.499c-16.667 2 -29 9.33301 -37 22c5.33301 26.667 15.833 48.834 31.5 66.501s39.167 26.5 70.5 26.5c14 0 26.167 -2.16699 36.5 -6.5
s20.166 -9 29.499 -14l27 -14c8.66699 -4.33301 18.667 -6.5 30 -6.5c12 0 22.333 3.83301 31 11.5s14 17.167 16 28.5zM201.999 60.998c12.667 -1.33301 25.6641 -3.00195 38.9971 -5.00195s24.666 -4.66699 33.999 -8c1.33301 -6 2.33301 -13.667 3 -23
s0.333984 -17.666 -0.999023 -24.999h-240c2 16.667 6.66699 31.667 14 45c8 3.33301 18.167 6.83301 30.5 10.5s23.5 6.5 33.5 8.5v355h-73c0.666992 8.66699 2.5 17.834 5.5 27.501s7.16699 18.167 12.5 25.5c10.667 4 23.334 7.33301 38.001 10s29.667 4 45 4
c17.333 0 33 -2 47 -6v-73h10c4.66699 8.66699 11.334 17.834 20.001 27.501s19.834 18.834 33.501 27.501s29.334 15.834 47.001 21.501s37.834 8.5 60.501 8.5c20 0 39 -2.16699 57 -6.5s33.833 -12.833 47.5 -25.5s24.5 -30.834 32.5 -54.501s12 -54.834 12 -93.501
c0 -82.667 -2 -166.334 -6 -251.001c13.333 -1.33301 27.666 -3 42.999 -5s28 -4.66699 38 -8c2 -8 3 -18.333 3 -31v-9c0 -2 -0.333008 -4.66699 -1 -8h-237c2 16.667 6.66699 31.667 14 45c7.33301 3.33301 16.5 6.83301 27.5 10.5s20.833 6.5 29.5 8.5v234
c0 38.667 -6.83301 69.334 -20.5 92.001s-38.167 34 -73.5 34c-12.667 0 -25.334 -2 -38.001 -6s-24.5 -9.16699 -35.5 -15.5s-21 -13.333 -30 -21s-16.167 -14.834 -21.5 -21.501v-299z" />
    <glyph glyph-name="ograve" unicode="&#xf2;" horiz-adv-x="553" 
d="M151 706c4.66699 3.33301 10.999 6.33203 18.999 8.99902s16.667 4.83398 26 6.50098s18.833 3 28.5 4s18.5 1.5 26.5 1.5l116 -159c-3.33301 -1.33301 -8.16602 -3 -14.499 -5s-13 -3.83301 -20 -5.5s-13.833 -3 -20.5 -4s-12 -1.5 -16 -1.5zM276.999 491.999
c34 0 64.998 -5.33203 92.998 -15.999s51.833 -26.5 71.5 -47.5s35 -46.833 46 -77.5s16.5 -66 16.5 -106c0 -84 -20.5 -148.667 -61.5 -194s-96.167 -68 -165.5 -68c-73.333 0 -129.666 22 -168.999 66s-59 109.333 -59 196c0 38 5.83301 72.333 17.5 103
s27.667 56.667 48 78s44.333 37.666 72 48.999s57.834 17 90.501 17zM139.997 245c0 -61.333 12.168 -110.334 36.501 -147.001s57.833 -55 100.5 -55c46 0 80.167 18 102.5 54s33.5 85.333 33.5 148c0 26.667 -3.16699 51.5 -9.5 74.5s-15.5 42.833 -27.5 59.5
s-26.333 29.834 -43 39.501s-35.334 14.5 -56.001 14.5c-44.667 0 -78.667 -17.167 -102 -51.5s-35 -79.833 -35 -136.5z" />
    <glyph glyph-name="oacute" unicode="&#xf3;" horiz-adv-x="553" 
d="M256 539c-4 1.33301 -8.33496 3.66602 -13.002 6.99902s-9.5 7 -14.5 11s-9.66699 8.33301 -14 13s-7.5 8.66699 -9.5 12l112 156c5.33301 0 12 -1.16699 20 -3.5s16.333 -5.16602 25 -8.49902s16.834 -7 24.501 -11s13.834 -8 18.501 -12zM276.998 492
c34 0 64.998 -5.33203 92.998 -15.999s51.833 -26.5 71.5 -47.5s35 -46.833 46 -77.5s16.5 -66 16.5 -106c0 -84 -20.5 -148.667 -61.5 -194s-96.167 -68 -165.5 -68c-73.333 0 -129.666 22 -168.999 66s-59 109.333 -59 196c0 38 5.83301 72.333 17.5 103
s27.667 56.667 48 78s44.333 37.666 72 48.999s57.834 17 90.501 17zM139.996 245.001c0 -61.333 12.168 -110.334 36.501 -147.001s57.833 -55 100.5 -55c46 0 80.167 18 102.5 54s33.5 85.333 33.5 148c0 26.667 -3.16699 51.5 -9.5 74.5s-15.5 42.833 -27.5 59.5
s-26.333 29.834 -43 39.501s-35.334 14.5 -56.001 14.5c-44.667 0 -78.667 -17.167 -102 -51.5s-35 -79.833 -35 -136.5z" />
    <glyph glyph-name="ocircumflex" unicode="&#xf4;" horiz-adv-x="553" 
d="M323 719l114 -136c-5.33301 -7.33301 -13.5 -15.333 -24.5 -24s-21.833 -14 -32.5 -16l-100 100l-107 -104c-4 2 -8 5 -12 9s-7.83301 8.5 -11.5 13.5s-7 10 -10 15s-5.16699 9.5 -6.5 13.5l106 125zM277 492c34 0 64.998 -5.33203 92.998 -15.999
s51.833 -26.5 71.5 -47.5s35 -46.833 46 -77.5s16.5 -66 16.5 -106c0 -84 -20.5 -148.667 -61.5 -194s-96.167 -68 -165.5 -68c-73.333 0 -129.666 22 -168.999 66s-59 109.333 -59 196c0 38 5.83301 72.333 17.5 103s27.667 56.667 48 78s44.333 37.666 72 48.999
s57.834 17 90.501 17zM139.998 245.001c0 -61.333 12.168 -110.334 36.501 -147.001s57.833 -55 100.5 -55c46 0 80.167 18 102.5 54s33.5 85.333 33.5 148c0 26.667 -3.16699 51.5 -9.5 74.5s-15.5 42.833 -27.5 59.5s-26.333 29.834 -43 39.501s-35.334 14.5 -56.001 14.5
c-44.667 0 -78.667 -17.167 -102 -51.5s-35 -79.833 -35 -136.5z" />
    <glyph glyph-name="otilde" unicode="&#xf5;" horiz-adv-x="553" 
d="M394 677c6.66699 0 13.333 -0.501953 20 -1.50195s13 -3.16699 19 -6.5c-0.666992 -12.667 -3.16699 -25.334 -7.5 -38.001s-10.5 -24.167 -18.5 -34.5s-18 -18.666 -30 -24.999s-26.333 -9.5 -43 -9.5c-11.333 0 -22.333 2.16699 -33 6.5s-21 9.33301 -31 15
s-19.833 10.667 -29.5 15s-19.5 6.5 -29.5 6.5c-13.333 0 -24.666 -4.16699 -33.999 -12.5s-15.333 -18.166 -18 -29.499c-16.667 2 -29 9.33301 -37 22c5.33301 26.667 15.833 48.834 31.5 66.501s39.167 26.5 70.5 26.5c14 0 26.167 -2.16699 36.5 -6.5
s20.166 -9 29.499 -14l27 -14c8.66699 -4.33301 18.667 -6.5 30 -6.5c12 0 22.333 3.83301 31 11.5s14 17.167 16 28.5zM276.999 491.998c34 0 64.998 -5.33203 92.998 -15.999s51.833 -26.5 71.5 -47.5s35 -46.833 46 -77.5s16.5 -66 16.5 -106
c0 -84 -20.5 -148.667 -61.5 -194s-96.167 -68 -165.5 -68c-73.333 0 -129.666 22 -168.999 66s-59 109.333 -59 196c0 38 5.83301 72.333 17.5 103s27.667 56.667 48 78s44.333 37.666 72 48.999s57.834 17 90.501 17zM139.997 244.999
c0 -61.333 12.168 -110.334 36.501 -147.001s57.833 -55 100.5 -55c46 0 80.167 18 102.5 54s33.5 85.333 33.5 148c0 26.667 -3.16699 51.5 -9.5 74.5s-15.5 42.833 -27.5 59.5s-26.333 29.834 -43 39.501s-35.334 14.5 -56.001 14.5c-44.667 0 -78.667 -17.167 -102 -51.5
s-35 -79.833 -35 -136.5z" />
    <glyph glyph-name="odieresis" unicode="&#xf6;" horiz-adv-x="553" 
d="M155 672c15.333 0 27.833 -4.33398 37.5 -13.001s14.5 -21 14.5 -37c0 -17.333 -4.83301 -30.666 -14.5 -39.999s-22.167 -14 -37.5 -14c-35.333 0 -53 18 -53 54c0 15.333 5 27.5 15 36.5s22.667 13.5 38 13.5zM402 671.999c15.333 0 27.833 -4.33398 37.5 -13.001
s14.5 -21 14.5 -37c0 -17.333 -4.83301 -30.666 -14.5 -39.999s-22.167 -14 -37.5 -14c-35.333 0 -53 18 -53 54c0 15.333 5 27.5 15 36.5s22.667 13.5 38 13.5zM277 491.998c34 0 64.998 -5.33203 92.998 -15.999s51.833 -26.5 71.5 -47.5s35 -46.833 46 -77.5
s16.5 -66 16.5 -106c0 -84 -20.5 -148.667 -61.5 -194s-96.167 -68 -165.5 -68c-73.333 0 -129.666 22 -168.999 66s-59 109.333 -59 196c0 38 5.83301 72.333 17.5 103s27.667 56.667 48 78s44.333 37.666 72 48.999s57.834 17 90.501 17zM139.998 244.999
c0 -61.333 12.168 -110.334 36.501 -147.001s57.833 -55 100.5 -55c46 0 80.167 18 102.5 54s33.5 85.333 33.5 148c0 26.667 -3.16699 51.5 -9.5 74.5s-15.5 42.833 -27.5 59.5s-26.333 29.834 -43 39.501s-35.334 14.5 -56.001 14.5c-44.667 0 -78.667 -17.167 -102 -51.5
s-35 -79.833 -35 -136.5z" />
    <glyph glyph-name="divide" unicode="&#xf7;" 
d="M53 236c0 9.33301 1 20.9971 3 34.9971s4 24.667 6 32h448c1.33301 -5.33301 2.33301 -12.166 3 -20.499s1 -17.166 1 -26.499v-10c0 -3.33301 -0.333008 -6.66602 -1 -9.99902h-460zM283 124.997c16 0 29.167 -4.66797 39.5 -14.001s15.5 -22.666 15.5 -39.999
c0 -18.667 -5.16699 -33 -15.5 -43s-23.5 -15 -39.5 -15c-37.333 0 -56 19.333 -56 58c0 16 5.33301 29 16 39s24 15 40 15zM283 524.996c16 0 29.167 -4.66797 39.5 -14.001s15.5 -22.666 15.5 -39.999c0 -18.667 -5.16699 -33 -15.5 -43s-23.5 -15 -39.5 -15
c-37.333 0 -56 19.333 -56 58c0 16 5.33301 29 16 39s24 15 40 15z" />
    <glyph glyph-name="oslash" unicode="&#xf8;" horiz-adv-x="559" 
d="M454 417c17.333 -21.333 30.5 -46.3311 39.5 -74.998s13.5 -61 13.5 -97c0 -84 -20.5 -148.667 -61.5 -194s-96.167 -68 -165.5 -68c-27.333 0 -52.333 3.16699 -75 9.5s-42.667 15.166 -60 26.499l-61 -78c-6 5.33301 -12.667 12.833 -20 22.5
s-12.666 18.5 -15.999 26.5l54 70c-33.333 43.333 -50 105 -50 185c0 38 5.83301 72.333 17.5 103s27.667 56.667 48 78s44.333 37.666 72 48.999s57.834 17 90.501 17c51.333 0 95 -12 131 -36l51 66c7.33301 -3.33301 15.666 -8.5 24.999 -15.5s16.666 -13.5 21.999 -19.5
zM419 245.002c0 20 -2 39.168 -6 57.501s-9 34.166 -15 47.499l-209 -269c24 -25.333 54.333 -38 91 -38c46.667 0 81.5 18 104.5 54s34.5 85.333 34.5 148zM140 245.003c0 -44.667 6.66699 -83.333 20 -116l207 267c-10.667 11.333 -23.167 20.333 -37.5 27
s-30.833 10 -49.5 10c-45.333 0 -80 -17.167 -104 -51.5s-36 -79.833 -36 -136.5z" />
    <glyph glyph-name="ugrave" unicode="&#xf9;" horiz-adv-x="598" 
d="M153 706c4.66699 3.33301 10.999 6.33203 18.999 8.99902s16.667 4.83398 26 6.50098s18.833 3 28.5 4s18.5 1.5 26.5 1.5l116 -159c-3.33301 -1.33301 -8.16602 -3 -14.499 -5s-13 -3.83301 -20 -5.5s-13.833 -3 -20.5 -4s-12 -1.5 -16 -1.5zM397.999 418.999
l-72.001 -0.00683594c0.666992 8.66699 2.5 17.834 5.5 27.501s7.16699 18.167 12.5 25.5c11.333 4.66699 25 8.16699 41 10.5s32.333 3.5 49 3.5c18.667 0 35.667 -2 51 -6v-348c0 -11.333 0.5 -23.166 1.5 -35.499s3.16699 -24.166 6.5 -35.499h76
c0.666992 -2 1 -4.33301 1 -7v-6c0 -6.66699 -0.833008 -13.667 -2.5 -21s-3.5 -13.666 -5.5 -18.999c-9.33301 -3.33301 -20.166 -6.16602 -32.499 -8.49902s-25 -4.33301 -38 -6s-25.5 -3 -37.5 -4s-21.667 -1.5 -29 -1.5c-5.33301 10 -9.66602 22.167 -12.999 36.5
s-5.66602 28.5 -6.99902 42.5h-5c-4.66699 -8.66699 -11.334 -17.834 -20.001 -27.501s-19.667 -18.667 -33 -27s-28.833 -15.333 -46.5 -21s-37.5 -8.5 -59.5 -8.5c-19.333 0 -38 2.16699 -56 6.5s-33.667 12.833 -47 25.5s-24 30.834 -32 54.501s-12 54.834 -12 93.501
c0 42 0.333008 84.667 1 128s2 86 4 128h-76c1.33301 8 3.33301 16.833 6 26.5s6.66699 18.167 12 25.5c11.333 4.66699 25.166 8.33398 41.499 11.001s32.833 4 49.5 4c18.667 0 35.667 -2 51 -6v-303c0 -38 6.83301 -68.333 20.5 -91s37.5 -34 71.5 -34
c12.667 0 25.167 1.83301 37.5 5.5s24 8.5 35 14.5s20.833 12.5 29.5 19.5s15.667 14.167 21 21.5v306z" />
    <glyph glyph-name="uacute" unicode="&#xfa;" horiz-adv-x="598" 
d="M263 539c-4 1.33301 -8.33496 3.66602 -13.002 6.99902s-9.5 7 -14.5 11s-9.66699 8.33301 -14 13s-7.5 8.66699 -9.5 12l112 156c5.33301 0 12 -1.16699 20 -3.5s16.333 -5.16602 25 -8.49902s16.834 -7 24.501 -11s13.834 -8 18.501 -12zM397.998 419
l-72.001 -0.00683594c0.666992 8.66699 2.5 17.834 5.5 27.501s7.16699 18.167 12.5 25.5c11.333 4.66699 25 8.16699 41 10.5s32.333 3.5 49 3.5c18.667 0 35.667 -2 51 -6v-348c0 -11.333 0.5 -23.166 1.5 -35.499s3.16699 -24.166 6.5 -35.499h76
c0.666992 -2 1 -4.33301 1 -7v-6c0 -6.66699 -0.833008 -13.667 -2.5 -21s-3.5 -13.666 -5.5 -18.999c-9.33301 -3.33301 -20.166 -6.16602 -32.499 -8.49902s-25 -4.33301 -38 -6s-25.5 -3 -37.5 -4s-21.667 -1.5 -29 -1.5c-5.33301 10 -9.66602 22.167 -12.999 36.5
s-5.66602 28.5 -6.99902 42.5h-5c-4.66699 -8.66699 -11.334 -17.834 -20.001 -27.501s-19.667 -18.667 -33 -27s-28.833 -15.333 -46.5 -21s-37.5 -8.5 -59.5 -8.5c-19.333 0 -38 2.16699 -56 6.5s-33.667 12.833 -47 25.5s-24 30.834 -32 54.501s-12 54.834 -12 93.501
c0 42 0.333008 84.667 1 128s2 86 4 128h-76c1.33301 8 3.33301 16.833 6 26.5s6.66699 18.167 12 25.5c11.333 4.66699 25.166 8.33398 41.499 11.001s32.833 4 49.5 4c18.667 0 35.667 -2 51 -6v-303c0 -38 6.83301 -68.333 20.5 -91s37.5 -34 71.5 -34
c12.667 0 25.167 1.83301 37.5 5.5s24 8.5 35 14.5s20.833 12.5 29.5 19.5s15.667 14.167 21 21.5v306z" />
    <glyph glyph-name="ucircumflex" unicode="&#xfb;" horiz-adv-x="598" 
d="M326 719l114 -136c-5.33301 -7.33301 -13.5 -15.333 -24.5 -24s-21.833 -14 -32.5 -16l-100 100l-107 -104c-4 2 -8 5 -12 9s-7.83301 8.5 -11.5 13.5s-7 10 -10 15s-5.16699 9.5 -6.5 13.5l106 125zM398 419l-72.001 -0.00683594
c0.666992 8.66699 2.5 17.834 5.5 27.501s7.16699 18.167 12.5 25.5c11.333 4.66699 25 8.16699 41 10.5s32.333 3.5 49 3.5c18.667 0 35.667 -2 51 -6v-348c0 -11.333 0.5 -23.166 1.5 -35.499s3.16699 -24.166 6.5 -35.499h76c0.666992 -2 1 -4.33301 1 -7v-6
c0 -6.66699 -0.833008 -13.667 -2.5 -21s-3.5 -13.666 -5.5 -18.999c-9.33301 -3.33301 -20.166 -6.16602 -32.499 -8.49902s-25 -4.33301 -38 -6s-25.5 -3 -37.5 -4s-21.667 -1.5 -29 -1.5c-5.33301 10 -9.66602 22.167 -12.999 36.5s-5.66602 28.5 -6.99902 42.5h-5
c-4.66699 -8.66699 -11.334 -17.834 -20.001 -27.501s-19.667 -18.667 -33 -27s-28.833 -15.333 -46.5 -21s-37.5 -8.5 -59.5 -8.5c-19.333 0 -38 2.16699 -56 6.5s-33.667 12.833 -47 25.5s-24 30.834 -32 54.501s-12 54.834 -12 93.501c0 42 0.333008 84.667 1 128
s2 86 4 128h-76c1.33301 8 3.33301 16.833 6 26.5s6.66699 18.167 12 25.5c11.333 4.66699 25.166 8.33398 41.499 11.001s32.833 4 49.5 4c18.667 0 35.667 -2 51 -6v-303c0 -38 6.83301 -68.333 20.5 -91s37.5 -34 71.5 -34c12.667 0 25.167 1.83301 37.5 5.5
s24 8.5 35 14.5s20.833 12.5 29.5 19.5s15.667 14.167 21 21.5v306z" />
    <glyph glyph-name="udieresis" unicode="&#xfc;" horiz-adv-x="598" 
d="M179 672c15.333 0 27.833 -4.33398 37.5 -13.001s14.5 -21 14.5 -37c0 -17.333 -4.83301 -30.666 -14.5 -39.999s-22.167 -14 -37.5 -14c-35.333 0 -53 18 -53 54c0 15.333 5 27.5 15 36.5s22.667 13.5 38 13.5zM386 671.999c15.333 0 27.833 -4.33398 37.5 -13.001
s14.5 -21 14.5 -37c0 -17.333 -4.83301 -30.666 -14.5 -39.999s-22.167 -14 -37.5 -14c-35.333 0 -53 18 -53 54c0 15.333 5 27.5 15 36.5s22.667 13.5 38 13.5zM398 418.998l-72.001 -0.00683594c0.666992 8.66699 2.5 17.834 5.5 27.501s7.16699 18.167 12.5 25.5
c11.333 4.66699 25 8.16699 41 10.5s32.333 3.5 49 3.5c18.667 0 35.667 -2 51 -6v-348c0 -11.333 0.5 -23.166 1.5 -35.499s3.16699 -24.166 6.5 -35.499h76c0.666992 -2 1 -4.33301 1 -7v-6c0 -6.66699 -0.833008 -13.667 -2.5 -21s-3.5 -13.666 -5.5 -18.999
c-9.33301 -3.33301 -20.166 -6.16602 -32.499 -8.49902s-25 -4.33301 -38 -6s-25.5 -3 -37.5 -4s-21.667 -1.5 -29 -1.5c-5.33301 10 -9.66602 22.167 -12.999 36.5s-5.66602 28.5 -6.99902 42.5h-5c-4.66699 -8.66699 -11.334 -17.834 -20.001 -27.501
s-19.667 -18.667 -33 -27s-28.833 -15.333 -46.5 -21s-37.5 -8.5 -59.5 -8.5c-19.333 0 -38 2.16699 -56 6.5s-33.667 12.833 -47 25.5s-24 30.834 -32 54.501s-12 54.834 -12 93.501c0 42 0.333008 84.667 1 128s2 86 4 128h-76c1.33301 8 3.33301 16.833 6 26.5
s6.66699 18.167 12 25.5c11.333 4.66699 25.166 8.33398 41.499 11.001s32.833 4 49.5 4c18.667 0 35.667 -2 51 -6v-303c0 -38 6.83301 -68.333 20.5 -91s37.5 -34 71.5 -34c12.667 0 25.167 1.83301 37.5 5.5s24 8.5 35 14.5s20.833 12.5 29.5 19.5s15.667 14.167 21 21.5
v306z" />
    <glyph glyph-name="yacute" unicode="&#xfd;" horiz-adv-x="519" 
d="M250 539c-4 1.33301 -8.33496 3.66602 -13.002 6.99902s-9.5 7 -14.5 11s-9.66699 8.33301 -14 13s-7.5 8.66699 -9.5 12l112 156c5.33301 0 12 -1.16699 20 -3.5s16.333 -5.16602 25 -8.49902s16.834 -7 24.501 -11s13.834 -8 18.501 -12zM275.998 55
c1.33301 6 3.1709 13.499 5.50391 22.499l7 27.5c2.33301 9.33301 4.83301 18.5 7.5 27.5s5 16.5 7 22.5l50 159c2 7.33301 4.5 15.333 7.5 24l9.5 26.5c3.33301 9 6.66602 17.5 9.99902 25.5s6.66602 15 9.99902 21c-9.33301 1.33301 -19.833 3 -31.5 5
s-21.167 4.66699 -28.5 8c-5.33301 16 -8 33 -8 51h191c0 -7.33301 -1 -16.5 -3 -27.5s-4.33301 -20.167 -7 -27.5c-6 -2 -13.667 -3.83301 -23 -5.5s-17.333 -2.83398 -24 -3.50098l-57 -166l-24.5 -70.5l-28.5 -80l-30.5 -78.5
c-10.333 -25.333 -20.166 -47.333 -29.499 -66c-23.333 -48 -51.5 -87.667 -84.5 -119s-72.167 -55 -117.5 -71c-7.33301 7.33301 -15 17.833 -23 31.5s-12.667 27.834 -14 42.501c45.333 12.667 83.166 32 113.499 58s52.833 55.667 67.5 89l-163 425
c-9.33301 2 -18.5 4.5 -27.5 7.5s-17.167 6.16699 -24.5 9.5c-2.66699 7.33301 -4.83398 15.833 -6.50098 25.5s-2.83398 18.5 -3.50098 26.5h226c0 -8 -0.833008 -16.833 -2.5 -26.5s-3.5 -18.167 -5.5 -25.5c-9.33301 -2.66699 -21 -5 -35 -7s-26.667 -3.66699 -38 -5
c6 -11.333 12.167 -24.666 18.5 -39.999l17.5 -44l63 -175c2 -5.33301 4 -12.333 6 -21l6 -26.5c2 -9 3.83301 -18 5.5 -27s3.16699 -16.5 4.5 -22.5h7z" />
    <glyph glyph-name="thorn" unicode="&#xfe;" horiz-adv-x="559" 
d="M179 420c11.333 19.333 27.9971 36.1689 49.9971 50.502s53.667 21.5 95 21.5c22 0 44.167 -4 66.5 -12s42.333 -21.5 60 -40.5s32 -43.833 43 -74.5s16.5 -68.667 16.5 -114c0 -40 -6 -76.5 -18 -109.5s-29 -61.333 -51 -85s-48.167 -41.834 -78.5 -54.501
s-63.833 -19 -100.5 -19c-14 0 -29.5 2.16699 -46.5 6.5s-30.833 10.166 -41.5 17.499v-174c6.66699 -0.666992 14.334 -1.66699 23.001 -3s17.5 -2.83301 26.5 -4.5s17.5 -3.33398 25.5 -5.00098s14.667 -3.5 20 -5.5c1.33301 -6 2.33301 -13.333 3 -22
s0.333984 -16.667 -0.999023 -24h-262c2 16.667 6.66699 31.667 14 45c8 3.33301 18.167 6.83301 30.5 10.5s23.5 6.5 33.5 8.5v831h-72c0.666992 8.66699 2.5 17.834 5.5 27.501s7.16699 18.167 12.5 25.5c12 4 25.833 7.33301 41.5 10s31.834 4 48.501 4
c18.667 0 35.667 -2 51 -6v-188c0 -19.333 -0.5 -38.833 -1.5 -58.5s-2.16699 -39.167 -3.5 -58.5h10zM172.997 57.0029c12 -4 25.1689 -7.33301 39.502 -10s29.166 -4 44.499 -4c56 0 97.167 18 123.5 54s39.5 83 39.5 141c0 60.667 -11.667 107.167 -35 139.5
s-54 48.5 -92 48.5c-30 0 -54.833 -6.33301 -74.5 -19s-34.834 -26.667 -45.501 -42v-308z" />
    <glyph glyph-name="ydieresis" unicode="&#xff;" horiz-adv-x="519" 
d="M159 672c15.333 0 27.833 -4.33398 37.5 -13.001s14.5 -21 14.5 -37c0 -17.333 -4.83301 -30.666 -14.5 -39.999s-22.167 -14 -37.5 -14c-35.333 0 -53 18 -53 54c0 15.333 5 27.5 15 36.5s22.667 13.5 38 13.5zM366 671.999c15.333 0 27.833 -4.33398 37.5 -13.001
s14.5 -21 14.5 -37c0 -17.333 -4.83301 -30.666 -14.5 -39.999s-22.167 -14 -37.5 -14c-35.333 0 -53 18 -53 54c0 15.333 5 27.5 15 36.5s22.667 13.5 38 13.5zM276 54.998c1.33301 6 3.1709 13.499 5.50391 22.499l7 27.5c2.33301 9.33301 4.83301 18.5 7.5 27.5
s5 16.5 7 22.5l50 159c2 7.33301 4.5 15.333 7.5 24l9.5 26.5c3.33301 9 6.66602 17.5 9.99902 25.5s6.66602 15 9.99902 21c-9.33301 1.33301 -19.833 3 -31.5 5s-21.167 4.66699 -28.5 8c-5.33301 16 -8 33 -8 51h191c0 -7.33301 -1 -16.5 -3 -27.5
s-4.33301 -20.167 -7 -27.5c-6 -2 -13.667 -3.83301 -23 -5.5s-17.333 -2.83398 -24 -3.50098l-57 -166l-24.5 -70.5l-28.5 -80l-30.5 -78.5c-10.333 -25.333 -20.166 -47.333 -29.499 -66c-23.333 -48 -51.5 -87.667 -84.5 -119s-72.167 -55 -117.5 -71
c-7.33301 7.33301 -15 17.833 -23 31.5s-12.667 27.834 -14 42.501c45.333 12.667 83.166 32 113.499 58s52.833 55.667 67.5 89l-163 425c-9.33301 2 -18.5 4.5 -27.5 7.5s-17.167 6.16699 -24.5 9.5c-2.66699 7.33301 -4.83398 15.833 -6.50098 25.5
s-2.83398 18.5 -3.50098 26.5h226c0 -8 -0.833008 -16.833 -2.5 -26.5s-3.5 -18.167 -5.5 -25.5c-9.33301 -2.66699 -21 -5 -35 -7s-26.667 -3.66699 -38 -5c6 -11.333 12.167 -24.666 18.5 -39.999l17.5 -44l63 -175c2 -5.33301 4 -12.333 6 -21l6 -26.5
c2 -9 3.83301 -18 5.5 -27s3.16699 -16.5 4.5 -22.5h7z" />
    <glyph glyph-name="afii57929" unicode="&#x2bc;" horiz-adv-x="246" 
d="M52 641c3.33301 10.667 7.83301 22.333 13.5 35s11.834 22.667 18.501 30c11.333 2.66699 24.666 4 39.999 4c12.667 0 25.167 -1 37.5 -3s23.166 -4.66699 32.499 -8c-4 -18.667 -9.66699 -39.167 -17 -61.5s-15.333 -44.333 -24 -66s-17.667 -42.167 -27 -61.5
s-17.666 -35 -24.999 -47c-8.66699 2.66699 -17.667 6.5 -27 11.5s-16.333 9.83301 -21 14.5c7.33301 21.333 14.833 45.333 22.5 72s13.167 50 16.5 70z" />
    <glyph glyph-name="tilde" unicode="&#x2dc;" horiz-adv-x="419" 
d="M329 677c6.66699 0 13.333 -0.501953 20 -1.50195s13 -3.16699 19 -6.5c-0.666992 -12.667 -3.16699 -25.334 -7.5 -38.001s-10.5 -24.167 -18.5 -34.5s-18 -18.666 -30 -24.999s-26.333 -9.5 -43 -9.5c-11.333 0 -22.333 2.16699 -33 6.5s-21 9.33301 -31 15
s-19.833 10.667 -29.5 15s-19.5 6.5 -29.5 6.5c-13.333 0 -24.666 -4.16699 -33.999 -12.5s-15.333 -18.166 -18 -29.499c-16.667 2 -29 9.33301 -37 22c5.33301 26.667 15.833 48.834 31.5 66.501s39.167 26.5 70.5 26.5c14 0 26.167 -2.16699 36.5 -6.5
s20.166 -9 29.499 -14l27 -14c8.66699 -4.33301 18.667 -6.5 30 -6.5c12 0 22.333 3.83301 31 11.5s14 17.167 16 28.5z" />
    <glyph glyph-name="endash" unicode="&#x2013;" horiz-adv-x="500" 
d="M459 307c1.33301 -5.33301 2.33203 -12.501 2.99902 -21.501s1 -18.167 1 -27.5v-10c0 -2.66699 -0.333008 -5.66699 -1 -9h-424c0 4.66699 0.333008 10 1 16s1.33398 12.333 2.00098 19s1.5 12.834 2.5 18.501s2.16699 10.5 3.5 14.5h412z" />
    <glyph glyph-name="emdash" unicode="&#x2014;" horiz-adv-x="1000" 
d="M949 307c1.33301 -5.33301 2.33203 -12.501 2.99902 -21.501s1 -18.167 1 -27.5v-10c0 -2.66699 -0.333008 -5.66699 -1 -9h-914c0 4.66699 0.333008 10 1 16s1.33398 12.333 2.00098 19s1.5 12.834 2.5 18.501s2.16699 10.5 3.5 14.5h902z" />
    <glyph glyph-name="quoteleft" unicode="&#x2018;" horiz-adv-x="248" 
d="M204 703c-4.66699 -11.333 -9.66406 -24.333 -14.9971 -39l-15.5 -44.5c-5 -15 -9.5 -29.5 -13.5 -43.5s-7 -26 -9 -36l40 -10c-1.33301 -4 -3.33301 -9.16699 -6 -15.5s-5.83398 -12.666 -9.50098 -18.999s-7.5 -12.333 -11.5 -18s-7.66699 -10.5 -11 -14.5
c-18.667 2 -36.834 5.83301 -54.501 11.5s-33.167 12.5 -46.5 20.5c10 36 23.167 72.167 39.5 108.5s32.166 67.166 47.499 92.499c6 1.33301 15.833 2.83301 29.5 4.5s25.5 2.5 35.5 2.5z" />
    <glyph glyph-name="quoteright" unicode="&#x2019;" horiz-adv-x="246" 
d="M52 641c3.33301 10.667 7.83301 22.333 13.5 35s11.834 22.667 18.501 30c11.333 2.66699 24.666 4 39.999 4c12.667 0 25.167 -1 37.5 -3s23.166 -4.66699 32.499 -8c-4 -18.667 -9.66699 -39.167 -17 -61.5s-15.333 -44.333 -24 -66s-17.667 -42.167 -27 -61.5
s-17.666 -35 -24.999 -47c-8.66699 2.66699 -17.667 6.5 -27 11.5s-16.333 9.83301 -21 14.5c7.33301 21.333 14.833 45.333 22.5 72s13.167 50 16.5 70z" />
    <glyph glyph-name="quotedblleft" unicode="&#x201c;" horiz-adv-x="420" 
d="M200 703c-4.66699 -11.333 -9.66406 -24.333 -14.9971 -39l-15.5 -44.5c-5 -15 -9.5 -29.5 -13.5 -43.5s-7 -26 -9 -36l40 -10c-1.33301 -4 -3.33301 -9.16699 -6 -15.5s-5.83398 -12.666 -9.50098 -18.999s-7.5 -12.333 -11.5 -18s-7.66699 -10.5 -11 -14.5
c-18.667 2 -36.334 5.83301 -53.001 11.5s-31.667 12.5 -45 20.5c10 36 23.167 72.167 39.5 108.5s32.166 67.166 47.499 92.499c6 1.33301 15.333 2.83301 28 4.5s24 2.5 34 2.5zM378.003 703c-4.66699 -11.333 -9.66406 -24.333 -14.9971 -39l-15.5 -44.5
c-5 -15 -9.5 -29.5 -13.5 -43.5s-7 -26 -9 -36l40 -10c-1.33301 -4 -3.33301 -9.16699 -6 -15.5s-5.83398 -12.666 -9.50098 -18.999s-7.5 -12.333 -11.5 -18s-7.66699 -10.5 -11 -14.5c-18.667 2 -36.334 5.83301 -53.001 11.5s-31.667 12.5 -45 20.5
c10 36 23.167 72.167 39.5 108.5s32.166 67.166 47.499 92.499c6 1.33301 15.333 2.83301 28 4.5s24 2.5 34 2.5z" />
    <glyph glyph-name="quotedblright" unicode="&#x201d;" horiz-adv-x="422" 
d="M52 641c3.33301 10.667 7.83008 22.333 13.4971 35s11.834 22.667 18.501 30c11.333 2.66699 24.333 4 39 4c12.667 0 24.834 -1 36.501 -3s22.167 -4.66699 31.5 -8c-4 -18.667 -9.66699 -39.167 -17 -61.5s-15.333 -44.333 -24 -66s-17.667 -42.167 -27 -61.5
s-17.666 -35 -24.999 -47c-8.66699 2.66699 -17.167 6.5 -25.5 11.5s-14.833 9.83301 -19.5 14.5c7.33301 21.333 14.833 45.333 22.5 72s13.167 50 16.5 70zM229.997 640.999c3.33301 10.667 7.83008 22.333 13.4971 35s11.834 22.667 18.501 30
c11.333 2.66699 24.333 4 39 4c12.667 0 24.834 -1 36.501 -3s22.167 -4.66699 31.5 -8c-4 -18.667 -9.66699 -39.167 -17 -61.5s-15.333 -44.333 -24 -66s-17.667 -42.167 -27 -61.5s-17.666 -35 -24.999 -47c-8.66699 2.66699 -17.167 6.5 -25.5 11.5
s-14.833 9.83301 -19.5 14.5c7.33301 21.333 14.833 45.333 22.5 72s13.167 50 16.5 70z" />
    <glyph glyph-name="quotedblbase" unicode="&#x201e;" horiz-adv-x="422" 
d="M51 28c3.33301 10.667 7.83105 22.499 13.498 35.499s11.834 23.167 18.501 30.5c11.333 2.66699 24.333 4 39 4c13.333 0 26 -1.16699 38 -3.5s23 -5.16602 33 -8.49902c-4 -18.667 -9.66699 -39.334 -17 -62.001s-15.5 -45 -24.5 -67s-18.167 -42.833 -27.5 -62.5
s-17.666 -35.5 -24.999 -47.5c-9.33301 2.66699 -18.333 6.66699 -27 12s-15.667 10 -21 14c4 10.667 8 22.334 12 35.001s7.83301 25.5 11.5 38.5s7 25.667 10 38s5.16699 23.5 6.5 33.5zM229.998 27.999c3.33301 10.667 7.83105 22.499 13.498 35.499
s11.834 23.167 18.501 30.5c11.333 2.66699 24.333 4 39 4c13.333 0 26 -1.16699 38 -3.5s23 -5.16602 33 -8.49902c-4 -18.667 -9.66699 -39.334 -17 -62.001s-15.5 -45 -24.5 -67s-18.167 -42.833 -27.5 -62.5s-17.666 -35.5 -24.999 -47.5
c-9.33301 2.66699 -18.333 6.66699 -27 12s-15.667 10 -21 14c4 10.667 8 22.334 12 35.001s7.83301 25.5 11.5 38.5s7 25.667 10 38s5.16699 23.5 6.5 33.5z" />
    <glyph glyph-name="bullet" unicode="&#x2022;" horiz-adv-x="580" 
d="M292 376c39.333 0 71.166 -11.333 95.499 -34s36.5 -54.667 36.5 -96c0 -45.333 -12.167 -80 -36.5 -104s-56.166 -36 -95.499 -36c-44 0 -77.667 11.833 -101 35.5s-35 58.5 -35 104.5c0 39.333 12.667 70.833 38 94.5s58 35.5 98 35.5z" />
    <glyph glyph-name="ellipsis" unicode="&#x2026;" horiz-adv-x="834" 
d="M697 115c18 0 32.833 -5.33398 44.5 -16.001s17.5 -25.667 17.5 -45c0 -21.333 -5.83301 -37.666 -17.5 -48.999s-26.5 -17 -44.5 -17c-42.667 0 -64 22 -64 66c0 18 6 32.667 18 44s27.333 17 46 17zM145 114.999c18 0 32.833 -5.33398 44.5 -16.001
s17.5 -25.667 17.5 -45c0 -21.333 -5.83301 -37.666 -17.5 -48.999s-26.5 -17 -44.5 -17c-42.667 0 -64 22 -64 66c0 18 6 32.667 18 44s27.333 17 46 17zM421 114.998c18 0 32.833 -5.33398 44.5 -16.001s17.5 -25.667 17.5 -45c0 -21.333 -5.83301 -37.666 -17.5 -48.999
s-26.5 -17 -44.5 -17c-42.667 0 -64 22 -64 66c0 18 6 32.667 18 44s27.333 17 46 17z" />
    <glyph glyph-name="guilsinglleft" unicode="&#x2039;" horiz-adv-x="343" 
d="M171 250c13.333 -32.667 27.168 -64.6699 41.501 -96.0029s29.833 -63.333 46.5 -96c-4 -2 -9.16699 -3.66699 -15.5 -5s-13 -2.66602 -20 -3.99902s-14 -2.33301 -21 -3s-12.833 -1 -17.5 -1l-60 102.5c-20 35.667 -37.667 69.834 -53 102.501
c14.667 32.667 30.334 63.834 47.001 93.501l55 94.5c11.333 3.33301 25.666 6.33301 42.999 9s32.666 4 45.999 4l-49 -100.5c-16 -34.333 -30.333 -67.833 -43 -100.5z" />
    <glyph glyph-name="guilsinglright" unicode="&#x203a;" horiz-adv-x="343" 
d="M178 250c-12.667 32.667 -25.835 63.835 -39.502 93.502s-28.834 60.834 -45.501 93.501c8.66699 3.33301 19.834 6.66602 33.501 9.99902s26.5 5 38.5 5l59.5 -101c19.667 -34.667 36.834 -68.334 51.501 -101.001c-15.333 -32.667 -33.333 -67.334 -54 -104.001
l-61 -104c-10 1.33301 -22.167 4.16602 -36.5 8.49902s-25.166 8.83301 -32.499 13.5l45 92.5c14 29.667 27.667 60.834 41 93.501z" />
    <glyph glyph-name="Euro" unicode="&#x20ac;" 
d="M19 353c0 7.33301 0.667969 16.165 2.00098 26.498s3 19.166 5 26.499h67c8 44.667 21.5 84.667 40.5 120s41.667 65 68 89s56 42.333 89 55s67.833 19 104.5 19c34 0 64.667 -3.33301 92 -10s52.333 -16 75 -28c0 -26.667 -1 -53.5 -3 -80.5s-5 -51.5 -9 -73.5
c-10.667 0 -22.834 1.33301 -36.501 4s-25.167 6.66699 -34.5 12v91c-15.333 8 -30.666 13.667 -45.999 17s-30.666 5 -45.999 5c-50 0 -93.333 -18.5 -130 -55.5s-60.334 -91.833 -71.001 -164.5h261c0.666992 -2 1.16699 -5.16699 1.5 -9.5
s0.666016 -9.16602 0.999023 -14.499s0.5 -10.666 0.5 -15.999s-0.333008 -9.66602 -1 -12.999h-430zM194.001 238.999c14 -62.667 38.832 -108.67 74.499 -138.003s77.167 -44 124.5 -44c12.667 0 26.334 1 41.001 3s29.334 4.66699 44.001 8s28.834 7 42.501 11
s26.167 8.33301 37.5 13c1.33301 -9.33301 0.5 -20.666 -2.5 -33.999s-6.16699 -23.333 -9.5 -30c-11.333 -6 -24.333 -12 -39 -18s-30.334 -11.167 -47.001 -15.5s-33.5 -7.83301 -50.5 -10.5s-33.5 -4 -49.5 -4c-34 0 -65.833 6.16699 -95.5 18.5s-56 29.833 -79 52.5
s-42.5 49.834 -58.5 81.501s-27.333 67.167 -34 106.5h-74c0 7.33301 0.666992 16.166 2 26.499s3 19.166 5 26.499h421c0.666992 -2 1.16699 -5.16699 1.5 -9.5s0.666016 -9.16602 0.999023 -14.499s0.5 -10.666 0.5 -15.999s-0.333008 -9.66602 -1 -12.999h-255z" />
    <glyph glyph-name="trademark" unicode="&#x2122;" horiz-adv-x="922" 
d="M393 409c0.666992 5.33301 1.82617 11.3281 3.49316 17.9951s3.5 12.334 5.5 17.001c5.33301 1.33301 12.333 2.83301 21 4.5s15.667 2.83398 21 3.50098v198c-6.66699 0.666992 -14 1.33398 -22 2.00098s-16.333 1.66699 -25 3
c-1.33301 4.66699 -2.16602 11 -2.49902 19s0.166992 14.667 1.5 20h140l66 -174c4 -11.333 7.83301 -23 11.5 -35s6.16699 -23.667 7.5 -35h5c2.66699 11.333 5.66699 23 9 35s7 23.667 11 35l69 174h135c1.33301 -4.66699 1.83301 -11.167 1.5 -19.5
s-1.16602 -14.833 -2.49902 -19.5c-7.33301 -1.33301 -15.166 -2.33301 -23.499 -3s-16.166 -1 -23.499 -1v-200c19.333 -1.33301 36.333 -3.66602 51 -6.99902c2 -6 3 -13.667 3 -23c0 -5.33301 -0.333008 -9.33301 -1 -12h-162
c0.666992 5.33301 1.83398 11.5 3.50098 18.5s3.5 12.5 5.5 16.5c4.66699 1.33301 11.5 2.83301 20.5 4.5s15.833 2.83398 20.5 3.50098v199h-5c-1.33301 -12 -4.33301 -25.5 -9 -40.5s-9.66699 -29.833 -15 -44.5l-66 -162h-63l-65 163c-12 30 -20 58 -24 84h-5v-201l21 -2
c6.66699 -0.666992 13.334 -1.66699 20.001 -3c1.33301 -4 2.33301 -10 3 -18s0.333984 -14 -0.999023 -18h-141zM237.992 451.995c23.333 -1.33301 43.667 -3.66504 61 -6.99805c1.33301 -4 2.33301 -10 3 -18s0.333984 -14 -0.999023 -18h-187
c0.666992 4.66699 1.83398 10.5 3.50098 17.5s3.83398 12.833 6.50098 17.5c6 2 14 3.66699 24 5s18.667 2.33301 26 3v202h-62c-0.666992 -8 -1.83398 -18.167 -3.50098 -30.5s-3.16699 -21.5 -4.5 -27.5c-7.33301 -3.33301 -15 -5.33301 -23 -6s-14.667 -1 -20 -1v105h293
v-104c-5.33301 0 -12.333 0.166992 -21 0.5s-16 1.16602 -22 2.49902c-2.66699 8.66699 -4.83398 18.667 -6.50098 30s-2.83398 21.666 -3.50098 30.999h-63v-202z" />
    <glyph glyph-name=".null" horiz-adv-x="0" 
 />
    <glyph glyph-name="nonmarkingreturn" horiz-adv-x="333" 
 />
    </font>
</defs>
</svg>
