<?xml version="1.0" standalone="no"?>
<!DOCTYPE svg PUBLIC "-//W3C//DTD SVG 1.1//EN" "http://www.w3.org/Graphics/SVG/1.1/DTD/svg11.dtd" >
<svg>
<metadata>
Created by FontForge 20090914 at Wed Mar 27 14:49:04 2013
 By www-data
2009 Erik Spiekermann, Christian Schwartz, Kris Sowersby published by FSI FontShop International GmbH
</metadata>
<defs>
<font id="Jriviabnldwyirkgejshjbvmlew" horiz-adv-x="570" >
  <font-face 
    font-family="Jriviabnldwyirkgejshjbvmlew"
    font-weight="500"
    font-style="italic"
    font-stretch="normal"
    units-per-em="1000"
    panose-1="2 1 6 4 5 1 1 2 1 2"
    ascent="763"
    descent="-237"
    x-height="495.997"
    cap-height="689.003"
    bbox="-95.001 -213.001 1048 923.001"
    underline-thickness="50"
    underline-position="-50"
    slope="-11"
    unicode-range="U+0020-U+2122"
  />
<missing-glyph horiz-adv-x="364" 
d="M33 0v666h265v-666h-265zM66 33h199v600h-199v-600z" />
    <glyph glyph-name=".notdef" horiz-adv-x="364" 
d="M33 0v666h265v-666h-265zM66 33h199v600h-199v-600z" />
    <glyph glyph-name="space" unicode=" " horiz-adv-x="225" 
 />
    <glyph glyph-name="exclam" unicode="!" horiz-adv-x="325" 
d="M175 210h-53l82 477l121 15zM186 60c0 -19.333 -6.66699 -35.5 -20 -48.5s-29 -19.5 -47 -19.5s-33.167 6.5 -45.5 19.5s-18.5 29.167 -18.5 48.5c0 18 6.16699 33.333 18.5 46s27.833 19 46.5 19c18 0 33.5 -6.33301 46.5 -19s19.5 -28 19.5 -46z" />
    <glyph glyph-name="quotedbl" unicode="&#x22;" horiz-adv-x="434" 
d="M295 453l50 256h85l-50 -256h-85zM116 453l50 256h85l-50 -256h-85z" />
    <glyph glyph-name="numbersign" unicode="#" horiz-adv-x="561" 
d="M472 430l-51 -151h94l-13 -68h-103l-71 -211h-72l70 211h-122l-70 -211h-72l70 211h-91l13 68h101l50 151h-92l13 69h102l70 209h72l-70 -209h122l70 209h72l-70 -209h94l-13 -69h-103zM278 430l-51 -151h122l51 151h-122z" />
    <glyph glyph-name="dollar" unicode="$" horiz-adv-x="497" 
d="M164 -13c-36.667 3.33301 -68.168 10.167 -94.501 20.5s-47.833 23.166 -64.5 38.499l23 125h64c0 -40.667 5.33301 -72.167 16 -94.5s32.667 -36.166 66 -41.499l58 284l-42 22c-29.333 14.667 -54.166 34.667 -74.499 60s-30.5 58.666 -30.5 99.999
c0 30 5.5 57 16.5 81s26.333 44.667 46 62s43.334 30.833 71.001 40.5s58.167 14.834 91.5 15.501l18 85h45l-18 -87c38 -3.33301 69.167 -10.5 93.5 -21.5s42.166 -22.167 53.499 -33.5l-19 -108h-61c0 28 -5.66699 52.167 -17 72.5s-31.333 33.833 -60 40.5l-53 -254
l30 -15c17.333 -9.33301 33.833 -19.333 49.5 -30s29.334 -23 41.001 -37s21 -29.833 28 -47.5s10.5 -38.167 10.5 -61.5c0 -65.333 -19.833 -117.5 -59.5 -156.5s-100.834 -59.167 -183.501 -60.5l-17 -86h-45zM362.999 170.001c0 30 -8 55.002 -24 75.002
s-38 37.667 -66 53l-55 -265c47.333 1.33301 83.333 14.166 108 38.499s37 57.166 37 98.499zM169.999 531.003c0 -16 1.83301 -29.666 5.5 -40.999s9 -21.333 16 -30s15.5 -16.5 25.5 -23.5s21.667 -14.167 35 -21.5l49 238c-42 -0.666992 -74.333 -12.334 -97 -35.001
s-34 -51.667 -34 -87z" />
    <glyph glyph-name="percent" unicode="%" horiz-adv-x="928" 
d="M382 505c0 -35.333 -4.83105 -69.002 -14.498 -101.002s-23.334 -60.167 -41.001 -84.5s-39.334 -43.666 -65.001 -57.999s-54.5 -21.5 -86.5 -21.5c-41.333 0 -73.833 11.833 -97.5 35.5s-35.5 59.5 -35.5 107.5c0 32 4.5 64 13.5 96s22.333 60.833 40 86.5
s39.5 46.334 65.5 62.001s55.667 23.5 89 23.5c44 0 77 -12.667 99 -38s33 -61.333 33 -108zM183.002 273.998c22 0 40.5 9.16797 55.5 27.501s27.167 40.333 36.5 66s16 52.167 20 79.5s6 49.666 6 66.999c0 66 -19.333 99 -58 99c-18.667 0 -35.334 -7.66699 -50.001 -23
s-27.167 -34.833 -37.5 -58.5s-18.166 -49.5 -23.499 -77.5s-8 -54.667 -8 -80c0 -32 4.5 -56.667 13.5 -74s24.167 -26 45.5 -26zM174.002 -123.001h-54l617 853h54zM898.002 254.999c0 -35.333 -4.83105 -69.002 -14.498 -101.002s-23.334 -60.167 -41.001 -84.5
s-39.334 -43.666 -65.001 -57.999s-54.5 -21.5 -86.5 -21.5c-41.333 0 -73.833 11.833 -97.5 35.5s-35.5 59.5 -35.5 107.5c0 32 4.5 64 13.5 96s22.333 60.833 40 86.5s39.5 46.334 65.5 62.001s55.667 23.5 89 23.5c44 0 77 -12.667 99 -38s33 -61.333 33 -108z
M699.004 23.9971c22 0 40.5 9.16797 55.5 27.501s27.167 40.333 36.5 66s16 52.167 20 79.5s6 49.666 6 66.999c0 66 -19.333 99 -58 99c-18.667 0 -35.334 -7.66699 -50.001 -23s-27.167 -34.833 -37.5 -58.5s-18.166 -49.5 -23.499 -77.5s-8 -54.667 -8 -80
c0 -32 4.5 -56.667 13.5 -74s24.167 -26 45.5 -26z" />
    <glyph glyph-name="ampersand" unicode="&#x26;" horiz-adv-x="679" 
d="M588 287l-25 -53.999c-6.66699 -14 -12.834 -26.333 -18.501 -37s-11.167 -20.167 -16.5 -28.5l-19 -28.5l64 -78c9.33301 -10 21 -17.167 35 -21.5s26.333 -6.5 37 -6.5l-5 -33h-134l-59 71c-30.667 -25.333 -63.5 -45.833 -98.5 -61.5s-72.5 -23.5 -112.5 -23.5
c-77.333 0 -134.333 14.667 -171 44s-55 69.666 -55 120.999c0 24.667 5.33301 47 16 67s25.334 38.167 44.001 54.5s40.334 30.833 65.001 43.5s51 23.667 79 33l-21 24c-20 22.667 -35.5 44.667 -46.5 66s-16.5 47.666 -16.5 78.999c0 20.667 4 41.834 12 63.501
s20.333 41.334 37 59.001s38 32 64 43s56.667 16.5 92 16.5c56.667 0 101 -12.333 133 -37s48 -59.667 48 -105c0 -24 -5.16699 -45.667 -15.5 -65s-24.333 -37 -42 -53s-38.334 -30.5 -62.001 -43.5s-49.167 -24.5 -76.5 -34.5l160 -190
c15.333 21.333 28.166 43.833 38.499 67.5s15.5 45.167 15.5 64.5c0 16 -4.66699 27 -14 33s-26.666 9.66699 -51.999 11l7 35h209l-7 -35c-13.333 0 -24.5 -1.16699 -33.5 -3.5s-16.667 -5.83301 -23 -10.5s-12 -10.834 -17 -18.501s-10.167 -17.167 -15.5 -28.5z
M240 33.001c34 0 66 6.33398 96 19.001s57.667 29.667 83 51l-182 218c-40 -19.333 -70.5 -41.833 -91.5 -67.5s-31.5 -59.834 -31.5 -102.501c0 -35.333 11 -63.833 33 -85.5s53 -32.5 93 -32.5zM298 390.002c20 11.333 38 22.501 54 33.501s29.333 22.833 40 35.5
s18.834 26.667 24.501 42s8.5 33.333 8.5 54c0 32.667 -8.33301 57.5 -25 74.5s-39.334 25.5 -68.001 25.5c-15.333 0 -30 -2.66699 -44 -8s-26.167 -13 -36.5 -23s-18.5 -22.333 -24.5 -37s-9 -31.334 -9 -50.001c0 -24.667 5.83301 -47 17.5 -67s27.167 -40.667 46.5 -62z
" />
    <glyph glyph-name="quotesingle" unicode="'" horiz-adv-x="255" 
d="M116 453l50 256h85l-50 -256h-85z" />
    <glyph glyph-name="parenleft" unicode="(" horiz-adv-x="366" 
d="M241 -159c-26.667 13.333 -51.1699 30.667 -73.5029 52s-41.5 46.5 -57.5 75.5s-28.333 61.167 -37 96.5s-13 73.666 -13 114.999c0 56 6.83301 112.833 20.5 170.5s34.834 113 63.501 166s65.334 102 110.001 147s98.334 82.167 161.001 111.5l18 -34
c-52.667 -30.667 -97.167 -69 -133.5 -115s-65.833 -95.5 -88.5 -148.5s-39.167 -106.833 -49.5 -161.5s-15.5 -106 -15.5 -154c0 -68.667 10.333 -128.167 31 -178.5s50 -87.166 88 -110.499z" />
    <glyph glyph-name="parenright" unicode=")" horiz-adv-x="366" 
d="M157 775c26.667 -13.333 51.1699 -30.667 73.5029 -52s41.5 -46.5 57.5 -75.5s28.333 -61.167 37 -96.5s13 -73.666 13 -114.999c0 -56 -6.83301 -112.833 -20.5 -170.5s-34.834 -113 -63.501 -166s-65.334 -102 -110.001 -147s-98.334 -82.167 -161.001 -111.5l-18 34
c52.667 30.667 97.167 69 133.5 115s65.833 95.5 88.5 148.5s39.167 106.833 49.5 161.5s15.5 106 15.5 154c0 68.667 -10.333 128.167 -31 178.5s-50 87.166 -88 110.499z" />
    <glyph glyph-name="asterisk" unicode="*" horiz-adv-x="458" 
d="M282 465l8 -144l-46 -10l-42 139l-131 -54l-21 40l115 85l-86 112l30 31l112 -87l77 121l38 -18l-45 -136l137 -33l-6 -44z" />
    <glyph glyph-name="plus" unicode="+" horiz-adv-x="580" 
d="M367 507l-41 -209h204l-10 -53h-204l-41 -211h-59l41 211h-202l10 53h202l41 209h59z" />
    <glyph glyph-name="comma" unicode="," horiz-adv-x="264" 
d="M199 42c0 -22 -4.83398 -42.5 -14.501 -61.5s-22.167 -36.167 -37.5 -51.5s-33.166 -28.5 -53.499 -39.5s-40.833 -19.5 -61.5 -25.5l-17 29c28.667 11.333 52.5 24.5 71.5 39.5s28.5 30.167 28.5 45.5c0 10 -3 16.667 -9 20s-13 7 -21 11c-22 10 -33 28.333 -33 55
c0 20.667 6.16699 37 18.5 49s28.833 18 49.5 18c23.333 0 42.333 -8.33301 57 -25s22 -38 22 -64z" />
    <glyph glyph-name="hyphen" unicode="-" horiz-adv-x="313" 
d="M48 235l13 71h203l-13 -71h-203z" />
    <glyph glyph-name="period" unicode="." horiz-adv-x="252" 
d="M187 59c0 -20.667 -6.66699 -38 -20 -52s-30.333 -21 -51 -21s-37.667 7 -51 21s-20 31.333 -20 52s6.66699 38 20 52s30.333 21 51 21s37.667 -7 51 -21s20 -31.333 20 -52z" />
    <glyph glyph-name="slash" unicode="/" horiz-adv-x="395" 
d="M18 -149h-68l436 910h69z" />
    <glyph glyph-name="zero" unicode="0" 
d="M564 428c0 -60 -7.49902 -116.668 -22.499 -170.001s-36.167 -100.166 -63.5 -140.499s-60.833 -72.333 -100.5 -96s-83.834 -35.5 -132.501 -35.5c-63.333 0 -113.333 19.5 -150 58.5s-55 98.5 -55 178.5c0 54 7 107.667 21 161s34.667 101 62 143
s60.833 76.167 100.5 102.5s85.5 39.5 137.5 39.5c66.667 0 117.167 -21 151.5 -63s51.5 -101.333 51.5 -178zM256.001 32.999c24 0 45.5 5.83203 64.5 17.499s36.167 27.167 51.5 46.5c16.667 22 30.834 47.333 42.501 76s21.334 58.334 29.001 89.001s13.167 61 16.5 91
s5 56.667 5 80c0 61.333 -9 108 -27 140s-47 48 -87 48c-24 0 -46.167 -6.5 -66.5 -19.5s-38.833 -30.167 -55.5 -51.5c-14.667 -19.333 -27.834 -41.333 -39.501 -66s-21.5 -51 -29.5 -79s-14 -56.667 -18 -86s-6 -58 -6 -86c0 -63.333 9.16699 -112.5 27.5 -147.5
s49.166 -52.5 92.499 -52.5z" />
    <glyph glyph-name="one" unicode="1" 
d="M311 108c-1.33301 -6.66699 -2 -11.667 -2 -15c0 -19.333 9.5 -33.333 28.5 -42s51.5 -13 97.5 -13h12l-7 -38h-384l7 38h5c43.333 0 78 4.33301 104 13s42.333 28 49 58l96 456l-76.5 -35c-25.667 -11.333 -52.167 -21 -79.5 -29l-6 33l215 123h58z" />
    <glyph glyph-name="two" unicode="2" 
d="M335 667c54 0 96.668 -13.501 128.001 -40.501s47 -64.833 47 -113.5c0 -34.667 -6.83301 -67.167 -20.5 -97.5s-32.834 -60.166 -57.501 -89.499s-54.5 -59.166 -89.5 -89.499l-116.5 -97.5l-82 -66h334l-27 -73h-422l9 46l185 162c30.667 26.667 57.667 52 81 76
s43 47.667 59 71s28 47.166 36 71.499s12 50.5 12 78.5c0 30 -9 54 -27 72s-43 27 -75 27c-33.333 0 -63 -6.83301 -89 -20.5s-48 -29.5 -66 -47.5l-29 31c27.333 32 58.5 56.667 93.5 74s73.833 26 116.5 26z" />
    <glyph glyph-name="three" unicode="3" 
d="M312 602c-31.333 0 -58.999 -5.83008 -82.999 -17.4971s-47.333 -26.834 -70 -45.501l-29 33c28 29.333 59.833 52.333 95.5 69s72.167 25 109.5 25c25.333 0 48.5 -3 69.5 -9s39.167 -15 54.5 -27s27.333 -27.333 36 -46s13 -40.334 13 -65.001
c0 -18.667 -3.66699 -37 -11 -55s-17.833 -35 -31.5 -51s-30 -30.333 -49 -43s-40.167 -23 -63.5 -31c38 -8 67.333 -22.167 88 -42.5s31 -50.833 31 -91.5c0 -38.667 -9.66699 -72.834 -29 -102.501s-44.5 -54.5 -75.5 -74.5s-66 -35.167 -105 -45.5
s-78.167 -15.5 -117.5 -15.5c-14.667 0 -27.5 0.333008 -38.5 1s-21 1.66699 -30 3s-17.5 3 -25.5 5s-16 4.33301 -24 7l-11 42c16 -2.66699 32.833 -5 50.5 -7s38.167 -3 61.5 -3c32 0 62.667 4.16699 92 12.5s55.166 21 77.499 38s40.333 38.167 54 63.5
s20.5 55.333 20.5 90c0 37.333 -11.667 62.5 -35 75.5s-56.333 19.5 -99 19.5c-7.33301 0 -14.5 -0.166992 -21.5 -0.5s-14.833 -0.833008 -23.5 -1.5l9 52c16 -2 34.667 -3 56 -3c22.667 0 43.5 3.83301 62.5 11.5s35 18.167 48 31.5s23.167 29.333 30.5 48s11 39 11 61
c0 30 -8.33301 52.333 -25 67s-41 22 -73 22z" />
    <glyph glyph-name="four" unicode="4" 
d="M346 164l-303 0.000976562l9 42l318 453h98l-342 -446h231c11.333 53.333 25.5 102.666 42.5 147.999s35.833 88 56.5 128l55 10l-61 -286h84l-11 -49h-84l-38 -178l-97 -19z" />
    <glyph glyph-name="five" unicode="5" 
d="M468 227c0 -44.667 -8.83105 -83.3369 -26.498 -116.004s-41 -59.667 -70 -81s-62.333 -37.166 -100 -47.499s-76.5 -15.5 -116.5 -15.5c-27.333 0 -51 2 -71 6s-38 9 -54 15l-9 46c16.667 -5.33301 34.667 -9.66602 54 -12.999s40.666 -5 63.999 -5
c32 0 61.833 3.66699 89.5 11s52 19 73 35s37.5 36.333 49.5 61s18 54.334 18 89.001c0 74.667 -35 112 -105 112c-25.333 0 -48.333 -2.16699 -69 -6.5s-41.667 -10.166 -63 -17.499l93 352h319l-30 -75h-250l-56 -210c15.333 4 30.166 7.16699 44.499 9.5
s30.833 3.5 49.5 3.5c24 0 46 -3.33301 66 -10s37.5 -16.5 52.5 -29.5s26.667 -29 35 -48s12.5 -40.833 12.5 -65.5z" />
    <glyph glyph-name="six" unicode="6" 
d="M549 659c-91.333 -36 -166.167 -80.333 -224.5 -133s-102.833 -114.334 -133.5 -185.001c19.333 18.667 45.5 34.167 78.5 46.5s67.167 18.5 102.5 18.5c22 0 42.167 -3.83301 60.5 -11.5s34.333 -18.667 48 -33s24.167 -31.666 31.5 -51.999s11 -42.833 11 -67.5
c0 -38 -6.66699 -72.667 -20 -104s-31.166 -58.166 -53.499 -80.499s-48.5 -39.833 -78.5 -52.5s-61.333 -19 -94 -19c-62.667 0 -112.167 18.5 -148.5 55.5s-54.5 90.833 -54.5 161.5c0 66 13 125.333 39 178s60.5 99.5 103.5 140.5s92.667 76.167 149 105.5
s115.166 53.666 176.499 72.999zM423.999 232c0 75.333 -30.334 113.004 -91.001 113.004c-10 0 -21.5 -1 -34.5 -3s-26.5 -5.16699 -40.5 -9.5s-28 -9.83301 -42 -16.5s-27 -14.334 -39 -23.001c-4 -13.333 -7.33301 -28.833 -10 -46.5s-4 -35.834 -4 -54.501
c0 -19.333 1.83301 -38.5 5.5 -57.5s9.83398 -36 18.501 -51s20.5 -27 35.5 -36s33.5 -13.5 55.5 -13.5c20.667 0 40 4.83301 58 14.5s33.5 23.167 46.5 40.5s23.167 38.166 30.5 62.499s11 51.166 11 80.499z" />
    <glyph glyph-name="seven" unicode="7" 
d="M564 587c-36 -37.333 -70 -79.3271 -102 -125.994s-62.167 -95.834 -90.5 -147.501s-55 -104.834 -80 -159.501s-48.5 -108.667 -70.5 -162l-111 -26c22.667 51.333 48.834 104.666 78.501 159.999s61.167 109.666 94.5 162.999s68.166 104.666 104.499 153.999
s72.5 93.666 108.5 132.999h-352l28 75h419z" />
    <glyph glyph-name="eight" unicode="8" 
d="M558 521c0 -42 -14.168 -78.333 -42.501 -109s-70.833 -53.667 -127.5 -69c24 -13.333 44 -26.333 60 -39s28.5 -25.5 37.5 -38.5s15.333 -26.5 19 -40.5s5.5 -28.333 5.5 -43c0 -26 -5.33301 -50.833 -16 -74.5s-26.167 -44.5 -46.5 -62.5s-45.5 -32.333 -75.5 -43
s-64 -16 -102 -16c-36 0 -68 4.5 -96 13.5s-51.5 21.333 -70.5 37s-33.5 34.167 -43.5 55.5s-15 44.333 -15 69c0 26 5.83301 49 17.5 69s27 37.333 46 52s40.167 27.167 63.5 37.5s47 18.833 71 25.5c-29.333 14.667 -53.333 35.334 -72 62.001s-28 54.667 -28 84
c0 25.333 5.33301 49 16 71s25.5 41.167 44.5 57.5s41.833 29.166 68.5 38.499s56.334 14 89.001 14c32 0 60.333 -4.16699 85 -12.5s45.167 -19.5 61.5 -33.5s28.833 -30 37.5 -48s13 -37 13 -57zM416.999 170c0 13.333 -1.66504 25.668 -4.99805 37.001
s-9.83301 22.833 -19.5 34.5s-23.334 23.667 -41.001 36s-41.167 25.833 -70.5 40.5c-18.667 -6.66699 -36.5 -15 -53.5 -25s-32 -21.833 -45 -35.5s-23.5 -28.834 -31.5 -45.501s-12 -35 -12 -55c0 -38 10.5 -68.5 31.5 -91.5s54.5 -34.5 100.5 -34.5
c24 0 45.167 3.66699 63.5 11s33.666 17.333 45.999 30s21.5 27.5 27.5 44.5s9 34.833 9 53.5zM470.001 526.002c0 28 -8.99902 51.167 -26.999 69.5s-46.667 27.5 -86 27.5c-36 0 -65.333 -10.833 -88 -32.5s-34 -50.5 -34 -86.5c0 -24.667 8.5 -47.5 25.5 -68.5
s46.167 -42.167 87.5 -63.5c26.667 8.66699 48.167 19.167 64.5 31.5s28.666 25.5 36.999 39.5s13.833 28.167 16.5 42.5s4 27.833 4 40.5z" />
    <glyph glyph-name="nine" unicode="9" 
d="M536 451c0 -74.667 -13.832 -140.329 -41.499 -196.996s-64.667 -105.334 -111 -146.001s-100.166 -73.834 -161.499 -99.501s-125.333 -44.834 -192 -57.501l-25 40c48.667 11.333 95 27.333 139 48s83.667 44 119 70s65.666 53.5 90.999 82.5s44 57.833 56 86.5
c-17.333 -12 -38.5 -23 -63.5 -33s-54.5 -15 -88.5 -15c-26.667 0 -51 4.16699 -73 12.5s-40.833 20.166 -56.5 35.499s-27.834 33.833 -36.501 55.5s-13 45.834 -13 72.501c0 36.667 6.66699 71 20 103s31.5 60 54.5 84s50 42.833 81 56.5s64.167 20.5 99.5 20.5
c61.333 0 110.333 -18.833 147 -56.5s55 -91.834 55 -162.501zM426.001 337.005c6.66699 16 11.8311 34.502 15.498 55.502s5.5 42.167 5.5 63.5c0 20.667 -2 40.667 -6 60s-10.5 36.666 -19.5 51.999s-20.833 27.666 -35.5 36.999s-32.667 14 -54 14
c-23.333 0 -44.666 -5.16699 -63.999 -15.5s-36 -24.5 -50 -42.5s-25 -39.667 -33 -65s-12 -53 -12 -83c0 -39.333 8.83301 -70 26.5 -92s44.5 -33 80.5 -33c23.333 0 47.333 3.16699 72 9.5s49.334 19.5 74.001 39.5z" />
    <glyph glyph-name="colon" unicode=":" horiz-adv-x="339" 
d="M207 59c0 -20.667 -6.66699 -38 -20 -52s-30.333 -21 -51 -21s-37.667 7 -51 21s-20 31.333 -20 52s6.66699 38 20 52s30.333 21 51 21s37.667 -7 51 -21s20 -31.333 20 -52zM274 373c0 -20.667 -6.66699 -38 -20 -52s-30.333 -21 -51 -21s-37.667 7 -51 21
s-20 31.333 -20 52s6.66699 38 20 52s30.333 21 51 21s37.667 -7 51 -21s20 -31.333 20 -52z" />
    <glyph glyph-name="semicolon" unicode=";" horiz-adv-x="328" 
d="M263 373c0 -20.667 -6.66699 -38 -20 -52s-30.333 -21 -51 -21s-37.667 7 -51 21s-20 31.333 -20 52s6.66699 38 20 52s30.333 21 51 21s37.667 -7 51 -21s20 -31.333 20 -52zM209 42c0 -22 -4.83398 -42.5 -14.501 -61.5s-22.167 -36.167 -37.5 -51.5
s-33.166 -28.5 -53.499 -39.5s-40.833 -19.5 -61.5 -25.5l-17 29c28.667 11.333 52.5 24.5 71.5 39.5s28.5 30.167 28.5 45.5c0 10 -3 16.667 -9 20s-13 7 -21 11c-22 10 -33 28.333 -33 55c0 20.667 6.16699 37 18.5 49s28.833 18 49.5 18c23.333 0 42.333 -8.33301 57 -25
s22 -38 22 -64z" />
    <glyph glyph-name="less" unicode="&#x3c;" horiz-adv-x="531" 
d="M65 254l14 72l412 232l-13 -72l-354 -196l282 -173l-12 -61z" />
    <glyph glyph-name="equal" unicode="=" horiz-adv-x="609" 
d="M65 226h465l-10 -53h-465zM94 374h465l-11 -53h-465z" />
    <glyph glyph-name="greater" unicode="&#x3e;" horiz-adv-x="524" 
d="M45 56l12 67l350 173l-278 196l13 66l322 -232l-14 -72z" />
    <glyph glyph-name="question" unicode="?" horiz-adv-x="443" 
d="M234 60c0 -20 -7 -37.167 -21 -51.5s-30.667 -21.5 -50 -21.5s-35.5 7.16699 -48.5 21.5s-19.5 31.5 -19.5 51.5c0 19.333 6.5 35.5 19.5 48.5s29.167 19.5 48.5 19.5s36 -6.5 50 -19.5s21 -29.167 21 -48.5zM269 654c-34 0 -59.335 -8 -76.002 -24s-29 -38.333 -37 -67
h-66l20 90c17.333 11.333 39.833 22 67.5 32s59.5 15 95.5 15c23.333 0 45.333 -2.33301 66 -7s38.667 -12 54 -22s27.5 -23.333 36.5 -40s13.5 -37 13.5 -61c0 -22.667 -3.33301 -43 -10 -61s-16.667 -34.833 -30 -50.5s-29.666 -30.5 -48.999 -44.5s-41.333 -28 -66 -42
c-22 -12.667 -39.333 -24.667 -52 -36s-22 -23.166 -28 -35.499s-9.83301 -25.5 -11.5 -39.5s-2.5 -29.333 -2.5 -46h-38c-3.33301 6 -6.66602 14.833 -9.99902 26.5s-5 25.167 -5 40.5c0 27.333 7.33301 52 22 74s37.334 43.667 68.001 65c19.333 13.333 36 25.333 50 36
s25.667 21.667 35 33s16.166 23.666 20.499 36.999s6.5 29.333 6.5 48c0 24.667 -6 44 -18 58s-30.667 21 -56 21z" />
    <glyph glyph-name="at" unicode="@" horiz-adv-x="906" 
d="M614 -1c-40.667 0 -70.6641 7.8291 -89.9971 23.4961s-29 41.5 -29 77.5v3c-13.333 -29.333 -31.333 -54 -54 -74s-53 -30 -91 -30c-36 0 -64.167 12 -84.5 36s-30.5 58 -30.5 102c0 48.667 7.83301 92.5 23.5 131.5s36.5 72.167 62.5 99.5s55.667 48.166 89 62.499
s67.666 21.5 102.999 21.5c32 0 58.667 -4.33301 80 -13s41 -21 59 -37c-2 -5.33301 -4.33301 -13 -7 -23l-8 -30.5c-2.66699 -10.333 -4.83398 -19.5 -6.50098 -27.5s-2.83398 -13 -3.50098 -15l-43 -175c-4.66699 -19.333 -7 -35.666 -7 -48.999c0 -17.333 4 -29 12 -35
s20.333 -9 37 -9c17.333 0 35 4.66699 53 14s34.5 23.333 49.5 42s27.333 42.167 37 70.5s14.5 61.833 14.5 100.5c0 54.667 -7.83301 102 -23.5 142s-37.167 72.833 -64.5 98.5s-59.833 44.667 -97.5 57s-78.5 18.5 -122.5 18.5c-50.667 0 -97.167 -9 -139.5 -27
s-78.833 -43.667 -109.5 -77s-54.5 -74 -71.5 -122s-25.5 -102 -25.5 -162c0 -47.333 7 -91.166 21 -131.499s34 -75 60 -104s57.833 -51.667 95.5 -68s80.167 -24.5 127.5 -24.5c36 0 66.5 2.16699 91.5 6.5s48.167 10.166 69.5 17.499l15 -30
c-26.667 -10.667 -54.667 -19.167 -84 -25.5s-64 -9.5 -104 -9.5c-54.667 0 -104.834 8.33301 -150.501 25s-85 40.834 -118 72.501s-58.667 70.334 -77 116.001s-27.5 97.834 -27.5 156.501c0 63.333 10.667 121.5 32 174.5s51 98.5 89 136.5s83.167 67.5 135.5 88.5
s109.833 31.5 172.5 31.5c58.667 0 111.834 -8.16699 159.501 -24.5s88.334 -39.833 122.001 -70.5s59.667 -67.5 78 -110.5s27.5 -90.833 27.5 -143.5c0 -49.333 -7 -91.5 -21 -126.5s-32.667 -63.667 -56 -86s-49.833 -38.666 -79.5 -48.999s-59.834 -15.5 -90.501 -15.5z
M554.003 375.996c-4 8 -10.668 15.001 -20.001 21.001s-20.666 9 -33.999 9c-28 0 -52.833 -7.16699 -74.5 -21.5s-39.834 -33.5 -54.501 -57.5s-25.834 -51.833 -33.501 -83.5s-11.5 -64.834 -11.5 -99.501c0 -30.667 5 -52.167 15 -64.5s23 -18.5 39 -18.5
c13.333 0 25.833 3.5 37.5 10.5s22.834 16.5 33.501 28.5s20.834 25.667 30.501 41l29.5 48z" />
    <glyph glyph-name="A" unicode="A" horiz-adv-x="643" 
d="M419 215l-225.999 0.00195312l-55 -108c-10 -19.333 -15 -34 -15 -44c0 -10.667 5.16699 -17.834 15.5 -21.501s25.833 -5.83398 46.5 -6.50098l-7 -35h-215l7 35c12.667 2 23.667 4.33301 33 7s18.166 7 26.499 13s16.333 14.167 24 24.5s16.167 24.166 25.5 41.499
l293 568h94l57 -566c2.66699 -29.333 9 -50.666 19 -63.999s27.667 -21.333 53 -24l-7 -35h-239l7 35c28 1.33301 47.167 6 57.5 14s15.5 21.667 15.5 41v5c0 2.66699 -0.333008 6.66699 -1 12zM218.001 263.002l196.999 0.000976562l-20 212c-2 22.667 -3.33301 42 -4 58
s-1 29 -1 39s0.166992 17.167 0.5 21.5s0.5 7.16602 0.5 8.49902h-6l-13 -33c-7.33301 -18.667 -19.666 -45 -36.999 -79z" />
    <glyph glyph-name="B" unicode="B" horiz-adv-x="606" 
d="M389 689c37.333 0 68.6689 -3.66992 94.002 -11.0029s45.666 -17.833 60.999 -31.5s26.166 -29.667 32.499 -48s9.5 -38.5 9.5 -60.5c0 -50 -14 -90.167 -42 -120.5s-67.667 -48.5 -119 -54.5v-4c40 -5.33301 72.333 -20.666 97 -45.999s37 -56 37 -92
c0 -34 -5.5 -65 -16.5 -93s-29.833 -53.333 -56.5 -76c-13.333 -11.333 -27.333 -20.333 -42 -27s-31.334 -11.834 -50.001 -15.501s-39.667 -6.16699 -63 -7.5s-50 -2 -80 -2h-263l6 35c16.667 0.666992 30.5 2.33398 41.5 5.00098s20 6.83398 27 12.501
s12.5 13.334 16.5 23.001s7.33301 21.5 10 35.5l91 467c1.33301 6.66699 2.33301 12.5 3 17.5s1 9.83301 1 14.5c0 16 -5.16699 27 -15.5 33s-28.166 9.66699 -53.499 11l6 35h268zM328.003 382.997c25.333 0 46.501 2.33301 63.501 7s33.167 13.667 48.5 27
s27.166 30 35.499 50s12.5 45 12.5 75c0 37.333 -9.5 63 -28.5 77s-50.833 21 -95.5 21h-74l-50 -257h88zM231.004 334.997l-55.999 -285.999h102c27.333 0 51.5 2.16699 72.5 6.5s38.5 12.166 52.5 23.499c15.333 13.333 27.666 31.333 36.999 54s14 51.667 14 87
c0 18 -2 34.167 -6 48.5s-11.167 26.333 -21.5 36s-24 17.167 -41 22.5s-38.5 8 -64.5 8h-89z" />
    <glyph glyph-name="C" unicode="C" horiz-adv-x="578" 
d="M300 33c40 0 71.6689 8.50195 95.002 25.502s42.666 45.167 57.999 84.5h66l-21 -105c-10 -6 -22.333 -12.167 -37 -18.5s-30.667 -12 -48 -17s-36 -9 -56 -12s-40.333 -4.5 -61 -4.5c-41.333 0 -76.833 5.83301 -106.5 17.5s-53.834 28.5 -72.501 50.5
s-32.334 48.667 -41.001 80s-13 66.666 -13 105.999c0 57.333 7.66699 113.666 23 168.999s38.333 104.5 69 147.5s68.834 77.667 114.501 104s98.5 39.5 158.5 39.5c22.667 0 42.5 -1.5 59.5 -4.5s32.167 -6.83301 45.5 -11.5s25 -10 35 -16s19 -12.333 27 -19l-22 -109
h-68c-1.33301 19.333 -3 36 -5 50s-6.16699 25.667 -12.5 35s-15.166 16.333 -26.499 21s-26.333 7 -45 7c-31.333 0 -59.333 -6.5 -84 -19.5s-46.167 -30.5 -64.5 -52.5s-34 -47.333 -47 -76s-23.333 -58.667 -31 -90s-13.334 -62.833 -17.001 -94.5
s-5.5 -61.167 -5.5 -88.5c0 -37.333 2.83301 -68.666 8.5 -93.999s14.167 -45.833 25.5 -61.5s25.333 -26.834 42 -33.501s35.667 -10 57 -10z" />
    <glyph glyph-name="D" unicode="D" horiz-adv-x="658" 
d="M-6 35c16.667 0.666992 30.499 2.32617 41.499 4.99316s20 6.83398 27 12.501s12.5 13.334 16.5 23.001s7.33301 21.5 10 35.5l91 467c1.33301 4.66699 2.33301 10.334 3 17.001s1 11.667 1 15c0 16 -5.16699 27 -15.5 33s-28.166 9.66699 -53.499 11l6 35h236
c42.667 0 81.167 -4.66699 115.5 -14s63.5 -24.166 87.5 -44.499s42.5 -46.166 55.5 -77.499s19.5 -69 19.5 -113c0 -33.333 -2.83301 -67.666 -8.5 -102.999s-13.834 -69.333 -24.501 -102s-23.667 -63 -39 -91s-32.666 -51.333 -51.999 -70
c-15.333 -15.333 -31.5 -27.666 -48.5 -36.999s-35.5 -16.833 -55.5 -22.5s-42.333 -9.5 -67 -11.5s-52.667 -3 -84 -3h-268zM290.999 641.992l-115.003 -591.001h84c20.667 0 40.167 0.833008 58.5 2.5s35.333 5.33398 51 11.001s30.334 13.5 44.001 23.5
s26.834 23 39.501 39c13.333 17.333 25 38.833 35 64.5s18.5 53 25.5 82s12.167 58.667 15.5 89s5 58.833 5 85.5c0 29.333 -2.33301 56 -7 80s-13.167 44.5 -25.5 61.5s-29.666 30 -51.999 39s-51.5 13.5 -87.5 13.5h-71z" />
    <glyph glyph-name="E" unicode="E" horiz-adv-x="568" 
d="M-6 35c16.667 0.666992 30.5 2.33105 41.5 4.99805s20 6.83398 27 12.501s12.5 13.334 16.5 23.001s7.33301 21.5 10 35.5l91 467c1.33301 5.33301 2.33301 10.833 3 16.5s1 10.834 1 15.501c0 16 -5.16699 27 -15.5 33s-28.166 9.66699 -53.499 11l6 35h469l-19 -150
h-42c-2 18.667 -4.33301 34.5 -7 47.5s-6.66699 23.5 -12 31.5s-12.5 13.667 -21.5 17s-20.833 5 -35.5 5h-163l-50 -256h89c15.333 0 28.5 1 39.5 3s20.333 5.66699 28 11s14 12.666 19 21.999s9.5 21 13.5 35h41l-37 -190h-41c3.33301 27.333 0.166016 46 -9.50098 56
s-30.167 15 -61.5 15h-90l-56 -287h164c19.333 0 35.5 1.66699 48.5 5s24.167 9.33301 33.5 18s17.5 20.5 24.5 35.5s13.833 34.167 20.5 57.5h45l-32 -165h-491z" />
    <glyph glyph-name="F" unicode="F" horiz-adv-x="543" 
d="M187 114c-1.33301 -6 -2.33496 -12.002 -3.00195 -18.002s-1 -10.667 -1 -14c0 -16.667 5.66699 -28.334 17 -35.001s31 -10.667 59 -12l-6 -35h-265l6 35c16.667 0.666992 30.5 2.33398 41.5 5.00098s20 6.83398 27 12.501s12.5 13.334 16.5 23.001
s7.33301 21.5 10 35.5l91 467c1.33301 5.33301 2.33301 10.833 3 16.5s1 10.834 1 15.501c0 16 -5.16699 27 -15.5 33s-28.166 9.66699 -53.499 11l6 35h464l-18 -155h-42c-3.33301 22 -6.5 39.833 -9.5 53.5s-7.5 24.5 -13.5 32.5s-13.833 13.333 -23.5 16
s-22.167 4 -37.5 4h-152l-53 -272h83c15.333 0 28.5 1 39.5 3s20.333 5.66699 28 11s14 12.666 19 21.999s9.5 21 13.5 35h41l-38 -193h-41c3.33301 28 0.333008 47.333 -9 58s-29.666 16 -60.999 16h-84z" />
    <glyph glyph-name="G" unicode="G" horiz-adv-x="648" 
d="M316 33c21.333 0 42.1689 2.50684 62.502 7.50684s38.166 12.5 53.499 22.5l31 163c1.33301 6 2.33301 12 3 18s1 10.667 1 14c0 16 -5.66699 27 -17 33s-32 9.66699 -62 11l7 35h250l-7 -35c-13.333 -0.666992 -24.333 -2.33398 -33 -5.00098s-16 -6.83398 -22 -12.501
s-11 -13.334 -15 -23.001s-7.33301 -21.5 -10 -35.5l-37 -189c-31.333 -17.333 -65.833 -30.166 -103.5 -38.499s-71.834 -12.5 -102.501 -12.5c-44.667 0 -83 6 -115 18s-58.167 29 -78.5 51s-35.166 49 -44.499 81s-14 68 -14 108c0 54 7.5 108 22.5 162
s37.667 102.667 68 146s68.333 78.666 114 105.999s99.167 41 160.5 41c26 0 48.5 -1.33301 67.5 -4s35.833 -6.33398 50.5 -11.001s27.167 -10 37.5 -16s19.5 -12.333 27.5 -19l-22 -109h-68c-1.33301 19.333 -3.5 36 -6.5 50s-8.33301 25.667 -16 35
s-18.167 16.166 -31.5 20.499s-30.333 6.5 -51 6.5c-31.333 0 -59.333 -6.5 -84 -19.5s-46.167 -30.333 -64.5 -52s-34 -46.667 -47 -75s-23.333 -58 -31 -89s-13.334 -62.333 -17.001 -94s-5.5 -61.5 -5.5 -89.5c0 -37.333 3.33301 -68.833 10 -94.5
s16.167 -46.334 28.5 -62.001s27.833 -26.834 46.5 -33.501s40 -10 64 -10z" />
    <glyph glyph-name="H" unicode="H" horiz-adv-x="699" 
d="M559 111c-1.33301 -5.33301 -2.33301 -10.832 -3 -16.499s-1 -10.834 -1 -15.501c0 -16 5.16699 -27 15.5 -33s28.166 -9.66699 53.499 -11l-6 -35h-258l6 35c16.667 0.666992 30.5 2.33398 41.5 5.00098s20 6.83398 27 12.501s12.5 13.334 16.5 23.001
s7.33301 21.5 10 35.5l44 229h-274l-44 -229c-1.33301 -5.33301 -2.33301 -10.833 -3 -16.5s-1 -10.834 -1 -15.501c0 -16 5.16699 -27 15.5 -33s28.166 -9.66699 53.499 -11l-6 -35h-258l6 35c16.667 0.666992 30.5 2.33398 41.5 5.00098s20 6.83398 27 12.501
s12.5 13.334 16.5 23.001s7.33301 21.5 10 35.5l91 467c1.33301 5.33301 2.33301 11 3 17s1 11 1 15c0 16 -5.16699 27 -15.5 33s-28.166 9.66699 -53.499 11l6 35h258l-6 -35c-17.333 -0.666992 -31.333 -2.33398 -42 -5.00098s-19.5 -6.83398 -26.5 -12.501
s-12.5 -13.334 -16.5 -23.001s-7.33301 -21.5 -10 -35.5l-37 -188h274l37 188c1.33301 5.33301 2.33301 10.833 3 16.5s1 10.834 1 15.501c0 16 -5.16699 27 -15.5 33s-28.166 9.66699 -53.499 11l6 35h258l-6 -35c-17.333 -0.666992 -31.333 -2.33398 -42 -5.00098
s-19.5 -6.83398 -26.5 -12.501s-12.5 -13.334 -16.5 -23.001s-7.33301 -21.5 -10 -35.5z" />
    <glyph glyph-name="I" unicode="I" horiz-adv-x="327" 
d="M187 111c-1.33301 -5.33301 -2.33301 -10.833 -3 -16.5s-1 -10.834 -1 -15.501c0 -16 5.16699 -27 15.5 -33s28.166 -9.66699 53.499 -11l-6 -35h-258l6 35c16.667 0.666992 30.5 2.33398 41.5 5.00098s20 6.83398 27 12.501s12.5 13.334 16.5 23.001
s7.33301 21.5 10 35.5l91 467c1.33301 5.33301 2.33301 10.833 3 16.5s1 10.834 1 15.501c0 16 -5.16699 27 -15.5 33s-28.166 9.66699 -53.499 11l6 35h258l-6 -35c-17.333 -0.666992 -31.333 -2.33398 -42 -5.00098s-19.5 -6.83398 -26.5 -12.501
s-12.5 -13.334 -16.5 -23.001s-7.33301 -21.5 -10 -35.5z" />
    <glyph glyph-name="J" unicode="J" horiz-adv-x="336" 
d="M190 108c-8 -39.333 -17.833 -72.998 -29.5 -100.998s-26.834 -51.833 -45.501 -71.5s-41.5 -36 -68.5 -49s-59.167 -24.167 -96.5 -33.5l-17 37c28 11.333 51 23.333 69 36s32.667 27.334 44 44.001s20.333 35.5 27 56.5s12.667 45.5 18 73.5l93 478
c1.33301 6.66699 2.33301 12.5 3 17.5s1 9.83301 1 14.5c0 16 -5.16699 27 -15.5 33s-28.166 9.66699 -53.499 11l6 35h258l-6 -35c-17.333 -0.666992 -31.333 -2.33398 -42 -5.00098s-19.5 -6.83398 -26.5 -12.501s-12.5 -13.334 -16.5 -23.001s-7.33301 -21.5 -10 -35.5z
" />
    <glyph glyph-name="K" unicode="K" horiz-adv-x="622" 
d="M344 385l149 -301c9.33301 -18 20.5 -30.167 33.5 -36.5s32.167 -10.5 57.5 -12.5l-6 -35h-154l-171 364l212 212c13.333 13.333 22.333 23.833 27 31.5s7 14.834 7 21.501c0 15.333 -16 23.666 -48 24.999l6 35h212l-6 -35c-12.667 -2 -24 -5 -34 -9
s-20.667 -10.167 -32 -18.5s-23.833 -19 -37.5 -32l-49.5 -47.5zM187 111c-1.33301 -5.33301 -2.33301 -10.833 -3 -16.5s-1 -10.834 -1 -15.501c0 -16 5.16699 -27 15.5 -33s28.166 -9.66699 53.499 -11l-6 -35h-258l6 35c16.667 0.666992 30.5 2.33398 41.5 5.00098
s20 6.83398 27 12.501s12.5 13.334 16.5 23.001s7.33301 21.5 10 35.5l91 467c1.33301 5.33301 2.33301 10.833 3 16.5s1 10.834 1 15.501c0 16 -5.16699 27 -15.5 33s-28.166 9.66699 -53.499 11l6 35h258l-6 -35c-17.333 -0.666992 -31.333 -2.33398 -42 -5.00098
s-19.5 -6.83398 -26.5 -12.501s-12.5 -13.334 -16.5 -23.001s-7.33301 -21.5 -10 -35.5z" />
    <glyph glyph-name="L" unicode="L" horiz-adv-x="532" 
d="M316 49c18 0 33.666 1.99707 46.999 5.99707s25.333 10.667 36 20s20.334 21.666 29.001 36.999s17.667 34.333 27 57h44l-47 -169h-464l6 35c16.667 0.666992 30.5 2.33398 41.5 5.00098s20 6.83398 27 12.501s12.5 13.334 16.5 23.001s7.33301 21.5 10 35.5l91 467
c1.33301 5.33301 2.33301 10.833 3 16.5s1 10.834 1 15.501c0 16 -5.16699 27 -15.5 33s-28.166 9.66699 -53.499 11l6 35h263l-6 -35c-18 -0.666992 -32.833 -2.5 -44.5 -5.5s-21.334 -7.5 -29.001 -13.5s-13.5 -14 -17.5 -24s-7.33301 -22 -10 -36l-102 -526h141z" />
    <glyph glyph-name="M" unicode="M" horiz-adv-x="831" 
d="M862 654c-18 -1.33301 -32.6641 -3.49902 -43.9971 -6.49902s-20.5 -7.5 -27.5 -13.5s-12.167 -13.5 -15.5 -22.5s-6 -20.167 -8 -33.5l-60 -464c-1.33301 -6.66699 -2 -12.334 -2 -17.001v-14c0 -17.333 4 -29.333 12 -36s23 -10.667 45 -12l-6 -35h-241l6 35
c16 0.666992 29.333 2.16699 40 4.5s19.167 6.16602 25.5 11.499s11.166 12.5 14.499 21.5s6 20.5 8 34.5l52 366c1.33301 10 3.16602 21.167 5.49902 33.5l6.5 35.5c2 11.333 4 21.5 6 30.5s3.33301 15.167 4 18.5h-6l-7.5 -19l-12 -30.5l-13.5 -33
c-4.66699 -11 -9 -19.833 -13 -26.5l-253 -482h-58l-50 460c-1.33301 11.333 -2.5 23.833 -3.5 37.5s-1.83301 26.834 -2.5 39.501s-1.16699 24 -1.5 34s-0.5 17 -0.5 21h-6l-3.5 -22c-1.66699 -10.667 -3.66699 -22.5 -6 -35.5s-4.83301 -26.167 -7.5 -39.5
s-5.33398 -25 -8.00098 -35l-91 -352c-2 -8 -3.66699 -15 -5 -21s-2 -11.667 -2 -17c0 -12.667 4.83301 -21.5 14.5 -26.5s26.834 -7.83301 51.501 -8.5l-6 -35h-210l6 35c14.667 0.666992 26.667 2.33398 36 5.00098s17.166 7 23.499 13s11.666 13.833 15.999 23.5
s8.5 22.167 12.5 37.5l122 464c2 7.33301 3.5 14 4.5 20s1.5 10.667 1.5 14c0 14.667 -5.5 25 -16.5 31s-29.167 9.66699 -54.5 11l6 35h195l47 -438c1.33301 -13.333 2.33301 -25 3 -35s1.33398 -19.5 2.00098 -28.5s1 -18.167 1 -27.5v-43h6
c0.666992 2.66699 2.16699 8.16699 4.5 16.5s5.5 18.166 9.5 29.499s9 24 15 38s12.667 28.333 20 43l227 445h198z" />
    <glyph glyph-name="N" unicode="N" horiz-adv-x="669" 
d="M461 0l-171.002 408c-19.333 46.667 -32.5 85 -39.5 115s-10.833 48.333 -11.5 55h-6c0 -4 -0.5 -11.5 -1.5 -22.5s-2.33301 -24.667 -4 -41s-4 -34.833 -7 -55.5s-6.83301 -42.334 -11.5 -65.001l-55 -283c-1.33301 -6.66699 -2.33301 -12.834 -3 -18.501
s-1 -10.167 -1 -13.5c0 -16 5.16699 -27 15.5 -33s28.166 -9.66699 53.499 -11l-6 -35h-225l6 35c16.667 0.666992 30.5 2.33398 41.5 5.00098s20 6.83398 27 12.501s12.5 13.334 16.5 23.001s7.33301 21.5 10 35.5l91 467c1.33301 5.33301 2.33301 10.833 3 16.5
s1 10.834 1 15.501c0 16 -5.16699 27 -15.5 33s-28.166 9.66699 -53.499 11l6 35h156l174 -418c14.667 -36 24.834 -67.333 30.501 -94s8.83398 -43.334 9.50098 -50.001h6c0.666992 8.66699 3 31.834 7 69.501s11 83.167 21 136.5l48 245
c1.33301 5.33301 2.33301 10.833 3 16.5s1 10.834 1 15.501c0 16 -5.16699 27 -15.5 33s-28.166 9.66699 -53.499 11l6 35h217l-6 -35c-15.333 -0.666992 -28 -2.33398 -38 -5.00098s-18.167 -6.83398 -24.5 -12.501s-11.333 -13.334 -15 -23.001
s-6.83398 -21.5 -9.50098 -35.5l-112 -578h-65z" />
    <glyph glyph-name="O" unicode="O" horiz-adv-x="673" 
d="M650 438c0 -31.333 -2.66992 -64.334 -8.00293 -99.001s-13.833 -68.667 -25.5 -102s-26.667 -65.166 -45 -95.499s-40.166 -57 -65.499 -80s-54.333 -41.333 -87 -55s-69.667 -20.5 -111 -20.5c-78 0 -138.333 23.167 -181 69.5s-64 111.833 -64 196.5
c0 30.667 2.83301 63.167 8.5 97.5s14.334 68.166 26.001 101.499s26.834 65 45.501 95s40.834 56.333 66.501 79s55.167 40.834 88.5 54.501s70.666 20.5 111.999 20.5c36 0 68.667 -5.5 98 -16.5s54.5 -27.5 75.5 -49.5s37.333 -49.333 49 -82s17.5 -70.667 17.5 -114z
M545.997 466.999c0 60.667 -10.4971 106.665 -31.4971 137.998s-56.167 47 -105.5 47c-36.667 0 -67.334 -7.5 -92.001 -22.5s-46.334 -37.5 -65.001 -67.5c-15.333 -23.333 -28.333 -49.666 -39 -78.999s-19.5 -59.333 -26.5 -90s-12 -61 -15 -91s-4.5 -57.667 -4.5 -83
c0 -67.333 11.333 -115.166 34 -143.499s58 -42.5 106 -42.5c34 0 63 7.33301 87 22s45.667 37.667 65 69c14.667 24 27.5 51 38.5 81s20.167 60.5 27.5 91.5s12.666 61.333 15.999 91s5 56.167 5 79.5z" />
    <glyph glyph-name="P" unicode="P" horiz-adv-x="569" 
d="M187 114c-2.66699 -13.333 -4.00098 -24.0059 -4.00098 -32.0059c0 -17.333 5.66699 -29.166 17 -35.499s31 -10.166 59 -11.499l-6 -35h-265l6 35c16.667 0.666992 30.5 2.33398 41.5 5.00098s20 6.83398 27 12.501s12.5 13.334 16.5 23.001s7.33301 21.5 10 35.5
l91 467c1.33301 5.33301 2.33301 10.833 3 16.5s1 10.834 1 15.501c0 16 -5.16699 27 -15.5 33s-28.166 9.66699 -53.499 11l6 35h230c84 0 144.167 -13.5 180.5 -40.5s54.5 -69.833 54.5 -128.5c0 -49.333 -11.5 -91.333 -34.5 -126s-51.833 -60.667 -86.5 -78
c-23.333 -12 -48.833 -19.833 -76.5 -23.5s-57.167 -5.5 -88.5 -5.5h-80zM484.999 521.994c0 19.333 -1.83203 36.333 -5.49902 51s-10.334 27 -20.001 37s-22.5 17.5 -38.5 22.5s-36 7.5 -60 7.5h-72l-59 -305h76c21.333 0 41 1.5 59 4.5s34.667 10.167 50 21.5
c20 14.667 36.667 35.5 50 62.5s20 59.833 20 98.5z" />
    <glyph glyph-name="Q" unicode="Q" horiz-adv-x="673" 
d="M650 438c0 -29.333 -2.49805 -60.1689 -7.49805 -92.502s-12.833 -64.166 -23.5 -95.499s-24 -61.666 -40 -90.999s-35.167 -55.666 -57.5 -78.999s-47.666 -42.833 -75.999 -58.5s-59.833 -25.5 -94.5 -29.5l45.5 -11.5c17 -4.33301 34.5 -8.5 52.5 -12.5
s35.833 -7.33301 53.5 -10s34.5 -4 50.5 -4c9.33301 0 20.833 0.666992 34.5 2s26.167 4 37.5 8l-27 -76c-6.66699 -3.33301 -17.5 -5.83301 -32.5 -7.5s-28.833 -2.5 -41.5 -2.5c-24.667 0 -48.334 4.33301 -71.001 13s-45.834 19.167 -69.501 31.5l-74.5 38.5
c-26 13.333 -54.667 25 -86 35c-54.667 17.333 -95 47.666 -121 90.999s-39 98.333 -39 165c0 30.667 2.83301 63.167 8.5 97.5s14.5 68.166 26.5 101.499s27.167 65 45.5 95s40.5 56.333 66.5 79s55.667 40.834 89 54.501s70.666 20.5 111.999 20.5
c36 0 68.667 -5.5 98 -16.5s54.5 -27.5 75.5 -49.5s37.167 -49.333 48.5 -82s17 -70.667 17 -114zM546.002 466.997c0 60 -10.332 105.831 -30.999 137.498s-55.667 47.5 -105 47.5c-36.667 0 -67.5 -7.5 -92.5 -22.5s-46.833 -37.5 -65.5 -67.5
c-15.333 -23.333 -28.333 -49.666 -39 -78.999s-19.5 -59.333 -26.5 -90s-12 -61 -15 -91s-4.5 -57.667 -4.5 -83c0 -67.333 10.833 -115.166 32.5 -143.499s56.5 -42.5 104.5 -42.5c34 0 63.5 7.33301 88.5 22s47.167 37.667 66.5 69c14.667 24 27.5 51 38.5 81
s20.167 60.5 27.5 91.5s12.666 61.333 15.999 91s5 56.167 5 79.5z" />
    <glyph glyph-name="R" unicode="R" horiz-adv-x="612" 
d="M236 362l75.999 0.000976562c54 0 95.167 13.667 123.5 41s42.5 68.333 42.5 123c0 43.333 -10.667 73.166 -32 89.499s-53.666 24.5 -96.999 24.5h-59zM186.999 111.001c-1.33301 -5.33301 -2.33398 -10.8359 -3.00098 -16.5029s-1 -10.834 -1 -15.501
c0 -16 5.16699 -27 15.5 -33s28.166 -9.66699 53.499 -11l-6 -35h-258l6 35c16.667 0.666992 30.5 2.33398 41.5 5.00098s20 6.83398 27 12.501s12.5 13.334 16.5 23.001s7.33301 21.5 10 35.5l91 467c1.33301 5.33301 2.33301 10.833 3 16.5s1 10.834 1 15.501
c0 16 -5.16699 27 -15.5 33s-28.166 9.66699 -53.499 11l6 35h252c66.667 0 117.667 -12 153 -36s53 -62.667 53 -116c0 -36.667 -6 -68.167 -18 -94.5s-28.667 -48 -50 -65s-46.666 -29.667 -75.999 -38s-61.333 -12.5 -96 -12.5v-4c23.333 -6 42.333 -14.5 57 -25.5
s26.667 -24.167 36 -39.5c9.33301 -16.667 19.333 -40.167 30 -70.5s22.667 -61.833 36 -94.5c6.66699 -18 14.5 -32 23.5 -42s26.167 -15.333 51.5 -16l-6 -35h-142l-41 126.5c-13.333 40.333 -27.333 77.833 -42 112.5c-6.66699 16 -13.5 29 -20.5 39s-15 18 -24 24
s-19.167 10.167 -30.5 12.5s-24.333 3.83301 -39 4.5z" />
    <glyph glyph-name="S" unicode="S" horiz-adv-x="503" 
d="M215 33c47.333 0 83.9971 12.3281 109.997 36.9951s39 58 39 100c0 32.667 -8 59.334 -24 80.001s-39 38.667 -69 54l-59 31c-34 17.333 -60.833 38.666 -80.5 63.999s-29.5 59.333 -29.5 102c0 30 5.66699 57.167 17 81.5s26.833 45.333 46.5 63s43 31.167 70 40.5
s56.5 14 88.5 14c48 0 86.833 -6.16699 116.5 -18.5s51.167 -25.166 64.5 -38.499l-19 -108h-61c0 16.667 -1.83301 32.334 -5.5 47.001s-9.66699 27.167 -18 37.5s-19.666 18.5 -33.999 24.5s-32.166 9 -53.499 9c-41.333 0 -73 -11.333 -95 -34s-33 -52 -33 -88
c0 -16 2 -30 6 -42s9.66699 -22.667 17 -32s16.5 -17.666 27.5 -24.999s23.167 -14.666 36.5 -21.999l59 -31c16 -8.66699 31.333 -18.167 46 -28.5s27.5 -22.5 38.5 -36.5s19.833 -30 26.5 -48s10 -38.667 10 -62c0 -32 -5.16699 -61.333 -15.5 -88
s-25.666 -49.667 -45.999 -69s-46 -34.333 -77 -45s-67.167 -16 -108.5 -16c-48 0 -88.833 5.66699 -122.5 17s-60.167 25.666 -79.5 42.999l23 125h64c0 -23.333 1.83301 -43.666 5.5 -60.999s10.167 -31.666 19.5 -42.999s22 -19.833 38 -25.5s36.333 -8.5 61 -8.5z" />
    <glyph glyph-name="T" unicode="T" horiz-adv-x="569" 
d="M626 689l-32.001 -157.003h-46c0.666992 7.33301 1.16699 14.5 1.5 21.5s0.5 12.833 0.5 17.5c0 26 -4.16699 44 -12.5 54s-24.166 15 -47.499 15h-73l-103 -529l-3 -18c-0.666992 -4 -1 -8.33301 -1 -13c0 -16 5.5 -27.167 16.5 -33.5s30.5 -10.166 58.5 -11.499l-7 -35
h-268l7 35c17.333 0.666992 31.833 2.33398 43.5 5.00098s21.167 6.83398 28.5 12.501s13 13.334 17 23.001s7.33301 21.5 10 35.5l103 529h-75c-16.667 0 -30.5 -1.83301 -41.5 -5.5s-20.5 -9.66699 -28.5 -18s-14.833 -19.333 -20.5 -33s-11.5 -30.834 -17.5 -51.501h-48
l30 157h508z" />
    <glyph glyph-name="U" unicode="U" horiz-adv-x="670" 
d="M317 46c55.333 0 97.1699 15.6748 125.503 47.0078s47.833 74 58.5 128l69 357c1.33301 6 2.33301 12 3 18s1 10.667 1 14c0 15.333 -5.16699 26.166 -15.5 32.499s-29.833 10.166 -58.5 11.499l6 35h226l-6 -35c-15.333 -0.666992 -28 -2.33398 -38 -5.00098
s-18.167 -6.83398 -24.5 -12.501s-11.333 -13.334 -15 -23.001s-6.83398 -21.5 -9.50098 -35.5l-69 -357c-16 -82.667 -45.5 -142.5 -88.5 -179.5s-98.833 -55.5 -167.5 -55.5c-76.667 0 -132.5 14.833 -167.5 44.5s-52.5 70.167 -52.5 121.5c0 12 0.666992 24.833 2 38.5
s3.66602 29.834 6.99902 48.501l65 339c2 10.667 3 20.334 3 29.001c0 17.333 -5.16699 29.166 -15.5 35.499s-27.833 10.166 -52.5 11.499l6 35h258l-6 -35c-17.333 -0.666992 -31.5 -2.33398 -42.5 -5.00098s-20 -6.83398 -27 -12.501s-12.333 -13.334 -16 -23.001
s-6.83398 -21.5 -9.50098 -35.5l-67 -342c-6 -30 -9 -57 -9 -81c0 -38 10 -65.667 30 -83s52.333 -26 97 -26z" />
    <glyph glyph-name="V" unicode="V" horiz-adv-x="636" 
d="M275 279c1.33301 -15.333 2.49707 -33.1719 3.49707 -53.5049s1.83301 -40.166 2.5 -59.499s1.33398 -37 2.00098 -53s1 -27.667 1 -35h6l10.5 25.5c5 12.333 11.5 27.5 19.5 45.5l27.5 60.5c10.333 22.333 21.833 45.5 34.5 69.5l156 303c10 18.667 15 33.334 15 44.001
s-5.16699 17.834 -15.5 21.501s-25.833 5.83398 -46.5 6.50098l7 35h215l-7 -35c-13.333 -2 -24.833 -4.66699 -34.5 -8s-18.5 -8.33301 -26.5 -15s-15.667 -15.5 -23 -26.5s-15.333 -25.167 -24 -42.5l-296 -562h-92l-57 565
c-1.33301 14.667 -3.16602 27.334 -5.49902 38.001s-5.66602 19.5 -9.99902 26.5s-10.5 12.5 -18.5 16.5s-18.333 6.66699 -31 8l7 35h242l-7 -35c-31.333 -1.33301 -52.833 -7 -64.5 -17s-16.5 -28.333 -14.5 -55z" />
    <glyph glyph-name="W" unicode="W" horiz-adv-x="877" 
d="M597 297l2.00098 -53.502c0.666992 -18.333 1.33398 -35.666 2.00098 -51.999s1 -30.833 1 -43.5v-26h6c1.33301 4 4 11.5 8 22.5l14.5 39.5l19.5 52l24 61l107 263c10 24 15 42.333 15 55c0 13.333 -5 22.833 -15 28.5s-26.333 9.16699 -49 10.5l6 35h216l-6 -35
c-12.667 -2 -23.667 -5.16699 -33 -9.5s-17.666 -10.333 -24.999 -18s-14.333 -17.167 -21 -28.5s-13.334 -25 -20.001 -41l-236 -557h-89l-24 438c-0.666992 10 -1.16699 20.333 -1.5 31s-0.5 21.334 -0.5 32.001c0 14 0.166992 26.5 0.5 37.5s0.5 18.5 0.5 22.5h-6
c-1.33301 -3.33301 -3.33301 -9.5 -6 -18.5s-6 -19.333 -10 -31s-8.5 -24 -13.5 -37l-14.5 -36.5l-188 -438h-92l-18 566c-0.666992 16 -1.83398 29.333 -3.50098 40s-4.83398 19.334 -9.50098 26.001s-11 11.667 -19 15s-18.333 5.66602 -31 6.99902l6 35h237l-6 -35
c-29.333 -2.66699 -50.166 -8.16699 -62.499 -16.5s-18.5 -24.833 -18.5 -49.5v-6l9 -284v-35c0 -30.667 -0.5 -59.667 -1.5 -87s-1.83301 -45.333 -2.5 -54h6c2 6 5.16699 15 9.5 27s9.66602 26 15.999 42l20.5 51.5l23 55.5l167 391h84z" />
    <glyph glyph-name="X" unicode="X" horiz-adv-x="605" 
d="M371 371l98.9961 -254c6 -15.333 12 -28 18 -38s12.333 -18 19 -24s13.834 -10.5 21.501 -13.5s16.167 -5.16699 25.5 -6.5l-6 -35h-240l6 35c31.333 1.33301 50.5 8.16602 57.5 20.499s5.83301 31.166 -3.5 56.499l-71 190h-4l-140 -192
c-15.333 -21.333 -23 -37.666 -23 -48.999c0 -9.33301 4.5 -15.666 13.5 -18.999s22.167 -5.66602 39.5 -6.99902l-6 -35h-209l6 35c10 1.33301 19.5 3.5 28.5 6.5s18 8 27 15s18.667 16.167 29 27.5s22.5 26 36.5 44l178 231l-88 221c-6 14.667 -11.667 26.5 -17 35.5
s-11 16.167 -17 21.5s-12.667 9.16602 -20 11.499s-15.666 4.16602 -24.999 5.49902l6 35h238l-6 -35c-23.333 -1.33301 -40 -5.16602 -50 -11.499s-15 -15.166 -15 -26.499c0 -5.33301 0.833008 -11.5 2.5 -18.5s3.83398 -13.5 6.50098 -19.5l58 -152h4l109 151
c16 22 24 39 24 51c0 15.333 -15.667 24 -47 26l6 35h200l-6 -35c-10 -1.33301 -19.5 -3.5 -28.5 -6.5s-17.667 -7.5 -26 -13.5s-17.166 -13.833 -26.499 -23.5s-19.333 -21.834 -30 -36.501z" />
    <glyph glyph-name="Y" unicode="Y" horiz-adv-x="589" 
d="M252 276l-85.9941 296.001c-4.66699 16 -9.66699 29 -15 39s-11 18 -17 24s-12.833 10.333 -20.5 13s-16.167 4.66699 -25.5 6l6 35h229l-6 -35c-40.667 -0.666992 -61 -13.667 -61 -39c0 -5.33301 0.666992 -11.166 2 -17.499s3 -13.166 5 -20.499l64 -236h4l155 238
c7.33301 11.333 12.666 20.666 15.999 27.999s5 14.333 5 21c0 9.33301 -4.5 15.666 -13.5 18.999s-22.167 5.66602 -39.5 6.99902l6 35h206l-6 -35c-10 -1.33301 -19.333 -3.5 -28 -6.5s-17.334 -7.83301 -26.001 -14.5s-17.834 -15.667 -27.501 -27
s-20.834 -26.333 -33.501 -45l-192 -279l-33 -171c-2.66699 -14 -3.83398 -25.833 -3.50098 -35.5s3.16602 -17.334 8.49902 -23.001s13.333 -9.83398 24 -12.501s24.667 -4.33398 42 -5.00098l-7 -35h-268l7 35c17.333 0.666992 31.833 2.33398 43.5 5.00098
s21.167 6.83398 28.5 12.501s13 13.334 17 23.001s7.33301 21.5 10 35.5z" />
    <glyph glyph-name="Z" unicode="Z" horiz-adv-x="553" 
d="M110 49l200 -0.00195312c19.333 0 36.166 2.16699 50.499 6.5s27.333 11.333 39 21s22.334 22.334 32.001 38.001s19.167 34.834 28.5 57.501h44l-48 -172h-463l10 56l474 584h-182c-33.333 0 -60.5 -9.16699 -81.5 -27.5s-40.167 -46.833 -57.5 -85.5h-44l45 162h438
l-10 -56z" />
    <glyph glyph-name="bracketleft" unicode="[" horiz-adv-x="351" 
d="M35 -155l181 928h185l-8 -42h-106l-164 -844h106l-9 -42h-185z" />
    <glyph glyph-name="backslash" unicode="\" horiz-adv-x="438" 
d="M368 -149h-65l-173 910h65z" />
    <glyph glyph-name="bracketright" unicode="]" horiz-adv-x="351" 
d="M341 773l-181 -928h-184l9 42h105l164 844h-106l8 42h185z" />
    <glyph glyph-name="asciicircum" unicode="^" horiz-adv-x="594" 
d="M463 310l-101 326l-224 -326h-78l281 398h68l125 -398h-71z" />
    <glyph glyph-name="underscore" unicode="_" horiz-adv-x="496" 
d="M-2 -125v50h500v-50h-500z" />
    <glyph glyph-name="grave" unicode="`" horiz-adv-x="545" 
d="M341 566l-212 96l53 91l179 -153z" />
    <glyph glyph-name="a" unicode="a" horiz-adv-x="547" 
d="M344 505c21.333 0 40.667 -3.99609 58 -11.9961s28.333 -21.333 33 -40c5.33301 9.33301 11.166 17.166 17.499 23.499s12.833 12.5 19.5 18.5h50c-8.66699 -14.667 -17.167 -34.334 -25.5 -59.001s-15.833 -51.667 -22.5 -81l-53 -233c-3.33301 -15.333 -5 -27 -5 -35
c0 -14.667 3.83301 -24.834 11.5 -30.501s18.834 -8.5 33.501 -8.5c2.66699 0 7.16699 0.166992 13.5 0.5s12.5 1.16602 18.5 2.49902l3 -31c-18 -9.33301 -34.833 -16.5 -50.5 -21.5s-31.5 -7.5 -47.5 -7.5c-25.333 0 -43.666 7 -54.999 21s-17 33.333 -17 58
c0 18 2.33301 36.667 7 56c-10.667 -16.667 -22.5 -33.167 -35.5 -49.5s-27.167 -31 -42.5 -44s-31.833 -23.667 -49.5 -32s-36.167 -12.5 -55.5 -12.5c-37.333 0 -65.833 12 -85.5 36s-29.5 57 -29.5 99c0 50 8.66699 98 26 144s40.333 86.667 69 122s61.667 63.5 99 84.5
s75.666 31.5 114.999 31.5zM338.001 458.004c-28 0 -54.667 -9.16602 -80 -27.499s-47.333 -42.833 -66 -73.5s-33.5 -65.834 -44.5 -105.501s-16.5 -80.5 -16.5 -122.5c0 -27.333 4.83301 -46.833 14.5 -58.5s22.167 -17.5 37.5 -17.5c14 0 28.667 5.16699 44 15.5
s30.5 23.333 45.5 39s29.167 33 42.5 52s25 37.167 35 54.5l49 207c-3.33301 10.667 -10 19.5 -20 26.5s-23.667 10.5 -41 10.5z" />
    <glyph glyph-name="b" unicode="b" horiz-adv-x="550" 
d="M228 -14c-30 0 -54.3301 6.16797 -72.9971 18.501s-31.334 25.5 -38.001 39.5l-11.5 -18c-3 -4.66699 -5.66699 -8.5 -8 -11.5s-4.66602 -5.5 -6.99902 -7.5s-4.83301 -4.33301 -7.5 -7h-53c7.33301 14 14.666 32.5 21.999 55.5s14.666 51.167 21.999 84.5l96 447l3.5 19
c1 5.33301 1.5 10.666 1.5 15.999c0 19.333 -5.66699 32.5 -17 39.5s-29 11.167 -53 12.5l7 30l143 26h13c1.33301 -4.66699 2.66602 -11 3.99902 -19s2 -18 2 -30c0 -14 -1.16699 -31 -3.5 -51s-6.5 -43 -12.5 -69l-45 -196c10.667 16.667 22.667 33.167 36 49.5
s28.166 31 44.499 44s34 23.667 53 32s39.167 12.5 60.5 12.5c34 0 60.5 -12.167 79.5 -36.5s28.5 -61.5 28.5 -111.5c0 -48 -6.83301 -94.167 -20.5 -138.5s-33 -83.5 -58 -117.5s-55.167 -61.333 -90.5 -82s-74.666 -31 -117.999 -31zM232.003 35.001
c28.667 0 54.5 8.66699 77.5 26s42.667 40.666 59 69.999s28.833 63.166 37.5 101.499s13 78.5 13 120.5c0 32 -4.66699 54.167 -14 66.5s-20.666 18.5 -33.999 18.5c-14.667 0 -30.334 -5.33301 -47.001 -16s-33 -24.167 -49 -40.5s-31 -34.166 -45 -53.499
s-26 -37.666 -36 -54.999l-42 -196c4 -10 13.333 -19.5 28 -28.5s32 -13.5 52 -13.5z" />
    <glyph glyph-name="c" unicode="c" horiz-adv-x="455" 
d="M317 504c38 0 67.6709 -4.33203 89.0039 -12.999s37.666 -17.667 48.999 -27l-20 -92h-68v13c0 25.333 -4.5 43.666 -13.5 54.999s-24.167 17 -45.5 17c-26.667 0 -50.834 -8.33301 -72.501 -25s-40.334 -38.667 -56.001 -66s-27.834 -58.333 -36.501 -93
s-13 -69.667 -13 -105c0 -41.333 9.16699 -72.5 27.5 -93.5s43.833 -31.5 76.5 -31.5c26 0 50.333 5.66699 73 17s43.667 26 63 44l26 -35c-19.333 -21.333 -44.833 -40.5 -76.5 -57.5s-66.5 -25.5 -104.5 -25.5c-56 0 -100 16.167 -132 48.5s-48 79.5 -48 141.5
c0 38.667 6.83301 77.5 20.5 116.5s33 74.167 58 105.5s54.833 56.833 89.5 76.5s72.667 29.5 114 29.5z" />
    <glyph glyph-name="d" unicode="d" horiz-adv-x="553" 
d="M407 429c-5.33301 8 -12.8301 14.667 -22.4971 20s-21.5 8 -35.5 8c-30 0 -58.167 -8.33301 -84.5 -25s-49.333 -39.5 -69 -68.5s-35.334 -63.167 -47.001 -102.5s-17.5 -81.333 -17.5 -126c0 -30 5.33301 -51.167 16 -63.5s23.667 -18.5 39 -18.5
c16.667 0 33.167 5.16699 49.5 15.5s32.166 23.333 47.499 39s29.666 33 42.999 52s25 37.167 35 54.5zM344.003 126c-10 -16.667 -21.5 -33.333 -34.5 -50s-27.5 -31.5 -43.5 -44.5s-33.167 -23.5 -51.5 -31.5s-37.833 -12 -58.5 -12c-37.333 0 -66.833 12.333 -88.5 37
s-32.5 59 -32.5 103c0 54 9.33301 104 28 150s43.334 85.833 74.001 119.5s65.667 60 105 79s79.666 28.5 120.999 28.5c22 0 41.667 -4.66699 59 -14l19 96c2.66699 12.667 4 24.667 4 36c0 19.333 -5.5 32.333 -16.5 39s-28.5 10.667 -52.5 12l7 30l141 26h13
c3.33301 -10 5 -25.333 5 -46c0 -14.667 -1 -31.5 -3 -50.5s-6 -43.167 -12 -72.5l-94 -439c-3.33301 -15.333 -5 -27.333 -5 -36c0 -13.333 3.5 -23 10.5 -29s18.5 -9 34.5 -9c9.33301 0 20 1 32 3l3 -31c-23.333 -10.667 -42.333 -18.167 -57 -22.5s-29.667 -6.5 -45 -6.5
c-23.333 0 -40.5 7.33301 -51.5 22s-16.5 34.667 -16.5 60c0 16 2 33.667 6 53z" />
    <glyph glyph-name="e" unicode="e" horiz-adv-x="477" 
d="M130 171c0 -41.333 8.99805 -73.001 26.998 -95.001s43 -33 75 -33c28 0 54 6 78 18s47.667 29 71 51l26 -35c-22 -25.333 -50.167 -46.833 -84.5 -64.5s-74.166 -26.5 -119.499 -26.5c-55.333 0 -97.166 16.667 -125.499 50s-42.5 81 -42.5 143
c0 38.667 7 77.334 21 116.001s33.5 73.5 58.5 104.5s54.667 56.167 89 75.5s71.833 29 112.5 29c44 0 79.333 -10.667 106 -32s40 -52 40 -92c0 -48 -25.833 -87 -77.5 -117s-128.5 -45 -230.5 -45h-22c-1.33301 -7.33301 -2 -15 -2 -23v-24zM369.998 385.999
c0 19.333 -5.33203 35.833 -15.999 49.5s-25.334 20.5 -44.001 20.5c-20.667 0 -40 -5 -58 -15s-34.333 -23.833 -49 -41.5s-27.334 -38.167 -38.001 -61.5s-19 -48 -25 -74h29c38.667 0 70.834 3 96.501 9s46.167 14.5 61.5 25.5s26.333 23.833 33 38.5s10 31 10 49z" />
    <glyph glyph-name="f" unicode="f" horiz-adv-x="303" 
d="M119 -27c-4.66699 -22 -10.834 -42.833 -18.501 -62.5s-17.667 -36.834 -30 -51.501s-27.166 -26.167 -44.499 -34.5s-37.333 -12.5 -60 -12.5c-11.333 0 -22 1.5 -32 4.5s-19.667 6.83301 -29 11.5v31c20.667 1.33301 38.334 3.83301 53.001 7.5s26.667 9.5 36 17.5
s16.833 18.5 22.5 31.5s10.5 29.5 14.5 49.5l92 471h-63l6 32l66 22l16 80c10.667 53.333 33 93.333 67 120s75 40 123 40c19.333 0 37.166 -1.66699 53.499 -5s30.166 -7.66602 41.499 -12.999l-17 -83h-61c0 16 -2 29.667 -6 41s-13.333 17 -28 17
c-18 0 -33.667 -6 -47 -18s-23.666 -35.333 -30.999 -70l-21 -108h121l-25 -55h-106z" />
    <glyph glyph-name="g" unicode="g" horiz-adv-x="496" 
d="M526 440c-12.667 -5.33301 -23.3311 -8.99414 -31.998 -10.9941s-19.667 -3 -33 -3c-10 0 -20.833 1.33301 -32.5 4s-24.167 7.66699 -37.5 15c13.333 -11.333 24 -26.166 32 -44.499s12 -37.5 12 -57.5c0 -16 -4 -33.167 -12 -51.5s-20.5 -35.5 -37.5 -51.5
s-39.167 -29.167 -66.5 -39.5s-60.333 -15.5 -99 -15.5c-3.33301 0 -6.5 0.166992 -9.5 0.5s-6.16699 0.5 -9.5 0.5c-20 -4 -37.833 -11.667 -53.5 -23s-23.5 -23 -23.5 -35c0 -6 2.16699 -11.667 6.5 -17s13.166 -8.33301 26.499 -9l82 -2
c59.333 -1.33301 102.833 -12 130.5 -32s41.5 -50.333 41.5 -91c0 -28.667 -6.33301 -53.834 -19 -75.501s-30 -39.834 -52 -54.501s-48 -25.834 -78 -33.501s-62 -11.5 -96 -11.5c-36 0 -66.667 2.66699 -92 8s-46.166 12.666 -62.499 21.999
s-28.166 20.166 -35.499 32.499s-11 25.833 -11 40.5c0 11.333 2 21.333 6 30s9.16699 16.167 15.5 22.5s13.333 12 21 17s15.5 9.16699 23.5 12.5l40 2c-4.66699 -6.66699 -9.5 -16.5 -14.5 -29.5s-7.5 -27.833 -7.5 -44.5c0 -21.333 8.83301 -38.166 26.5 -50.499
s48.5 -18.5 92.5 -18.5c56 0 96.5 9.5 121.5 28.5s37.5 44.833 37.5 77.5c0 21.333 -8 37.166 -24 47.499s-41 16.166 -75 17.499c-30.667 1.33301 -53 2.5 -67 3.5s-26 2.16699 -36 3.5c-24 2 -44.167 7.33301 -60.5 16s-24.5 26 -24.5 52
c0 25.333 10.5 46.666 31.5 63.999s48.833 31.666 83.5 42.999c-15.333 4 -28.833 10.167 -40.5 18.5s-21.5 18.333 -29.5 30s-14 24.5 -18 38.5s-6 28 -6 42c0 26.667 5.5 50.834 16.5 72.501s25.667 40.167 44 55.5s39.333 27.166 63 35.499s48.5 12.5 74.5 12.5
c17.333 0 33.666 -1.16699 48.999 -3.5s29.833 -5 43.5 -8s26.5 -5.66699 38.5 -8s23.333 -3.5 34 -3.5c15.333 0 29.166 2.33301 41.499 7s25.166 11.334 38.499 20.001zM235.003 231.006c18.667 0 34.833 4.16797 48.5 12.501s25 19.333 34 33s15.667 29.167 20 46.5
s6.5 35.333 6.5 54c0 25.333 -6.83301 45.166 -20.5 59.499s-35.167 21.5 -64.5 21.5c-14 0 -27.5 -3 -40.5 -9s-24.5 -15 -34.5 -27s-18 -27 -24 -45s-9 -39 -9 -63c0 -26.667 7 -47.167 21 -61.5s35 -21.5 63 -21.5z" />
    <glyph glyph-name="h" unicode="h" horiz-adv-x="531" 
d="M380 362c3.33301 15.333 4.99902 27.332 4.99902 35.999c0 24 -11 36 -33 36c-15.333 0 -31.166 -5.33301 -47.499 -16s-32.166 -24 -47.499 -40s-29.666 -33.333 -42.999 -52s-25 -36.334 -35 -53.001l-58 -273h-91l126 587c2.66699 12.667 4 24.334 4 35.001
c0 19.333 -5.5 32.5 -16.5 39.5s-28.5 11.167 -52.5 12.5l7 30l143 26h13c1.33301 -4.66699 2.66602 -10.834 3.99902 -18.501s2 -17.167 2 -28.5c0 -13.333 -1.16699 -30.333 -3.5 -51s-6.5 -44.334 -12.5 -71.001l-43 -193c11.333 17.333 24 34.333 38 51
s29 31.334 45 44.001s33 22.834 51 30.501s37 11.5 57 11.5c31.333 0 53.666 -8.83301 66.999 -26.5s20 -39.5 20 -65.5c0 -11.333 -1.66699 -25.333 -5 -42l-53 -249c-4 -19.333 -6 -32.666 -6 -39.999c0 -12 3 -20.667 9 -26s16.667 -8 32 -8c9.33301 0 21.666 1 36.999 3
l3 -31c-23.333 -10.667 -43.166 -18.167 -59.499 -22.5s-31.166 -6.5 -44.499 -6.5c-24.667 0 -42.334 6.33301 -53.001 19s-16 31 -16 55c0 8.66699 0.666992 17.667 2 27s3 19.333 5 30z" />
    <glyph glyph-name="i" unicode="i" horiz-adv-x="268" 
d="M149 122c-4 -16 -5.99805 -29.333 -5.99805 -40c0 -12 3.16699 -20.667 9.5 -26s17.166 -8 32.499 -8c9.33301 0 21.666 1 36.999 3l3 -31c-23.333 -10.667 -43.833 -18.167 -61.5 -22.5s-34.5 -6.5 -50.5 -6.5c-22 0 -38.5 6.5 -49.5 19.5s-16.5 31.167 -16.5 54.5
c0 15.333 2.66699 34.333 8 57l56 232c2 7.33301 3.5 14.666 4.5 21.999s1.5 12.666 1.5 15.999c0 17.333 -6 29.833 -18 37.5s-32 11.5 -60 11.5l7 31c13.333 6.66699 29.5 12.334 48.5 17.001s36.167 7 51.5 7c21.333 0 37.833 -5.5 49.5 -16.5s17.5 -29.167 17.5 -54.5
c0 -15.333 -2.66699 -34.666 -8 -57.999zM258.002 644c0 -17.333 -6 -32.166 -18 -44.499s-26.667 -18.5 -44 -18.5s-32 6.16699 -44 18.5s-18 27.166 -18 44.499s6 32.166 18 44.499s26.667 18.5 44 18.5s32 -6.16699 44 -18.5s18 -27.166 18 -44.499z" />
    <glyph glyph-name="j" unicode="j" horiz-adv-x="265" 
d="M143 -4c-6 -30 -14.6641 -55.833 -25.9971 -77.5s-25.5 -40.334 -42.5 -56.001s-36.667 -28.834 -59 -39.501s-47.5 -20.334 -75.5 -29.001l-16 41c21.333 8.66699 39.166 18 53.499 28s26.333 21.667 36 35s17.667 29.166 24 47.499s12.166 40.5 17.499 66.5l68 342
c1.33301 4.66699 2.66602 10.834 3.99902 18.501s2 14.167 2 19.5c0 17.333 -6 29.833 -18 37.5s-32 11.5 -60 11.5l7 31c13.333 6.66699 29.5 12.334 48.5 17.001s36.167 7 51.5 7c21.333 0 37.833 -5.66699 49.5 -17s17.5 -30 17.5 -56
c0 -7.33301 -0.666992 -15.666 -2 -24.999s-3 -19.666 -5 -30.999zM270.003 644c0 -17.333 -6 -32.166 -18 -44.499s-26.667 -18.5 -44 -18.5s-32 6.16699 -44 18.5s-18 27.166 -18 44.499s6 32.166 18 44.499s26.667 18.5 44 18.5s32 -6.16699 44 -18.5
s18 -27.166 18 -44.499z" />
    <glyph glyph-name="k" unicode="k" horiz-adv-x="487" 
d="M121 0l-90.999 0.000976562l126 587c2.66699 12.667 4 24.334 4 35.001c0 19.333 -5.5 32.5 -16.5 39.5s-28.5 11.167 -52.5 12.5l7 30l143 26h13c1.33301 -4.66699 2.66602 -10.834 3.99902 -18.501s2 -17.167 2 -28.5c0 -13.333 -1.16699 -30.333 -3.5 -51
s-6.5 -44.334 -12.5 -71.001zM191.001 269.001l214.997 221.997h101l-9 -43c-26 0 -51 -8.16699 -75 -24.5s-51 -39.166 -81 -68.499l-66 -63l82 -189c8 -17.333 16 -30.166 24 -38.499s22 -12.5 42 -12.5c9.33301 0 21 1 35 3l3 -31
c-16.667 -9.33301 -33.167 -16.666 -49.5 -21.999s-31.166 -8 -44.499 -8c-11.333 0 -21.666 1.5 -30.999 4.5s-17.833 8.16699 -25.5 15.5s-15.167 17 -22.5 29s-14.666 26.667 -21.999 44z" />
    <glyph glyph-name="l" unicode="l" horiz-adv-x="266" 
d="M146 122l-3.99805 -21.999c-1.33301 -7.33301 -2 -13.666 -2 -18.999c0 -12 3.16699 -20.5 9.5 -25.5s17.5 -7.5 33.5 -7.5c10.667 0 24 1 40 3l3 -31c-22.667 -10.667 -42.834 -18.167 -60.501 -22.5s-34.167 -6.5 -49.5 -6.5c-25.333 0 -43.333 6.33301 -54 19
s-16 31.667 -16 57c0 9.33301 0.5 18.166 1.5 26.499s2.5 17.833 4.5 28.5l100 465c2.66699 12.667 4 24.667 4 36c0 18.667 -5.5 31.5 -16.5 38.5s-28.5 11.167 -52.5 12.5l7 30l143 26h13c1.33301 -4.66699 2.66602 -10.834 3.99902 -18.501s2 -17.167 2 -28.5
c0 -14.667 -1.16699 -32 -3.5 -52s-6.5 -43.333 -12.5 -70z" />
    <glyph glyph-name="m" unicode="m" horiz-adv-x="793" 
d="M470 365c11.333 16.667 23.8359 33.499 37.5029 50.499s28.167 32 43.5 45s31.666 23.667 48.999 32s35.333 12.5 54 12.5c31.333 0 53.666 -8.83301 66.999 -26.5s20 -39.5 20 -65.5c0 -11.333 -1.66699 -25.333 -5 -42l-53 -249l-4 -21.5
c-1.33301 -7 -2 -13.167 -2 -18.5c0 -12 3.16699 -20.667 9.5 -26s17.166 -8 32.499 -8c10 0 22 1 36 3l3 -31c-23.333 -10.667 -42.833 -18.167 -58.5 -22.5s-30.5 -6.5 -44.5 -6.5c-24 0 -41.5 6.5 -52.5 19.5s-16.5 32.167 -16.5 57.5c0 9.33301 0.5 18.166 1.5 26.499
s2.5 17.5 4.5 27.5l50 240c3.33301 15.333 5 27.333 5 36c0 24 -11 36 -33 36c-14 0 -28.5 -5.16699 -43.5 -15.5s-29.5 -23.166 -43.5 -38.499s-27.333 -32.166 -40 -50.499s-24 -35.5 -34 -51.5l-59 -278h-91l76 359c3.33301 16.667 5 29.667 5 39c0 24 -10.667 36 -32 36
c-14 0 -28.667 -5.33301 -44 -16s-30.166 -24 -44.499 -40s-27.833 -33.333 -40.5 -52s-24 -36.334 -34 -53.001l-58 -273h-91l75 354c3.33301 16.667 5 29.667 5 39c0 17.333 -5.33301 29.666 -16 36.999s-30 11 -58 11l7 31c13.333 6.66699 28.666 12.334 45.999 17.001
s34.666 7 51.999 7c18.667 0 33.167 -6.66699 43.5 -20s15.5 -33.333 15.5 -60c0 -7.33301 -0.5 -16.5 -1.5 -27.5s-2.83301 -21.5 -5.5 -31.5c11.333 18 23.833 35.833 37.5 53.5s28.5 33.5 44.5 47.5s32.833 25.333 50.5 34s36.167 13 55.5 13
c31.333 0 52.833 -9.16699 64.5 -27.5s17.5 -41.5 17.5 -69.5c0 -8.66699 -0.166992 -16.167 -0.5 -22.5s-1.16602 -13.166 -2.49902 -20.499z" />
    <glyph glyph-name="n" unicode="n" horiz-adv-x="541" 
d="M390 362c3.33301 15.333 5.00098 27.333 5.00098 36c0 24 -11 36 -33 36c-15.333 0 -31.166 -5.33301 -47.499 -16s-32.166 -24 -47.499 -40s-29.666 -33.333 -42.999 -52s-25 -36.334 -35 -53.001l-58 -273h-91l75 354c3.33301 16.667 5 29.667 5 39
c0 17.333 -5.33301 29.666 -16 36.999s-30 11 -58 11l7 31c13.333 6.66699 28.666 12.334 45.999 17.001s34.666 7 51.999 7c18.667 0 33.167 -6.66699 43.5 -20s15.5 -33.333 15.5 -60c0 -6 -0.5 -14.5 -1.5 -25.5s-2.83301 -22.167 -5.5 -33.5
c11.333 18 24.166 35.833 38.499 53.5s30 33.5 47 47.5s35 25.333 54 34s38.833 13 59.5 13c31.333 0 53.666 -8.83301 66.999 -26.5s20 -39.5 20 -65.5c0 -11.333 -1.66699 -25.333 -5 -42l-53 -249l-4 -21.5c-1.33301 -7 -2 -13.167 -2 -18.5
c0 -12 3.16699 -20.667 9.5 -26s17.166 -8 32.499 -8c10 0 22 1 36 3l3 -31c-23.333 -10.667 -43.166 -18.167 -59.499 -22.5s-30.5 -6.5 -42.5 -6.5c-25.333 0 -43.5 6.5 -54.5 19.5s-16.5 31.167 -16.5 54.5c0 8 0.666992 16.833 2 26.5s3 19.834 5 30.501z" />
    <glyph glyph-name="o" unicode="o" horiz-adv-x="518" 
d="M483 310c0 -43.333 -6.33203 -84.498 -18.999 -123.498s-30.5 -73.333 -53.5 -103s-50.667 -53.334 -83 -71.001s-68.166 -26.5 -107.499 -26.5c-28.667 0 -54.334 4.66699 -77.001 14s-42 22.5 -58 39.5s-28.333 37.333 -37 61s-13 49.5 -13 77.5
c0 46.667 7.16699 89.834 21.5 129.501s33.666 74 57.999 103s52.333 51.833 84 68.5s64.834 25 99.501 25c30 0 56.667 -5 80 -15s42.666 -23.833 57.999 -41.5s27 -38.334 35 -62.001s12 -48.834 12 -75.501zM387.001 325.002c0 42 -7.16797 74.3311 -21.501 96.998
s-38.166 34 -71.499 34c-20 0 -38.667 -5.66699 -56 -17s-32.666 -26.666 -45.999 -45.999c-19.333 -28 -34.333 -62 -45 -102s-16 -82.667 -16 -128c0 -39.333 7 -70.666 21 -93.999s38 -35 72 -35c18 0 34.667 4 50 12s29 19 41 33c23.333 27.333 41.166 63 53.499 107
s18.5 90.333 18.5 139z" />
    <glyph glyph-name="p" unicode="p" horiz-adv-x="547" 
d="M145 64c5.33301 -9.33301 13.667 -16.834 25 -22.501s24 -8.5 38 -8.5c36 0 67 9.66699 93 29s47.5 44.333 64.5 75s29.667 65 38 103s12.5 75.667 12.5 113c0 32 -4.66699 54.167 -14 66.5s-20.666 18.5 -33.999 18.5c-14.667 0 -30.334 -5.33301 -47.001 -16
s-33 -24 -49 -40s-31.167 -33.667 -45.5 -53s-26.5 -37.666 -36.5 -54.999zM112.001 -93.001c-1.33301 -6 -2.3291 -11.665 -2.99609 -16.998s-1 -10 -1 -14c0 -14 5 -23.5 15 -28.5s28 -8.16699 54 -9.5l-7 -34h-240l7 34c14.667 0.666992 26.667 2.16699 36 4.5
s17 6 23 11s10.833 11.833 14.5 20.5s7.16699 20 10.5 34l95 446c3.33301 16.667 5 29.667 5 39c0 17.333 -5.33301 29.666 -16 36.999s-30 11 -58 11l7 31c13.333 6.66699 28.666 12.334 45.999 17.001s34.666 7 51.999 7c18.667 0 33.167 -6.66699 43.5 -20
s15.5 -33.333 15.5 -60c0 -6.66699 -0.5 -15.334 -1.5 -26.001s-2.83301 -21.667 -5.5 -33c10.667 17.333 23.167 34.666 37.5 51.999s30 33 47 47s35.167 25.333 54.5 34s39.666 13 60.999 13c34 0 60.5 -12.167 79.5 -36.5s28.5 -61.5 28.5 -111.5
c0 -46 -7.16699 -91.167 -21.5 -135.5s-34.833 -83.833 -61.5 -118.5s-59.334 -62.5 -98.001 -83.5s-82 -31.5 -130 -31.5c-26 0 -49.333 3.66699 -70 11z" />
    <glyph glyph-name="q" unicode="q" horiz-adv-x="522" 
d="M328 126c-10.667 -16.667 -22.499 -33.165 -35.499 -49.498s-27.167 -31 -42.5 -44s-31.833 -23.667 -49.5 -32s-36.167 -12.5 -55.5 -12.5c-37.333 0 -65.833 12 -85.5 36s-29.5 57 -29.5 99c0 50 8.66699 98 26 144s40.333 86.667 69 122s61.667 63.5 99 84.5
s75.666 31.5 114.999 31.5c21.333 0 40.666 -4 57.999 -12s28.333 -21.333 33 -40c5.33301 9.33301 11.166 17.166 17.499 23.499s12.833 12.5 19.5 18.5h50c-8.66699 -14.667 -17.167 -34.334 -25.5 -59.001s-15.833 -51.667 -22.5 -81l-102 -447
c-1.33301 -7.33301 -2.5 -13.5 -3.5 -18.5s-1.5 -9.83301 -1.5 -14.5c0 -13.333 4.5 -22.5 13.5 -27.5s24.167 -8.16699 45.5 -9.5l-8 -34h-239l8 34c17.333 0.666992 31.333 2.16699 42 4.5s19.334 6 26.001 11s11.834 11.833 15.501 20.5s7.16699 19.667 10.5 33z
M333.001 458.002c-28 0 -54.667 -9.16602 -80 -27.499s-47.333 -42.833 -66 -73.5s-33.5 -65.834 -44.5 -105.501s-16.5 -80.5 -16.5 -122.5c0 -27.333 4.83301 -46.833 14.5 -58.5s22.167 -17.5 37.5 -17.5c14 0 28.667 5.16699 44 15.5s30.5 23.333 45.5 39
s29.167 33 42.5 52s25 37.167 35 54.5l49 207c-3.33301 10.667 -10 19.5 -20 26.5s-23.667 10.5 -41 10.5z" />
    <glyph glyph-name="r" unicode="r" horiz-adv-x="360" 
d="M204 358c8.66699 19.333 18.6699 37.832 30.0029 55.499s23.5 33.334 36.5 47.001s26.333 24.5 40 32.5s27.5 12 41.5 12c10 0 19.333 -1.66699 28 -5l-21 -102c-3.33301 1.33301 -7.33301 2.5 -12 3.5s-10.667 1.5 -18 1.5c-34.667 0 -65.334 -15.167 -92.001 -45.5
s-46.667 -76.833 -60 -139.5l-46 -218h-91l75 354c3.33301 16.667 5 29.667 5 39c0 17.333 -5.33301 29.666 -16 36.999s-30 11 -58 11l7 31c13.333 6.66699 28.666 12.334 45.999 17.001s34.666 7 51.999 7c38 0 57 -28.333 57 -85c0 -10.667 -0.333008 -19.667 -1 -27
s-1.66699 -16 -3 -26z" />
    <glyph glyph-name="s" unicode="s" horiz-adv-x="423" 
d="M167 -14c-24.667 0 -46 1.66895 -64 5.00195s-33.333 7.33301 -46 12s-23.167 9.5 -31.5 14.5s-15.166 9.5 -20.499 13.5l17 98h63v-12c0 -30.667 6.5 -52.5 19.5 -65.5s36.5 -19.5 70.5 -19.5c14.667 0 28.667 1.66699 42 5s25.166 8.5 35.499 15.5s18.5 16.333 24.5 28
s9 25.5 9 41.5c0 24 -6.5 41.667 -19.5 53s-31.167 22 -54.5 32l-51 22c-29.333 12.667 -52.833 28.667 -70.5 48s-26.5 46.333 -26.5 81c0 24 5.16699 45.167 15.5 63.5s24 33.666 41 45.999s36.833 21.666 59.5 27.999s46.667 9.5 72 9.5c38.667 0 69 -4.5 91 -13.5
s38.667 -17.167 50 -24.5l-15 -90h-61c-1.33301 26 -7.83301 46.167 -19.5 60.5s-33.5 21.5 -65.5 21.5c-26.667 0 -47.667 -6.83301 -63 -20.5s-23 -32.834 -23 -57.501c0 -15.333 3.83301 -28.833 11.5 -40.5s23.167 -22.5 46.5 -32.5l51 -22
c38 -16 66.667 -34.167 86 -54.5s29 -48.166 29 -83.499c0 -24 -5 -45.833 -15 -65.5s-24 -36.667 -42 -51s-39.5 -25.5 -64.5 -33.5s-52.167 -12 -81.5 -12z" />
    <glyph glyph-name="t" unicode="t" horiz-adv-x="319" 
d="M318 436l-106.002 -0.000976562l-64 -302c-4 -20 -6 -36.333 -6 -49c0 -17.333 4.5 -29.5 13.5 -36.5s22.833 -10.5 41.5 -10.5c8.66699 0 18 1.16699 28 3.5s20.667 5.5 32 9.5l8 -33c-19.333 -9.33301 -38.166 -17 -56.499 -23s-37.166 -9 -56.499 -9
c-32 0 -57 7 -75 21s-27 37.333 -27 70c0 6.66699 0.5 14.334 1.5 23.001s2.5 17.667 4.5 27l65 309h-59l6 32l71 23c4.66699 12.667 10 25.667 16 39s12.167 26.333 18.5 39s13 24.5 20 35.5s13.833 20.5 20.5 28.5l52 8c-3.33301 -8.66699 -7 -19.5 -11 -32.5l-12 -40.5
c-4 -14 -7.66699 -27.833 -11 -41.5s-6 -25.5 -8 -35.5h119z" />
    <glyph glyph-name="u" unicode="u" horiz-adv-x="537" 
d="M329 126c-11.333 -17.333 -23.8281 -34.332 -37.4951 -50.999s-28.5 -31.667 -44.5 -45s-33.333 -24 -52 -32s-38.334 -12 -59.001 -12c-31.333 0 -53.666 8.83301 -66.999 26.5s-20 39.5 -20 65.5c0 11.333 1.66699 25.333 5 42l50 234c3.33301 16.667 5 29.667 5 39
c0 17.333 -5.33301 29.666 -16 36.999s-30 11 -58 11l7 31c13.333 6.66699 28.666 12.334 45.999 17.001s34.666 7 51.999 7c18.667 0 33.834 -6.83301 45.501 -20.5s17.5 -34.834 17.5 -63.501c0 -8 -0.666992 -16.667 -2 -26s-3 -19.333 -5 -30l-48 -227
c-3.33301 -15.333 -5 -27.333 -5 -36c0 -24 11 -36 33 -36c15.333 0 31.166 5.33301 47.499 16s32.166 24 47.499 40s29.666 33.333 42.999 52s25 36.334 35 53.001l58 273h90l-77 -369c-3.33301 -14.667 -5 -25.667 -5 -33c0 -26.667 16.333 -40 49 -40
c4 0 8.33301 0.166992 13 0.5s9.66699 0.833008 15 1.5l3 -31c-36.667 -19.333 -70.334 -29 -101.001 -29c-24 0 -41.833 7.66699 -53.5 23s-17.5 35.666 -17.5 60.999c0 16 2 33 6 51z" />
    <glyph glyph-name="v" unicode="v" horiz-adv-x="457" 
d="M462 483l0.00195312 -35.0039l-268 -452h-71l-30 360c-1.33301 16.667 -3 30.334 -5 41.001s-5.5 19.334 -10.5 26.001s-12.5 11.334 -22.5 14.001s-23.333 4 -40 4l7 31c13.333 6.66699 28.166 12.334 44.499 17.001s33.166 7 50.499 7c12 0 21.667 -2.33301 29 -7
s13.333 -12.167 18 -22.5s8 -23.833 10 -40.5s4 -37 6 -61l11 -147c2 -31.333 3 -57.666 3 -78.999c0 -10.667 -0.166992 -21.334 -0.5 -32.001s-0.833008 -17.667 -1.5 -21h6l62 111c26.667 48 47.667 88.5 63 121.5s27 61 35 84s13.167 41.833 15.5 56.5
s3.83301 27.667 4.5 39z" />
    <glyph glyph-name="w" unicode="w" horiz-adv-x="701" 
d="M486 100l39.002 89.998c20 46.667 36.333 86.167 49 118.5s22.5 60 29.5 83s11.833 42.833 14.5 59.5s4.66699 32.334 6 47.001l82 -15v-35l-231 -453h-61l-26 235c-3.33301 34 -5.5 64 -6.5 90s-1.5 42.333 -1.5 49h-3l-169 -374h-72l-43 361
c-0.666992 4.66699 -1.5 11.834 -2.5 21.501s-2.83301 19.167 -5.5 28.5c-3.33301 13.333 -10.166 22.5 -20.499 27.5s-26.833 7.5 -49.5 7.5l7 31c13.333 6.66699 28.166 12.334 44.499 17.001s33.166 7 50.499 7c22.667 0 38 -8.83301 46 -26.5s14 -47.167 18 -88.5
l15 -150c3.33301 -30.667 5.16602 -54.834 5.49902 -72.501s0.5 -32.167 0.5 -43.5v-15h6l170 391h61l29 -241c2 -18 3.83301 -35.5 5.5 -52.5s3 -32.333 4 -46l2.5 -34.5c0.666992 -9.33301 1 -15 1 -17h5z" />
    <glyph glyph-name="x" unicode="x" horiz-adv-x="475" 
d="M150 381c-4.66699 13.333 -9.66504 23.9961 -14.998 31.9961s-11.5 14 -18.5 18s-15.333 6.66699 -25 8s-20.834 2 -33.501 2l7 31c13.333 6.66699 26.166 12.334 38.499 17.001s27.166 7 44.499 7c19.333 0 35.5 -5.83301 48.5 -17.5s24.5 -35.5 34.5 -71.5l28 -102
l118 186h108l-9 -43c-11.333 -1.33301 -21.333 -3 -30 -5s-16.667 -5.16699 -24 -9.5s-14.666 -10.166 -21.999 -17.499s-15.333 -16.666 -24 -27.999l-100 -133l48 -149c7.33301 -21.333 15.666 -36.166 24.999 -44.499s23.666 -12.5 42.999 -12.5
c4.66699 0 9.83398 0.166992 15.501 0.5s10.5 0.833008 14.5 1.5l3 -31c-15.333 -7.33301 -32.166 -14 -50.499 -20s-36.5 -9 -54.5 -9c-20.667 0 -37.167 9.66699 -49.5 29s-23.5 47.333 -33.5 84l-27 96l-130 -200h-100l9 43c12 2 22.667 4.83301 32 8.5
s18.166 8.5 26.499 14.5s16.833 13.833 25.5 23.5s18.334 22.167 29.001 37.5l91 125z" />
    <glyph glyph-name="y" unicode="y" horiz-adv-x="463" 
d="M138 -2c-1.33301 28 -3.5 60.9951 -6.5 98.9951s-8.83301 84.667 -17.5 140l-18 119c-2.66699 16 -5.33398 29.5 -8.00098 40.5s-6.66699 19.833 -12 26.5s-12.833 11.334 -22.5 14.001s-22.834 4 -39.501 4l7 31c13.333 6.66699 27.833 12.334 43.5 17.001
s32.167 7 49.5 7c12 0 21.667 -2.16699 29 -6.5s13.333 -11.666 18 -21.999s8.66699 -23.833 12 -40.5s6.66602 -37.334 9.99902 -62.001l17 -118c4.66699 -30 7.66699 -56 9 -78s2 -40 2 -54c0 -6.66699 -0.166992 -12.5 -0.5 -17.5s-0.5 -9.16699 -0.5 -12.5h6l52 97
c22.667 42.667 41.334 80.834 56.001 114.501s26 63.334 34 89.001s13.667 47.667 17 66s5.33301 33.833 6 46.5l87 -15v-35l-258 -471c-16.667 -30 -32.5 -56 -47.5 -78s-30.667 -40.5 -47 -55.5s-33.666 -27 -51.999 -36s-38.833 -15.833 -61.5 -20.5l-17 60
c20 4 38.333 9.5 55 16.5s32.334 16.333 47.001 28s28.667 26.334 42 44.001s26.333 39.5 39 65.5z" />
    <glyph glyph-name="z" unicode="z" horiz-adv-x="435" 
d="M83 85c34 0 66.333 -1.33203 97 -3.99902s56.667 -4 78 -4c20 0 38.833 5.5 56.5 16.5s34.167 30.833 49.5 59.5l31 -8c-10 -32 -18.833 -58.167 -26.5 -78.5s-15.834 -36.333 -24.501 -48s-18.167 -19.5 -28.5 -23.5s-22.833 -6 -37.5 -6
c-19.333 0 -37.666 2.16699 -54.999 6.5s-34.166 9.16602 -50.499 14.499s-32.666 10.166 -48.999 14.499s-32.5 6.5 -48.5 6.5s-28.833 -3.33301 -38.5 -10s-16.834 -13.667 -21.501 -21h-45l6 39l360 366c-15.333 0 -30.833 0.333008 -46.5 1l-45.5 2
c-14.667 0.666992 -28 1.33398 -40 2.00098s-22 1 -30 1c-21.333 0 -38 -6.33301 -50 -19s-23 -29.667 -33 -51l-36 5c11.333 54 25 93 41 117s39 36 69 36c16 0 32.667 -2 50 -6s34.666 -8.5 51.999 -13.5s34 -9.5 50 -13.5s30.333 -6 43 -6c22 0 40 10.333 54 31h46
l-7 -41z" />
    <glyph glyph-name="braceleft" unicode="{" horiz-adv-x="380" 
d="M52 326c35.333 0 63.1631 6.66797 83.4961 20.001s33.833 37 40.5 71l46 237c4 21.333 10.5 39.5 19.5 54.5s19.667 27.333 32 37s25.833 16.667 40.5 21s30 6.5 46 6.5h80l-8 -40h-57c-25.333 0 -43.666 -7.66699 -54.999 -23s-18.666 -32.333 -21.999 -51l-45 -230
c-4 -22 -10.167 -40.333 -18.5 -55s-17.166 -26.5 -26.499 -35.5s-18.833 -15.5 -28.5 -19.5s-18.5 -6.66699 -26.5 -8l-1 -4c6 -1.33301 12.333 -3.5 19 -6.5s13 -7.66699 19 -14s10.833 -14.333 14.5 -24s5.5 -21.834 5.5 -36.501c0 -12 -1.33301 -24.333 -4 -37l-45 -230
c-1.33301 -4 -2.16602 -8.66699 -2.49902 -14s-0.5 -8.66602 -0.5 -9.99902c0 -13.333 3.66699 -25 11 -35s21 -15 41 -15h57l-8 -40h-80c-32 0 -56 6.16699 -72 18.5s-24 32.5 -24 60.5c0 13.333 1.33301 26.666 4 39.999l47 237c2 10 3 19 3 27
c0 23.333 -7.83301 39.833 -23.5 49.5s-38.5 14.5 -68.5 14.5z" />
    <glyph glyph-name="bar" unicode="|" horiz-adv-x="265" 
d="M25 -149l176 910h64l-176 -910h-64z" />
    <glyph glyph-name="braceright" unicode="}" horiz-adv-x="389" 
d="M357 292c-35.333 0 -62.998 -6.66797 -82.998 -20.001s-33.333 -37 -40 -71l-48 -241c-8 -41.333 -25 -70.833 -51 -88.5s-54.667 -26.5 -86 -26.5h-79l8 39h56c25.333 0 43.666 7.66699 54.999 23s18.666 32.333 21.999 51l45 231c4 22 10 40.333 18 55
s16.833 26.5 26.5 35.5s19.334 15.5 29.001 19.5s18.5 6.66699 26.5 8l1 4c-6 0.666992 -12.333 2.66699 -19 6s-13 8.16602 -19 14.499s-10.833 14.333 -14.5 24s-5.5 21.834 -5.5 36.501c0 12 1.33301 24.333 4 37l45 230c1.33301 4 2.16602 8.33301 2.49902 13
s0.5 8.33398 0.5 11.001c0 13.333 -3.66699 25 -11 35s-21 15 -41 15h-57l8 40h80c32 0 56 -6.16699 72 -18.5s24 -32.833 24 -61.5c0 -12.667 -1.33301 -25.667 -4 -39l-46 -237c-2 -10 -3 -19 -3 -27c0 -23.333 7.66699 -39.833 23 -49.5s38 -14.5 68 -14.5z" />
    <glyph glyph-name="asciitilde" unicode="~" horiz-adv-x="554" 
d="M379 320c19.333 0 37.499 5.66797 54.499 17.001s31.167 26.666 42.5 45.999l38 -21c-16 -39.333 -36.5 -70 -61.5 -92s-51.833 -33 -80.5 -33c-19.333 0 -37.333 2.5 -54 7.5s-32.5 10.667 -47.5 17s-29.833 12 -44.5 17s-29.667 7.5 -45 7.5
c-19.333 0 -35.666 -6.16699 -48.999 -18.5s-26 -28.5 -38 -48.5l-34 19c13.333 42 31.5 74.167 54.5 96.5s49.167 33.5 78.5 33.5c19.333 0 36.833 -2.5 52.5 -7.5s30.5 -10.5 44.5 -16.5s28.167 -11.5 42.5 -16.5s29.833 -7.5 46.5 -7.5z" />
    <glyph glyph-name="uni00A0" unicode="&#xa0;" horiz-adv-x="225" 
 />
    <glyph glyph-name="exclamdown" unicode="&#xa1;" horiz-adv-x="325" 
d="M171 287h53l-82 -477l-121 -15zM160 437c0 19.333 6.66699 35.5 20 48.5s29 19.5 47 19.5s33.167 -6.5 45.5 -19.5s18.5 -29.167 18.5 -48.5c0 -18 -6.16699 -33.333 -18.5 -46s-27.833 -19 -46.5 -19c-18 0 -33.5 6.33301 -46.5 19s-19.5 28 -19.5 46z" />
    <glyph glyph-name="cent" unicode="&#xa2;" horiz-adv-x="455" 
d="M184 -12c-46.667 6 -83.165 24.832 -109.498 56.499s-39.5 75.5 -39.5 131.5c0 36 6.16699 72.333 18.5 109s29.666 70.334 51.999 101.001s49 56.5 80 77.5s65.167 33.833 102.5 38.5l20 96h45l-20 -95c32.667 -1.33301 58.5 -6 77.5 -14s33.833 -16.333 44.5 -25
l-20 -92h-68v10c0 22 -3.33301 39 -10 51s-17.667 19.667 -33 23l-84 -413c24.667 1.33301 47.667 7.5 69 18.5s41.666 25.167 60.999 42.5l26 -35c-18 -20.667 -41.5 -39 -70.5 -55s-61.5 -25 -97.5 -27l-17 -87h-45zM130.002 167.999
c0 -32.667 5.66797 -59.002 17.001 -79.002s27.666 -33.667 48.999 -41l82 405c-22 -6 -42.167 -18.167 -60.5 -36.5s-34 -40.666 -47 -66.999s-23 -55.166 -30 -86.499s-10.5 -63 -10.5 -95z" />
    <glyph glyph-name="sterling" unicode="&#xa3;" horiz-adv-x="558" 
d="M58 345l73.999 0.000976562l17 87c8.66699 43.333 21.334 80.166 38.001 110.499s36.334 55.166 59.001 74.499s48 33.333 76 42s57.667 13 89 13c40.667 0 72.5 -5 95.5 -15s40.167 -20.333 51.5 -31l-22 -101h-65c0 16 -0.833008 30.167 -2.5 42.5
s-5.16699 22.833 -10.5 31.5s-13 15.334 -23 20.001s-23.333 7 -40 7c-18 0 -34.333 -2.5 -49 -7.5s-27.834 -13.833 -39.501 -26.5s-22 -29.834 -31 -51.501s-16.833 -48.834 -23.5 -81.501l-23 -114h195l-11 -44h-192l-49 -252h161c18 0 33.667 2 47 6
s25.333 10.667 36 20s20.5 21.666 29.5 36.999s18.167 34.333 27.5 57h44l-48 -169h-484l7 35c16.667 0.666992 30.5 2.33398 41.5 5.00098s19.833 6.83398 26.5 12.501s12 13.334 16 23.001s7.33301 21.5 10 35.5l37 190h-76z" />
    <glyph glyph-name="currency" unicode="&#xa4;" horiz-adv-x="491" 
d="M218 99c-26 0 -48.665 3.3291 -67.998 9.99609l-65 -78l-50 38l62 74c-22 24 -33 55.333 -33 94c0 39.333 7.83301 73.833 23.5 103.5s36.167 54.167 61.5 73.5l-33 73l63 37l33 -76c23.333 8.66699 48.666 13 75.999 13c24 0 46 -3.66699 66 -11l63 75l49 -38l-59 -71
c11.333 -11.333 20 -25.166 26 -41.499s9 -34.166 9 -53.499c0 -41.333 -8.33301 -77.166 -25 -107.499s-39 -55.166 -67 -74.499l33 -71l-62 -37l-35 78c-20.667 -6.66699 -43.334 -10 -68.001 -10zM279.002 415.996c-20.667 0 -38.667 -4.83398 -54 -14.501
s-28.166 -23 -38.499 -40s-18.166 -37.333 -23.499 -61s-8 -49.5 -8 -77.5c0 -26.667 5.66699 -46.334 17 -59.001s29.666 -19 54.999 -19c24.667 0 45.167 6.66699 61.5 20s29.166 29.833 38.499 49.5s16 40.834 20 63.501s6 43.334 6 62.001c0 24 -5.5 42.667 -16.5 56
s-30.167 20 -57.5 20z" />
    <glyph glyph-name="yen" unicode="&#xa5;" horiz-adv-x="583" 
d="M94 380l125.004 -0.00390625l-56 192c-4.66699 16 -9.66699 29 -15 39s-11 18 -17 24s-12.833 10.333 -20.5 13s-16.167 4.66699 -25.5 6l6 35h229l-6 -35c-22.667 -0.666992 -38.5 -4.16699 -47.5 -10.5s-13.5 -15.833 -13.5 -28.5
c0 -5.33301 0.666992 -11.166 2 -17.499s3 -13.166 5 -20.499l64 -236h4l155 238c9.33301 14 15.166 24.333 17.499 31s3.5 12.667 3.5 18c0 9.33301 -4.5 15.666 -13.5 18.999s-22.167 5.66602 -39.5 6.99902l6 35h206l-6 -35c-10 -1.33301 -19.333 -3.5 -28 -6.5
s-17.334 -7.83301 -26.001 -14.5s-17.834 -15.667 -27.501 -27s-20.834 -26.333 -33.501 -45l-125 -181h141l-10 -44h-161l-37 -54l-4 -19h190l-10 -44h-188l-21 -108c-1.33301 -5.33301 -2.33301 -11 -3 -17s-1 -10.333 -1 -13c0 -16.667 5.5 -28.167 16.5 -34.5
s30.5 -10.166 58.5 -11.499l-7 -35h-268l7 35c17.333 0.666992 31.833 2.33398 43.5 5.00098s21.167 6.83398 28.5 12.501s13 13.334 17 23.001s7.33301 21.5 10 35.5l19 108h-176l10 44h174l3 13l-18 60h-147z" />
    <glyph glyph-name="brokenbar" unicode="&#xa6;" horiz-adv-x="266" 
d="M124 356l78 401h64l-78 -401h-64zM25 -150l78 401h64l-78 -401h-64z" />
    <glyph glyph-name="section" unicode="&#xa7;" horiz-adv-x="468" 
d="M40 283c0 46 14.3281 83.1709 42.9951 111.504s68.334 49.5 119.001 63.5c-11.333 6.66699 -22.166 13.5 -32.499 20.5s-19.166 15.167 -26.499 24.5s-13.166 20.166 -17.499 32.499s-6.5 27.166 -6.5 44.499c0 24 5.16699 45.167 15.5 63.5s24 33.666 41 45.999
s36.833 21.666 59.5 27.999s46.667 9.5 72 9.5c38.667 0 69 -4.5 91 -13.5s38.667 -17.167 50 -24.5l-15 -90h-61c-1.33301 26 -7.83301 46.167 -19.5 60.5s-33.5 21.5 -65.5 21.5c-26.667 0 -47.667 -6.83301 -63 -20.5s-23 -32.834 -23 -57.501
c0 -15.333 4.83301 -28.5 14.5 -39.5s24.167 -22.167 43.5 -33.5l73 -44c19.333 -12 36.166 -23.333 50.499 -34s26 -22.167 35 -34.5s15.667 -25.666 20 -39.999s6.5 -30.833 6.5 -49.5c0 -24 -4.16699 -45.833 -12.5 -65.5s-19.833 -36.834 -34.5 -51.501s-32 -27 -52 -37
s-41.333 -17.333 -64 -22c14 -8 26.5 -16.167 37.5 -24.5s20.333 -17.5 28 -27.5s13.5 -21.167 17.5 -33.5s6 -26.833 6 -43.5c0 -22 -5 -42.5 -15 -61.5s-24 -35.333 -42 -49s-39.5 -24.5 -64.5 -32.5s-52.167 -12 -81.5 -12c-24.667 0 -46 1.66699 -64 5
s-33.333 7.33301 -46 12s-23.167 9.5 -31.5 14.5s-15.166 9.5 -20.499 13.5l17 98h63v-12c0 -30.667 6.5 -52.5 19.5 -65.5s36.5 -19.5 70.5 -19.5c32.667 0 59.334 6.33301 80.001 19s31 32.667 31 60c0 24 -7 42.833 -21 56.5s-31.667 26.834 -53 39.501l-82 48
c-28 16 -50 35.5 -66 58.5s-24 52.167 -24 87.5zM118.995 305.004c0 -38 18 -67.668 54 -89.001l64 -38c38 7.33301 68.167 20.5 90.5 39.5s33.5 46.167 33.5 81.5c0 30 -7.16699 53.5 -21.5 70.5s-33.5 32.167 -57.5 45.5l-36 19
c-40 -9.33301 -71.167 -24.666 -93.5 -45.999s-33.5 -49 -33.5 -83z" />
    <glyph glyph-name="dieresis" unicode="&#xa8;" horiz-adv-x="445" 
d="M178 638c0 -17.333 -5.66699 -31.666 -17 -42.999s-25.666 -17 -42.999 -17s-31.666 5.66699 -42.999 17s-17 25.666 -17 42.999s5.66699 31.666 17 42.999s25.666 17 42.999 17s31.666 -5.66699 42.999 -17s17 -25.666 17 -42.999zM387 638
c0 -17.333 -5.66699 -31.666 -17 -42.999s-25.666 -17 -42.999 -17s-31.666 5.66699 -42.999 17s-17 25.666 -17 42.999s5.66699 31.666 17 42.999s25.666 17 42.999 17s31.666 -5.66699 42.999 -17s17 -25.666 17 -42.999z" />
    <glyph glyph-name="copyright" unicode="&#xa9;" horiz-adv-x="797" 
d="M290 348c0 -26.667 2.49805 -50.999 7.49805 -72.999s12.5 -41 22.5 -57s22.833 -28.5 38.5 -37.5s34.167 -13.5 55.5 -13.5c16 0 29.333 1.66699 40 5s19.334 8.33301 26.001 15s11.834 15 15.501 25s6.5 21.667 8.5 35h58v-87c-13.333 -8.66699 -32 -16.667 -56 -24
s-53.333 -11 -88 -11c-73.333 0 -127.833 18.667 -163.5 56s-53.5 90.333 -53.5 159c0 68 17.5 121.833 52.5 161.5s88.833 59.5 161.5 59.5c34.667 0 64 -3.66699 88 -11s42.667 -15.333 56 -24v-87l-64 -1c-2 13.333 -4.5 25.166 -7.5 35.499s-7.5 19 -13.5 26
s-13.833 12.333 -23.5 16s-22.5 5.5 -38.5 5.5c-43.333 0 -74.5 -15.667 -93.5 -47s-28.5 -73.333 -28.5 -126zM410.998 31.001c42 0 81.333 7.33301 118 22s68.5 35.5 95.5 62.5s48.333 59.833 64 98.5s23.5 81.667 23.5 129c0 48.667 -7.83301 92.334 -23.5 131.001
s-37 71.5 -64 98.5s-58.833 47.833 -95.5 62.5s-76 22 -118 22s-81.333 -7.33301 -118 -22s-68.5 -35.5 -95.5 -62.5s-48.333 -59.833 -64 -98.5s-23.5 -82.334 -23.5 -131.001c0 -47.333 7.83301 -90.333 23.5 -129s37 -71.5 64 -98.5s58.833 -47.833 95.5 -62.5
s76 -22 118 -22zM410.998 -11.999c-50.667 0 -97.666 8.33301 -140.999 25s-81 40.5 -113 71.5s-57 68.5 -75 112.5s-27 93 -27 147c0 53.333 9.33301 102 28 146s44.167 81.667 76.5 113s70 55.5 113 72.5s89.167 25.5 138.5 25.5c48.667 0 94.667 -8.5 138 -25.5
s81.166 -41.167 113.499 -72.5s57.833 -69 76.5 -113s28 -92.667 28 -146c0 -54 -9 -103 -27 -147s-43 -81.5 -75 -112.5s-69.667 -54.833 -113 -71.5s-90.333 -25 -141 -25z" />
    <glyph glyph-name="ordfeminine" unicode="&#xaa;" horiz-adv-x="437" 
d="M279 738c16.667 0 31.835 -3.16992 45.502 -9.50293s22.167 -16.5 25.5 -30.5c4 7.33301 8.33301 13.333 13 18s9.66699 9.33398 15 14.001h49c-6.66699 -11.333 -13.167 -26.5 -19.5 -45.5s-12.166 -39.833 -17.499 -62.5l-41 -179c-2.66699 -10 -4 -19 -4 -27
c0 -11.333 3 -19.166 9 -23.499s14.667 -6.5 26 -6.5h9c3.33301 0 8.66602 0.666992 15.999 2l2 -25c-15.333 -9.33301 -29.833 -15.5 -43.5 -18.5s-27.834 -4.5 -42.501 -4.5c-19.333 0 -33.5 5.33301 -42.5 16s-13.5 25.667 -13.5 45c0 4.66699 0.333008 11 1 19l4 24
c-8 -12.667 -17 -25 -27 -37c-10 -12.667 -21 -24.167 -33 -34.5s-24.833 -18.666 -38.5 -24.999s-27.834 -9.5 -42.501 -9.5c-28.667 0 -50.667 9.33301 -66 28s-23 44 -23 76c0 38.667 6.66699 75.834 20 111.501s31.166 67.167 53.499 94.5s47.833 49.166 76.5 65.499
s58.334 24.5 89.001 24.5zM275.001 699.997c-20.667 0 -40.166 -7 -58.499 -21s-34.5 -32.667 -48.5 -56s-25 -50.166 -33 -80.499s-12 -61.5 -12 -93.5c0 -20.667 3.5 -35.5 10.5 -44.5s16.167 -13.5 27.5 -13.5c10 0 20.5 3.83301 31.5 11.5s22 17.5 33 29.5
s21.5 25.167 31.5 39.5s19 28.166 27 41.499l38 160c-3.33301 8 -8.83301 14.5 -16.5 19.5s-17.834 7.5 -30.501 7.5z" />
    <glyph glyph-name="guillemotleft" unicode="&#xab;" horiz-adv-x="506" 
d="M136 241l71 -180l-39 -30l-128 213l211 213l29 -31zM332 241l71 -180l-39 -30l-128 213l211 213l29 -31z" />
    <glyph glyph-name="logicalnot" unicode="&#xac;" horiz-adv-x="507" 
d="M66 293h391l-43 -221h-59l32 165h-332z" />
    <glyph glyph-name="uni00AD" unicode="&#xad;" horiz-adv-x="313" 
d="M48 235l13 71h203l-13 -71h-203z" />
    <glyph glyph-name="registered" unicode="&#xae;" horiz-adv-x="797" 
d="M431 328c33.333 -8.66699 60.665 -29.6631 81.998 -62.9961c4.66699 -7.33301 9.66699 -16 15 -26l19 -37c4 -7.33301 7.83301 -13.333 11.5 -18s7.66699 -8.33398 12 -11.001s9.5 -4.5 15.5 -5.5s13.667 -1.5 23 -1.5v-30h-115
c-8.66699 19.333 -17.834 38.333 -27.501 57l-25.5 49l-22 39.5c-6 10.333 -12.167 18.833 -18.5 25.5s-13.166 11.5 -20.499 14.5s-16.666 4.5 -27.999 4.5v-102c0 -12 0.833008 -21.833 2.5 -29.5s4.83398 -13.667 9.50098 -18s11 -7.33301 19 -9s18.333 -2.5 31 -2.5v-29
h-190v29c12.667 0 22.5 1 29.5 3s12.333 5.33301 16 10s6 10.667 7 18s1.5 16.666 1.5 27.999v241c0 11.333 -0.5 20.666 -1.5 27.999s-3.33301 13.333 -7 18s-9 8 -16 10s-16.833 3 -29.5 3v31h172c24 0 46 -1.66699 66 -5s37.167 -9.33301 51.5 -18
s25.333 -20.334 33 -35.001s11.5 -33.334 11.5 -56.001c0 -21.333 -2.83301 -39 -8.5 -53s-14 -25.167 -25 -33.5s-24.333 -14.166 -40 -17.499s-33.5 -5.33301 -53.5 -6v-3zM478.999 441.004c0 26.667 -7 46 -21 58s-40.667 18 -80 18h-26v-156h39
c33.333 0 56.333 5.5 69 16.5s19 32.167 19 63.5zM410.999 31.0039c42 0 81.333 7.33301 118 22s68.5 35.5 95.5 62.5s48.333 59.833 64 98.5s23.5 81.667 23.5 129c0 48.667 -7.83301 92.334 -23.5 131.001s-37 71.5 -64 98.5s-58.833 47.833 -95.5 62.5s-76 22 -118 22
s-81.333 -7.33301 -118 -22s-68.5 -35.5 -95.5 -62.5s-48.333 -59.833 -64 -98.5s-23.5 -82.334 -23.5 -131.001c0 -47.333 7.83301 -90.333 23.5 -129s37 -71.5 64 -98.5s58.833 -47.833 95.5 -62.5s76 -22 118 -22zM410.999 -11.9961
c-50.667 0 -97.666 8.33301 -140.999 25s-81 40.5 -113 71.5s-57 68.5 -75 112.5s-27 93 -27 147c0 53.333 9.33301 102 28 146s44.167 81.667 76.5 113s70 55.5 113 72.5s89.167 25.5 138.5 25.5c48.667 0 94.667 -8.5 138 -25.5s81.166 -41.167 113.499 -72.5
s57.833 -69 76.5 -113s28 -92.667 28 -146c0 -54 -9 -103 -27 -147s-43 -81.5 -75 -112.5s-69.667 -54.833 -113 -71.5s-90.333 -25 -141 -25z" />
    <glyph glyph-name="macron" unicode="&#xaf;" horiz-adv-x="351" 
d="M30 590l10 57h281l-10 -57h-281z" />
    <glyph glyph-name="degree" unicode="&#xb0;" horiz-adv-x="411" 
d="M391 549c0 -24.667 -4.16895 -48.499 -12.502 -71.499s-20.166 -43.5 -35.499 -61.5s-34.5 -32.333 -57.5 -43s-48.833 -16 -77.5 -16c-45.333 0 -81.333 12.667 -108 38s-40 60.666 -40 105.999c0 30 4.33301 57 13 81s21 44.5 37 61.5s35 30 57 39s46.667 13.5 74 13.5
c46.667 0 83.334 -13 110.001 -39s40 -62 40 -108zM213.998 414.001c17.333 0 32.332 3.49902 44.999 10.499s23 16.833 31 29.5s14 27.334 18 44.001s6 34.667 6 54c0 32 -6.66699 54.5 -20 67.5s-32.666 19.5 -57.999 19.5c-32 0 -56.667 -12.167 -74 -36.5
s-26 -56.833 -26 -97.5c0 -34 6.5 -57.667 19.5 -71s32.5 -20 58.5 -20z" />
    <glyph glyph-name="plusminus" unicode="&#xb1;" horiz-adv-x="559" 
d="M360 507l-30 -155h164l-11 -56h-164l-32 -164h-59l32 164h-168l11 56h168l30 155h59zM50 81h391l-10 -56h-391z" />
    <glyph glyph-name="twosuperior" unicode="&#xb2;" horiz-adv-x="343" 
d="M220 651c35.333 0 63.333 -7.49805 84 -22.498s31 -38.167 31 -69.5c0 -19.333 -4.33301 -37.333 -13 -54s-20.667 -32.834 -36 -48.501s-33.333 -31.334 -54 -47.001l-67 -49.5l-71 -52h220l-22 -58h-280l9 41l95 80l61 52c17.333 14.667 31.5 28.5 42.5 41.5
s19.167 26 24.5 39s8 27.167 8 42.5c0 19.333 -5.16699 33.166 -15.5 41.499s-25.5 12.5 -45.5 12.5c-20.667 0 -39.667 -5 -57 -15s-33.666 -22.333 -48.999 -37l-19 28c14.667 20.667 34.667 38.334 60 53.001s56.666 22 93.999 22z" />
    <glyph glyph-name="threesuperior" unicode="&#xb3;" horiz-adv-x="329" 
d="M171 604c-17.333 0 -33.1689 -3.66895 -47.502 -11.002s-27.5 -17 -39.5 -29l-23 26c16 18.667 35.667 33.5 59 44.5s50.333 16.5 81 16.5s56.667 -6.5 78 -19.5s32 -33.833 32 -62.5c0 -28 -10.667 -51.5 -32 -70.5s-47 -31.167 -77 -36.5
c26.667 -3.33301 47 -12 61 -26s21 -32.333 21 -55c0 -26 -6.5 -48.5 -19.5 -67.5s-30 -34.667 -51 -47s-44.5 -21.5 -70.5 -27.5s-51.667 -9 -77 -9c-31.333 0 -56 3 -74 9l-5 35c8 -2 18 -3.5 30 -4.5s22 -1.5 30 -1.5c20 0 39.5 2.33301 58.5 7
s35.833 11.834 50.5 21.501s26.334 21.5 35.001 35.5s13 30.333 13 49c0 22.667 -5.83301 37.834 -17.5 45.501s-27.5 11.5 -47.5 11.5c-8 0 -14.333 -0.166992 -19 -0.5s-9.66699 -0.833008 -15 -1.5l10 43c4.66699 -0.666992 9.33398 -1 14.001 -1h16
c23.333 0 43.333 6 60 18s25 31.333 25 58c0 33.333 -19.667 50 -59 50z" />
    <glyph glyph-name="acute" unicode="&#xb4;" horiz-adv-x="545" 
d="M177 600l179 153l53 -91l-212 -96z" />
    <glyph glyph-name="mu" unicode="&#xb5;" horiz-adv-x="537" 
d="M329 126c-24 -40 -50.8271 -73.3301 -80.4941 -99.9971s-59.5 -40 -89.5 -40c-13.333 0 -24.333 2.66699 -33 8s-14.334 11.666 -17.001 18.999l-4 -2c0.666992 -2.66699 1.16699 -5.83398 1.5 -9.50098s0.5 -8.83398 0.5 -15.501c0 -14 -2 -31.333 -6 -52l-24 -116
l-94 -29l121 565c3.33301 16.667 5 29.667 5 39c0 17.333 -5.33301 29.666 -16 36.999s-30 11 -58 11l7 31c13.333 6.66699 28.666 12.334 45.999 17.001s34.666 7 51.999 7c18.667 0 33.834 -7 45.501 -21s17.5 -35 17.5 -63c0 -6 -0.666992 -14.167 -2 -24.5
s-3 -20.833 -5 -31.5l-48 -227c-3.33301 -15.333 -5 -27.333 -5 -36c0 -24 11 -36 33 -36c15.333 0 31.166 5.33301 47.499 16s32.166 24 47.499 40s29.666 33.333 42.999 52s25 36.334 35 53.001l58 273h90l-77 -369c-2 -8.66699 -3.33301 -15.167 -4 -19.5
s-1 -8.83301 -1 -13.5c0 -26.667 16.333 -40 49 -40c4 0 8.33301 0.166992 13 0.5s9.66699 0.833008 15 1.5l3 -31c-36.667 -19.333 -70.334 -29 -101.001 -29c-24 0 -41.833 7.66699 -53.5 23s-17.5 35.666 -17.5 60.999c0 16 2 33 6 51z" />
    <glyph glyph-name="paragraph" unicode="&#xb6;" horiz-adv-x="641" 
d="M675 658c-16.667 -0.666992 -30.502 -2.33105 -41.502 -4.99805s-20 -6.83398 -27 -12.501s-12.5 -13.334 -16.5 -23.001s-7.33301 -21.5 -10 -35.5l-137 -707h-55l149 767h-85l-149 -767h-55l84 432h-44c-74.667 0 -129.667 14 -165 42s-53 66.333 -53 115
c0 40.667 6.16699 75.167 18.5 103.5s30.333 51.5 54 69.5s52.334 31.167 86.001 39.5s71.834 12.5 114.501 12.5h338zM350.998 642.003c-33.333 0 -59.833 -16.332 -79.5 -48.999s-29.5 -84.334 -29.5 -155.001c0 -30 5 -51.333 15 -64s29 -19 57 -19h27l56 287h-46z" />
    <glyph glyph-name="periodcentered" unicode="&#xb7;" horiz-adv-x="291" 
d="M216 278c0 -20.667 -6.66699 -38 -20 -52s-30.333 -21 -51 -21s-37.667 7 -51 21s-20 31.333 -20 52s6.66699 38 20 52s30.333 21 51 21s37.667 -7 51 -21s20 -31.333 20 -52z" />
    <glyph glyph-name="cedilla" unicode="&#xb8;" horiz-adv-x="288" 
d="M233 -113c0 -56.667 -32.998 -85 -98.998 -85c-19.333 0 -35.333 2.5 -48 7.5s-23.667 10.833 -33 17.5l16 32c11.333 -7.33301 21.666 -12.166 30.999 -14.499s19.666 -3.5 30.999 -3.5s20.833 2.16699 28.5 6.5s11.5 14.166 11.5 29.499
c0 12.667 -7.66699 21.167 -23 25.5s-32.333 6.83301 -51 7.5l1 21l33 79l37 -6l-18 -43c30 -2.66699 51.333 -11.167 64 -25.5s19 -30.5 19 -48.5z" />
    <glyph glyph-name="onesuperior" unicode="&#xb9;" horiz-adv-x="304" 
d="M190 326c-2 -10 -2.66699 -17.833 -2 -23.5s3.66699 -10.167 9 -13.5s13.5 -5.66602 24.5 -6.99902s25.833 -2.33301 44.5 -3l-6 -29h-248l6 29c18 0.666992 32.5 1.5 43.5 2.5s19.833 2.83301 26.5 5.5s11.667 6.66699 15 12s6 12.666 8 21.999l55 257
c-14.667 -6.66699 -31 -13.167 -49 -19.5s-34.333 -11.5 -49 -15.5l-3 28l136 73h57z" />
    <glyph glyph-name="ordmasculine" unicode="&#xba;" horiz-adv-x="418" 
d="M388 586c0 -33.333 -4.83398 -64.8311 -14.501 -94.498s-23.5 -55.834 -41.5 -78.501s-39.667 -40.667 -65 -54s-53.333 -20 -84 -20c-44 0 -78.833 13.5 -104.5 40.5s-38.5 62.167 -38.5 105.5c0 35.333 5.66699 68.166 17 98.499s26.333 56.5 45 78.5
s40.334 39.333 65.001 52s50.667 19 78 19c23.333 0 43.833 -3.83301 61.5 -11.5s32.5 -18.167 44.5 -31.5s21.167 -29 27.5 -47s9.5 -37 9.5 -57zM306.999 595.002c0 30.667 -5.33398 54.501 -16.001 71.501s-27.667 25.5 -51 25.5c-14.667 0 -28.167 -4.16699 -40.5 -12.5
s-23.166 -19.5 -32.499 -33.5c-14 -20.667 -25 -45.834 -33 -75.501s-12 -61.5 -12 -95.5c0 -28 5.16699 -50.833 15.5 -68.5s27.5 -26.5 51.5 -26.5c13.333 0 25.333 3 36 9s20.667 14.333 30 25c17.333 19.333 30.333 45.333 39 78s13 67 13 103z" />
    <glyph glyph-name="guillemotright" unicode="&#xbb;" horiz-adv-x="506" 
d="M370 247l-71 180l39 30l128 -213l-211 -213l-29 31zM174 247l-71 180l39 30l128 -213l-211 -213l-29 31z" />
    <glyph glyph-name="onequarter" unicode="&#xbc;" horiz-adv-x="832" 
d="M118 -123h-54l617 853h54zM663 91h-198l5 25l211 278h76l-221 -267h134c7.33301 34.667 15.5 64 24.5 88s20.167 48 33.5 72l58 10l-36 -170h52l-7 -36h-52l-22 -101l-82 -11zM190 326c-2 -10 -2.66699 -17.833 -2 -23.5s3.66699 -10.167 9 -13.5
s13.5 -5.66602 24.5 -6.99902s25.833 -2.33301 44.5 -3l-6 -29h-248l6 29c18 0.666992 32.5 1.5 43.5 2.5s19.833 2.83301 26.5 5.5s11.667 6.66699 15 12s6 12.666 8 21.999l55 257c-14.667 -6.66699 -31 -13.167 -49 -19.5s-34.333 -11.5 -49 -15.5l-3 28l136 73h57z" />
    <glyph glyph-name="onehalf" unicode="&#xbd;" horiz-adv-x="838" 
d="M118 -123h-54l617 853h54zM703 401c35.333 0 63.333 -7.49805 84 -22.498s31 -38.167 31 -69.5c0 -19.333 -4.33301 -37.333 -13 -54s-20.667 -32.834 -36 -48.501s-33.333 -31.334 -54 -47.001l-67 -49.5l-71 -52h220l-22 -58h-280l9 41l95 80l61 52
c17.333 14.667 31.5 28.5 42.5 41.5s19.167 26 24.5 39s8 27.167 8 42.5c0 19.333 -5.16699 33.166 -15.5 41.499s-25.5 12.5 -45.5 12.5c-20.667 0 -39.667 -5 -57 -15s-33.666 -22.333 -48.999 -37l-19 28c14.667 20.667 34.667 38.334 60 53.001s56.666 22 93.999 22z
M190 326.002c-2 -10 -2.66699 -17.833 -2 -23.5s3.66699 -10.167 9 -13.5s13.5 -5.66602 24.5 -6.99902s25.833 -2.33301 44.5 -3l-6 -29h-248l6 29c18 0.666992 32.5 1.5 43.5 2.5s19.833 2.83301 26.5 5.5s11.667 6.66699 15 12s6 12.666 8 21.999l55 257
c-14.667 -6.66699 -31 -13.167 -49 -19.5s-34.333 -11.5 -49 -15.5l-3 28l136 73h57z" />
    <glyph glyph-name="threequarters" unicode="&#xbe;" horiz-adv-x="857" 
d="M688 91h-198l5 25l211 278h76l-221 -267h134c7.33301 34.667 15.5 64 24.5 88s20.167 48 33.5 72l58 10l-36 -170h52l-7 -36h-52l-22 -101l-82 -11zM171 604c-17.333 0 -33.1689 -3.66895 -47.502 -11.002s-27.5 -17 -39.5 -29l-23 26c16 18.667 35.667 33.5 59 44.5
s50.333 16.5 81 16.5s56.667 -6.5 78 -19.5s32 -33.833 32 -62.5c0 -28 -10.667 -51.5 -32 -70.5s-47 -31.167 -77 -36.5c26.667 -3.33301 47 -12 61 -26s21 -32.333 21 -55c0 -26 -6.5 -48.5 -19.5 -67.5s-30 -34.667 -51 -47s-44.5 -21.5 -70.5 -27.5s-51.667 -9 -77 -9
c-31.333 0 -56 3 -74 9l-5 35c8 -2 18 -3.5 30 -4.5s22 -1.5 30 -1.5c20 0 39.5 2.33301 58.5 7s35.833 11.834 50.5 21.501s26.334 21.5 35.001 35.5s13 30.333 13 49c0 22.667 -5.83301 37.834 -17.5 45.501s-27.5 11.5 -47.5 11.5c-8 0 -14.333 -0.166992 -19 -0.5
s-9.66699 -0.833008 -15 -1.5l10 43c4.66699 -0.666992 9.33398 -1 14.001 -1h16c23.333 0 43.333 6 60 18s25 31.333 25 58c0 33.333 -19.667 50 -59 50zM142.997 -123.002h-54l617 853h54z" />
    <glyph glyph-name="questiondown" unicode="&#xbf;" horiz-adv-x="443" 
d="M209 432c0 20 7 37.167 21 51.5s30.667 21.5 50 21.5s35.5 -7.16699 48.5 -21.5s19.5 -31.5 19.5 -51.5c0 -19.333 -6.5 -35.5 -19.5 -48.5s-29.167 -19.5 -48.5 -19.5s-36 6.5 -50 19.5s-21 29.167 -21 48.5zM174 -162c34 0 59.334 8 76.001 24s29 38.333 37 67h66
l-20 -90c-17.333 -11.333 -39.833 -22 -67.5 -32s-59.5 -15 -95.5 -15c-23.333 0 -45.333 2.33301 -66 7s-38.667 12 -54 22s-27.5 23.333 -36.5 40s-13.5 37 -13.5 61c0 22.667 3.33301 43 10 61s16.667 34.833 30 50.5s29.5 30.5 48.5 44.5s41.167 28 66.5 42
c22 12.667 39.333 24.667 52 36s22 23.166 28 35.499s9.83301 25.333 11.5 39s2.5 29.167 2.5 46.5h38c3.33301 -6 6.66602 -14.833 9.99902 -26.5s5 -25.167 5 -40.5c0 -27.333 -7.33301 -52 -22 -74s-37.334 -43.667 -68.001 -65c-19.333 -13.333 -36 -25.333 -50 -36
s-25.667 -21.667 -35 -33s-16.166 -23.666 -20.499 -36.999s-6.5 -29.333 -6.5 -48c0 -24.667 6 -44 18 -58s30.667 -21 56 -21z" />
    <glyph glyph-name="Agrave" unicode="&#xc0;" horiz-adv-x="643" 
d="M478 727l-214 70l43 92l191 -128zM419 215l-225.999 0.00195312l-55 -108c-10 -19.333 -15 -34 -15 -44c0 -10.667 5.16699 -17.834 15.5 -21.501s25.833 -5.83398 46.5 -6.50098l-7 -35h-215l7 35c12.667 2 23.667 4.33301 33 7s18.166 7 26.499 13
s16.333 14.167 24 24.5s16.167 24.166 25.5 41.499l293 568h94l57 -566c2.66699 -29.333 9 -50.666 19 -63.999s27.667 -21.333 53 -24l-7 -35h-239l7 35c28 1.33301 47.167 6 57.5 14s15.5 21.667 15.5 41v5c0 2.66699 -0.333008 6.66699 -1 12zM218.001 263.002
l196.999 0.000976562l-20 212c-2 22.667 -3.33301 42 -4 58s-1 29 -1 39s0.166992 17.167 0.5 21.5s0.5 7.16602 0.5 8.49902h-6l-13 -33c-7.33301 -18.667 -19.666 -45 -36.999 -79z" />
    <glyph glyph-name="Aacute" unicode="&#xc1;" horiz-adv-x="643" 
d="M310 761l191 128l43 -92l-214 -70zM419 215l-225.999 0.00195312l-55 -108c-10 -19.333 -15 -34 -15 -44c0 -10.667 5.16699 -17.834 15.5 -21.501s25.833 -5.83398 46.5 -6.50098l-7 -35h-215l7 35c12.667 2 23.667 4.33301 33 7s18.166 7 26.499 13
s16.333 14.167 24 24.5s16.167 24.166 25.5 41.499l293 568h94l57 -566c2.66699 -29.333 9 -50.666 19 -63.999s27.667 -21.333 53 -24l-7 -35h-239l7 35c28 1.33301 47.167 6 57.5 14s15.5 21.667 15.5 41v5c0 2.66699 -0.333008 6.66699 -1 12zM218.001 263.002
l196.999 0.000976562l-20 212c-2 22.667 -3.33301 42 -4 58s-1 29 -1 39s0.166992 17.167 0.5 21.5s0.5 7.16602 0.5 8.49902h-6l-13 -33c-7.33301 -18.667 -19.666 -45 -36.999 -79z" />
    <glyph glyph-name="Acircumflex" unicode="&#xc2;" horiz-adv-x="643" 
d="M433 809l-156 -85l-21 30l192 153l129 -155l-24 -28zM419 215l-225.999 0.00195312l-55 -108c-10 -19.333 -15 -34 -15 -44c0 -10.667 5.16699 -17.834 15.5 -21.501s25.833 -5.83398 46.5 -6.50098l-7 -35h-215l7 35c12.667 2 23.667 4.33301 33 7s18.166 7 26.499 13
s16.333 14.167 24 24.5s16.167 24.166 25.5 41.499l293 568h94l57 -566c2.66699 -29.333 9 -50.666 19 -63.999s27.667 -21.333 53 -24l-7 -35h-239l7 35c28 1.33301 47.167 6 57.5 14s15.5 21.667 15.5 41v5c0 2.66699 -0.333008 6.66699 -1 12zM218.001 263.002
l196.999 0.000976562l-20 212c-2 22.667 -3.33301 42 -4 58s-1 29 -1 39s0.166992 17.167 0.5 21.5s0.5 7.16602 0.5 8.49902h-6l-13 -33c-7.33301 -18.667 -19.666 -45 -36.999 -79z" />
    <glyph glyph-name="Atilde" unicode="&#xc3;" horiz-adv-x="643" 
d="M498 818c17.333 0 31.666 4.16797 42.999 12.501s21.333 19.166 30 32.499l36 -14c-8.66699 -25.333 -21.5 -47.5 -38.5 -66.5s-40.5 -28.5 -70.5 -28.5c-17.333 0 -32.166 2.33301 -44.499 7s-23.666 9.66699 -33.999 15l-29.5 15c-9.33301 4.66699 -19.333 7 -30 7
c-19.333 0 -33.833 -4.5 -43.5 -13.5s-18.834 -20.167 -27.501 -33.5l-34 13c7.33301 28 19.166 51.667 35.499 71s39.5 29 69.5 29c16.667 0 30.834 -2.33301 42.501 -7s22.5 -10 32.5 -16s20 -11.333 30 -16s21 -7 33 -7zM419 215.001l-225.999 0.00195312l-55 -108
c-10 -19.333 -15 -34 -15 -44c0 -10.667 5.16699 -17.834 15.5 -21.501s25.833 -5.83398 46.5 -6.50098l-7 -35h-215l7 35c12.667 2 23.667 4.33301 33 7s18.166 7 26.499 13s16.333 14.167 24 24.5s16.167 24.166 25.5 41.499l293 568h94l57 -566
c2.66699 -29.333 9 -50.666 19 -63.999s27.667 -21.333 53 -24l-7 -35h-239l7 35c28 1.33301 47.167 6 57.5 14s15.5 21.667 15.5 41v5c0 2.66699 -0.333008 6.66699 -1 12zM218.001 263.003l196.999 0.000976562l-20 212c-2 22.667 -3.33301 42 -4 58s-1 29 -1 39
s0.166992 17.167 0.5 21.5s0.5 7.16602 0.5 8.49902h-6l-13 -33c-7.33301 -18.667 -19.666 -45 -36.999 -79z" />
    <glyph glyph-name="Adieresis" unicode="&#xc4;" horiz-adv-x="643" 
d="M385 787c0 -17.333 -5.66699 -31.666 -17 -42.999s-25.666 -17 -42.999 -17s-31.666 5.66699 -42.999 17s-17 25.666 -17 42.999s5.66699 31.666 17 42.999s25.666 17 42.999 17s31.666 -5.66699 42.999 -17s17 -25.666 17 -42.999zM594 787
c0 -17.333 -5.66699 -31.666 -17 -42.999s-25.666 -17 -42.999 -17s-31.666 5.66699 -42.999 17s-17 25.666 -17 42.999s5.66699 31.666 17 42.999s25.666 17 42.999 17s31.666 -5.66699 42.999 -17s17 -25.666 17 -42.999zM419 215l-225.999 0.00195312l-55 -108
c-10 -19.333 -15 -34 -15 -44c0 -10.667 5.16699 -17.834 15.5 -21.501s25.833 -5.83398 46.5 -6.50098l-7 -35h-215l7 35c12.667 2 23.667 4.33301 33 7s18.166 7 26.499 13s16.333 14.167 24 24.5s16.167 24.166 25.5 41.499l293 568h94l57 -566
c2.66699 -29.333 9 -50.666 19 -63.999s27.667 -21.333 53 -24l-7 -35h-239l7 35c28 1.33301 47.167 6 57.5 14s15.5 21.667 15.5 41v5c0 2.66699 -0.333008 6.66699 -1 12zM218.001 263.002l196.999 0.000976562l-20 212c-2 22.667 -3.33301 42 -4 58s-1 29 -1 39
s0.166992 17.167 0.5 21.5s0.5 7.16602 0.5 8.49902h-6l-13 -33c-7.33301 -18.667 -19.666 -45 -36.999 -79z" />
    <glyph glyph-name="Aring" unicode="&#xc5;" horiz-adv-x="643" 
d="M417 719c-30 0 -53.499 9.16797 -70.499 27.501s-25.5 40.833 -25.5 67.5c0 32 10.167 58.167 30.5 78.5s46.5 30.5 78.5 30.5c30 0 53.333 -9.33301 70 -28s25 -41.334 25 -68.001c0 -32 -9.83301 -58 -29.5 -78s-45.834 -30 -78.501 -30zM427.001 888.001
c-19.333 0 -34.999 -6.83203 -46.999 -20.499s-18 -30.834 -18 -51.501c0 -18.667 4.66699 -33.5 14 -44.5s22.666 -16.5 39.999 -16.5c20 0 36.333 6.5 49 19.5s19 29.167 19 48.5s-5 35 -15 47s-24 18 -42 18zM419.002 215.002l-225.999 0.00195312l-55 -108
c-10 -19.333 -15 -34 -15 -44c0 -10.667 5.16699 -17.834 15.5 -21.501s25.833 -5.83398 46.5 -6.50098l-7 -35h-215l7 35c12.667 2 23.667 4.33301 33 7s18.166 7 26.499 13s16.333 14.167 24 24.5s16.167 24.166 25.5 41.499l293 568h94l57 -566
c2.66699 -29.333 9 -50.666 19 -63.999s27.667 -21.333 53 -24l-7 -35h-239l7 35c28 1.33301 47.167 6 57.5 14s15.5 21.667 15.5 41v5c0 2.66699 -0.333008 6.66699 -1 12zM218.003 263.004l196.999 0.000976562l-20 212c-2 22.667 -3.33301 42 -4 58s-1 29 -1 39
s0.166992 17.167 0.5 21.5s0.5 7.16602 0.5 8.49902h-6l-13 -33c-7.33301 -18.667 -19.666 -45 -36.999 -79z" />
    <glyph glyph-name="AE" unicode="&#xc6;" horiz-adv-x="916" 
d="M342 35c16.667 0.666992 30.501 2.33594 41.501 5.00293s20 6.83398 27 12.501s12.5 13.334 16.5 23.001s7.33301 21.5 10 35.5l26 134h-213l-102 -138c-5.33301 -7.33301 -10.333 -15.333 -15 -24s-7 -15.667 -7 -21c0 -16.667 19.667 -25.667 59 -27l-7 -35h-215l7 35
c12.667 2 23.834 4.66699 33.501 8s19.167 8.16602 28.5 14.499s18.666 14.666 27.999 24.999s19.666 23.166 30.999 38.499l352 476c11.333 15.333 17 27 17 35c0 7.33301 -4.66699 12.666 -14 15.999s-24.666 5.33301 -45.999 6l6 35h532l-19 -150h-42
c-2 18.667 -4.33301 34.5 -7 47.5s-6.66699 23.5 -12 31.5s-12.5 13.667 -21.5 17s-20.833 5 -35.5 5h-163l-50 -256h89c15.333 0 28.5 1 39.5 3s20.333 5.66699 28 11s14 12.666 19 21.999s9.5 21 13.5 35h41l-37 -190h-41c3.33301 27.333 0.166016 46 -9.50098 56
s-30.167 15 -61.5 15h-90l-56 -287h164c19.333 0 35.5 1.66699 48.5 5s24.167 9.33301 33.5 18s17.5 20.5 24.5 35.5s13.833 34.167 20.5 57.5h45l-32 -165h-491zM286.001 293.002h185.999l38 191c8 42 16.333 77.167 25 105.5s14.334 45.833 17.001 52.5h-6z" />
    <glyph glyph-name="Ccedilla" unicode="&#xc7;" horiz-adv-x="578" 
d="M354 -113c0 -56.667 -32.999 -84.999 -98.999 -84.999c-19.333 0 -35.333 2.5 -48 7.5s-23.667 10.833 -33 17.5l16 32c11.333 -7.33301 21.666 -12.166 30.999 -14.499s19.666 -3.5 30.999 -3.5s20.833 2.16699 28.5 6.5s11.5 14.166 11.5 29.499
c0 12.667 -7.66699 21.167 -23 25.5s-32.333 6.83301 -51 7.5l1 21l24 59c-63.333 9.33301 -109.166 35.833 -137.499 79.5s-42.5 100.5 -42.5 170.5c0 57.333 7.66699 113.666 23 168.999s38.333 104.5 69 147.5s68.834 77.667 114.501 104s98.5 39.5 158.5 39.5
c22.667 0 42.5 -1.5 59.5 -4.5s32.167 -6.83301 45.5 -11.5s25 -10 35 -16s19 -12.333 27 -19l-22 -109h-68c-1.33301 19.333 -3 36 -5 50s-6.16699 25.667 -12.5 35s-15.166 16.333 -26.499 21s-26.333 7 -45 7c-31.333 0 -59.333 -6.5 -84 -19.5
s-46.167 -30.5 -64.5 -52.5s-34 -47.333 -47 -76s-23.333 -58.667 -31 -90s-13.334 -62.833 -17.001 -94.5s-5.5 -61.167 -5.5 -88.5c0 -37.333 2.83301 -68.666 8.5 -93.999s14.167 -45.833 25.5 -61.5s25.333 -26.834 42 -33.501s35.667 -10 57 -10
c40 0 71.667 8.5 95 25.5s42.666 45.167 57.999 84.5h66l-21 -105c-10 -6 -22.333 -12.167 -37 -18.5s-30.667 -12 -48 -17s-36 -9 -56 -12s-40.333 -4.5 -61 -4.5h-15l-10 -25c30 -2.66699 51.333 -11.167 64 -25.5s19 -30.5 19 -48.5z" />
    <glyph glyph-name="Egrave" unicode="&#xc8;" horiz-adv-x="568" 
d="M466 727l-214 70l43 92l191 -128zM-6 35c16.667 0.666992 30.5 2.33105 41.5 4.99805s20 6.83398 27 12.501s12.5 13.334 16.5 23.001s7.33301 21.5 10 35.5l91 467c1.33301 5.33301 2.33301 10.833 3 16.5s1 10.834 1 15.501c0 16 -5.16699 27 -15.5 33
s-28.166 9.66699 -53.499 11l6 35h469l-19 -150h-42c-2 18.667 -4.33301 34.5 -7 47.5s-6.66699 23.5 -12 31.5s-12.5 13.667 -21.5 17s-20.833 5 -35.5 5h-163l-50 -256h89c15.333 0 28.5 1 39.5 3s20.333 5.66699 28 11s14 12.666 19 21.999s9.5 21 13.5 35h41l-37 -190
h-41c3.33301 27.333 0.166016 46 -9.50098 56s-30.167 15 -61.5 15h-90l-56 -287h164c19.333 0 35.5 1.66699 48.5 5s24.167 9.33301 33.5 18s17.5 20.5 24.5 35.5s13.833 34.167 20.5 57.5h45l-32 -165h-491z" />
    <glyph glyph-name="Eacute" unicode="&#xc9;" horiz-adv-x="568" 
d="M284 761l191 128l43 -92l-214 -70zM-6 35c16.667 0.666992 30.5 2.33105 41.5 4.99805s20 6.83398 27 12.501s12.5 13.334 16.5 23.001s7.33301 21.5 10 35.5l91 467c1.33301 5.33301 2.33301 10.833 3 16.5s1 10.834 1 15.501c0 16 -5.16699 27 -15.5 33
s-28.166 9.66699 -53.499 11l6 35h469l-19 -150h-42c-2 18.667 -4.33301 34.5 -7 47.5s-6.66699 23.5 -12 31.5s-12.5 13.667 -21.5 17s-20.833 5 -35.5 5h-163l-50 -256h89c15.333 0 28.5 1 39.5 3s20.333 5.66699 28 11s14 12.666 19 21.999s9.5 21 13.5 35h41l-37 -190
h-41c3.33301 27.333 0.166016 46 -9.50098 56s-30.167 15 -61.5 15h-90l-56 -287h164c19.333 0 35.5 1.66699 48.5 5s24.167 9.33301 33.5 18s17.5 20.5 24.5 35.5s13.833 34.167 20.5 57.5h45l-32 -165h-491z" />
    <glyph glyph-name="Ecircumflex" unicode="&#xca;" horiz-adv-x="568" 
d="M390 809l-156 -85l-21 30l192 153l129 -155l-24 -28zM-6 35c16.667 0.666992 30.5 2.33105 41.5 4.99805s20 6.83398 27 12.501s12.5 13.334 16.5 23.001s7.33301 21.5 10 35.5l91 467c1.33301 5.33301 2.33301 10.833 3 16.5s1 10.834 1 15.501
c0 16 -5.16699 27 -15.5 33s-28.166 9.66699 -53.499 11l6 35h469l-19 -150h-42c-2 18.667 -4.33301 34.5 -7 47.5s-6.66699 23.5 -12 31.5s-12.5 13.667 -21.5 17s-20.833 5 -35.5 5h-163l-50 -256h89c15.333 0 28.5 1 39.5 3s20.333 5.66699 28 11s14 12.666 19 21.999
s9.5 21 13.5 35h41l-37 -190h-41c3.33301 27.333 0.166016 46 -9.50098 56s-30.167 15 -61.5 15h-90l-56 -287h164c19.333 0 35.5 1.66699 48.5 5s24.167 9.33301 33.5 18s17.5 20.5 24.5 35.5s13.833 34.167 20.5 57.5h45l-32 -165h-491z" />
    <glyph glyph-name="Edieresis" unicode="&#xcb;" horiz-adv-x="568" 
d="M343 787c0 -17.333 -5.66699 -31.666 -17 -42.999s-25.666 -17 -42.999 -17s-31.666 5.66699 -42.999 17s-17 25.666 -17 42.999s5.66699 31.666 17 42.999s25.666 17 42.999 17s31.666 -5.66699 42.999 -17s17 -25.666 17 -42.999zM552 787
c0 -17.333 -5.66699 -31.666 -17 -42.999s-25.666 -17 -42.999 -17s-31.666 5.66699 -42.999 17s-17 25.666 -17 42.999s5.66699 31.666 17 42.999s25.666 17 42.999 17s31.666 -5.66699 42.999 -17s17 -25.666 17 -42.999zM-6 35
c16.667 0.666992 30.5 2.33105 41.5 4.99805s20 6.83398 27 12.501s12.5 13.334 16.5 23.001s7.33301 21.5 10 35.5l91 467c1.33301 5.33301 2.33301 10.833 3 16.5s1 10.834 1 15.501c0 16 -5.16699 27 -15.5 33s-28.166 9.66699 -53.499 11l6 35h469l-19 -150h-42
c-2 18.667 -4.33301 34.5 -7 47.5s-6.66699 23.5 -12 31.5s-12.5 13.667 -21.5 17s-20.833 5 -35.5 5h-163l-50 -256h89c15.333 0 28.5 1 39.5 3s20.333 5.66699 28 11s14 12.666 19 21.999s9.5 21 13.5 35h41l-37 -190h-41c3.33301 27.333 0.166016 46 -9.50098 56
s-30.167 15 -61.5 15h-90l-56 -287h164c19.333 0 35.5 1.66699 48.5 5s24.167 9.33301 33.5 18s17.5 20.5 24.5 35.5s13.833 34.167 20.5 57.5h45l-32 -165h-491z" />
    <glyph glyph-name="Igrave" unicode="&#xcc;" horiz-adv-x="327" 
d="M329 727l-214 70l43 92l191 -128zM187 111c-1.33301 -5.33301 -2.33301 -10.833 -3 -16.5s-1 -10.834 -1 -15.501c0 -16 5.16699 -27 15.5 -33s28.166 -9.66699 53.499 -11l-6 -35h-258l6 35c16.667 0.666992 30.5 2.33398 41.5 5.00098s20 6.83398 27 12.501
s12.5 13.334 16.5 23.001s7.33301 21.5 10 35.5l91 467c1.33301 5.33301 2.33301 10.833 3 16.5s1 10.834 1 15.501c0 16 -5.16699 27 -15.5 33s-28.166 9.66699 -53.499 11l6 35h258l-6 -35c-17.333 -0.666992 -31.333 -2.33398 -42 -5.00098s-19.5 -6.83398 -26.5 -12.501
s-12.5 -13.334 -16.5 -23.001s-7.33301 -21.5 -10 -35.5z" />
    <glyph glyph-name="Iacute" unicode="&#xcd;" horiz-adv-x="327" 
d="M147 761l191 128l43 -92l-214 -70zM187 111c-1.33301 -5.33301 -2.33301 -10.833 -3 -16.5s-1 -10.834 -1 -15.501c0 -16 5.16699 -27 15.5 -33s28.166 -9.66699 53.499 -11l-6 -35h-258l6 35c16.667 0.666992 30.5 2.33398 41.5 5.00098s20 6.83398 27 12.501
s12.5 13.334 16.5 23.001s7.33301 21.5 10 35.5l91 467c1.33301 5.33301 2.33301 10.833 3 16.5s1 10.834 1 15.501c0 16 -5.16699 27 -15.5 33s-28.166 9.66699 -53.499 11l6 35h258l-6 -35c-17.333 -0.666992 -31.333 -2.33398 -42 -5.00098s-19.5 -6.83398 -26.5 -12.501
s-12.5 -13.334 -16.5 -23.001s-7.33301 -21.5 -10 -35.5z" />
    <glyph glyph-name="Icircumflex" unicode="&#xce;" horiz-adv-x="327" 
d="M281 809l-156 -85l-21 30l192 153l129 -155l-24 -28zM187 111c-1.33301 -5.33301 -2.33301 -10.833 -3 -16.5s-1 -10.834 -1 -15.501c0 -16 5.16699 -27 15.5 -33s28.166 -9.66699 53.499 -11l-6 -35h-258l6 35c16.667 0.666992 30.5 2.33398 41.5 5.00098
s20 6.83398 27 12.501s12.5 13.334 16.5 23.001s7.33301 21.5 10 35.5l91 467c1.33301 5.33301 2.33301 10.833 3 16.5s1 10.834 1 15.501c0 16 -5.16699 27 -15.5 33s-28.166 9.66699 -53.499 11l6 35h258l-6 -35c-17.333 -0.666992 -31.333 -2.33398 -42 -5.00098
s-19.5 -6.83398 -26.5 -12.501s-12.5 -13.334 -16.5 -23.001s-7.33301 -21.5 -10 -35.5z" />
    <glyph glyph-name="Idieresis" unicode="&#xcf;" horiz-adv-x="327" 
d="M216 787c0 -17.333 -5.66699 -31.666 -17 -42.999s-25.666 -17 -42.999 -17s-31.666 5.66699 -42.999 17s-17 25.666 -17 42.999s5.66699 31.666 17 42.999s25.666 17 42.999 17s31.666 -5.66699 42.999 -17s17 -25.666 17 -42.999zM425 787
c0 -17.333 -5.66699 -31.666 -17 -42.999s-25.666 -17 -42.999 -17s-31.666 5.66699 -42.999 17s-17 25.666 -17 42.999s5.66699 31.666 17 42.999s25.666 17 42.999 17s31.666 -5.66699 42.999 -17s17 -25.666 17 -42.999zM187 111
c-1.33301 -5.33301 -2.33301 -10.833 -3 -16.5s-1 -10.834 -1 -15.501c0 -16 5.16699 -27 15.5 -33s28.166 -9.66699 53.499 -11l-6 -35h-258l6 35c16.667 0.666992 30.5 2.33398 41.5 5.00098s20 6.83398 27 12.501s12.5 13.334 16.5 23.001s7.33301 21.5 10 35.5l91 467
c1.33301 5.33301 2.33301 10.833 3 16.5s1 10.834 1 15.501c0 16 -5.16699 27 -15.5 33s-28.166 9.66699 -53.499 11l6 35h258l-6 -35c-17.333 -0.666992 -31.333 -2.33398 -42 -5.00098s-19.5 -6.83398 -26.5 -12.501s-12.5 -13.334 -16.5 -23.001
s-7.33301 -21.5 -10 -35.5z" />
    <glyph glyph-name="Eth" unicode="&#xd0;" horiz-adv-x="658" 
d="M-6 35c16.667 0.666992 30.499 2.32617 41.499 4.99316s20 6.83398 27 12.501s12.5 13.334 16.5 23.001s7.33301 21.5 10 35.5l45 231h-83l10 46h82l37 190c1.33301 5.33301 2.33301 10.833 3 16.5s1 10.834 1 15.501c0 16 -5.16699 27 -15.5 33
s-28.166 9.66699 -53.499 11l6 35h236c42.667 0 81.167 -4.66699 115.5 -14s63.5 -24.166 87.5 -44.499s42.5 -46.166 55.5 -77.499s19.5 -69 19.5 -113c0 -33.333 -2.83301 -67.666 -8.5 -102.999s-13.834 -69.333 -24.501 -102s-23.667 -63 -39 -91
s-32.666 -51.333 -51.999 -70c-15.333 -15.333 -31.5 -27.666 -48.5 -36.999s-35.5 -16.833 -55.5 -22.5s-42.333 -9.5 -67 -11.5s-52.667 -3 -84 -3h-268zM290.999 641.992l-50.0029 -254.001h161l-10 -46h-160l-56 -291h84c20.667 0 40.167 0.833008 58.5 2.5
s35.333 5.33398 51 11.001s30.334 13.5 44.001 23.5s26.834 23 39.501 39c13.333 17.333 25 38.833 35 64.5s18.5 53 25.5 82s12.167 58.667 15.5 89s5 58.833 5 85.5c0 29.333 -2.33301 56 -7 80s-13.167 44.5 -25.5 61.5s-29.666 30 -51.999 39s-51.5 13.5 -87.5 13.5h-71
z" />
    <glyph glyph-name="Ntilde" unicode="&#xd1;" horiz-adv-x="669" 
d="M516 818c17.333 0 31.666 4.16797 42.999 12.501s21.333 19.166 30 32.499l36 -14c-8.66699 -25.333 -21.5 -47.5 -38.5 -66.5s-40.5 -28.5 -70.5 -28.5c-17.333 0 -32.166 2.33301 -44.499 7s-23.666 9.66699 -33.999 15l-29.5 15c-9.33301 4.66699 -19.333 7 -30 7
c-19.333 0 -33.833 -4.5 -43.5 -13.5s-18.834 -20.167 -27.501 -33.5l-34 13c7.33301 28 19.166 51.667 35.499 71s39.5 29 69.5 29c16.667 0 30.834 -2.33301 42.501 -7s22.5 -10 32.5 -16s20 -11.333 30 -16s21 -7 33 -7zM461 0.000976562l-171.002 408
c-19.333 46.667 -32.5 85 -39.5 115s-10.833 48.333 -11.5 55h-6c0 -4 -0.5 -11.5 -1.5 -22.5s-2.33301 -24.667 -4 -41s-4 -34.833 -7 -55.5s-6.83301 -42.334 -11.5 -65.001l-55 -283c-1.33301 -6.66699 -2.33301 -12.834 -3 -18.501s-1 -10.167 -1 -13.5
c0 -16 5.16699 -27 15.5 -33s28.166 -9.66699 53.499 -11l-6 -35h-225l6 35c16.667 0.666992 30.5 2.33398 41.5 5.00098s20 6.83398 27 12.501s12.5 13.334 16.5 23.001s7.33301 21.5 10 35.5l91 467c1.33301 5.33301 2.33301 10.833 3 16.5s1 10.834 1 15.501
c0 16 -5.16699 27 -15.5 33s-28.166 9.66699 -53.499 11l6 35h156l174 -418c14.667 -36 24.834 -67.333 30.501 -94s8.83398 -43.334 9.50098 -50.001h6c0.666992 8.66699 3 31.834 7 69.501s11 83.167 21 136.5l48 245c1.33301 5.33301 2.33301 10.833 3 16.5
s1 10.834 1 15.501c0 16 -5.16699 27 -15.5 33s-28.166 9.66699 -53.499 11l6 35h217l-6 -35c-15.333 -0.666992 -28 -2.33398 -38 -5.00098s-18.167 -6.83398 -24.5 -12.501s-11.333 -13.334 -15 -23.001s-6.83398 -21.5 -9.50098 -35.5l-112 -578h-65z" />
    <glyph glyph-name="Ograve" unicode="&#xd2;" horiz-adv-x="673" 
d="M511 727l-214 70l43 92l191 -128zM650 438c0 -31.333 -2.66992 -64.334 -8.00293 -99.001s-13.833 -68.667 -25.5 -102s-26.667 -65.166 -45 -95.499s-40.166 -57 -65.499 -80s-54.333 -41.333 -87 -55s-69.667 -20.5 -111 -20.5c-78 0 -138.333 23.167 -181 69.5
s-64 111.833 -64 196.5c0 30.667 2.83301 63.167 8.5 97.5s14.334 68.166 26.001 101.499s26.834 65 45.501 95s40.834 56.333 66.501 79s55.167 40.834 88.5 54.501s70.666 20.5 111.999 20.5c36 0 68.667 -5.5 98 -16.5s54.5 -27.5 75.5 -49.5s37.333 -49.333 49 -82
s17.5 -70.667 17.5 -114zM545.997 466.999c0 60.667 -10.4971 106.665 -31.4971 137.998s-56.167 47 -105.5 47c-36.667 0 -67.334 -7.5 -92.001 -22.5s-46.334 -37.5 -65.001 -67.5c-15.333 -23.333 -28.333 -49.666 -39 -78.999s-19.5 -59.333 -26.5 -90s-12 -61 -15 -91
s-4.5 -57.667 -4.5 -83c0 -67.333 11.333 -115.166 34 -143.499s58 -42.5 106 -42.5c34 0 63 7.33301 87 22s45.667 37.667 65 69c14.667 24 27.5 51 38.5 81s20.167 60.5 27.5 91.5s12.666 61.333 15.999 91s5 56.167 5 79.5z" />
    <glyph glyph-name="Oacute" unicode="&#xd3;" horiz-adv-x="673" 
d="M309 761l191 128l43 -92l-214 -70zM650 438c0 -31.333 -2.66992 -64.334 -8.00293 -99.001s-13.833 -68.667 -25.5 -102s-26.667 -65.166 -45 -95.499s-40.166 -57 -65.499 -80s-54.333 -41.333 -87 -55s-69.667 -20.5 -111 -20.5c-78 0 -138.333 23.167 -181 69.5
s-64 111.833 -64 196.5c0 30.667 2.83301 63.167 8.5 97.5s14.334 68.166 26.001 101.499s26.834 65 45.501 95s40.834 56.333 66.501 79s55.167 40.834 88.5 54.501s70.666 20.5 111.999 20.5c36 0 68.667 -5.5 98 -16.5s54.5 -27.5 75.5 -49.5s37.333 -49.333 49 -82
s17.5 -70.667 17.5 -114zM545.997 466.999c0 60.667 -10.4971 106.665 -31.4971 137.998s-56.167 47 -105.5 47c-36.667 0 -67.334 -7.5 -92.001 -22.5s-46.334 -37.5 -65.001 -67.5c-15.333 -23.333 -28.333 -49.666 -39 -78.999s-19.5 -59.333 -26.5 -90s-12 -61 -15 -91
s-4.5 -57.667 -4.5 -83c0 -67.333 11.333 -115.166 34 -143.499s58 -42.5 106 -42.5c34 0 63 7.33301 87 22s45.667 37.667 65 69c14.667 24 27.5 51 38.5 81s20.167 60.5 27.5 91.5s12.666 61.333 15.999 91s5 56.167 5 79.5z" />
    <glyph glyph-name="Ocircumflex" unicode="&#xd4;" horiz-adv-x="673" 
d="M445 809l-156 -85l-21 30l192 153l129 -155l-24 -28zM650 438c0 -31.333 -2.66992 -64.334 -8.00293 -99.001s-13.833 -68.667 -25.5 -102s-26.667 -65.166 -45 -95.499s-40.166 -57 -65.499 -80s-54.333 -41.333 -87 -55s-69.667 -20.5 -111 -20.5
c-78 0 -138.333 23.167 -181 69.5s-64 111.833 -64 196.5c0 30.667 2.83301 63.167 8.5 97.5s14.334 68.166 26.001 101.499s26.834 65 45.501 95s40.834 56.333 66.501 79s55.167 40.834 88.5 54.501s70.666 20.5 111.999 20.5c36 0 68.667 -5.5 98 -16.5
s54.5 -27.5 75.5 -49.5s37.333 -49.333 49 -82s17.5 -70.667 17.5 -114zM545.997 466.999c0 60.667 -10.4971 106.665 -31.4971 137.998s-56.167 47 -105.5 47c-36.667 0 -67.334 -7.5 -92.001 -22.5s-46.334 -37.5 -65.001 -67.5
c-15.333 -23.333 -28.333 -49.666 -39 -78.999s-19.5 -59.333 -26.5 -90s-12 -61 -15 -91s-4.5 -57.667 -4.5 -83c0 -67.333 11.333 -115.166 34 -143.499s58 -42.5 106 -42.5c34 0 63 7.33301 87 22s45.667 37.667 65 69c14.667 24 27.5 51 38.5 81s20.167 60.5 27.5 91.5
s12.666 61.333 15.999 91s5 56.167 5 79.5z" />
    <glyph glyph-name="Otilde" unicode="&#xd5;" horiz-adv-x="673" 
d="M506 818c17.333 0 31.666 4.16797 42.999 12.501s21.333 19.166 30 32.499l36 -14c-8.66699 -25.333 -21.5 -47.5 -38.5 -66.5s-40.5 -28.5 -70.5 -28.5c-17.333 0 -32.166 2.33301 -44.499 7s-23.666 9.66699 -33.999 15l-29.5 15c-9.33301 4.66699 -19.333 7 -30 7
c-19.333 0 -33.833 -4.5 -43.5 -13.5s-18.834 -20.167 -27.501 -33.5l-34 13c7.33301 28 19.166 51.667 35.499 71s39.5 29 69.5 29c16.667 0 30.834 -2.33301 42.501 -7s22.5 -10 32.5 -16s20 -11.333 30 -16s21 -7 33 -7zM650 438.001
c0 -31.333 -2.66992 -64.334 -8.00293 -99.001s-13.833 -68.667 -25.5 -102s-26.667 -65.166 -45 -95.499s-40.166 -57 -65.499 -80s-54.333 -41.333 -87 -55s-69.667 -20.5 -111 -20.5c-78 0 -138.333 23.167 -181 69.5s-64 111.833 -64 196.5
c0 30.667 2.83301 63.167 8.5 97.5s14.334 68.166 26.001 101.499s26.834 65 45.501 95s40.834 56.333 66.501 79s55.167 40.834 88.5 54.501s70.666 20.5 111.999 20.5c36 0 68.667 -5.5 98 -16.5s54.5 -27.5 75.5 -49.5s37.333 -49.333 49 -82s17.5 -70.667 17.5 -114z
M545.997 467c0 60.667 -10.4971 106.665 -31.4971 137.998s-56.167 47 -105.5 47c-36.667 0 -67.334 -7.5 -92.001 -22.5s-46.334 -37.5 -65.001 -67.5c-15.333 -23.333 -28.333 -49.666 -39 -78.999s-19.5 -59.333 -26.5 -90s-12 -61 -15 -91s-4.5 -57.667 -4.5 -83
c0 -67.333 11.333 -115.166 34 -143.499s58 -42.5 106 -42.5c34 0 63 7.33301 87 22s45.667 37.667 65 69c14.667 24 27.5 51 38.5 81s20.167 60.5 27.5 91.5s12.666 61.333 15.999 91s5 56.167 5 79.5z" />
    <glyph glyph-name="Odieresis" unicode="&#xd6;" horiz-adv-x="673" 
d="M389 787c0 -17.333 -5.66699 -31.666 -17 -42.999s-25.666 -17 -42.999 -17s-31.666 5.66699 -42.999 17s-17 25.666 -17 42.999s5.66699 31.666 17 42.999s25.666 17 42.999 17s31.666 -5.66699 42.999 -17s17 -25.666 17 -42.999zM598 787
c0 -17.333 -5.66699 -31.666 -17 -42.999s-25.666 -17 -42.999 -17s-31.666 5.66699 -42.999 17s-17 25.666 -17 42.999s5.66699 31.666 17 42.999s25.666 17 42.999 17s31.666 -5.66699 42.999 -17s17 -25.666 17 -42.999zM650 438
c0 -31.333 -2.66992 -64.334 -8.00293 -99.001s-13.833 -68.667 -25.5 -102s-26.667 -65.166 -45 -95.499s-40.166 -57 -65.499 -80s-54.333 -41.333 -87 -55s-69.667 -20.5 -111 -20.5c-78 0 -138.333 23.167 -181 69.5s-64 111.833 -64 196.5
c0 30.667 2.83301 63.167 8.5 97.5s14.334 68.166 26.001 101.499s26.834 65 45.501 95s40.834 56.333 66.501 79s55.167 40.834 88.5 54.501s70.666 20.5 111.999 20.5c36 0 68.667 -5.5 98 -16.5s54.5 -27.5 75.5 -49.5s37.333 -49.333 49 -82s17.5 -70.667 17.5 -114z
M545.997 466.999c0 60.667 -10.4971 106.665 -31.4971 137.998s-56.167 47 -105.5 47c-36.667 0 -67.334 -7.5 -92.001 -22.5s-46.334 -37.5 -65.001 -67.5c-15.333 -23.333 -28.333 -49.666 -39 -78.999s-19.5 -59.333 -26.5 -90s-12 -61 -15 -91s-4.5 -57.667 -4.5 -83
c0 -67.333 11.333 -115.166 34 -143.499s58 -42.5 106 -42.5c34 0 63 7.33301 87 22s45.667 37.667 65 69c14.667 24 27.5 51 38.5 81s20.167 60.5 27.5 91.5s12.666 61.333 15.999 91s5 56.167 5 79.5z" />
    <glyph glyph-name="multiply" unicode="&#xd7;" horiz-adv-x="562" 
d="M161 469l129 -160l191 160l31 -38l-191 -160l129 -159l-44 -36l-129 160l-191 -160l-30 38l190 159l-128 160z" />
    <glyph glyph-name="Oslash" unicode="&#xd8;" horiz-adv-x="673" 
d="M650 438c0 -31.333 -2.66992 -64.334 -8.00293 -99.001s-13.833 -68.667 -25.5 -102s-26.667 -65.166 -45 -95.499s-40.166 -57 -65.499 -80s-54.333 -41.333 -87 -55s-69.667 -20.5 -111 -20.5c-68.667 0 -124 18.333 -166 55l-65 -85l-36 27l71 92
c-32.667 44.667 -49 103.667 -49 177c0 30.667 2.83301 63.167 8.5 97.5s14.334 68.166 26.001 101.499s26.834 65 45.501 95s40.834 56.333 66.501 79s55.167 40.834 88.5 54.501s70.666 20.5 111.999 20.5c57.333 0 106.333 -14.333 147 -43l60 79l40 -29l-65 -83
c18.667 -22 33 -48.5 43 -79.5s15 -66.5 15 -106.5zM545.997 466.999c0 32.667 -3 61 -9 85l-350 -454c10.667 -23.333 25.834 -40 45.501 -50s44.5 -15 74.5 -15c34 0 63 7.33301 87 22s45.667 37.667 65 69c14.667 24 27.5 51 38.5 81s20.167 60.5 27.5 91.5
s12.666 61.333 15.999 91s5 56.167 5 79.5zM166.997 218.999c0 -12.667 0.334961 -24.501 1.00195 -35.501s1.66699 -21.167 3 -30.5l344 450c-11.333 16 -25.5 28.167 -42.5 36.5s-38.167 12.5 -63.5 12.5c-36.667 0 -67.334 -7.5 -92.001 -22.5
s-46.334 -37.5 -65.001 -67.5c-15.333 -23.333 -28.333 -49.666 -39 -78.999s-19.5 -59.333 -26.5 -90s-12 -61 -15 -91s-4.5 -57.667 -4.5 -83z" />
    <glyph glyph-name="Ugrave" unicode="&#xd9;" horiz-adv-x="670" 
d="M539 727l-214 70l43 92l191 -128zM317 46c55.333 0 97.1699 15.6748 125.503 47.0078s47.833 74 58.5 128l69 357c1.33301 6 2.33301 12 3 18s1 10.667 1 14c0 15.333 -5.16699 26.166 -15.5 32.499s-29.833 10.166 -58.5 11.499l6 35h226l-6 -35
c-15.333 -0.666992 -28 -2.33398 -38 -5.00098s-18.167 -6.83398 -24.5 -12.501s-11.333 -13.334 -15 -23.001s-6.83398 -21.5 -9.50098 -35.5l-69 -357c-16 -82.667 -45.5 -142.5 -88.5 -179.5s-98.833 -55.5 -167.5 -55.5c-76.667 0 -132.5 14.833 -167.5 44.5
s-52.5 70.167 -52.5 121.5c0 12 0.666992 24.833 2 38.5s3.66602 29.834 6.99902 48.501l65 339c2 10.667 3 20.334 3 29.001c0 17.333 -5.16699 29.166 -15.5 35.499s-27.833 10.166 -52.5 11.499l6 35h258l-6 -35c-17.333 -0.666992 -31.5 -2.33398 -42.5 -5.00098
s-20 -6.83398 -27 -12.501s-12.333 -13.334 -16 -23.001s-6.83398 -21.5 -9.50098 -35.5l-67 -342c-6 -30 -9 -57 -9 -81c0 -38 10 -65.667 30 -83s52.333 -26 97 -26z" />
    <glyph glyph-name="Uacute" unicode="&#xda;" horiz-adv-x="670" 
d="M337 761l191 128l43 -92l-214 -70zM317 46c55.333 0 97.1699 15.6748 125.503 47.0078s47.833 74 58.5 128l69 357c1.33301 6 2.33301 12 3 18s1 10.667 1 14c0 15.333 -5.16699 26.166 -15.5 32.499s-29.833 10.166 -58.5 11.499l6 35h226l-6 -35
c-15.333 -0.666992 -28 -2.33398 -38 -5.00098s-18.167 -6.83398 -24.5 -12.501s-11.333 -13.334 -15 -23.001s-6.83398 -21.5 -9.50098 -35.5l-69 -357c-16 -82.667 -45.5 -142.5 -88.5 -179.5s-98.833 -55.5 -167.5 -55.5c-76.667 0 -132.5 14.833 -167.5 44.5
s-52.5 70.167 -52.5 121.5c0 12 0.666992 24.833 2 38.5s3.66602 29.834 6.99902 48.501l65 339c2 10.667 3 20.334 3 29.001c0 17.333 -5.16699 29.166 -15.5 35.499s-27.833 10.166 -52.5 11.499l6 35h258l-6 -35c-17.333 -0.666992 -31.5 -2.33398 -42.5 -5.00098
s-20 -6.83398 -27 -12.501s-12.333 -13.334 -16 -23.001s-6.83398 -21.5 -9.50098 -35.5l-67 -342c-6 -30 -9 -57 -9 -81c0 -38 10 -65.667 30 -83s52.333 -26 97 -26z" />
    <glyph glyph-name="Ucircumflex" unicode="&#xdb;" horiz-adv-x="670" 
d="M472 809l-156 -85l-21 30l192 153l129 -155l-24 -28zM317 46c55.333 0 97.1699 15.6748 125.503 47.0078s47.833 74 58.5 128l69 357c1.33301 6 2.33301 12 3 18s1 10.667 1 14c0 15.333 -5.16699 26.166 -15.5 32.499s-29.833 10.166 -58.5 11.499l6 35h226l-6 -35
c-15.333 -0.666992 -28 -2.33398 -38 -5.00098s-18.167 -6.83398 -24.5 -12.501s-11.333 -13.334 -15 -23.001s-6.83398 -21.5 -9.50098 -35.5l-69 -357c-16 -82.667 -45.5 -142.5 -88.5 -179.5s-98.833 -55.5 -167.5 -55.5c-76.667 0 -132.5 14.833 -167.5 44.5
s-52.5 70.167 -52.5 121.5c0 12 0.666992 24.833 2 38.5s3.66602 29.834 6.99902 48.501l65 339c2 10.667 3 20.334 3 29.001c0 17.333 -5.16699 29.166 -15.5 35.499s-27.833 10.166 -52.5 11.499l6 35h258l-6 -35c-17.333 -0.666992 -31.5 -2.33398 -42.5 -5.00098
s-20 -6.83398 -27 -12.501s-12.333 -13.334 -16 -23.001s-6.83398 -21.5 -9.50098 -35.5l-67 -342c-6 -30 -9 -57 -9 -81c0 -38 10 -65.667 30 -83s52.333 -26 97 -26z" />
    <glyph glyph-name="Udieresis" unicode="&#xdc;" horiz-adv-x="670" 
d="M405 787c0 -17.333 -5.66699 -31.666 -17 -42.999s-25.666 -17 -42.999 -17s-31.666 5.66699 -42.999 17s-17 25.666 -17 42.999s5.66699 31.666 17 42.999s25.666 17 42.999 17s31.666 -5.66699 42.999 -17s17 -25.666 17 -42.999zM614 787
c0 -17.333 -5.66699 -31.666 -17 -42.999s-25.666 -17 -42.999 -17s-31.666 5.66699 -42.999 17s-17 25.666 -17 42.999s5.66699 31.666 17 42.999s25.666 17 42.999 17s31.666 -5.66699 42.999 -17s17 -25.666 17 -42.999zM317 46
c55.333 0 97.1699 15.6748 125.503 47.0078s47.833 74 58.5 128l69 357c1.33301 6 2.33301 12 3 18s1 10.667 1 14c0 15.333 -5.16699 26.166 -15.5 32.499s-29.833 10.166 -58.5 11.499l6 35h226l-6 -35c-15.333 -0.666992 -28 -2.33398 -38 -5.00098
s-18.167 -6.83398 -24.5 -12.501s-11.333 -13.334 -15 -23.001s-6.83398 -21.5 -9.50098 -35.5l-69 -357c-16 -82.667 -45.5 -142.5 -88.5 -179.5s-98.833 -55.5 -167.5 -55.5c-76.667 0 -132.5 14.833 -167.5 44.5s-52.5 70.167 -52.5 121.5c0 12 0.666992 24.833 2 38.5
s3.66602 29.834 6.99902 48.501l65 339c2 10.667 3 20.334 3 29.001c0 17.333 -5.16699 29.166 -15.5 35.499s-27.833 10.166 -52.5 11.499l6 35h258l-6 -35c-17.333 -0.666992 -31.5 -2.33398 -42.5 -5.00098s-20 -6.83398 -27 -12.501s-12.333 -13.334 -16 -23.001
s-6.83398 -21.5 -9.50098 -35.5l-67 -342c-6 -30 -9 -57 -9 -81c0 -38 10 -65.667 30 -83s52.333 -26 97 -26z" />
    <glyph glyph-name="Yacute" unicode="&#xdd;" horiz-adv-x="589" 
d="M299 761l191 128l43 -92l-214 -70zM252 276l-85.9941 296.001c-4.66699 16 -9.66699 29 -15 39s-11 18 -17 24s-12.833 10.333 -20.5 13s-16.167 4.66699 -25.5 6l6 35h229l-6 -35c-40.667 -0.666992 -61 -13.667 -61 -39c0 -5.33301 0.666992 -11.166 2 -17.499
s3 -13.166 5 -20.499l64 -236h4l155 238c7.33301 11.333 12.666 20.666 15.999 27.999s5 14.333 5 21c0 9.33301 -4.5 15.666 -13.5 18.999s-22.167 5.66602 -39.5 6.99902l6 35h206l-6 -35c-10 -1.33301 -19.333 -3.5 -28 -6.5s-17.334 -7.83301 -26.001 -14.5
s-17.834 -15.667 -27.501 -27s-20.834 -26.333 -33.501 -45l-192 -279l-33 -171c-2.66699 -14 -3.83398 -25.833 -3.50098 -35.5s3.16602 -17.334 8.49902 -23.001s13.333 -9.83398 24 -12.501s24.667 -4.33398 42 -5.00098l-7 -35h-268l7 35
c17.333 0.666992 31.833 2.33398 43.5 5.00098s21.167 6.83398 28.5 12.501s13 13.334 17 23.001s7.33301 21.5 10 35.5z" />
    <glyph glyph-name="Thorn" unicode="&#xde;" horiz-adv-x="552" 
d="M459 397c0 37.333 -8.33301 65.333 -25 84s-49 28 -97 28h-72l-57 -291h75c20.667 0 40 1.5 58 4.5s34.333 9.83301 49 20.5c20 14 36.5 33.833 49.5 59.5s19.5 57.167 19.5 94.5zM274 557l52.998 -0.00195312c82.667 0 142 -12.833 178 -38.5s54 -66.834 54 -123.501
c0 -47.333 -11.333 -87.5 -34 -120.5s-51 -57.833 -85 -74.5c-23.333 -11.333 -48.666 -18.833 -75.999 -22.5s-56.333 -5.5 -87 -5.5h-78l-12 -58c-2.66699 -13.333 -4 -24 -4 -32c0 -17.333 5.66699 -29.166 17 -35.499s31 -10.166 59 -11.499l-6 -35h-265l6 35
c16.667 0.666992 30.5 2.33398 41.5 5.00098s20 6.83398 27 12.501s12.5 13.334 16.5 23.001s7.33301 21.5 10 35.5l91 467c1.33301 5.33301 2.33301 10.833 3 16.5s1 10.834 1 15.501c0 16 -5.16699 27 -15.5 33s-28.166 9.66699 -53.499 11l6 35h258l-6 -35
c-17.333 -0.666992 -31.333 -2.33398 -42 -5.00098s-19.5 -6.83398 -26.5 -12.501s-12.5 -13.334 -16.5 -23.001s-7.33301 -21.5 -10 -35.5z" />
    <glyph glyph-name="germandbls" unicode="&#xdf;" horiz-adv-x="554" 
d="M59 436l6.99512 31.999l67 23l9 46c6 32 16.833 60 32.5 84s34.167 44 55.5 60s44.333 28 69 36s49.334 12 74.001 12c48.667 0 87.834 -11 117.501 -33s44.5 -50.333 44.5 -85c0 -19.333 -4.83301 -37 -14.5 -53s-21.5 -30.833 -35.5 -44.5
s-29.167 -25.834 -45.5 -36.501l-44.5 -28c-16 -10 -26.667 -17.5 -32 -22.5s-8 -10.833 -8 -17.5c0 -4 1.66699 -8.16699 5 -12.5s10.333 -11.166 21 -20.499l46 -44c15.333 -15.333 29 -31.666 41 -48.999s21.667 -35.666 29 -54.999s11 -40 11 -62
c0 -23.333 -4.5 -45.666 -13.5 -66.999s-21.833 -40 -38.5 -56s-37 -28.667 -61 -38s-51 -14 -81 -14c-34 0 -60.667 4.5 -80 13.5s-36.666 20.167 -51.999 33.5l27 40c15.333 -11.333 30.166 -20.333 44.499 -27s32.166 -10 53.499 -10c16.667 0 31.334 3.16699 44.001 9.5
s23.334 15 32.001 26s15 23.667 19 38s6 29.166 6 44.499c0 34.667 -6.33301 65.167 -19 91.5s-32 53.833 -58 82.5c-15.333 16.667 -25.833 30 -31.5 40s-8.5 20.333 -8.5 31c0 6.66699 1 12.667 3 18s5.33301 10.666 10 15.999s11.167 11 19.5 17l30.5 22
c10 6.66699 20.5 14.5 31.5 23.5s21.167 19 30.5 30s17 23 23 36s9 27.167 9 42.5c0 23.333 -6.83301 41.5 -20.5 54.5s-33.167 19.5 -58.5 19.5c-17.333 0 -33 -2.5 -47 -7.5s-26.667 -13.167 -38 -24.5s-21.166 -26.666 -29.499 -45.999s-15.5 -43.333 -21.5 -72
l-112 -560c-4.66699 -22 -11 -42.833 -19 -62.5s-18.333 -36.834 -31 -51.501s-27.667 -26.167 -45 -34.5s-37.333 -12.5 -60 -12.5c-11.333 0 -22 1.5 -32 4.5s-19.667 6.83301 -29 11.5v31c20.667 1.33301 38.334 3.83301 53.001 7.5s26.667 9.5 36 17.5
s16.833 18.5 22.5 31.5s10.5 29.5 14.5 49.5l92 471h-64z" />
    <glyph glyph-name="agrave" unicode="&#xe0;" horiz-adv-x="547" 
d="M344 505c21.333 0 40.667 -3.99609 58 -11.9961s28.333 -21.333 33 -40c5.33301 9.33301 11.166 17.166 17.499 23.499s12.833 12.5 19.5 18.5h50c-8.66699 -14.667 -17.167 -34.334 -25.5 -59.001s-15.833 -51.667 -22.5 -81l-53 -233c-3.33301 -15.333 -5 -27 -5 -35
c0 -14.667 3.83301 -24.834 11.5 -30.501s18.834 -8.5 33.501 -8.5c2.66699 0 7.16699 0.166992 13.5 0.5s12.5 1.16602 18.5 2.49902l3 -31c-18 -9.33301 -34.833 -16.5 -50.5 -21.5s-31.5 -7.5 -47.5 -7.5c-25.333 0 -43.666 7 -54.999 21s-17 33.333 -17 58
c0 18 2.33301 36.667 7 56c-10.667 -16.667 -22.5 -33.167 -35.5 -49.5s-27.167 -31 -42.5 -44s-31.833 -23.667 -49.5 -32s-36.167 -12.5 -55.5 -12.5c-37.333 0 -65.833 12 -85.5 36s-29.5 57 -29.5 99c0 50 8.66699 98 26 144s40.333 86.667 69 122s61.667 63.5 99 84.5
s75.666 31.5 114.999 31.5zM338.001 458.004c-28 0 -54.667 -9.16602 -80 -27.499s-47.333 -42.833 -66 -73.5s-33.5 -65.834 -44.5 -105.501s-16.5 -80.5 -16.5 -122.5c0 -27.333 4.83301 -46.833 14.5 -58.5s22.167 -17.5 37.5 -17.5c14 0 28.667 5.16699 44 15.5
s30.5 23.333 45.5 39s29.167 33 42.5 52s25 37.167 35 54.5l49 207c-3.33301 10.667 -10 19.5 -20 26.5s-23.667 10.5 -41 10.5zM422.001 566.005l-212 96l53 91l179 -153z" />
    <glyph glyph-name="aacute" unicode="&#xe1;" horiz-adv-x="547" 
d="M344 505c21.333 0 40.667 -3.99609 58 -11.9961s28.333 -21.333 33 -40c5.33301 9.33301 11.166 17.166 17.499 23.499s12.833 12.5 19.5 18.5h50c-8.66699 -14.667 -17.167 -34.334 -25.5 -59.001s-15.833 -51.667 -22.5 -81l-53 -233c-3.33301 -15.333 -5 -27 -5 -35
c0 -14.667 3.83301 -24.834 11.5 -30.501s18.834 -8.5 33.501 -8.5c2.66699 0 7.16699 0.166992 13.5 0.5s12.5 1.16602 18.5 2.49902l3 -31c-18 -9.33301 -34.833 -16.5 -50.5 -21.5s-31.5 -7.5 -47.5 -7.5c-25.333 0 -43.666 7 -54.999 21s-17 33.333 -17 58
c0 18 2.33301 36.667 7 56c-10.667 -16.667 -22.5 -33.167 -35.5 -49.5s-27.167 -31 -42.5 -44s-31.833 -23.667 -49.5 -32s-36.167 -12.5 -55.5 -12.5c-37.333 0 -65.833 12 -85.5 36s-29.5 57 -29.5 99c0 50 8.66699 98 26 144s40.333 86.667 69 122s61.667 63.5 99 84.5
s75.666 31.5 114.999 31.5zM338.001 458.004c-28 0 -54.667 -9.16602 -80 -27.499s-47.333 -42.833 -66 -73.5s-33.5 -65.834 -44.5 -105.501s-16.5 -80.5 -16.5 -122.5c0 -27.333 4.83301 -46.833 14.5 -58.5s22.167 -17.5 37.5 -17.5c14 0 28.667 5.16699 44 15.5
s30.5 23.333 45.5 39s29.167 33 42.5 52s25 37.167 35 54.5l49 207c-3.33301 10.667 -10 19.5 -20 26.5s-23.667 10.5 -41 10.5zM246.001 600.005l179 153l53 -91l-212 -96z" />
    <glyph glyph-name="acircumflex" unicode="&#xe2;" horiz-adv-x="547" 
d="M372 649l-156 -85l-21 30l192 153l129 -155l-24 -28zM344 505c21.333 0 40.667 -3.99609 58 -11.9961s28.333 -21.333 33 -40c5.33301 9.33301 11.166 17.166 17.499 23.499s12.833 12.5 19.5 18.5h50c-8.66699 -14.667 -17.167 -34.334 -25.5 -59.001
s-15.833 -51.667 -22.5 -81l-53 -233c-3.33301 -15.333 -5 -27 -5 -35c0 -14.667 3.83301 -24.834 11.5 -30.501s18.834 -8.5 33.501 -8.5c2.66699 0 7.16699 0.166992 13.5 0.5s12.5 1.16602 18.5 2.49902l3 -31c-18 -9.33301 -34.833 -16.5 -50.5 -21.5
s-31.5 -7.5 -47.5 -7.5c-25.333 0 -43.666 7 -54.999 21s-17 33.333 -17 58c0 18 2.33301 36.667 7 56c-10.667 -16.667 -22.5 -33.167 -35.5 -49.5s-27.167 -31 -42.5 -44s-31.833 -23.667 -49.5 -32s-36.167 -12.5 -55.5 -12.5c-37.333 0 -65.833 12 -85.5 36
s-29.5 57 -29.5 99c0 50 8.66699 98 26 144s40.333 86.667 69 122s61.667 63.5 99 84.5s75.666 31.5 114.999 31.5zM338.001 458.004c-28 0 -54.667 -9.16602 -80 -27.499s-47.333 -42.833 -66 -73.5s-33.5 -65.834 -44.5 -105.501s-16.5 -80.5 -16.5 -122.5
c0 -27.333 4.83301 -46.833 14.5 -58.5s22.167 -17.5 37.5 -17.5c14 0 28.667 5.16699 44 15.5s30.5 23.333 45.5 39s29.167 33 42.5 52s25 37.167 35 54.5l49 207c-3.33301 10.667 -10 19.5 -20 26.5s-23.667 10.5 -41 10.5z" />
    <glyph glyph-name="atilde" unicode="&#xe3;" horiz-adv-x="547" 
d="M344 505c21.333 0 40.667 -3.99609 58 -11.9961s28.333 -21.333 33 -40c5.33301 9.33301 11.166 17.166 17.499 23.499s12.833 12.5 19.5 18.5h50c-8.66699 -14.667 -17.167 -34.334 -25.5 -59.001s-15.833 -51.667 -22.5 -81l-53 -233c-3.33301 -15.333 -5 -27 -5 -35
c0 -14.667 3.83301 -24.834 11.5 -30.501s18.834 -8.5 33.501 -8.5c2.66699 0 7.16699 0.166992 13.5 0.5s12.5 1.16602 18.5 2.49902l3 -31c-18 -9.33301 -34.833 -16.5 -50.5 -21.5s-31.5 -7.5 -47.5 -7.5c-25.333 0 -43.666 7 -54.999 21s-17 33.333 -17 58
c0 18 2.33301 36.667 7 56c-10.667 -16.667 -22.5 -33.167 -35.5 -49.5s-27.167 -31 -42.5 -44s-31.833 -23.667 -49.5 -32s-36.167 -12.5 -55.5 -12.5c-37.333 0 -65.833 12 -85.5 36s-29.5 57 -29.5 99c0 50 8.66699 98 26 144s40.333 86.667 69 122s61.667 63.5 99 84.5
s75.666 31.5 114.999 31.5zM338.001 458.004c-28 0 -54.667 -9.16602 -80 -27.499s-47.333 -42.833 -66 -73.5s-33.5 -65.834 -44.5 -105.501s-16.5 -80.5 -16.5 -122.5c0 -27.333 4.83301 -46.833 14.5 -58.5s22.167 -17.5 37.5 -17.5c14 0 28.667 5.16699 44 15.5
s30.5 23.333 45.5 39s29.167 33 42.5 52s25 37.167 35 54.5l49 207c-3.33301 10.667 -10 19.5 -20 26.5s-23.667 10.5 -41 10.5zM424.001 669.005c16 0 29.166 3.66797 39.499 11.001s19.166 17.666 26.499 30.999l35 -15c-4 -12.667 -9 -25 -15 -37
s-13.167 -22.833 -21.5 -32.5s-17.833 -17.334 -28.5 -23.001s-22.667 -8.5 -36 -8.5s-25.666 1.5 -36.999 4.5s-22 6.33301 -32 10l-28.5 10c-9 3 -17.833 4.5 -26.5 4.5c-17.333 0 -30.5 -4 -39.5 -12s-17.167 -18.667 -24.5 -32l-33 14
c2.66699 14 6.83398 27.333 12.501 40s12.5 23.834 20.5 33.501s17.333 17.5 28 23.5s22.667 9 36 9s25.5 -1.66699 36.5 -5s21.167 -6.83301 30.5 -10.5l28 -10.5c9.33301 -3.33301 19 -5 29 -5z" />
    <glyph glyph-name="adieresis" unicode="&#xe4;" horiz-adv-x="547" 
d="M344 505c21.333 0 40.667 -3.99609 58 -11.9961s28.333 -21.333 33 -40c5.33301 9.33301 11.166 17.166 17.499 23.499s12.833 12.5 19.5 18.5h50c-8.66699 -14.667 -17.167 -34.334 -25.5 -59.001s-15.833 -51.667 -22.5 -81l-53 -233c-3.33301 -15.333 -5 -27 -5 -35
c0 -14.667 3.83301 -24.834 11.5 -30.501s18.834 -8.5 33.501 -8.5c2.66699 0 7.16699 0.166992 13.5 0.5s12.5 1.16602 18.5 2.49902l3 -31c-18 -9.33301 -34.833 -16.5 -50.5 -21.5s-31.5 -7.5 -47.5 -7.5c-25.333 0 -43.666 7 -54.999 21s-17 33.333 -17 58
c0 18 2.33301 36.667 7 56c-10.667 -16.667 -22.5 -33.167 -35.5 -49.5s-27.167 -31 -42.5 -44s-31.833 -23.667 -49.5 -32s-36.167 -12.5 -55.5 -12.5c-37.333 0 -65.833 12 -85.5 36s-29.5 57 -29.5 99c0 50 8.66699 98 26 144s40.333 86.667 69 122s61.667 63.5 99 84.5
s75.666 31.5 114.999 31.5zM338.001 458.004c-28 0 -54.667 -9.16602 -80 -27.499s-47.333 -42.833 -66 -73.5s-33.5 -65.834 -44.5 -105.501s-16.5 -80.5 -16.5 -122.5c0 -27.333 4.83301 -46.833 14.5 -58.5s22.167 -17.5 37.5 -17.5c14 0 28.667 5.16699 44 15.5
s30.5 23.333 45.5 39s29.167 33 42.5 52s25 37.167 35 54.5l49 207c-3.33301 10.667 -10 19.5 -20 26.5s-23.667 10.5 -41 10.5zM332.001 638.005c0 -17.333 -5.66699 -31.666 -17 -42.999s-25.666 -17 -42.999 -17s-31.666 5.66699 -42.999 17s-17 25.666 -17 42.999
s5.66699 31.666 17 42.999s25.666 17 42.999 17s31.666 -5.66699 42.999 -17s17 -25.666 17 -42.999zM541.001 638.005c0 -17.333 -5.66699 -31.666 -17 -42.999s-25.666 -17 -42.999 -17s-31.666 5.66699 -42.999 17s-17 25.666 -17 42.999s5.66699 31.666 17 42.999
s25.666 17 42.999 17s31.666 -5.66699 42.999 -17s17 -25.666 17 -42.999z" />
    <glyph glyph-name="aring" unicode="&#xe5;" horiz-adv-x="547" 
d="M354 560c-30 0 -53.499 9.16797 -70.499 27.501s-25.5 40.833 -25.5 67.5c0 32 10.167 58.167 30.5 78.5s46.5 30.5 78.5 30.5c30 0 53.333 -9.33301 70 -28s25 -41.334 25 -68.001c0 -32 -9.83301 -58 -29.5 -78s-45.834 -30 -78.501 -30zM364.001 729.001
c-19.333 0 -34.999 -6.83203 -46.999 -20.499s-18 -30.834 -18 -51.501c0 -18.667 4.66699 -33.5 14 -44.5s22.666 -16.5 39.999 -16.5c20 0 36.333 6.5 49 19.5s19 29.167 19 48.5s-5 35 -15 47s-24 18 -42 18zM344.002 505.002c21.333 0 40.667 -3.99609 58 -11.9961
s28.333 -21.333 33 -40c5.33301 9.33301 11.166 17.166 17.499 23.499s12.833 12.5 19.5 18.5h50c-8.66699 -14.667 -17.167 -34.334 -25.5 -59.001s-15.833 -51.667 -22.5 -81l-53 -233c-3.33301 -15.333 -5 -27 -5 -35c0 -14.667 3.83301 -24.834 11.5 -30.501
s18.834 -8.5 33.501 -8.5c2.66699 0 7.16699 0.166992 13.5 0.5s12.5 1.16602 18.5 2.49902l3 -31c-18 -9.33301 -34.833 -16.5 -50.5 -21.5s-31.5 -7.5 -47.5 -7.5c-25.333 0 -43.666 7 -54.999 21s-17 33.333 -17 58c0 18 2.33301 36.667 7 56
c-10.667 -16.667 -22.5 -33.167 -35.5 -49.5s-27.167 -31 -42.5 -44s-31.833 -23.667 -49.5 -32s-36.167 -12.5 -55.5 -12.5c-37.333 0 -65.833 12 -85.5 36s-29.5 57 -29.5 99c0 50 8.66699 98 26 144s40.333 86.667 69 122s61.667 63.5 99 84.5s75.666 31.5 114.999 31.5z
M338.003 458.006c-28 0 -54.667 -9.16602 -80 -27.499s-47.333 -42.833 -66 -73.5s-33.5 -65.834 -44.5 -105.501s-16.5 -80.5 -16.5 -122.5c0 -27.333 4.83301 -46.833 14.5 -58.5s22.167 -17.5 37.5 -17.5c14 0 28.667 5.16699 44 15.5s30.5 23.333 45.5 39
s29.167 33 42.5 52s25 37.167 35 54.5l49 207c-3.33301 10.667 -10 19.5 -20 26.5s-23.667 10.5 -41 10.5z" />
    <glyph glyph-name="ae" unicode="&#xe6;" horiz-adv-x="756" 
d="M409 171c0 -41.333 9.00098 -73.001 27.001 -95.001s43 -33 75 -33c28 0 54 6 78 18s47.667 29 71 51l26 -35c-22 -25.333 -50.167 -46.833 -84.5 -64.5s-74.166 -26.5 -119.499 -26.5c-38 0 -69.667 8 -95 24s-44.333 39.333 -57 70
c-8.66699 -12 -18.334 -23.667 -29.001 -35s-22.834 -21.333 -36.501 -30s-29.167 -15.667 -46.5 -21s-37 -8 -59 -8c-43.333 0 -77.333 10.333 -102 31s-37 53 -37 97c0 34 8.66699 61.333 26 82s39.833 36.834 67.5 48.501s59.167 19.5 94.5 23.5s71 6 107 6h13l7 33
c6 28.667 9 53.334 9 74.001c0 25.333 -5.33301 44.166 -16 56.499s-28 18.5 -52 18.5c-36 0 -62.667 -7.33301 -80 -22s-29.666 -35.334 -36.999 -62.001h-63l18 94c25.333 12.667 52 22.334 80 29.001s57.333 10 88 10c42.667 0 74.667 -5.83301 96 -17.5
s37.666 -31.167 48.999 -58.5c24 25.333 50.333 44.333 79 57s58.334 19 89.001 19c44 0 79.333 -10.833 106 -32.5s40 -52.5 40 -92.5c0 -24 -5.83301 -45.5 -17.5 -64.5s-29.667 -35.333 -54 -49s-55.333 -24.167 -93 -31.5s-82.834 -11 -135.501 -11h-30
c-1.33301 -7.33301 -2 -16 -2 -26v-27zM183.001 42.999c28.667 0 52.832 6.66895 72.499 20.002s40.834 33 63.501 59c-3.33301 18.667 -5 37.667 -5 57c0 17.333 1.33301 33.666 4 48.999h-12c-25.333 0 -49.666 -1.16699 -72.999 -3.5s-43.833 -7.5 -61.5 -15.5
s-31.667 -19.5 -42 -34.5s-15.5 -34.833 -15.5 -59.5c0 -26.667 6.16699 -45.334 18.5 -56.001s29.166 -16 50.499 -16zM648.999 386.001c0 19.333 -5.33398 35.834 -16.001 49.501s-25.334 20.5 -44.001 20.5c-20.667 0 -40 -4.66699 -58 -14s-34.333 -22.333 -49 -39
s-27.334 -36.334 -38.001 -59.001s-19 -47 -25 -73c5.33301 0 10.333 -0.166992 15 -0.5s9.33398 -0.5 14.001 -0.5c38 0 69.833 2.66699 95.5 8s46.334 13 62.001 23s26.834 22.167 33.501 36.5s10 30.5 10 48.5z" />
    <glyph glyph-name="ccedilla" unicode="&#xe7;" horiz-adv-x="455" 
d="M256 -113c0 -56.667 -32.9941 -84.998 -98.9941 -84.998c-19.333 0 -35.333 2.5 -48 7.5s-23.667 10.833 -33 17.5l16 32c11.333 -7.33301 21.666 -12.166 30.999 -14.499s19.666 -3.5 30.999 -3.5s20.833 2.16699 28.5 6.5s11.5 14.166 11.5 29.499
c0 12.667 -7.66699 21.167 -23 25.5s-32.333 6.83301 -51 7.5l1 21l27 65c-36 11.333 -63.833 32.166 -83.5 62.499s-29.5 69.5 -29.5 117.5c0 38.667 6.83301 77.5 20.5 116.5s33 74.167 58 105.5s54.833 56.833 89.5 76.5s72.667 29.5 114 29.5
c38 0 67.667 -4.33301 89 -13s37.666 -17.667 48.999 -27l-20 -92h-68v13c0 25.333 -4.5 43.666 -13.5 54.999s-24.167 17 -45.5 17c-26.667 0 -50.834 -8.33301 -72.501 -25s-40.334 -38.667 -56.001 -66s-27.834 -58.333 -36.501 -93s-13 -69.667 -13 -105
c0 -41.333 9.16699 -72.5 27.5 -93.5s43.833 -31.5 76.5 -31.5c26 0 50.333 5.66699 73 17s43.667 26 63 44l26 -35c-19.333 -21.333 -44.833 -40.5 -76.5 -57.5s-66.5 -25.5 -104.5 -25.5c-5.33301 0 -10.5 0.166992 -15.5 0.5s-10.167 0.833008 -15.5 1.5l-11 -27
c30 -2.66699 51.333 -11.167 64 -25.5s19 -30.5 19 -48.5z" />
    <glyph glyph-name="egrave" unicode="&#xe8;" horiz-adv-x="477" 
d="M130 171c0 -41.333 8.99805 -73.001 26.998 -95.001s43 -33 75 -33c28 0 54 6 78 18s47.667 29 71 51l26 -35c-22 -25.333 -50.167 -46.833 -84.5 -64.5s-74.166 -26.5 -119.499 -26.5c-55.333 0 -97.166 16.667 -125.499 50s-42.5 81 -42.5 143
c0 38.667 7 77.334 21 116.001s33.5 73.5 58.5 104.5s54.667 56.167 89 75.5s71.833 29 112.5 29c44 0 79.333 -10.667 106 -32s40 -52 40 -92c0 -48 -25.833 -87 -77.5 -117s-128.5 -45 -230.5 -45h-22c-1.33301 -7.33301 -2 -15 -2 -23v-24zM369.998 385.999
c0 19.333 -5.33203 35.833 -15.999 49.5s-25.334 20.5 -44.001 20.5c-20.667 0 -40 -5 -58 -15s-34.333 -23.833 -49 -41.5s-27.334 -38.167 -38.001 -61.5s-19 -48 -25 -74h29c38.667 0 70.834 3 96.501 9s46.167 14.5 61.5 25.5s26.333 23.833 33 38.5s10 31 10 49z
M409.999 565.999l-212 96l53 91l179 -153z" />
    <glyph glyph-name="eacute" unicode="&#xe9;" horiz-adv-x="477" 
d="M130 171c0 -41.333 8.99805 -73.001 26.998 -95.001s43 -33 75 -33c28 0 54 6 78 18s47.667 29 71 51l26 -35c-22 -25.333 -50.167 -46.833 -84.5 -64.5s-74.166 -26.5 -119.499 -26.5c-55.333 0 -97.166 16.667 -125.499 50s-42.5 81 -42.5 143
c0 38.667 7 77.334 21 116.001s33.5 73.5 58.5 104.5s54.667 56.167 89 75.5s71.833 29 112.5 29c44 0 79.333 -10.667 106 -32s40 -52 40 -92c0 -48 -25.833 -87 -77.5 -117s-128.5 -45 -230.5 -45h-22c-1.33301 -7.33301 -2 -15 -2 -23v-24zM369.998 385.999
c0 19.333 -5.33203 35.833 -15.999 49.5s-25.334 20.5 -44.001 20.5c-20.667 0 -40 -5 -58 -15s-34.333 -23.833 -49 -41.5s-27.334 -38.167 -38.001 -61.5s-19 -48 -25 -74h29c38.667 0 70.834 3 96.501 9s46.167 14.5 61.5 25.5s26.333 23.833 33 38.5s10 31 10 49z
M231.999 599.999l179 153l53 -91l-212 -96z" />
    <glyph glyph-name="ecircumflex" unicode="&#xea;" horiz-adv-x="477" 
d="M345 649l-156 -85l-21 30l192 153l129 -155l-24 -28zM130 171c0 -41.333 8.99805 -73.001 26.998 -95.001s43 -33 75 -33c28 0 54 6 78 18s47.667 29 71 51l26 -35c-22 -25.333 -50.167 -46.833 -84.5 -64.5s-74.166 -26.5 -119.499 -26.5
c-55.333 0 -97.166 16.667 -125.499 50s-42.5 81 -42.5 143c0 38.667 7 77.334 21 116.001s33.5 73.5 58.5 104.5s54.667 56.167 89 75.5s71.833 29 112.5 29c44 0 79.333 -10.667 106 -32s40 -52 40 -92c0 -48 -25.833 -87 -77.5 -117s-128.5 -45 -230.5 -45h-22
c-1.33301 -7.33301 -2 -15 -2 -23v-24zM369.998 385.999c0 19.333 -5.33203 35.833 -15.999 49.5s-25.334 20.5 -44.001 20.5c-20.667 0 -40 -5 -58 -15s-34.333 -23.833 -49 -41.5s-27.334 -38.167 -38.001 -61.5s-19 -48 -25 -74h29c38.667 0 70.834 3 96.501 9
s46.167 14.5 61.5 25.5s26.333 23.833 33 38.5s10 31 10 49z" />
    <glyph glyph-name="edieresis" unicode="&#xeb;" horiz-adv-x="477" 
d="M130 171c0 -41.333 8.99805 -73.001 26.998 -95.001s43 -33 75 -33c28 0 54 6 78 18s47.667 29 71 51l26 -35c-22 -25.333 -50.167 -46.833 -84.5 -64.5s-74.166 -26.5 -119.499 -26.5c-55.333 0 -97.166 16.667 -125.499 50s-42.5 81 -42.5 143
c0 38.667 7 77.334 21 116.001s33.5 73.5 58.5 104.5s54.667 56.167 89 75.5s71.833 29 112.5 29c44 0 79.333 -10.667 106 -32s40 -52 40 -92c0 -48 -25.833 -87 -77.5 -117s-128.5 -45 -230.5 -45h-22c-1.33301 -7.33301 -2 -15 -2 -23v-24zM369.998 385.999
c0 19.333 -5.33203 35.833 -15.999 49.5s-25.334 20.5 -44.001 20.5c-20.667 0 -40 -5 -58 -15s-34.333 -23.833 -49 -41.5s-27.334 -38.167 -38.001 -61.5s-19 -48 -25 -74h29c38.667 0 70.834 3 96.501 9s46.167 14.5 61.5 25.5s26.333 23.833 33 38.5s10 31 10 49z
M280.999 637.999c0 -17.333 -5.66699 -31.666 -17 -42.999s-25.666 -17 -42.999 -17s-31.666 5.66699 -42.999 17s-17 25.666 -17 42.999s5.66699 31.666 17 42.999s25.666 17 42.999 17s31.666 -5.66699 42.999 -17s17 -25.666 17 -42.999zM489.999 637.999
c0 -17.333 -5.66699 -31.666 -17 -42.999s-25.666 -17 -42.999 -17s-31.666 5.66699 -42.999 17s-17 25.666 -17 42.999s5.66699 31.666 17 42.999s25.666 17 42.999 17s31.666 -5.66699 42.999 -17s17 -25.666 17 -42.999z" />
    <glyph glyph-name="igrave" unicode="&#xec;" horiz-adv-x="268" 
d="M149 122c-4 -16 -5.99805 -29.333 -5.99805 -40c0 -12 3.16699 -20.667 9.5 -26s17.166 -8 32.499 -8c9.33301 0 21.666 1 36.999 3l3 -31c-23.333 -10.667 -43.833 -18.167 -61.5 -22.5s-34.5 -6.5 -50.5 -6.5c-22 0 -38.5 6.5 -49.5 19.5s-16.5 31.167 -16.5 54.5
c0 15.333 2.66699 34.333 8 57l56 232c2 7.33301 3.5 14.666 4.5 21.999s1.5 12.666 1.5 15.999c0 17.333 -6 29.833 -18 37.5s-32 11.5 -60 11.5l7 31c13.333 6.66699 29.5 12.334 48.5 17.001s36.167 7 51.5 7c21.333 0 37.833 -5.5 49.5 -16.5s17.5 -29.167 17.5 -54.5
c0 -15.333 -2.66699 -34.666 -8 -57.999zM256.002 566l-212 96l53 91l179 -153z" />
    <glyph glyph-name="iacute" unicode="&#xed;" horiz-adv-x="268" 
d="M149 122c-4 -16 -5.99805 -29.333 -5.99805 -40c0 -12 3.16699 -20.667 9.5 -26s17.166 -8 32.499 -8c9.33301 0 21.666 1 36.999 3l3 -31c-23.333 -10.667 -43.833 -18.167 -61.5 -22.5s-34.5 -6.5 -50.5 -6.5c-22 0 -38.5 6.5 -49.5 19.5s-16.5 31.167 -16.5 54.5
c0 15.333 2.66699 34.333 8 57l56 232c2 7.33301 3.5 14.666 4.5 21.999s1.5 12.666 1.5 15.999c0 17.333 -6 29.833 -18 37.5s-32 11.5 -60 11.5l7 31c13.333 6.66699 29.5 12.334 48.5 17.001s36.167 7 51.5 7c21.333 0 37.833 -5.5 49.5 -16.5s17.5 -29.167 17.5 -54.5
c0 -15.333 -2.66699 -34.666 -8 -57.999zM98.002 600l179 153l53 -91l-212 -96z" />
    <glyph glyph-name="icircumflex" unicode="&#xee;" horiz-adv-x="268" 
d="M200 649l-156 -85l-21 30l192 153l129 -155l-24 -28zM149 122c-4 -16 -5.99805 -29.333 -5.99805 -40c0 -12 3.16699 -20.667 9.5 -26s17.166 -8 32.499 -8c9.33301 0 21.666 1 36.999 3l3 -31c-23.333 -10.667 -43.833 -18.167 -61.5 -22.5s-34.5 -6.5 -50.5 -6.5
c-22 0 -38.5 6.5 -49.5 19.5s-16.5 31.167 -16.5 54.5c0 15.333 2.66699 34.333 8 57l56 232c2 7.33301 3.5 14.666 4.5 21.999s1.5 12.666 1.5 15.999c0 17.333 -6 29.833 -18 37.5s-32 11.5 -60 11.5l7 31c13.333 6.66699 29.5 12.334 48.5 17.001s36.167 7 51.5 7
c21.333 0 37.833 -5.5 49.5 -16.5s17.5 -29.167 17.5 -54.5c0 -15.333 -2.66699 -34.666 -8 -57.999z" />
    <glyph glyph-name="idieresis" unicode="&#xef;" horiz-adv-x="268" 
d="M149 122c-4 -16 -5.99805 -29.333 -5.99805 -40c0 -12 3.16699 -20.667 9.5 -26s17.166 -8 32.499 -8c9.33301 0 21.666 1 36.999 3l3 -31c-23.333 -10.667 -43.833 -18.167 -61.5 -22.5s-34.5 -6.5 -50.5 -6.5c-22 0 -38.5 6.5 -49.5 19.5s-16.5 31.167 -16.5 54.5
c0 15.333 2.66699 34.333 8 57l56 232c2 7.33301 3.5 14.666 4.5 21.999s1.5 12.666 1.5 15.999c0 17.333 -6 29.833 -18 37.5s-32 11.5 -60 11.5l7 31c13.333 6.66699 29.5 12.334 48.5 17.001s36.167 7 51.5 7c21.333 0 37.833 -5.5 49.5 -16.5s17.5 -29.167 17.5 -54.5
c0 -15.333 -2.66699 -34.666 -8 -57.999zM144.002 638c0 -17.333 -5.66699 -31.666 -17 -42.999s-25.666 -17 -42.999 -17s-31.666 5.66699 -42.999 17s-17 25.666 -17 42.999s5.66699 31.666 17 42.999s25.666 17 42.999 17s31.666 -5.66699 42.999 -17
s17 -25.666 17 -42.999zM353.002 638c0 -17.333 -5.66699 -31.666 -17 -42.999s-25.666 -17 -42.999 -17s-31.666 5.66699 -42.999 17s-17 25.666 -17 42.999s5.66699 31.666 17 42.999s25.666 17 42.999 17s31.666 -5.66699 42.999 -17s17 -25.666 17 -42.999z" />
    <glyph glyph-name="eth" unicode="&#xf0;" horiz-adv-x="518" 
d="M264 634c-36 27.333 -80.667 47.334 -134 60.001l20 31c68 -8.66699 126.667 -30.667 176 -66l116 47l17 -38l-96 -39c40 -36.667 70 -81 90 -133s30 -109 30 -171c0 -46.667 -6.33301 -90.667 -19 -132s-30.5 -77.333 -53.5 -108s-50.667 -54.834 -83 -72.501
s-68.166 -26.5 -107.499 -26.5c-28.667 0 -54.334 4.66699 -77.001 14s-42 22.5 -58 39.5s-28.333 37.333 -37 61s-13 49.5 -13 77.5c0 46.667 7.16699 89.834 21.5 129.501s33.666 74 57.999 103s52.333 51.833 84 68.5s64.834 25 99.501 25
c12 0 23.167 -1.16699 33.5 -3.5s20.833 -6.5 31.5 -12.5c-15.333 45.333 -37 83.666 -65 114.999l-153 -62l-17 38zM387 325.001c0 20 -0.831055 39.167 -2.49805 57.5s-4.16699 36.166 -7.5 53.499c-8.66699 6 -18.334 11.5 -29.001 16.5s-25.667 7.5 -45 7.5
c-23.333 0 -44.333 -6.33301 -63 -19s-34.667 -28.667 -48 -48c-19.333 -28 -34.333 -62 -45 -102s-16 -82.667 -16 -128c0 -39.333 7 -70.666 21 -93.999s38 -35 72 -35c18 0 34.667 4 50 12s29 19 41 33c23.333 27.333 41.166 63 53.499 107s18.5 90.333 18.5 139z" />
    <glyph glyph-name="ntilde" unicode="&#xf1;" horiz-adv-x="541" 
d="M390 362c3.33301 15.333 5.00098 27.333 5.00098 36c0 24 -11 36 -33 36c-15.333 0 -31.166 -5.33301 -47.499 -16s-32.166 -24 -47.499 -40s-29.666 -33.333 -42.999 -52s-25 -36.334 -35 -53.001l-58 -273h-91l75 354c3.33301 16.667 5 29.667 5 39
c0 17.333 -5.33301 29.666 -16 36.999s-30 11 -58 11l7 31c13.333 6.66699 28.666 12.334 45.999 17.001s34.666 7 51.999 7c18.667 0 33.167 -6.66699 43.5 -20s15.5 -33.333 15.5 -60c0 -6 -0.5 -14.5 -1.5 -25.5s-2.83301 -22.167 -5.5 -33.5
c11.333 18 24.166 35.833 38.499 53.5s30 33.5 47 47.5s35 25.333 54 34s38.833 13 59.5 13c31.333 0 53.666 -8.83301 66.999 -26.5s20 -39.5 20 -65.5c0 -11.333 -1.66699 -25.333 -5 -42l-53 -249l-4 -21.5c-1.33301 -7 -2 -13.167 -2 -18.5
c0 -12 3.16699 -20.667 9.5 -26s17.166 -8 32.499 -8c10 0 22 1 36 3l3 -31c-23.333 -10.667 -43.166 -18.167 -59.499 -22.5s-30.5 -6.5 -42.5 -6.5c-25.333 0 -43.5 6.5 -54.5 19.5s-16.5 31.167 -16.5 54.5c0 8 0.666992 16.833 2 26.5s3 19.834 5 30.501zM400.001 669
c16 0 29.166 3.66797 39.499 11.001s19.166 17.666 26.499 30.999l35 -15c-4 -12.667 -9 -25 -15 -37s-13.167 -22.833 -21.5 -32.5s-17.833 -17.334 -28.5 -23.001s-22.667 -8.5 -36 -8.5s-25.666 1.5 -36.999 4.5s-22 6.33301 -32 10l-28.5 10c-9 3 -17.833 4.5 -26.5 4.5
c-17.333 0 -30.5 -4 -39.5 -12s-17.167 -18.667 -24.5 -32l-33 14c2.66699 14 6.83398 27.333 12.501 40s12.5 23.834 20.5 33.501s17.333 17.5 28 23.5s22.667 9 36 9s25.5 -1.66699 36.5 -5s21.167 -6.83301 30.5 -10.5l28 -10.5c9.33301 -3.33301 19 -5 29 -5z" />
    <glyph glyph-name="ograve" unicode="&#xf2;" horiz-adv-x="518" 
d="M483 310c0 -43.333 -6.33203 -84.498 -18.999 -123.498s-30.5 -73.333 -53.5 -103s-50.667 -53.334 -83 -71.001s-68.166 -26.5 -107.499 -26.5c-28.667 0 -54.334 4.66699 -77.001 14s-42 22.5 -58 39.5s-28.333 37.333 -37 61s-13 49.5 -13 77.5
c0 46.667 7.16699 89.834 21.5 129.501s33.666 74 57.999 103s52.333 51.833 84 68.5s64.834 25 99.501 25c30 0 56.667 -5 80 -15s42.666 -23.833 57.999 -41.5s27 -38.334 35 -62.001s12 -48.834 12 -75.501zM387.001 325.002c0 42 -7.16797 74.3311 -21.501 96.998
s-38.166 34 -71.499 34c-20 0 -38.667 -5.66699 -56 -17s-32.666 -26.666 -45.999 -45.999c-19.333 -28 -34.333 -62 -45 -102s-16 -82.667 -16 -128c0 -39.333 7 -70.666 21 -93.999s38 -35 72 -35c18 0 34.667 4 50 12s29 19 41 33c23.333 27.333 41.166 63 53.499 107
s18.5 90.333 18.5 139zM401 566l-212 96l53 91l179 -153z" />
    <glyph glyph-name="oacute" unicode="&#xf3;" horiz-adv-x="518" 
d="M483 310c0 -43.333 -6.33203 -84.498 -18.999 -123.498s-30.5 -73.333 -53.5 -103s-50.667 -53.334 -83 -71.001s-68.166 -26.5 -107.499 -26.5c-28.667 0 -54.334 4.66699 -77.001 14s-42 22.5 -58 39.5s-28.333 37.333 -37 61s-13 49.5 -13 77.5
c0 46.667 7.16699 89.834 21.5 129.501s33.666 74 57.999 103s52.333 51.833 84 68.5s64.834 25 99.501 25c30 0 56.667 -5 80 -15s42.666 -23.833 57.999 -41.5s27 -38.334 35 -62.001s12 -48.834 12 -75.501zM387.001 325.002c0 42 -7.16797 74.3311 -21.501 96.998
s-38.166 34 -71.499 34c-20 0 -38.667 -5.66699 -56 -17s-32.666 -26.666 -45.999 -45.999c-19.333 -28 -34.333 -62 -45 -102s-16 -82.667 -16 -128c0 -39.333 7 -70.666 21 -93.999s38 -35 72 -35c18 0 34.667 4 50 12s29 19 41 33c23.333 27.333 41.166 63 53.499 107
s18.5 90.333 18.5 139zM223 600l179 153l53 -91l-212 -96z" />
    <glyph glyph-name="ocircumflex" unicode="&#xf4;" horiz-adv-x="518" 
d="M336 649l-156 -85l-21 30l192 153l129 -155l-24 -28zM483 310c0 -43.333 -6.33203 -84.498 -18.999 -123.498s-30.5 -73.333 -53.5 -103s-50.667 -53.334 -83 -71.001s-68.166 -26.5 -107.499 -26.5c-28.667 0 -54.334 4.66699 -77.001 14s-42 22.5 -58 39.5
s-28.333 37.333 -37 61s-13 49.5 -13 77.5c0 46.667 7.16699 89.834 21.5 129.501s33.666 74 57.999 103s52.333 51.833 84 68.5s64.834 25 99.501 25c30 0 56.667 -5 80 -15s42.666 -23.833 57.999 -41.5s27 -38.334 35 -62.001s12 -48.834 12 -75.501zM387.001 325.002
c0 42 -7.16797 74.3311 -21.501 96.998s-38.166 34 -71.499 34c-20 0 -38.667 -5.66699 -56 -17s-32.666 -26.666 -45.999 -45.999c-19.333 -28 -34.333 -62 -45 -102s-16 -82.667 -16 -128c0 -39.333 7 -70.666 21 -93.999s38 -35 72 -35c18 0 34.667 4 50 12s29 19 41 33
c23.333 27.333 41.166 63 53.499 107s18.5 90.333 18.5 139z" />
    <glyph glyph-name="otilde" unicode="&#xf5;" horiz-adv-x="518" 
d="M483 310c0 -43.333 -6.33203 -84.498 -18.999 -123.498s-30.5 -73.333 -53.5 -103s-50.667 -53.334 -83 -71.001s-68.166 -26.5 -107.499 -26.5c-28.667 0 -54.334 4.66699 -77.001 14s-42 22.5 -58 39.5s-28.333 37.333 -37 61s-13 49.5 -13 77.5
c0 46.667 7.16699 89.834 21.5 129.501s33.666 74 57.999 103s52.333 51.833 84 68.5s64.834 25 99.501 25c30 0 56.667 -5 80 -15s42.666 -23.833 57.999 -41.5s27 -38.334 35 -62.001s12 -48.834 12 -75.501zM387.001 325.002c0 42 -7.16797 74.3311 -21.501 96.998
s-38.166 34 -71.499 34c-20 0 -38.667 -5.66699 -56 -17s-32.666 -26.666 -45.999 -45.999c-19.333 -28 -34.333 -62 -45 -102s-16 -82.667 -16 -128c0 -39.333 7 -70.666 21 -93.999s38 -35 72 -35c18 0 34.667 4 50 12s29 19 41 33c23.333 27.333 41.166 63 53.499 107
s18.5 90.333 18.5 139zM397 669c16 0 29.166 3.66797 39.499 11.001s19.166 17.666 26.499 30.999l35 -15c-4 -12.667 -9 -25 -15 -37s-13.167 -22.833 -21.5 -32.5s-17.833 -17.334 -28.5 -23.001s-22.667 -8.5 -36 -8.5s-25.666 1.5 -36.999 4.5s-22 6.33301 -32 10
l-28.5 10c-9 3 -17.833 4.5 -26.5 4.5c-17.333 0 -30.5 -4 -39.5 -12s-17.167 -18.667 -24.5 -32l-33 14c2.66699 14 6.83398 27.333 12.501 40s12.5 23.834 20.5 33.501s17.333 17.5 28 23.5s22.667 9 36 9s25.5 -1.66699 36.5 -5s21.167 -6.83301 30.5 -10.5l28 -10.5
c9.33301 -3.33301 19 -5 29 -5z" />
    <glyph glyph-name="odieresis" unicode="&#xf6;" horiz-adv-x="518" 
d="M483 310c0 -43.333 -6.33203 -84.498 -18.999 -123.498s-30.5 -73.333 -53.5 -103s-50.667 -53.334 -83 -71.001s-68.166 -26.5 -107.499 -26.5c-28.667 0 -54.334 4.66699 -77.001 14s-42 22.5 -58 39.5s-28.333 37.333 -37 61s-13 49.5 -13 77.5
c0 46.667 7.16699 89.834 21.5 129.501s33.666 74 57.999 103s52.333 51.833 84 68.5s64.834 25 99.501 25c30 0 56.667 -5 80 -15s42.666 -23.833 57.999 -41.5s27 -38.334 35 -62.001s12 -48.834 12 -75.501zM387.001 325.002c0 42 -7.16797 74.3311 -21.501 96.998
s-38.166 34 -71.499 34c-20 0 -38.667 -5.66699 -56 -17s-32.666 -26.666 -45.999 -45.999c-19.333 -28 -34.333 -62 -45 -102s-16 -82.667 -16 -128c0 -39.333 7 -70.666 21 -93.999s38 -35 72 -35c18 0 34.667 4 50 12s29 19 41 33c23.333 27.333 41.166 63 53.499 107
s18.5 90.333 18.5 139zM291 638c0 -17.333 -5.66699 -31.666 -17 -42.999s-25.666 -17 -42.999 -17s-31.666 5.66699 -42.999 17s-17 25.666 -17 42.999s5.66699 31.666 17 42.999s25.666 17 42.999 17s31.666 -5.66699 42.999 -17s17 -25.666 17 -42.999zM500 638
c0 -17.333 -5.66699 -31.666 -17 -42.999s-25.666 -17 -42.999 -17s-31.666 5.66699 -42.999 17s-17 25.666 -17 42.999s5.66699 31.666 17 42.999s25.666 17 42.999 17s31.666 -5.66699 42.999 -17s17 -25.666 17 -42.999z" />
    <glyph glyph-name="divide" unicode="&#xf7;" horiz-adv-x="620" 
d="M65 298h505l-10 -53h-505zM417 482c0 -19.333 -6.33301 -35.333 -19 -48s-27.667 -19 -45 -19c-18 0 -33.167 6.16699 -45.5 18.5s-18.5 27.833 -18.5 46.5c0 18 6.16699 33.5 18.5 46.5s27.5 19.5 45.5 19.5c17.333 0 32.333 -6.33301 45 -19s19 -27.667 19 -45zM342 56
c0 -19.333 -6.33301 -35.333 -19 -48s-27.667 -19 -45 -19c-18 0 -33.167 6.16699 -45.5 18.5s-18.5 27.833 -18.5 46.5c0 18 6.16699 33.5 18.5 46.5s27.5 19.5 45.5 19.5c17.333 0 32.333 -6.33301 45 -19s19 -27.667 19 -45z" />
    <glyph glyph-name="oslash" unicode="&#xf8;" horiz-adv-x="518" 
d="M483 310c0 -43.333 -6.33496 -84.499 -19.002 -123.499s-30.5 -73.333 -53.5 -103s-50.667 -53.334 -83 -71.001s-68.166 -26.5 -107.499 -26.5s-73.666 9 -102.999 27l-50 -68l-34 25l51 70c-15.333 17.333 -27.333 37.666 -36 60.999s-13 49 -13 77
c0 46.667 7.16699 89.834 21.5 129.501s33.666 74 57.999 103s52.333 51.833 84 68.5s64.834 25 99.501 25c20.667 0 39.667 -2.5 57 -7.5s33 -11.833 47 -20.5l51 70l37 -27l-53 -73c30.667 -36 46 -81.333 46 -136zM130.998 163.001
c0 -9.33301 0.331055 -18.501 0.998047 -27.501s2 -17.167 4 -24.5l228 313c-15.333 21.333 -38.666 32 -69.999 32c-20 0 -38.667 -5.66699 -56 -17s-32.666 -26.666 -45.999 -45.999c-19.333 -28 -34.333 -62 -45 -102s-16 -82.667 -16 -128zM386.996 325
c0 19.333 -1.33203 35.667 -3.99902 49l-228 -309c15.333 -20.667 38.333 -31 69 -31c18 0 34.667 4 50 12s29 19 41 33c23.333 27.333 41.166 63 53.499 107s18.5 90.333 18.5 139z" />
    <glyph glyph-name="ugrave" unicode="&#xf9;" horiz-adv-x="537" 
d="M329 126c-11.333 -17.333 -23.8281 -34.332 -37.4951 -50.999s-28.5 -31.667 -44.5 -45s-33.333 -24 -52 -32s-38.334 -12 -59.001 -12c-31.333 0 -53.666 8.83301 -66.999 26.5s-20 39.5 -20 65.5c0 11.333 1.66699 25.333 5 42l50 234c3.33301 16.667 5 29.667 5 39
c0 17.333 -5.33301 29.666 -16 36.999s-30 11 -58 11l7 31c13.333 6.66699 28.666 12.334 45.999 17.001s34.666 7 51.999 7c18.667 0 33.834 -6.83301 45.501 -20.5s17.5 -34.834 17.5 -63.501c0 -8 -0.666992 -16.667 -2 -26s-3 -19.333 -5 -30l-48 -227
c-3.33301 -15.333 -5 -27.333 -5 -36c0 -24 11 -36 33 -36c15.333 0 31.166 5.33301 47.499 16s32.166 24 47.499 40s29.666 33.333 42.999 52s25 36.334 35 53.001l58 273h90l-77 -369c-3.33301 -14.667 -5 -25.667 -5 -33c0 -26.667 16.333 -40 49 -40
c4 0 8.33301 0.166992 13 0.5s9.66699 0.833008 15 1.5l3 -31c-36.667 -19.333 -70.334 -29 -101.001 -29c-24 0 -41.833 7.66699 -53.5 23s-17.5 35.666 -17.5 60.999c0 16 2 33 6 51zM376.005 566.001l-212 96l53 91l179 -153z" />
    <glyph glyph-name="uacute" unicode="&#xfa;" horiz-adv-x="537" 
d="M329 126c-11.333 -17.333 -23.8281 -34.332 -37.4951 -50.999s-28.5 -31.667 -44.5 -45s-33.333 -24 -52 -32s-38.334 -12 -59.001 -12c-31.333 0 -53.666 8.83301 -66.999 26.5s-20 39.5 -20 65.5c0 11.333 1.66699 25.333 5 42l50 234c3.33301 16.667 5 29.667 5 39
c0 17.333 -5.33301 29.666 -16 36.999s-30 11 -58 11l7 31c13.333 6.66699 28.666 12.334 45.999 17.001s34.666 7 51.999 7c18.667 0 33.834 -6.83301 45.501 -20.5s17.5 -34.834 17.5 -63.501c0 -8 -0.666992 -16.667 -2 -26s-3 -19.333 -5 -30l-48 -227
c-3.33301 -15.333 -5 -27.333 -5 -36c0 -24 11 -36 33 -36c15.333 0 31.166 5.33301 47.499 16s32.166 24 47.499 40s29.666 33.333 42.999 52s25 36.334 35 53.001l58 273h90l-77 -369c-3.33301 -14.667 -5 -25.667 -5 -33c0 -26.667 16.333 -40 49 -40
c4 0 8.33301 0.166992 13 0.5s9.66699 0.833008 15 1.5l3 -31c-36.667 -19.333 -70.334 -29 -101.001 -29c-24 0 -41.833 7.66699 -53.5 23s-17.5 35.666 -17.5 60.999c0 16 2 33 6 51zM218.005 600.001l179 153l53 -91l-212 -96z" />
    <glyph glyph-name="ucircumflex" unicode="&#xfb;" horiz-adv-x="537" 
d="M350 649l-156 -85l-21 30l192 153l129 -155l-24 -28zM329 126c-11.333 -17.333 -23.8281 -34.332 -37.4951 -50.999s-28.5 -31.667 -44.5 -45s-33.333 -24 -52 -32s-38.334 -12 -59.001 -12c-31.333 0 -53.666 8.83301 -66.999 26.5s-20 39.5 -20 65.5
c0 11.333 1.66699 25.333 5 42l50 234c3.33301 16.667 5 29.667 5 39c0 17.333 -5.33301 29.666 -16 36.999s-30 11 -58 11l7 31c13.333 6.66699 28.666 12.334 45.999 17.001s34.666 7 51.999 7c18.667 0 33.834 -6.83301 45.501 -20.5s17.5 -34.834 17.5 -63.501
c0 -8 -0.666992 -16.667 -2 -26s-3 -19.333 -5 -30l-48 -227c-3.33301 -15.333 -5 -27.333 -5 -36c0 -24 11 -36 33 -36c15.333 0 31.166 5.33301 47.499 16s32.166 24 47.499 40s29.666 33.333 42.999 52s25 36.334 35 53.001l58 273h90l-77 -369
c-3.33301 -14.667 -5 -25.667 -5 -33c0 -26.667 16.333 -40 49 -40c4 0 8.33301 0.166992 13 0.5s9.66699 0.833008 15 1.5l3 -31c-36.667 -19.333 -70.334 -29 -101.001 -29c-24 0 -41.833 7.66699 -53.5 23s-17.5 35.666 -17.5 60.999c0 16 2 33 6 51z" />
    <glyph glyph-name="udieresis" unicode="&#xfc;" horiz-adv-x="537" 
d="M329 126c-11.333 -17.333 -23.8281 -34.332 -37.4951 -50.999s-28.5 -31.667 -44.5 -45s-33.333 -24 -52 -32s-38.334 -12 -59.001 -12c-31.333 0 -53.666 8.83301 -66.999 26.5s-20 39.5 -20 65.5c0 11.333 1.66699 25.333 5 42l50 234c3.33301 16.667 5 29.667 5 39
c0 17.333 -5.33301 29.666 -16 36.999s-30 11 -58 11l7 31c13.333 6.66699 28.666 12.334 45.999 17.001s34.666 7 51.999 7c18.667 0 33.834 -6.83301 45.501 -20.5s17.5 -34.834 17.5 -63.501c0 -8 -0.666992 -16.667 -2 -26s-3 -19.333 -5 -30l-48 -227
c-3.33301 -15.333 -5 -27.333 -5 -36c0 -24 11 -36 33 -36c15.333 0 31.166 5.33301 47.499 16s32.166 24 47.499 40s29.666 33.333 42.999 52s25 36.334 35 53.001l58 273h90l-77 -369c-3.33301 -14.667 -5 -25.667 -5 -33c0 -26.667 16.333 -40 49 -40
c4 0 8.33301 0.166992 13 0.5s9.66699 0.833008 15 1.5l3 -31c-36.667 -19.333 -70.334 -29 -101.001 -29c-24 0 -41.833 7.66699 -53.5 23s-17.5 35.666 -17.5 60.999c0 16 2 33 6 51zM266.005 638.001c0 -17.333 -5.66699 -31.666 -17 -42.999s-25.666 -17 -42.999 -17
s-31.666 5.66699 -42.999 17s-17 25.666 -17 42.999s5.66699 31.666 17 42.999s25.666 17 42.999 17s31.666 -5.66699 42.999 -17s17 -25.666 17 -42.999zM475.005 638.001c0 -17.333 -5.66699 -31.666 -17 -42.999s-25.666 -17 -42.999 -17s-31.666 5.66699 -42.999 17
s-17 25.666 -17 42.999s5.66699 31.666 17 42.999s25.666 17 42.999 17s31.666 -5.66699 42.999 -17s17 -25.666 17 -42.999z" />
    <glyph glyph-name="yacute" unicode="&#xfd;" horiz-adv-x="463" 
d="M138 -2c-1.33301 28 -3.5 60.9951 -6.5 98.9951s-8.83301 84.667 -17.5 140l-18 119c-2.66699 16 -5.33398 29.5 -8.00098 40.5s-6.66699 19.833 -12 26.5s-12.833 11.334 -22.5 14.001s-22.834 4 -39.501 4l7 31c13.333 6.66699 27.833 12.334 43.5 17.001
s32.167 7 49.5 7c12 0 21.667 -2.16699 29 -6.5s13.333 -11.666 18 -21.999s8.66699 -23.833 12 -40.5s6.66602 -37.334 9.99902 -62.001l17 -118c4.66699 -30 7.66699 -56 9 -78s2 -40 2 -54c0 -6.66699 -0.166992 -12.5 -0.5 -17.5s-0.5 -9.16699 -0.5 -12.5h6l52 97
c22.667 42.667 41.334 80.834 56.001 114.501s26 63.334 34 89.001s13.667 47.667 17 66s5.33301 33.833 6 46.5l87 -15v-35l-258 -471c-16.667 -30 -32.5 -56 -47.5 -78s-30.667 -40.5 -47 -55.5s-33.666 -27 -51.999 -36s-38.833 -15.833 -61.5 -20.5l-17 60
c20 4 38.333 9.5 55 16.5s32.334 16.333 47.001 28s28.667 26.334 42 44.001s26.333 39.5 39 65.5zM192 599.995l179 153l53 -91l-212 -96z" />
    <glyph glyph-name="thorn" unicode="&#xfe;" horiz-adv-x="547" 
d="M145 64c5.33301 -9.33301 13.667 -16.834 25 -22.501s24 -8.5 38 -8.5c36 0 67 9.66699 93 29s47.5 44.333 64.5 75s29.667 65 38 103s12.5 75.667 12.5 113c0 32 -4.66699 54.167 -14 66.5s-20.666 18.5 -33.999 18.5c-14.667 0 -30.334 -5.33301 -47.001 -16
s-33 -24 -49 -40s-31.167 -33.667 -45.5 -53s-26.5 -37.666 -36.5 -54.999zM210.001 367.999c10.667 16.667 23.001 33 37.001 49s29.333 30.333 46 43s34.334 23 53.001 31s38 12 58 12c34 0 60.5 -12.167 79.5 -36.5s28.5 -61.5 28.5 -111.5
c0 -46 -7.16699 -91.167 -21.5 -135.5s-34.833 -83.833 -61.5 -118.5s-59.334 -62.5 -98.001 -83.5s-82 -31.5 -130 -31.5c-26 0 -49.333 3.66699 -70 11l-19 -90c-2.66699 -11.333 -4 -21.666 -4 -30.999c0 -14 5 -23.5 15 -28.5s28 -8.16699 54 -9.5l-7 -34h-240l7 34
c14.667 0.666992 26.667 2.16699 36 4.5s17 6 23 11s10.833 11.833 14.5 20.5s7.16699 20 10.5 34l145 679c3.33301 15.333 5 27 5 35c0 19.333 -5.66699 32.5 -17 39.5s-29 11.167 -53 12.5l7 30l143 26h13c1.33301 -4.66699 2.66602 -11 3.99902 -19s2 -18 2 -30
c0 -14.667 -1.16699 -31.834 -3.5 -51.501s-6.5 -42.5 -12.5 -68.5z" />
    <glyph glyph-name="ydieresis" unicode="&#xff;" horiz-adv-x="463" 
d="M138 -2c-1.33301 28 -3.5 60.9951 -6.5 98.9951s-8.83301 84.667 -17.5 140l-18 119c-2.66699 16 -5.33398 29.5 -8.00098 40.5s-6.66699 19.833 -12 26.5s-12.833 11.334 -22.5 14.001s-22.834 4 -39.501 4l7 31c13.333 6.66699 27.833 12.334 43.5 17.001
s32.167 7 49.5 7c12 0 21.667 -2.16699 29 -6.5s13.333 -11.666 18 -21.999s8.66699 -23.833 12 -40.5s6.66602 -37.334 9.99902 -62.001l17 -118c4.66699 -30 7.66699 -56 9 -78s2 -40 2 -54c0 -6.66699 -0.166992 -12.5 -0.5 -17.5s-0.5 -9.16699 -0.5 -12.5h6l52 97
c22.667 42.667 41.334 80.834 56.001 114.501s26 63.334 34 89.001s13.667 47.667 17 66s5.33301 33.833 6 46.5l87 -15v-35l-258 -471c-16.667 -30 -32.5 -56 -47.5 -78s-30.667 -40.5 -47 -55.5s-33.666 -27 -51.999 -36s-38.833 -15.833 -61.5 -20.5l-17 60
c20 4 38.333 9.5 55 16.5s32.334 16.333 47.001 28s28.667 26.334 42 44.001s26.333 39.5 39 65.5zM240 637.995c0 -17.333 -5.66699 -31.666 -17 -42.999s-25.666 -17 -42.999 -17s-31.666 5.66699 -42.999 17s-17 25.666 -17 42.999s5.66699 31.666 17 42.999
s25.666 17 42.999 17s31.666 -5.66699 42.999 -17s17 -25.666 17 -42.999zM449 637.995c0 -17.333 -5.66699 -31.666 -17 -42.999s-25.666 -17 -42.999 -17s-31.666 5.66699 -42.999 17s-17 25.666 -17 42.999s5.66699 31.666 17 42.999s25.666 17 42.999 17
s31.666 -5.66699 42.999 -17s17 -25.666 17 -42.999z" />
    <glyph glyph-name="afii57929" unicode="&#x2bc;" horiz-adv-x="264" 
d="M281 616c0 -22 -4.83398 -42.5 -14.501 -61.5s-22.167 -36.167 -37.5 -51.5s-33.166 -28.5 -53.499 -39.5s-40.833 -19.5 -61.5 -25.5l-17 29c28.667 11.333 52.5 24.5 71.5 39.5s28.5 30.167 28.5 45.5c0 10 -3 16.667 -9 20s-13 7 -21 11c-22 10 -33 28.333 -33 55
c0 20.667 6.16699 37 18.5 49s28.833 18 49.5 18c23.333 0 42.333 -8.33301 57 -25s22 -38 22 -64z" />
    <glyph glyph-name="tilde" unicode="&#x2dc;" horiz-adv-x="545" 
d="M331 669c16 0 29.166 3.66797 39.499 11.001s19.166 17.666 26.499 30.999l35 -15c-4 -12.667 -9 -25 -15 -37s-13.167 -22.833 -21.5 -32.5s-17.833 -17.334 -28.5 -23.001s-22.667 -8.5 -36 -8.5s-25.666 1.5 -36.999 4.5s-22 6.33301 -32 10l-28.5 10
c-9 3 -17.833 4.5 -26.5 4.5c-17.333 0 -30.5 -4 -39.5 -12s-17.167 -18.667 -24.5 -32l-33 14c2.66699 14 6.83398 27.333 12.501 40s12.5 23.834 20.5 33.501s17.333 17.5 28 23.5s22.667 9 36 9s25.5 -1.66699 36.5 -5s21.167 -6.83301 30.5 -10.5l28 -10.5
c9.33301 -3.33301 19 -5 29 -5z" />
    <glyph glyph-name="endash" unicode="&#x2013;" horiz-adv-x="591" 
d="M50 252l9 51h481l-9 -51h-481z" />
    <glyph glyph-name="emdash" unicode="&#x2014;" horiz-adv-x="815" 
d="M50 252l9 51h705l-9 -51h-705z" />
    <glyph glyph-name="quoteleft" unicode="&#x2018;" horiz-adv-x="264" 
d="M101 527c0 22 4.83301 42.5 14.5 61.5s22.167 36.167 37.5 51.5s33 28.5 53 39.5s40.667 19.5 62 25.5l17 -29c-28.667 -11.333 -52.5 -24.5 -71.5 -39.5s-28.5 -30.167 -28.5 -45.5c0 -10 3 -16.667 9 -20s13 -7 21 -11c22 -10 33 -28.333 33 -55
c0 -20.667 -6.16699 -37 -18.5 -49s-28.833 -18 -49.5 -18c-23.333 0 -42.333 8.33301 -57 25s-22 38 -22 64z" />
    <glyph glyph-name="quoteright" unicode="&#x2019;" horiz-adv-x="264" 
d="M281 616c0 -22 -4.83398 -42.5 -14.501 -61.5s-22.167 -36.167 -37.5 -51.5s-33.166 -28.5 -53.499 -39.5s-40.833 -19.5 -61.5 -25.5l-17 29c28.667 11.333 52.5 24.5 71.5 39.5s28.5 30.167 28.5 45.5c0 10 -3 16.667 -9 20s-13 7 -21 11c-22 10 -33 28.333 -33 55
c0 20.667 6.16699 37 18.5 49s28.833 18 49.5 18c23.333 0 42.333 -8.33301 57 -25s22 -38 22 -64z" />
    <glyph glyph-name="quotedblleft" unicode="&#x201c;" horiz-adv-x="465" 
d="M101 527c0 22 4.83301 42.5 14.5 61.5s22.167 36.167 37.5 51.5s33 28.5 53 39.5s40.667 19.5 62 25.5l17 -29c-28.667 -11.333 -52.5 -24.5 -71.5 -39.5s-28.5 -30.167 -28.5 -45.5c0 -10 3 -16.667 9 -20s13 -7 21 -11c22 -10 33 -28.333 33 -55
c0 -20.667 -6.16699 -37 -18.5 -49s-28.833 -18 -49.5 -18c-23.333 0 -42.333 8.33301 -57 25s-22 38 -22 64zM302 527c0 22 4.83301 42.5 14.5 61.5s22.167 36.167 37.5 51.5s33 28.5 53 39.5s40.667 19.5 62 25.5l17 -29c-28.667 -11.333 -52.5 -24.5 -71.5 -39.5
s-28.5 -30.167 -28.5 -45.5c0 -10 3 -16.667 9 -20s13 -7 21 -11c22 -10 33 -28.333 33 -55c0 -20.667 -6.16699 -37 -18.5 -49s-28.833 -18 -49.5 -18c-23.333 0 -42.333 8.33301 -57 25s-22 38 -22 64z" />
    <glyph glyph-name="quotedblright" unicode="&#x201d;" horiz-adv-x="465" 
d="M482 616c0 -22 -4.83398 -42.5 -14.501 -61.5s-22.167 -36.167 -37.5 -51.5s-33.166 -28.5 -53.499 -39.5s-40.833 -19.5 -61.5 -25.5l-17 29c28.667 11.333 52.5 24.5 71.5 39.5s28.5 30.167 28.5 45.5c0 10 -3 16.667 -9 20s-13 7 -21 11c-22 10 -33 28.333 -33 55
c0 20.667 6.16699 37 18.5 49s28.833 18 49.5 18c23.333 0 42.333 -8.33301 57 -25s22 -38 22 -64zM280.999 616c0 -22 -4.83398 -42.5 -14.501 -61.5s-22.167 -36.167 -37.5 -51.5s-33.166 -28.5 -53.499 -39.5s-40.833 -19.5 -61.5 -25.5l-17 29
c28.667 11.333 52.5 24.5 71.5 39.5s28.5 30.167 28.5 45.5c0 10 -3 16.667 -9 20s-13 7 -21 11c-22 10 -33 28.333 -33 55c0 20.667 6.16699 37 18.5 49s28.833 18 49.5 18c23.333 0 42.333 -8.33301 57 -25s22 -38 22 -64z" />
    <glyph glyph-name="quotedblbase" unicode="&#x201e;" horiz-adv-x="465" 
d="M390 41c0 -22 -4.83398 -42.5 -14.501 -61.5s-22.167 -36.167 -37.5 -51.5s-33.166 -28.5 -53.499 -39.5s-40.833 -19.5 -61.5 -25.5l-17 29c28.667 11.333 52.5 24.5 71.5 39.5s28.5 30.167 28.5 45.5c0 10 -3 16.667 -9 20s-13 7 -21 11c-22 10 -33 28.333 -33 55
c0 20.667 6.16699 37 18.5 49s28.833 18 49.5 18c23.333 0 42.333 -8.33301 57 -25s22 -38 22 -64zM188.999 41c0 -22 -4.83398 -42.5 -14.501 -61.5s-22.167 -36.167 -37.5 -51.5s-33.166 -28.5 -53.499 -39.5s-40.833 -19.5 -61.5 -25.5l-17 29
c28.667 11.333 52.5 24.5 71.5 39.5s28.5 30.167 28.5 45.5c0 10 -3 16.667 -9 20s-13 7 -21 11c-22 10 -33 28.333 -33 55c0 20.667 6.16699 37 18.5 49s28.833 18 49.5 18c23.333 0 42.333 -8.33301 57 -25s22 -38 22 -64z" />
    <glyph glyph-name="bullet" unicode="&#x2022;" horiz-adv-x="517" 
d="M429 335c0 -24.667 -4.5 -47.667 -13.5 -69s-21.5 -40 -37.5 -56s-34.5 -28.667 -55.5 -38s-43.5 -14 -67.5 -14s-46.5 4.66699 -67.5 14s-39.333 22 -55 38s-28 34.667 -37 56s-13.5 44.333 -13.5 69s4.5 47.667 13.5 69s21.333 40 37 56s34 28.667 55 38
s43.5 14 67.5 14s46.5 -4.66699 67.5 -14s39.5 -22 55.5 -38s28.5 -34.667 37.5 -56s13.5 -44.333 13.5 -69z" />
    <glyph glyph-name="ellipsis" unicode="&#x2026;" horiz-adv-x="738" 
d="M663 63c0 -10.667 -2 -20.667 -6 -30s-9.16699 -17.5 -15.5 -24.5s-13.833 -12.5 -22.5 -16.5s-18 -6 -28 -6c-20 0 -36.833 7.5 -50.5 22.5s-20.5 33.167 -20.5 54.5c0 20.667 6.83301 38 20.5 52s30.167 21 49.5 21c20 0 37.167 -7 51.5 -21s21.5 -31.333 21.5 -52z
M188 63c0 -21.333 -7 -39.5 -21 -54.5s-30.667 -22.5 -50 -22.5c-20 0 -37 7.5 -51 22.5s-21 33.167 -21 54.5c0 20.667 6.83301 38 20.5 52s30.167 21 49.5 21c20 0 37.167 -7 51.5 -21s21.5 -31.333 21.5 -52zM425 63c0 -21.333 -6.99902 -39.5 -20.999 -54.5
s-30.667 -22.5 -50 -22.5c-20 0 -36.833 7.5 -50.5 22.5s-20.5 33.167 -20.5 54.5c0 20.667 6.66699 38 20 52s29.666 21 48.999 21c20.667 0 38 -7 52 -21s21 -31.333 21 -52z" />
    <glyph glyph-name="guilsinglleft" unicode="&#x2039;" horiz-adv-x="310" 
d="M136 241l71 -180l-39 -30l-128 213l211 213l29 -31z" />
    <glyph glyph-name="guilsinglright" unicode="&#x203a;" horiz-adv-x="310" 
d="M174 247l-71 180l39 30l128 -213l-211 -213l-29 31z" />
    <glyph glyph-name="Euro" unicode="&#x20ac;" horiz-adv-x="626" 
d="M232 380c-3.33301 -13.333 -5.83203 -27.001 -7.49902 -41.001s-3.16699 -28 -4.5 -42h254l-10 -44h-246v-21c0 -37.333 2.83301 -68.666 8.5 -93.999s14.167 -45.833 25.5 -61.5s25.333 -26.834 42 -33.501s35.667 -10 57 -10c40 0 71.667 8.5 95 25.5
s42.666 45.167 57.999 84.5h66l-21 -105c-10 -6 -22.333 -12.167 -37 -18.5s-30.667 -12 -48 -17s-36 -9 -56 -12s-40.333 -4.5 -61 -4.5c-78 0 -136.333 22.5 -175 67.5s-58 107.167 -58 186.5v13h-94l10 44h86c1.33301 14.667 3 28.834 5 42.501s4.66699 27.167 8 40.5
h-85l10 44h86c12.667 41.333 29.834 79 51.501 113s46.667 63 75 87s59.833 42.667 94.5 56s71.667 20 111 20c24 0 45.167 -1.5 63.5 -4.5s34.333 -6.83301 48 -11.5s25.5 -10 35.5 -16s19 -12.333 27 -19l-22 -109h-68c-1.33301 19.333 -3 36 -5 50
s-6.16699 25.667 -12.5 35s-15.166 16.333 -26.499 21s-26.333 7 -45 7c-28.667 0 -54.834 -5.83301 -78.501 -17.5s-45 -27.667 -64 -48s-35.333 -44.5 -49 -72.5s-24.834 -58.333 -33.501 -91h256l-10 -44h-256z" />
    <glyph glyph-name="trademark" unicode="&#x2122;" horiz-adv-x="1048" 
d="M1041 654c-12.667 -0.666992 -22.834 -2.16504 -30.501 -4.49805s-13.834 -5.83301 -18.501 -10.5s-8 -10.667 -10 -18s-3.66699 -16.333 -5 -27l-23 -195c-0.666992 -5.33301 -1 -10 -1 -14v-8c0 -21.333 4.33301 -35.5 13 -42.5s21.667 -11.167 39 -12.5l-5 -30h-190
l5 30c11.333 0.666992 21 2 29 4s14.833 5.66699 20.5 11s10.167 12.833 13.5 22.5s6 22.5 8 38.5l15 128c2.66699 19.333 5.83398 37.5 9.50098 54.5s6.16699 27.833 7.5 32.5h-5c-1.33301 -4 -5.66602 -14.5 -12.999 -31.5s-16.666 -35.833 -27.999 -56.5l-128 -233h-48
l-31 233c-0.666992 5.33301 -1.33398 12.333 -2.00098 21l-2 26.5c-0.666992 9 -1.16699 17.167 -1.5 24.5s-0.5 12.666 -0.5 15.999h-6c-1.33301 -4.66699 -3.66602 -16 -6.99902 -34s-7.66602 -36.333 -12.999 -55l-33 -126c-2.66699 -9.33301 -4.5 -17.5 -5.5 -24.5
s-1.5 -13.167 -1.5 -18.5c0 -12.667 3.83301 -21 11.5 -25s20.167 -6.33301 37.5 -7l-6 -31h-168l6 31c20 0.666992 35.5 5.16699 46.5 13.5s20.5 27.166 28.5 56.499l54 202c3.33301 13.333 5 23.333 5 30c0 10 -3.5 17.167 -10.5 21.5s-19.167 7.16602 -36.5 8.49902l7 34
h145l30 -225c1.33301 -11.333 2.33301 -21.833 3 -31.5s1 -18.167 1 -25.5c0 -3.33301 -0.166992 -9.16602 -0.5 -17.499s-0.833008 -13.5 -1.5 -15.5h5c1.33301 3.33301 4.66602 13 9.99902 29s14.666 36 27.999 60l121 226h139zM279 647.002l-20.001 -0.00292969
c-16.667 0 -30.5 -1.66699 -41.5 -5s-20.5 -9 -28.5 -17s-14.833 -18.667 -20.5 -32s-11.5 -30.333 -17.5 -51h-41l29 147h357l-21 -147h-41v9c0 19.333 -1 35.333 -3 48s-5.5 22.5 -10.5 29.5s-12 11.833 -21 14.5s-20.167 4 -33.5 4h-15l-48 -246
c-3.33301 -15.333 -5 -27.333 -5 -36c0 -14 4.66699 -24 14 -30s26.666 -9.33301 51.999 -10l-6 -30h-224l6 30c16.667 0.666992 30.334 2.33398 41.001 5.00098s19.167 6.83398 25.5 12.501s11.333 13.334 15 23.001s6.83398 21.5 9.50098 35.5z" />
    <glyph glyph-name=".null" horiz-adv-x="0" 
 />
    <glyph glyph-name="nonmarkingreturn" horiz-adv-x="333" 
 />
    </font>
</defs>
</svg>
