<?xml version="1.0" encoding="utf-8"?>
<!-- Generator: Adobe Illustrator 16.0.0, SVG Export Plug-In . SVG Version: 6.00 Build 0)  -->
<!DOCTYPE svg PUBLIC "-//W3C//DTD SVG 1.1//EN" "http://www.w3.org/Graphics/SVG/1.1/DTD/svg11.dtd">
<svg version="1.1" id="Layer_1" xmlns="http://www.w3.org/2000/svg" xmlns:xlink="http://www.w3.org/1999/xlink" x="0px" y="0px"
	 width="17.631px" height="17.633px" viewBox="0 0 17.631 17.633" enable-background="new 0 0 17.631 17.633" xml:space="preserve">
<g>
	<path fill="#25AAE2" d="M17.631,6.299c0,1.73-1.415,3.148-3.148,3.148H3.778C1.693,9.447,0,7.754,0,5.67
		c0-2.086,1.693-3.779,3.778-3.779c0.473,0,0.925,0.1,1.338,0.256c-0.255,0.59-0.394,1.26-0.394,1.947c0,0.098,0,0.219,0,0.316
		h0.944c0-0.098,0-0.219,0-0.316C5.667,1.832,7.497,0,9.76,0c1.967,0,3.602,1.398,3.994,3.248c0.238-0.059,0.473-0.098,0.729-0.098
		C16.216,3.15,17.631,4.566,17.631,6.299z M11.336,11.965h3.146l-5.037,5.668l-5.037-5.668h3.146v-1.26h3.781V11.965z"/>
</g>
</svg>
